<?xml version="1.0" encoding="utf-8"?><svg xmlns="http://www.w3.org/2000/svg" xmlns:xlink="http://www.w3.org/1999/xlink"><symbol viewBox="0 0 220 60" id="app-store" xmlns="http://www.w3.org/2000/svg"><g data-name="Rectangle 40" stroke-width="2"><rect width="220" height="60" rx="30"/><rect width="218" height="58" x="1" y="1" rx="29"/></g><text data-name="App store" transform="translate(80 42)" font-family="SegoeUI,Segoe UI" font-size="14"><tspan x="0" y="0">APP STORE</tspan></text><text data-name="Download on the" transform="translate(80 25)" font-size="10" font-family="SegoeUI,Segoe UI"><tspan x="0" y="0">Download on the</tspan></text><path d="M30.336 40.9c-2.974-4.318-4.685-11.442-1.995-16.137a7.951 7.951 0 0 1 6.7-4.077h.078a8.889 8.889 0 0 1 3.245.829 5.786 5.786 0 0 0 1.84.541 5.947 5.947 0 0 0 1.78-.535 10.258 10.258 0 0 1 3.715-.933c.173 0 .347.008.515.025a7.509 7.509 0 0 1 5.918 3.233.263.263 0 0 1 .041.2.26.26 0 0 1-.115.169l-.025.016a6.887 6.887 0 0 0-3.234 5.753 6.682 6.682 0 0 0 4.029 6.123l.019.008a.263.263 0 0 1 .139.322l-.01.028a17.6 17.6 0 0 1-2.19 4.513c-1.256 1.845-2.679 3.937-5 3.981a5.566 5.566 0 0 1-2.529-.61 6.009 6.009 0 0 0-2.641-.64 6.376 6.376 0 0 0-2.774.661 6.211 6.211 0 0 1-2.343.63h-.116c-2.06 0-3.563-1.939-5.047-4.1zm9.6-20.124a.26.26 0 0 1-.237-.226 6.87 6.87 0 0 1 1.723-5.076A7.243 7.243 0 0 1 46.215 13a.264.264 0 0 1 .271.233 7.251 7.251 0 0 1-1.687 5.222 6.131 6.131 0 0 1-4.527 2.335c-.113 0-.225-.004-.336-.013z" data-name="Union 7"/></symbol><symbol viewBox="0 0 60 60" id="availability" xmlns="http://www.w3.org/2000/svg"><path d="M0 60V35.822h10.492l16.884-2.617 16.428 4.109v5.11l14.212-3.443L60 46.55l-22.154 12.2-16.8-4.713-8.673.971V60zm3.568-3.565h5.231V39.386H3.568zm33.835-1.514l18.441-10.153-.394-1.5-13.433 3.255L29.4 43.45l.846-3.462 9.992 2.434V40.1l-13.024-3.258-14.841 2.3V51.42l8.967-1zM20.466 15.539A15.558 15.558 0 0 1 36.005 0a15.558 15.558 0 0 1 15.54 15.54 15.558 15.558 0 0 1-15.54 15.54 15.558 15.558 0 0 1-15.54-15.54zm3.564 0a11.989 11.989 0 0 0 11.976 11.975A11.988 11.988 0 0 0 47.98 15.54 11.989 11.989 0 0 0 36.005 3.564 11.989 11.989 0 0 0 24.029 15.54zm10.168 10.293V24.4c-2.979-.53-4.762-2.441-4.762-5.247H33a1.37 1.37 0 0 0 .6 1.31 2.425 2.425 0 0 0 .6.279v-3.57c-2.979-.53-4.762-2.441-4.762-5.248s1.783-4.717 4.762-5.247v-1.43h3.565v1.43c2.98.53 4.762 2.441 4.762 5.247h-3.563a1.37 1.37 0 0 0-.6-1.31 2.436 2.436 0 0 0-.6-.279v3.572c2.98.53 4.762 2.441 4.762 5.248s-1.782 4.717-4.762 5.247v1.43zm3.565-5.087a2.477 2.477 0 0 0 .6-.28 1.372 1.372 0 0 0 .6-1.31 1.374 1.374 0 0 0-.6-1.312 2.494 2.494 0 0 0-.6-.279zm-4.161-10.133a1.374 1.374 0 0 0-.6 1.312 1.372 1.372 0 0 0 .6 1.312 2.464 2.464 0 0 0 .6.279v-3.181a2.506 2.506 0 0 0-.602.279z" data-name="Union 2"/></symbol><symbol viewBox="0 0 16 16" id="call-answer" xmlns="http://www.w3.org/2000/svg"><g data-name="Group 59"><g data-name="Group 58"><path d="M15.641 12.655l-2.471-2.477a1.286 1.286 0 0 0-1.817.034l-1.245 1.247-.246-.137a12.389 12.389 0 0 1-2.993-2.17A12.485 12.485 0 0 1 4.7 6.146c-.046-.084-.09-.164-.134-.241l.834-.836.411-.412a1.292 1.292 0 0 0 .033-1.821L3.373.359a1.285 1.285 0 0 0-1.816.034l-.7.7.019.019a4.039 4.039 0 0 0-.571 1.017A4.214 4.214 0 0 0 .05 3.158c-.326 2.711.91 5.188 4.264 8.548 4.637 4.647 8.374 4.3 8.535 4.279a4.167 4.167 0 0 0 1.03-.259 4.011 4.011 0 0 0 1.009-.573l.015.014.705-.692a1.3 1.3 0 0 0 .033-1.82z" data-name="Path 47"/></g></g></symbol><symbol viewBox="0 0 70 70" id="customizable" xmlns="http://www.w3.org/2000/svg"><path d="M27.918 70l-1.853-6.374a29.859 29.859 0 0 1-4.985-2.07l-5.822 3.2L5.243 54.741l3.2-5.822a29.9 29.9 0 0 1-2.069-4.985L0 42.082V27.918l6.374-1.853a29.856 29.856 0 0 1 2.07-4.985l-3.2-5.822L15.259 5.243l5.822 3.2a29.882 29.882 0 0 1 4.985-2.069L27.918 0h14.163l1.853 6.374a29.859 29.859 0 0 1 4.984 2.07l5.822-3.2 10.015 10.015-3.2 5.822a29.9 29.9 0 0 1 2.069 4.985l6.374 1.853v14.163l-6.374 1.853a29.856 29.856 0 0 1-2.07 4.985l3.2 5.822-10.015 10.015-5.822-3.2a29.916 29.916 0 0 1-4.985 2.069L42.082 70zm-5.812-12.56a25.727 25.727 0 0 0 6.149 2.553l1.113.3L31 65.9h8l1.629-5.606 1.113-.3a25.723 25.723 0 0 0 6.148-2.553l1-.577 5.125 2.817 5.66-5.66-2.816-5.125.577-1a25.717 25.717 0 0 0 2.553-6.149l.3-1.113L65.9 39v-8l-5.605-1.629-.3-1.113a25.724 25.724 0 0 0-2.553-6.149l-.577-1 2.816-5.125-5.66-5.66-5.125 2.816-1-.577a25.723 25.723 0 0 0-6.148-2.553l-1.113-.3L39 4.1h-8l-1.63 5.606-1.113.3a25.735 25.735 0 0 0-6.149 2.553l-1 .577-5.125-2.817-5.661 5.66 2.816 5.125-.577 1a25.714 25.714 0 0 0-2.553 6.149l-.3 1.113L4.1 31v8l5.605 1.629.3 1.113a25.727 25.727 0 0 0 2.553 6.149l.577 1-2.816 5.125 5.661 5.66 5.125-2.817zM17.2 35A17.818 17.818 0 0 1 35 17.2 17.818 17.818 0 0 1 52.8 35 17.818 17.818 0 0 1 35 52.8 17.818 17.818 0 0 1 17.2 35zm4.1 0A13.712 13.712 0 0 0 35 48.7 13.712 13.712 0 0 0 48.7 35 13.712 13.712 0 0 0 35 21.3 13.712 13.712 0 0 0 21.3 35zm4.1 0a9.605 9.605 0 0 1 9.6-9.595A9.605 9.605 0 0 1 44.595 35 9.606 9.606 0 0 1 35 44.6a9.606 9.606 0 0 1-9.595-9.6zm4.1 0a5.5 5.5 0 0 0 5.5 5.493A5.5 5.5 0 0 0 40.493 35 5.5 5.5 0 0 0 35 29.507 5.5 5.5 0 0 0 29.507 35z" data-name="Union 4"/></symbol><symbol viewBox="0 0 60 70" id="delivery" xmlns="http://www.w3.org/2000/svg"><path d="M30.003 0l-30 17.509v34.982l30 17.509 30-17.509V17.509zm0 32.467l-9.57-5.584 23.47-13.7 9.567 5.584zm9.564-21.817l-23.475 13.7-9.567-5.584 23.478-13.7zm-35.2 11.925l23.448 13.683v27.4L4.37 49.976zm27.818 41.084v-27.4L55.63 22.575v27.4z"/></symbol><symbol viewBox="0 0 60 60" id="ease-of-use" xmlns="http://www.w3.org/2000/svg"><path d="M0 52.522l45.8-45.8 7.478 7.478L7.478 60zm4.991 0l2.485 2.486 31.713-31.715-2.487-2.486zm34.208-34.211l2.485 2.486 6.6-6.6-2.487-2.486zm12.468 6.16l2.546-2.445L57.07 25l-2.546 2.445zm4.459-7.728v-3.53H60v3.53zM32.482 5.286l2.545-2.445 2.858 2.975-2.547 2.445zm20.108-.279l3.917-3.916 2.5 2.5-3.917 3.917zm-9.239-1.132V0h3.53v3.875z" data-name="Union 3"/></symbol><symbol viewBox="0 0 26 26" id="facebook" xmlns="http://www.w3.org/2000/svg"><path d="M26 13a13 13 0 1 0-13 13h.229V15.877h-2.793v-3.255h2.793v-2.4A3.91 3.91 0 0 1 17.4 5.937a22.991 22.991 0 0 1 2.5.128v2.9h-1.7c-1.348 0-1.609.641-1.609 1.581v2.073h3.223l-.42 3.255h-2.8V25.5A13.007 13.007 0 0 0 26 13zm0 0" data-name="Path 41"/></symbol><symbol viewBox="0 0 220 60" id="google-play" xmlns="http://www.w3.org/2000/svg"><g data-name="Rectangle 40" stroke-width="2"><rect width="220" height="60" rx="30"/><rect width="218" height="58" x="1" y="1" rx="29"/></g><text data-name="Google Play" transform="translate(80 42)" font-family="SegoeUI,Segoe UI" font-size="14"><tspan x="0" y="0">GOOGLE PLAY</tspan></text><text data-name="Android app on" transform="translate(80 25)" font-size="10" font-family="SegoeUI,Segoe UI"><tspan x="0" y="0">Android app on</tspan></text><path d="M52.707 27.719L29.84 14.345A2.518 2.518 0 0 0 28.568 14h-.026c-.059 0-.118 0-.176.008l-.079.008q-.069.008-.137.02l-.048.008a2.523 2.523 0 0 0-.821.31 2.638 2.638 0 0 0-1.279 2.273v26.746a2.638 2.638 0 0 0 1.279 2.271 2.521 2.521 0 0 0 .821.31l.045.006q.073.013.147.021l.074.007c.058 0 .116.007.174.008h.029a2.518 2.518 0 0 0 1.272-.345l22.864-13.37A2.637 2.637 0 0 0 54.002 30a2.638 2.638 0 0 0-1.295-2.281zm-9.043-2.656l-2.274 3.052-5.788-7.765zm7.938 5.237l-16 9.35 10.017-13.441 5.979 3.5a.344.344 0 0 1 0 .591z"/></symbol><symbol viewBox="0 0 26 26" id="instagram" xmlns="http://www.w3.org/2000/svg"><path d="M0 13a13 13 0 1 1 13 13A13 13 0 0 1 0 13zm9.922-7.42a5.481 5.481 0 0 0-1.812.347A3.819 3.819 0 0 0 5.927 8.11a5.477 5.477 0 0 0-.347 1.812c-.037.8-.045 1.05-.045 3.078s.009 2.282.045 3.078a5.476 5.476 0 0 0 .347 1.812 3.817 3.817 0 0 0 2.183 2.183 5.481 5.481 0 0 0 1.812.347c.8.036 1.05.045 3.078.045s2.282-.009 3.078-.045a5.481 5.481 0 0 0 1.812-.347 3.817 3.817 0 0 0 2.183-2.183 5.477 5.477 0 0 0 .347-1.812c.037-.8.045-1.05.045-3.078s-.008-2.282-.045-3.078a5.477 5.477 0 0 0-.347-1.812 3.818 3.818 0 0 0-2.183-2.183 5.482 5.482 0 0 0-1.812-.347c-.8-.037-1.05-.045-3.078-.045s-2.282.009-3.078.045zm.061 13.5a4.124 4.124 0 0 1-1.383-.261A2.472 2.472 0 0 1 7.181 17.4a4.13 4.13 0 0 1-.257-1.386c-.036-.785-.044-1.021-.044-3.014s.008-2.229.044-3.016A4.132 4.132 0 0 1 7.181 8.6 2.473 2.473 0 0 1 8.6 7.181a4.134 4.134 0 0 1 1.386-.257c.787-.036 1.023-.043 3.017-.043s2.229.008 3.016.044a4.131 4.131 0 0 1 1.386.257A2.472 2.472 0 0 1 18.819 8.6a4.125 4.125 0 0 1 .257 1.386c.036.787.043 1.023.043 3.016s-.008 2.229-.043 3.017a4.134 4.134 0 0 1-.257 1.386 2.472 2.472 0 0 1-1.419 1.414 4.124 4.124 0 0 1-1.386.257c-.787.036-1.023.043-3.017.043s-2.226-.007-3.014-.043zM9.167 13A3.833 3.833 0 1 0 13 9.167 3.833 3.833 0 0 0 9.167 13zm6.922-3.985a.9.9 0 1 0 .9-.9.9.9 0 0 0-.9.9zM10.512 13A2.488 2.488 0 1 1 13 15.488 2.488 2.488 0 0 1 10.512 13z" data-name="Union 8"/></symbol><symbol viewBox="0 0 6 4" id="lng-arrow" xmlns="http://www.w3.org/2000/svg"><path d="M3 4L0 0h6z" data-name="Polygon 1"/></symbol><symbol viewBox="0 0 12 16" id="location" xmlns="http://www.w3.org/2000/svg"><path d="M6 0a5.953 5.953 0 0 0-6 5.891 5.657 5.657 0 0 0 .525 2.4 37.124 37.124 0 0 0 5.222 7.591.338.338 0 0 0 .506 0A37.142 37.142 0 0 0 11.475 8.3 5.655 5.655 0 0 0 12 5.9 5.953 5.953 0 0 0 6 0zm0 8.95a3.092 3.092 0 0 1-3.117-3.06 3.117 3.117 0 0 1 6.234 0A3.092 3.092 0 0 1 6 8.95z" data-name="Path 48"/></symbol><symbol viewBox="0 0 140 34" id="logo" xmlns="http://www.w3.org/2000/svg"><path d="M2.686 3.555A3.2 3.2 0 0 0 3.775 6.04a4.078 4.078 0 0 0 2.759 1 4.2 4.2 0 0 0 2.831-1 3.2 3.2 0 0 0 1.089-2.485A3.322 3.322 0 0 0 9.365.966 3.932 3.932 0 0 0 6.534 0a3.918 3.918 0 0 0-2.795 1 3.421 3.421 0 0 0-1.053 2.59zM6.42 26.1L9.033 8.5h-6.42L0 26.1zm11.107-.035L18.62 18.5h3.884a12.792 12.792 0 0 0 8.094-2.451 7.955 7.955 0 0 0 3.085-6.627A6.794 6.794 0 0 0 31.143 4 9.358 9.358 0 0 0 24.9 1.825H14.338L10.78 26.1zm6.171-18.674a3.256 3.256 0 0 1 2.105.69 2.156 2.156 0 0 1 .8 1.76 2.664 2.664 0 0 1-.98 2.244 4.425 4.425 0 0 1-2.722.794H19.42l.8-5.523zm12.995 1.07l-2.613 17.6h6.425l1.27-8.457a4.671 4.671 0 0 1 1.416-2.9 4.369 4.369 0 0 1 3.049-1.036c.29 0 .581.035.98.069a4.53 4.53 0 0 1 .944.173l.871-5.7a7.333 7.333 0 0 0-.871-.138 2.2 2.2 0 0 0-.544-.035 6.762 6.762 0 0 0-2.722.587 6.585 6.585 0 0 0-2.25 1.726l.254-1.864zM69.328 16.5a7.849 7.849 0 0 0-2.722-6.11 10.055 10.055 0 0 0-7.042-2.416 10.422 10.422 0 0 0-7.586 2.9 9.7 9.7 0 0 0-3.013 7.18 7.8 7.8 0 0 0 2.65 6.11 10.071 10.071 0 0 0 6.969 2.382 10.654 10.654 0 0 0 7.659-2.9 9.492 9.492 0 0 0 3.049-7.18zM55.32 17.6a3.829 3.829 0 0 1 1.125-2.934 4.232 4.232 0 0 1 3.049-1.07 3.459 3.459 0 0 1 2.468.932 3.12 3.12 0 0 1 .98 2.347 3.967 3.967 0 0 1-1.162 2.865 3.988 3.988 0 0 1-2.94 1.139 3.516 3.516 0 0 1-2.541-.932 3.143 3.143 0 0 1-.98-2.382zM81.597 3.417A3.257 3.257 0 0 0 80.544 1a3.628 3.628 0 0 0-2.613-.966A3.628 3.628 0 0 0 75.32 1a3.269 3.269 0 0 0-1.016 2.485A3.171 3.171 0 0 0 75.32 5.9a3.628 3.628 0 0 0 2.613.966 3.628 3.628 0 0 0 2.613-.966 3.183 3.183 0 0 0 1.053-2.382zM71.361 26.786a2.4 2.4 0 0 1-.581 1.277 1.87 1.87 0 0 1-1.343.414 4.159 4.159 0 0 1-.617-.035l-.762-.1-.8 5.281c.4.1.871.173 1.416.276a12.973 12.973 0 0 0 1.633.1 7.269 7.269 0 0 0 5.045-1.657 8.1 8.1 0 0 0 2.323-5.074l2.759-18.674h-6.459zm20.759-5.109a3.73 3.73 0 0 1-2.468-.759 3.383 3.383 0 0 1-1.27-2.175h13.466a13.9 13.9 0 0 0 .218-1.45c.036-.414.036-.794.036-1.174a7.465 7.465 0 0 0-2.613-5.9 10.031 10.031 0 0 0-6.824-2.278 10.121 10.121 0 0 0-7.4 2.934 9.766 9.766 0 0 0-2.976 7.249 7.8 7.8 0 0 0 2.613 6.11 10.091 10.091 0 0 0 6.9 2.347 10.64 10.64 0 0 0 6.018-1.694 9.158 9.158 0 0 0 3.63-4.556h-6.423a2.643 2.643 0 0 1-1.089 1.069 3.8 3.8 0 0 1-1.742.345zm.653-8.768a3.863 3.863 0 0 1 2.214.552 3.089 3.089 0 0 1 1.234 1.588h-7.11a4.691 4.691 0 0 1 1.56-1.549 3.856 3.856 0 0 1 2.069-.552zm21.347 8.009a3.605 3.605 0 0 1-2.577-.932 3.143 3.143 0 0 1-.98-2.382 4 4 0 0 1 1.089-2.934 4.085 4.085 0 0 1 3.013-1.07 3.326 3.326 0 0 1 2 .621 3.194 3.194 0 0 1 1.2 1.622h6.243a7.782 7.782 0 0 0-2.9-5.7 10.006 10.006 0 0 0-6.642-2.209 10.225 10.225 0 0 0-7.477 2.9 9.741 9.741 0 0 0-2.94 7.214 7.849 7.849 0 0 0 2.722 6.11 9.867 9.867 0 0 0 6.9 2.416 10.862 10.862 0 0 0 6.86-2.071 9.29 9.29 0 0 0 3.376-5.868h-6.352a3.2 3.2 0 0 1-1.343 1.726 4.08 4.08 0 0 1-2.192.591zM140 8.457h-3.92l.98-6.179-6.57 1-.835 5.178h-2.795l-.8 5.454h2.722l-.907 5.626c-.363 2.313 0 4.073 1.125 5.247s3.013 1.76 5.662 1.76a12.973 12.973 0 0 0 1.633-.1 7.092 7.092 0 0 0 1.416-.311l.8-5.454a7.806 7.806 0 0 1-1.162.414 3.605 3.605 0 0 1-1.089.138 2.356 2.356 0 0 1-1.6-.414 1.429 1.429 0 0 1-.29-1.346l.871-5.523h3.956z" data-name="Path 1"/></symbol><symbol viewBox="0 0 16 12" id="mail" xmlns="http://www.w3.org/2000/svg"><path d="M1.429 12a1.406 1.406 0 0 1-.936-.337l4.533-4.328.313.217q.509.358.826.558a5.168 5.168 0 0 0 .844.409 2.675 2.675 0 0 0 .982.209h.018a2.676 2.676 0 0 0 .982-.209 5.185 5.185 0 0 0 .844-.409q.317-.2.826-.558l.314-.215 4.533 4.327a1.405 1.405 0 0 1-.936.337zm10.577-5.36q1.277-.851 3.1-2.03A4.866 4.866 0 0 0 16 3.869v6.584zM0 3.869a4.679 4.679 0 0 0 .9.742Q2.8 5.841 4 6.639l-4 3.814zm8 3.767h-.009a1.481 1.481 0 0 1-.446-.077 2.768 2.768 0 0 1-.513-.23q-.273-.153-.464-.277t-.482-.324l-.246-.169-.133-.091-.9-.6-1.438-.954L1.536 3.7a4.341 4.341 0 0 1-1.045-.986A1.941 1.941 0 0 1 0 1.551 1.668 1.668 0 0 1 .371.443 1.3 1.3 0 0 1 1.429 0h13.142a1.414 1.414 0 0 1 1 .4 1.279 1.279 0 0 1 .429.964 2.186 2.186 0 0 1-.437 1.287A4.153 4.153 0 0 1 14.474 3.7L11.2 5.869l-.9.6-.134.091-.246.169q-.29.2-.482.324t-.464.277a2.762 2.762 0 0 1-.513.23 1.482 1.482 0 0 1-.446.077z" data-name="Union 9"/></symbol><symbol viewBox="0 0 1080 960" id="path-2" xmlns="http://www.w3.org/2000/svg"><path d="M460.58 0h619.4s.022 708.439.022 960c0-48.444-108.986-208.446-501.628-106.247S0 872.535 0 607.809 460.58 0 460.58 0z" data-name="Path 2"/></symbol><symbol viewBox="0 0 700 340" id="path-3" xmlns="http://www.w3.org/2000/svg"><path d="M700 0H0v340S31.451 89.045 280 176.135 700 0 700 0z" data-name="Path 3"/></symbol><symbol viewBox="0 0 16 14" id="send-button" xmlns="http://www.w3.org/2000/svg"><path d="M0 14l16-7L0 0v5.444L11.429 7 0 8.556z" data-name="Path 54"/></symbol><symbol viewBox="0 0 26 26" id="twitter" xmlns="http://www.w3.org/2000/svg"><path d="M13 0a13 13 0 1 0 13 13A13 13 0 0 0 13 0zm5.936 10.136q.009.192.009.386a8.432 8.432 0 0 1-8.49 8.49 8.446 8.446 0 0 1-4.574-1.34 6.069 6.069 0 0 0 .712.041 5.987 5.987 0 0 0 3.707-1.278 2.987 2.987 0 0 1-2.788-2.073 2.974 2.974 0 0 0 1.348-.051 2.985 2.985 0 0 1-2.394-2.925v-.038a2.963 2.963 0 0 0 1.351.373 2.986 2.986 0 0 1-.924-3.984 8.472 8.472 0 0 0 6.15 3.118 2.985 2.985 0 0 1 5.085-2.721 5.985 5.985 0 0 0 1.895-.724 3 3 0 0 1-1.312 1.65 5.951 5.951 0 0 0 1.713-.47 6.064 6.064 0 0 1-1.488 1.545zm0 0"/></symbol></svg>