<?xml version="1.0" encoding="utf-8"?><svg xmlns="http://www.w3.org/2000/svg" xmlns:xlink="http://www.w3.org/1999/xlink"><symbol viewBox="0 0 60 60" id="availability" xmlns="http://www.w3.org/2000/svg"><path d="M0 60V35.822h10.492l16.884-2.617 16.428 4.109v5.11l14.212-3.443L60 46.55l-22.154 12.2-16.8-4.713-8.673.971V60zm3.568-3.565h5.231V39.386H3.568zm33.835-1.514l18.441-10.153-.394-1.5-13.433 3.255L29.4 43.45l.846-3.462 9.992 2.434V40.1l-13.024-3.258-14.841 2.3V51.42l8.967-1zM20.466 15.539A15.558 15.558 0 0 1 36.005 0a15.558 15.558 0 0 1 15.54 15.54 15.558 15.558 0 0 1-15.54 15.54 15.558 15.558 0 0 1-15.54-15.54zm3.564 0a11.989 11.989 0 0 0 11.976 11.975A11.988 11.988 0 0 0 47.98 15.54 11.989 11.989 0 0 0 36.005 3.564 11.989 11.989 0 0 0 24.029 15.54zm10.168 10.293V24.4c-2.979-.53-4.762-2.441-4.762-5.247H33a1.37 1.37 0 0 0 .6 1.31 2.425 2.425 0 0 0 .6.279v-3.57c-2.979-.53-4.762-2.441-4.762-5.248s1.783-4.717 4.762-5.247v-1.43h3.565v1.43c2.98.53 4.762 2.441 4.762 5.247h-3.563a1.37 1.37 0 0 0-.6-1.31 2.436 2.436 0 0 0-.6-.279v3.572c2.98.53 4.762 2.441 4.762 5.248s-1.782 4.717-4.762 5.247v1.43zm3.565-5.087a2.477 2.477 0 0 0 .6-.28 1.372 1.372 0 0 0 .6-1.31 1.374 1.374 0 0 0-.6-1.312 2.494 2.494 0 0 0-.6-.279zm-4.161-10.133a1.374 1.374 0 0 0-.6 1.312 1.372 1.372 0 0 0 .6 1.312 2.464 2.464 0 0 0 .6.279v-3.181a2.506 2.506 0 0 0-.602.279z" data-name="Union 2"/></symbol><symbol viewBox="0 0 70 70" id="customizable" xmlns="http://www.w3.org/2000/svg"><path d="M27.918 70l-1.853-6.374a29.859 29.859 0 0 1-4.985-2.07l-5.822 3.2L5.243 54.741l3.2-5.822a29.9 29.9 0 0 1-2.069-4.985L0 42.082V27.918l6.374-1.853a29.856 29.856 0 0 1 2.07-4.985l-3.2-5.822L15.259 5.243l5.822 3.2a29.882 29.882 0 0 1 4.985-2.069L27.918 0h14.163l1.853 6.374a29.859 29.859 0 0 1 4.984 2.07l5.822-3.2 10.015 10.015-3.2 5.822a29.9 29.9 0 0 1 2.069 4.985l6.374 1.853v14.163l-6.374 1.853a29.856 29.856 0 0 1-2.07 4.985l3.2 5.822-10.015 10.015-5.822-3.2a29.916 29.916 0 0 1-4.985 2.069L42.082 70zm-5.812-12.56a25.727 25.727 0 0 0 6.149 2.553l1.113.3L31 65.9h8l1.629-5.606 1.113-.3a25.723 25.723 0 0 0 6.148-2.553l1-.577 5.125 2.817 5.66-5.66-2.816-5.125.577-1a25.717 25.717 0 0 0 2.553-6.149l.3-1.113L65.9 39v-8l-5.605-1.629-.3-1.113a25.724 25.724 0 0 0-2.553-6.149l-.577-1 2.816-5.125-5.66-5.66-5.125 2.816-1-.577a25.723 25.723 0 0 0-6.148-2.553l-1.113-.3L39 4.1h-8l-1.63 5.606-1.113.3a25.735 25.735 0 0 0-6.149 2.553l-1 .577-5.125-2.817-5.661 5.66 2.816 5.125-.577 1a25.714 25.714 0 0 0-2.553 6.149l-.3 1.113L4.1 31v8l5.605 1.629.3 1.113a25.727 25.727 0 0 0 2.553 6.149l.577 1-2.816 5.125 5.661 5.66 5.125-2.817zM17.2 35A17.818 17.818 0 0 1 35 17.2 17.818 17.818 0 0 1 52.8 35 17.818 17.818 0 0 1 35 52.8 17.818 17.818 0 0 1 17.2 35zm4.1 0A13.712 13.712 0 0 0 35 48.7 13.712 13.712 0 0 0 48.7 35 13.712 13.712 0 0 0 35 21.3 13.712 13.712 0 0 0 21.3 35zm4.1 0a9.605 9.605 0 0 1 9.6-9.595A9.605 9.605 0 0 1 44.595 35 9.606 9.606 0 0 1 35 44.6a9.606 9.606 0 0 1-9.595-9.6zm4.1 0a5.5 5.5 0 0 0 5.5 5.493A5.5 5.5 0 0 0 40.493 35 5.5 5.5 0 0 0 35 29.507 5.5 5.5 0 0 0 29.507 35z" data-name="Union 4"/></symbol><symbol viewBox="0 0 60 70" id="delivery" xmlns="http://www.w3.org/2000/svg"><path d="M30.003 0l-30 17.509v34.982l30 17.509 30-17.509V17.509zm0 32.467l-9.57-5.584 23.47-13.7 9.567 5.584zm9.564-21.817l-23.475 13.7-9.567-5.584 23.478-13.7zm-35.2 11.925l23.448 13.683v27.4L4.37 49.976zm27.818 41.084v-27.4L55.63 22.575v27.4z"/></symbol><symbol viewBox="0 0 1080 960" id="path-2" xmlns="http://www.w3.org/2000/svg"><path d="M460.58 0h619.4s.022 708.439.022 960c0-48.444-108.986-208.446-501.628-106.247S0 872.535 0 607.809 460.58 0 460.58 0z" data-name="Path 2"/></symbol><symbol viewBox="0 0 700 340" id="path-3" xmlns="http://www.w3.org/2000/svg"><path d="M700 0H0v340S31.451 89.045 280 176.135 700 0 700 0z" data-name="Path 3"/></symbol></svg>