<?xml version="1.0" standalone="no"?>
<!DOCTYPE svg PUBLIC "-//W3C//DTD SVG 1.1//EN" "http://www.w3.org/Graphics/SVG/1.1/DTD/svg11.dtd" >
<svg xmlns="http://www.w3.org/2000/svg" xmlns:xlink="http://www.w3.org/1999/xlink" version="1.1">
<metadata>
Created by FontForge 20170731 at Wed Nov 14 22:07:50 2018
 By Aleksey,,,
Copyright (c) 2018 by Eduardo Manso. All rights reserved.
</metadata>
<defs>
<font id="SteradianBlack" horiz-adv-x="570" >
  <font-face 
    font-family="Steradian Black"
    font-weight="800"
    font-stretch="normal"
    units-per-em="1000"
    panose-1="0 0 0 0 0 0 0 0 0 0"
    ascent="800"
    descent="-200"
    x-height="509"
    cap-height="703"
    bbox="-254 -308 1379 990"
    underline-thickness="36"
    underline-position="-232"
    unicode-range="U+000D-FF19"
  />
<missing-glyph horiz-adv-x="869" 
d="M767 352v-1q0 -146 -103 -249t-247 -103q-145 0 -249 104q-103 103 -103 249t103 249t249 103q144 0 247 -103t103 -249zM96 351l-3 -2q0 -133 95 -228q94 -94 227 -94q131 0 226 95q94 94 94 227t-94 227q-95 95 -225 95q-132 0 -226 -94t-94 -226zM602 207h-97l-95 94
l-95 -94h-98l144 143l-137 137h98l88 -88l88 88h99l-138 -137z" />
    <glyph glyph-name=".notdef" horiz-adv-x="869" 
d="M767 352v-1q0 -146 -103 -249t-247 -103q-145 0 -249 104q-103 103 -103 249t103 249t249 103q144 0 247 -103t103 -249zM96 351l-3 -2q0 -133 95 -228q94 -94 227 -94q131 0 226 95q94 94 94 227t-94 227q-95 95 -225 95q-132 0 -226 -94t-94 -226zM602 207h-97l-95 94
l-95 -94h-98l144 143l-137 137h98l88 -88l88 88h99l-138 -137z" />
    <glyph glyph-name=".null" horiz-adv-x="0" 
 />
    <glyph glyph-name="nonmarkingreturn" horiz-adv-x="333" 
 />
    <glyph glyph-name="NULL" horiz-adv-x="0" 
 />
    <glyph glyph-name="NULL" horiz-adv-x="0" 
 />
    <glyph glyph-name="CR" unicode="&#xd;" horiz-adv-x="212" 
 />
    <glyph glyph-name="space" unicode=" " horiz-adv-x="212" 
 />
    <glyph glyph-name="exclam" unicode="!" horiz-adv-x="309" 
d="M211 243h-113l-37 226v234h187v-234zM268 96l2 -1q0 -47 -33 -78q-35 -32 -82 -32q-49 0 -81 32t-32 78q0 49 32 81t81 32t81 -32t32 -80z" />
    <glyph glyph-name="quotedbl" unicode="&#x22;" horiz-adv-x="485" 
d="M182 393h-106l-38 285v25h182v-25zM409 393h-106l-38 285v25h182v-25z" />
    <glyph glyph-name="numbersign" unicode="#" horiz-adv-x="707" 
d="M623 307l-32 -130h-102l-33 -133h-135l33 133h-90l-33 -133h-135l33 133h-101l32 130h102l22 88h-101l32 130h102l33 133h135l-33 -133h90l33 133h135l-33 -133h101l-32 -130h-102l-22 -88h101zM319 395l-22 -88h90l22 88h-90z" />
    <glyph glyph-name="dollar" unicode="$" horiz-adv-x="584" 
d="M379 -109l-180 -46v149q-81 24 -126 84t-48 151h189q0 -38 23 -61q22 -22 59 -22q31 0 48 14q16 13 16 42q0 21 -12 33q-15 13 -44 23l-95 32q-84 28 -124 79q-40 49 -40 128q0 73 42 127t114 76v101l177 41v-141q74 -21 116 -78t47 -144h-192q0 38 -15 56t-42 18
q-29 0 -45 -13t-16 -36t13 -36q14 -14 48 -24l91 -29q86 -27 126 -76q42 -49 42 -123q0 -90 -45 -147t-127 -75v-103z" />
    <glyph glyph-name="percent" unicode="%" horiz-adv-x="782" 
d="M380 541l-1 -2q0 -73 -49 -121q-50 -48 -126 -48q-78 0 -126 48t-48 122q0 73 48 121t126 48q76 0 126 -48t50 -120zM598 701h131l-547 -703h-131zM144 538l-2 -2q0 -25 17 -42q16 -16 44 -16q25 0 42 17q16 16 16 42q0 28 -16 44q-17 18 -42 18t-42 -18q-17 -20 -17 -43
zM750 159l-1 -2q0 -73 -49 -121q-50 -48 -126 -48q-78 0 -126 48t-48 122q0 73 48 121t126 48q76 0 126 -48t50 -120zM514 156l-2 -2q0 -25 17 -42q16 -16 44 -16q25 0 42 17q16 16 16 42q0 28 -16 44q-17 18 -42 18t-42 -18q-17 -20 -17 -43z" />
    <glyph glyph-name="ampersand" unicode="&#x26;" horiz-adv-x="723" 
d="M506 392h189l-129 -210l165 -182h-218l-46 52q-41 -34 -90 -51q-47 -16 -114 -16q-97 0 -164 58q-68 59 -68 144q0 69 36 120q37 51 100 77q-29 38 -46 78q-15 38 -15 78q0 70 63 123q61 52 147 52t144 -49q59 -50 59 -118q0 -54 -33 -99t-91 -76l61 -68zM317 569l2 -3
q-18 0 -30 -12t-12 -29q0 -13 6 -25t24 -33q27 17 38 30q12 15 12 32q0 16 -12 28t-28 12zM214 199h-3q0 -28 23 -48q22 -19 54 -19q29 0 44 7q18 7 35 22l-106 118q-26 -15 -36 -34q-11 -20 -11 -46z" />
    <glyph glyph-name="quotesingle" unicode="'" horiz-adv-x="258" 
d="M182 393h-106l-38 285v25h182v-25z" />
    <glyph glyph-name="parenleft" unicode="(" horiz-adv-x="363" 
d="M342 -140h-182q-60 99 -91 219q-31 118 -31 259q0 132 31 249q30 117 91 223h182q-65 -119 -96 -236q-31 -114 -31 -236q0 -127 32 -250q32 -122 95 -228z" />
    <glyph glyph-name="parenright" unicode=")" horiz-adv-x="363" 
d="M203 -140h-182q63 106 95 228q32 123 32 250q0 122 -31 236q-31 117 -96 236h182q61 -106 91 -223q31 -117 31 -249q0 -141 -31 -259q-31 -120 -91 -219z" />
    <glyph glyph-name="asterisk" unicode="*" horiz-adv-x="470" 
d="M182 329l-121 85l61 72l-93 27l50 137l92 -43l-9 96h149l-8 -94l88 41l50 -138l-96 -27l60 -72l-121 -84l-50 90z" />
    <glyph glyph-name="plus" unicode="+" 
d="M355 115h-140v165h-165v140h165v165h140v-165h165v-140h-165v-165z" />
    <glyph glyph-name="comma" unicode="," horiz-adv-x="298" 
d="M136 -174l-122 -3l89 169q-31 14 -48 41q-18 27 -18 60q0 49 32 81t81 32t81 -32t32 -80q0 -16 -4 -27q-5 -13 -15 -33z" />
    <glyph glyph-name="hyphen" unicode="-" horiz-adv-x="356" 
d="M53 332h250v-152h-250v152z" />
    <glyph glyph-name="period" unicode="." horiz-adv-x="297" 
d="M262 96l2 -1q0 -47 -33 -78q-35 -32 -82 -32q-49 0 -81 32t-32 78q0 49 32 81t81 32t81 -32t32 -80z" />
    <glyph glyph-name="slash" unicode="/" horiz-adv-x="459" 
d="M260 810h177l-237 -950h-177z" />
    <glyph glyph-name="zero" unicode="0" horiz-adv-x="647" 
d="M598 251v-1q0 -125 -76 -195t-199 -70q-121 0 -198 71q-76 70 -76 195v202q0 125 76 195t198 70q123 0 199 -70t76 -195v-202zM321 541h-2q-41 0 -64 -24q-22 -22 -22 -67v-200q0 -44 22 -66q23 -23 66 -23q46 0 69 23t23 68v200q0 43 -23 66t-69 23z" />
    <glyph glyph-name="one" unicode="1" horiz-adv-x="397" 
d="M325 0h-185v534h-124l42 169h267v-703z" />
    <glyph glyph-name="two" unicode="2" horiz-adv-x="623" 
d="M580 0l-535 -2v142l267 247q28 28 38 48q12 23 12 45q0 29 -16 45t-46 16q-35 0 -54 -19q-20 -20 -27 -60h-190q7 112 84 183t198 71q114 0 181 -61q69 -61 69 -160q0 -65 -30 -119q-33 -57 -112 -125l-94 -82h255v-169z" />
    <glyph glyph-name="three" unicode="3" horiz-adv-x="605" 
d="M32 215l183 -4q6 -28 27 -43t56 -15q34 0 55 18t21 50q0 34 -22 52t-66 18h-75v134h79q31 0 48 17t17 48q0 26 -16 41t-46 15q-31 0 -49 -15q-18 -14 -23 -45h-186q7 102 78 165t186 63q111 0 177 -57t66 -140q0 -53 -19 -90t-58 -60q50 -24 74 -63t24 -99
q0 -94 -70 -157q-71 -63 -189 -63q-116 0 -190 62q-72 62 -82 168z" />
    <glyph glyph-name="four" unicode="4" horiz-adv-x="633" 
d="M22 244l239 459h213l-234 -434h120v112l181 42v-154h66v-165h-66v-104h-181v104h-338v140z" />
    <glyph glyph-name="five" unicode="5" horiz-adv-x="605" 
d="M103 703l417 -1v-169h-268l-7 -76l38 8q18 3 35 3q114 0 180 -63t66 -171t-73 -178t-186 -70q-112 0 -189 62t-89 162h191q9 -26 29 -40q19 -13 51 -13q38 0 60 22q23 23 23 57q0 35 -23 56q-22 21 -60 21q-26 0 -45 -9t-36 -27l-150 18z" />
    <glyph glyph-name="six" unicode="6" horiz-adv-x="602" 
d="M308 -14l-4 -3q-118 0 -194 73q-78 74 -78 180q0 45 17 102q17 54 45 99l165 264h215l-158 -231h19q103 0 174 -68q70 -67 70 -165q0 -105 -78 -178q-76 -73 -193 -73zM217 235q0 -37 24 -63q24 -25 62 -25t62 25q24 26 24 63q0 38 -24 62t-62 24t-62 -24t-24 -62z" />
    <glyph glyph-name="seven" unicode="7" horiz-adv-x="556" 
d="M322 534h-296v169h508v-145l-268 -558h-207z" />
    <glyph glyph-name="eight" unicode="8" horiz-adv-x="606" 
d="M569 212v1q0 -99 -74 -162q-73 -63 -192 -63t-192 63q-74 63 -74 162q0 53 24 96q24 44 69 74q-29 29 -44 63q-15 36 -15 75q0 85 65 141t167 56q103 0 168 -56t65 -141q0 -39 -15 -75q-15 -34 -44 -63q44 -32 68 -75q24 -45 24 -96zM238 504l1 -3q0 -27 18 -43
q16 -16 47 -16q28 0 48 17q18 17 18 44q0 29 -18 45q-20 17 -48 17t-48 -17q-18 -16 -18 -44zM220 219h-2q0 -33 24 -55q22 -22 61 -22t61 22q24 22 24 55q0 34 -23 57q-22 22 -60 22q-39 0 -61 -22q-24 -22 -24 -57z" />
    <glyph glyph-name="nine" unicode="9" horiz-adv-x="602" 
d="M294 717l2 1q118 0 194 -73q78 -73 78 -180q0 -51 -16 -102q-16 -54 -45 -99l-165 -264h-215l158 231h-19q-103 0 -174 68q-70 67 -70 165q0 106 78 179q80 74 194 74zM383 466q0 38 -24 63t-62 25t-62 -25t-24 -63t24 -62t62 -24t62 24t24 62z" />
    <glyph glyph-name="colon" unicode=":" horiz-adv-x="317" 
d="M272 96l2 -1q0 -47 -33 -78q-35 -32 -82 -32q-49 0 -81 32t-32 78q0 49 32 81t81 32t81 -32t32 -80zM274 411l2 -1q0 -46 -33 -78q-35 -32 -82 -32q-49 0 -81 32t-32 78q0 49 32 81t81 32t81 -32t32 -80z" />
    <glyph glyph-name="semicolon" unicode=";" horiz-adv-x="317" 
d="M271 412l2 -1q0 -47 -33 -78q-35 -32 -82 -32q-49 0 -81 32t-32 78q0 49 32 81t81 32t81 -32t32 -80zM149 -175l-122 -3l89 169q-31 14 -48 41q-18 27 -18 60q0 49 32 81t81 32t81 -32t32 -80q0 -16 -4 -27q-4 -14 -15 -33z" />
    <glyph glyph-name="less" unicode="&#x3c;" 
d="M52 255v140l450 210v-170l-243 -110l243 -110v-170z" />
    <glyph glyph-name="equal" unicode="=" 
d="M50 395v140h470v-140h-470zM50 165v140h470v-140h-470z" />
    <glyph glyph-name="greater" unicode="&#x3e;" 
d="M518 395v-140l-450 -210v170l243 110l-243 110v170z" />
    <glyph glyph-name="question" unicode="?" horiz-adv-x="585" 
d="M189 320l113 80q30 21 42 42t12 48q0 28 -18 45q-20 17 -51 17q-38 0 -57 -19q-21 -19 -21 -54h-184q3 107 78 171q77 65 195 65q112 0 182 -57q71 -57 71 -151q0 -60 -25 -109q-26 -51 -69 -82l-100 -73h-168v77zM386 93l2 -1q0 -46 -33 -78q-35 -32 -82 -32
q-49 0 -81 32t-32 78q0 49 32 81t81 32t81 -32t32 -80z" />
    <glyph glyph-name="at" unicode="@" horiz-adv-x="902" 
d="M372 77l-3 -5q-64 0 -106 45t-42 117q0 91 56 153t135 62q36 0 65 -12t48 -34l9 37h142l-50 -207q-10 -43 -1 -66q9 -22 37 -22q40 0 67 46q27 47 27 117q0 116 -87 189q-89 74 -220 74q-133 0 -222 -84t-89 -220q0 -135 87 -214q85 -79 221 -79q47 0 83 6q33 6 61 17
v-99q-36 -12 -65 -17q-36 -6 -77 -6q-85 0 -159 28q-77 29 -135 81q-58 54 -90 126q-31 69 -31 159q0 85 32 163q32 75 90 130q59 54 136 83q81 29 162 29q175 0 294 -102t119 -258q0 -120 -60 -191t-166 -71q-46 0 -88 20q-39 20 -54 57q-26 -25 -57 -39q-29 -13 -69 -13z
M372 245l-1 -2q0 -35 12 -52q12 -16 38 -16q30 0 51 30t21 70q0 29 -15 45q-15 17 -39 17q-29 0 -48 -27q-19 -25 -19 -65z" />
    <glyph glyph-name="A" unicode="A" horiz-adv-x="714" 
d="M258 703h199l245 -703h-198l-34 107h-236l-34 -107h-189zM422 262l-70 222l-70 -222h140z" />
    <glyph glyph-name="B" unicode="B" horiz-adv-x="689" 
d="M414 0h-345v703h306q111 0 175 -49q66 -50 66 -135q0 -52 -22 -89q-23 -39 -66 -64q61 -22 94 -66q33 -43 33 -100q0 -92 -67 -146q-68 -54 -174 -54zM425 493v-1q0 27 -19 43t-51 16h-101v-122h101q36 0 52 16q18 17 18 48zM461 220v1q0 28 -20 45t-54 17h-132v-132h132
q35 0 54 18q20 18 20 51z" />
    <glyph glyph-name="C" unicode="C" horiz-adv-x="806" 
d="M581 300l197 -2q-18 -140 -120 -227t-251 -87q-162 0 -266 104t-104 261t104 261t266 104q146 0 246 -82q101 -82 123 -216h-199q-19 58 -64 91t-107 33q-76 0 -126 -54q-49 -52 -49 -137q0 -83 48 -135q48 -53 126 -53q70 0 116 37q47 38 60 102z" />
    <glyph glyph-name="D" unicode="D" horiz-adv-x="765" 
d="M350 0l-278 -1v703h278q166 0 273 -95q106 -94 106 -254q0 -161 -106 -257q-107 -96 -273 -96zM257 527l-1 -354h87q87 0 140 47q51 46 51 132q0 82 -51 129q-49 46 -139 46h-87z" />
    <glyph glyph-name="E" unicode="E" horiz-adv-x="589" 
d="M540 0h-468v703h463v-169h-278v-99h254v-159h-254v-107h283v-169z" />
    <glyph glyph-name="F" unicode="F" horiz-adv-x="572" 
d="M257 0h-185v703h463v-169h-278v-107h254v-166h-254v-261z" />
    <glyph glyph-name="G" unicode="G" horiz-adv-x="811" 
d="M759 379l2 -378h-155v77q-38 -45 -92 -68q-57 -23 -122 -23q-156 0 -255 104q-99 103 -99 263q0 158 103 261q104 104 265 104q139 0 233 -73q96 -73 123 -196h-204q-21 46 -60 70t-94 24q-78 0 -126 -54t-48 -138q0 -86 50 -142q50 -54 135 -54q59 0 102 21q44 21 65 59
h-174v143h351z" />
    <glyph glyph-name="H" unicode="H" horiz-adv-x="721" 
d="M257 0h-185v703h185v-259h207v259h185v-703h-185v269h-207v-269z" />
    <glyph glyph-name="I" unicode="I" horiz-adv-x="329" 
d="M257 0h-185v703h185v-703z" />
    <glyph glyph-name="J" unicode="J" horiz-adv-x="597" 
d="M346 703h184v-458q0 -115 -73 -187t-189 -72q-115 0 -187 72t-72 189h185q2 -45 20 -66q18 -22 56 -22q36 0 56 24q20 26 20 68v452z" />
    <glyph glyph-name="K" unicode="K" horiz-adv-x="683" 
d="M72 703h185v-298l212 298h216l-251 -338l254 -365h-227l-204 306v-306h-185v703z" />
    <glyph glyph-name="L" unicode="L" horiz-adv-x="536" 
d="M520 0h-448v703h185v-534h263v-169z" />
    <glyph glyph-name="M" unicode="M" horiz-adv-x="972" 
d="M251 0h-179v703h229l189 -394l192 394h218v-703h-179v405l-199 -406h-72l-199 410v-409z" />
    <glyph glyph-name="N" unicode="N" horiz-adv-x="730" 
d="M246 0h-174v703h175l237 -389v389h174v-703h-177l-235 386v-386z" />
    <glyph glyph-name="O" unicode="O" horiz-adv-x="824" 
d="M35 352q0 158 105 261q107 104 270 104q166 0 273 -104q106 -103 106 -261t-106 -261q-107 -104 -273 -104q-163 0 -270 104q-105 103 -105 261zM595 351q0 83 -51 137t-133 54q-81 0 -132 -54t-51 -137q0 -84 50 -137t132 -53q83 0 134 53q51 52 51 137z" />
    <glyph glyph-name="P" unicode="P" horiz-adv-x="660" 
d="M257 0l-186 -1v703h293q121 0 198 -65t77 -173q0 -113 -76 -179q-77 -66 -198 -66h-108v-219zM354 539h-98v-158h98q42 0 66 21t24 59q0 36 -24 57t-66 21z" />
    <glyph glyph-name="Q" unicode="Q" horiz-adv-x="825" 
d="M35 352q0 158 105 261q107 104 270 104q166 0 273 -104q106 -103 106 -261q0 -84 -31 -153q-31 -72 -88 -121l108 -159h-201l-55 81q-13 -3 -55 -10q-29 -3 -57 -3q-163 0 -270 104q-105 103 -105 261zM415 156l-134 194h201l81 -119q17 28 26 56q9 30 9 63q0 88 -52 140
q-52 54 -135 54t-134 -54t-51 -139q0 -87 51 -141t134 -54h4z" />
    <glyph glyph-name="R" unicode="R" horiz-adv-x="690" 
d="M257 0h-185v703h293q120 0 196 -61t76 -165q0 -74 -39 -128q-40 -54 -109 -80l186 -269h-224l-164 247h-30v-247zM355 542l-99 -1v-144h98q39 0 65 20q24 19 24 54q0 33 -24 52q-22 19 -64 19z" />
    <glyph glyph-name="S" unicode="S" horiz-adv-x="633" 
d="M315 717l-5 -2q122 0 192 -61q72 -62 78 -174h-192q0 36 -21 55q-19 19 -60 19q-36 0 -55 -13q-21 -13 -21 -36q0 -21 13 -33q16 -12 48 -22l123 -37q87 -26 130 -75t43 -123q0 -110 -72 -170t-200 -60q-131 0 -208 65q-76 64 -79 183h189q0 -39 27 -61q25 -22 70 -22
q43 0 66 14q22 13 22 42q0 19 -13 31q-14 12 -49 23l-127 40q-84 26 -124 75t-40 126q0 96 75 156t190 60z" />
    <glyph glyph-name="T" unicode="T" horiz-adv-x="582" 
d="M383 0h-185v534h-181v169h548v-169h-182v-534z" />
    <glyph glyph-name="U" unicode="U" horiz-adv-x="697" 
d="M447 703l184 -1v-455q0 -115 -81 -189q-79 -73 -205 -73q-121 0 -201 74t-80 189v455h185v-449q0 -44 24 -69t68 -25q49 0 78 26q28 25 28 68v449z" />
    <glyph glyph-name="V" unicode="V" horiz-adv-x="687" 
d="M442 0h-198l-227 703h206l125 -441l127 441h195z" />
    <glyph glyph-name="W" unicode="W" horiz-adv-x="1049" 
d="M411 0h-197l-198 703h200l109 -432l121 432h170l119 -431l112 431h187l-200 -703h-196l-112 376z" />
    <glyph glyph-name="X" unicode="X" horiz-adv-x="697" 
d="M200 0h-209l246 361l-228 342h217l123 -195l128 195h205l-227 -336l255 -367h-222l-145 216z" />
    <glyph glyph-name="Y" unicode="Y" horiz-adv-x="680" 
d="M434 0h-185v229l-235 474h211l118 -268l129 268h194l-232 -465v-238z" />
    <glyph glyph-name="Z" unicode="Z" horiz-adv-x="621" 
d="M580 0h-540v148l296 386h-285v169h520v-158l-292 -376h301v-169z" />
    <glyph glyph-name="bracketleft" unicode="[" horiz-adv-x="384" 
d="M345 810v-163h-99v-624h99v-163h-276v950h276z" />
    <glyph glyph-name="backslash" unicode="\" horiz-adv-x="459" 
d="M199 810l237 -950h-177l-237 950h177z" />
    <glyph glyph-name="bracketright" unicode="]" horiz-adv-x="384" 
d="M39 810h276v-950h-276v163h99v624h-99v163z" />
    <glyph glyph-name="asciicircum" unicode="^" 
d="M200 703h171l188 -419h-186l-88 204l-88 -204h-187z" />
    <glyph glyph-name="underscore" unicode="_" horiz-adv-x="440" 
d="M-1 -60h442v-152h-442v152z" />
    <glyph glyph-name="grave" unicode="`" horiz-adv-x="330" 
d="M124 567l-86 150h171l83 -150h-168z" />
    <glyph glyph-name="a" unicode="a" horiz-adv-x="557" 
d="M335 0l-1 49q-22 -31 -57 -48q-37 -17 -76 -17q-73 0 -120 41q-46 40 -46 107q0 69 45 111t143 63l105 23v5q0 21 -15 33t-39 12q-27 0 -42 -12q-15 -11 -17 -34h-172q5 83 71 137t165 54q106 0 165 -56t59 -152v-316h-168zM249 121l-1 -3q31 0 55 26t24 57v10l-58 -13
q-33 -8 -48 -18t-15 -27t10 -24q11 -8 33 -8z" />
    <glyph glyph-name="b" unicode="b" horiz-adv-x="655" 
d="M228 0l-167 -1v741h177v-287q28 34 66 52t84 18q104 0 170 -75t66 -193q0 -120 -66 -195t-171 -75q-52 0 -90 19q-41 20 -69 57v-61zM438 254l2 -1q0 51 -28 79q-28 30 -75 30t-75 -30q-28 -28 -28 -78q0 -49 27 -79t74 -30t75 30q28 28 28 79z" />
    <glyph glyph-name="c" unicode="c" horiz-adv-x="605" 
d="M309 524l-1 -2q109 0 182 -64q74 -65 86 -165h-176q-9 31 -33 49t-58 18q-47 0 -75 -30q-28 -28 -28 -76q0 -44 29 -76q29 -30 75 -30q35 0 59 18t33 49h175q-12 -101 -86 -166q-73 -64 -182 -64q-121 0 -201 77q-78 76 -78 194q0 116 78 192q76 76 201 76z" />
    <glyph glyph-name="d" unicode="d" horiz-adv-x="654" 
d="M266 -14h-2q-103 0 -169 75t-66 193q0 120 66 195t171 75q49 0 84 -16q38 -16 66 -48v281h177v-741h-167v68q-28 -40 -69 -61t-91 -21zM215 255l-2 1q0 -51 28 -79q29 -30 75 -30t75 30q28 28 28 78q0 49 -27 79t-74 30q-46 0 -75 -30q-28 -28 -28 -79z" />
    <glyph glyph-name="e" unicode="e" horiz-adv-x="604" 
d="M304 127l-1 -1q34 0 55 9t36 32h170q-23 -86 -92 -134t-170 -48q-120 0 -196 76t-76 193q0 114 79 192t196 78q121 0 195 -72t74 -188v-52h-375q9 -40 36 -63q25 -22 69 -22zM304 382h2q-36 0 -61 -16t-39 -46h198q-12 30 -37 46t-63 16z" />
    <glyph glyph-name="f" unicode="f" horiz-adv-x="417" 
d="M286 0l-179 -2v352h-73v158h73v37q0 104 50 157q49 51 152 51q23 0 46 -3t48 -9v-155l-33 8q-16 3 -30 3q-30 0 -42 -12t-12 -40v-35h113v-158h-113v-352z" />
    <glyph glyph-name="g" unicode="g" horiz-adv-x="632" 
d="M38 -22l169 -1q3 -27 27 -42t64 -15q43 0 69 23q24 22 24 65v71q-25 -29 -60 -42q-37 -14 -77 -14q-100 0 -162 69q-61 67 -61 181q0 113 63 182t167 69q48 0 81 -16q36 -16 62 -48v51h167v-483q0 -118 -71 -186q-70 -67 -198 -67q-112 0 -186 57q-73 57 -78 146z
M213 273q0 -43 25 -68q26 -26 66 -26q41 0 67 26q25 25 25 68t-25 68q-26 26 -67 26q-40 0 -66 -26q-25 -25 -25 -68z" />
    <glyph glyph-name="h" unicode="h" horiz-adv-x="608" 
d="M237 0l-176 2v741h177v-277q28 31 61 44q36 15 78 15q81 0 129 -51t48 -133v-340h-177v288q0 36 -18 54t-52 18t-52 -19q-18 -20 -18 -54v-288z" />
    <glyph glyph-name="i" unicode="i" horiz-adv-x="297" 
d="M42 652v-1q0 46 29 75t77 29q50 0 78 -28q30 -29 30 -75q0 -44 -30 -72q-32 -29 -78 -29q-44 0 -76 29q-30 28 -30 72zM237 -1h-177v510h177v-510z" />
    <glyph glyph-name="j" unicode="j" horiz-adv-x="305" 
d="M257 656v-3q0 -40 -29 -69q-28 -28 -72 -28t-72 28t-28 70q0 44 28 72t72 28t72 -28q29 -29 29 -70zM68 507l178 -1v-528q0 -108 -49 -157q-49 -51 -151 -51q-20 0 -31 1q-23 2 -30 4v154q8 -1 18 -1h11q30 0 42 12t12 40v527z" />
    <glyph glyph-name="k" unicode="k" horiz-adv-x="574" 
d="M237 0h-177v741h177v-429l118 198h196l-144 -227l174 -283h-206l-138 234v-234z" />
    <glyph glyph-name="l" unicode="l" horiz-adv-x="297" 
d="M60 741h177v-741h-177v741z" />
    <glyph glyph-name="m" unicode="m" horiz-adv-x="904" 
d="M237 0l-182 -1v510h168v-57q26 37 61 53q38 18 81 18q50 0 87 -19q38 -20 60 -57q26 38 68 57q45 20 92 20q79 0 127 -51t48 -133v-340h-177v288q0 38 -16 54q-16 18 -48 18t-48 -18q-16 -16 -16 -54v-288h-177v288q0 35 -16 54t-48 19t-48 -19t-16 -54v-288z" />
    <glyph glyph-name="n" unicode="n" horiz-adv-x="608" 
d="M237 0l-176 1v510h168v-57q26 36 64 53q39 18 84 18q81 0 129 -51t48 -133v-340h-177v288q0 36 -18 54t-52 18t-52 -19q-18 -20 -18 -54v-288z" />
    <glyph glyph-name="o" unicode="o" horiz-adv-x="618" 
d="M30 256v-2q0 116 78 192q76 76 200 76q125 0 201 -76q78 -76 78 -192t-78 -192q-80 -77 -201 -77q-120 0 -200 77q-78 76 -78 194zM413 253l-1 -2q0 45 -29 77q-29 30 -75 30t-75 -30q-28 -28 -28 -76q0 -44 29 -76q28 -30 75 -30t75 30q29 32 29 77z" />
    <glyph glyph-name="p" unicode="p" horiz-adv-x="655" 
d="M60 -212l1 721h168v-67q28 40 69 61q40 21 90 21q104 0 170 -75t66 -193q0 -120 -66 -195t-171 -75q-49 0 -84 16q-37 16 -66 48v-262h-177zM438 254l2 -1q0 51 -28 79q-28 30 -75 30t-75 -30q-28 -28 -28 -78q0 -49 27 -79t74 -30t75 30q28 28 28 79z" />
    <glyph glyph-name="q" unicode="q" horiz-adv-x="654" 
d="M266 -14l-3 -1q-103 0 -169 75t-66 193q0 120 66 195t171 75q54 0 92 -19q41 -20 69 -57v63h167v-722h-177v268q-28 -34 -66 -52t-84 -18zM214 254l-2 1q0 -51 28 -79q28 -30 75 -30t75 30q28 28 28 78q0 49 -27 79t-74 30t-75 -30q-28 -28 -28 -79z" />
    <glyph glyph-name="r" unicode="r" horiz-adv-x="414" 
d="M355 358v-1q-58 0 -88 -36t-30 -105v-216h-177v510h168v-83q23 47 59 71t79 24q12 0 19 -1l15 -3v-167q-7 3 -21 5q-16 2 -24 2z" />
    <glyph glyph-name="s" unicode="s" horiz-adv-x="524" 
d="M265 524l-8 -2q98 0 155 -45q57 -44 65 -127h-181q0 20 -9 29t-31 9q-16 0 -27 -6q-10 -6 -10 -17q0 -13 11 -21q10 -7 39 -13l33 -7q102 -22 144 -60q42 -37 42 -104q0 -82 -60 -129q-58 -46 -164 -46q-110 0 -175 47q-63 47 -67 135h186q0 -25 13 -37t39 -12q21 0 35 8
q12 8 12 21q0 14 -10 21q-14 8 -37 14l-38 8q-98 21 -138 60t-40 104q0 76 62 123t159 47z" />
    <glyph glyph-name="t" unicode="t" horiz-adv-x="429" 
d="M97 510v138l177 41v-179h113v-158h-113v-157q0 -28 12 -40t40 -12q20 0 35 3t32 12v-154q-22 -10 -49 -15q-25 -4 -60 -4q-94 0 -141 48q-46 46 -46 147v172h-73v158h73z" />
    <glyph glyph-name="u" unicode="u" horiz-adv-x="599" 
d="M295 145v-1q33 0 50 20t17 57v288h177v-510h-168v57q-26 -35 -60 -53q-36 -18 -81 -18q-78 0 -126 51t-48 133v340h177v-288q0 -37 15 -57q15 -19 47 -19z" />
    <glyph glyph-name="v" unicode="v" horiz-adv-x="577" 
d="M387 0h-198l-179 510h188l93 -284l93 284h183z" />
    <glyph glyph-name="w" unicode="w" horiz-adv-x="880" 
d="M353 0h-178l-166 510h177l85 -283l86 283h170l86 -285l86 285h172l-166 -510h-178l-87 267z" />
    <glyph glyph-name="x" unicode="x" horiz-adv-x="558" 
d="M191 0h-190l173 255l-167 255h199l77 -123l79 123h186l-167 -249l179 -261h-205l-82 126z" />
    <glyph glyph-name="y" unicode="y" horiz-adv-x="575" 
d="M382 510h182l-250 -722h-178l66 194l-194 528h188l93 -284z" />
    <glyph glyph-name="z" unicode="z" horiz-adv-x="537" 
d="M504 0h-473v117l228 235h-210v158h439v-125l-213 -227h229v-158z" />
    <glyph glyph-name="braceleft" unicode="{" horiz-adv-x="388" 
d="M217 360l-2 -1q29 -16 45 -46q15 -30 15 -79v-172q0 -26 9 -38t32 -12h14q1 0 15 2v-163q-7 -1 -19 -1h-17q-106 0 -158 49q-53 50 -53 145v182q0 32 -12 45q-12 14 -39 14h-20v148h20q27 0 39 14q12 13 12 45v132q0 95 53 145q52 49 158 49h17q12 0 19 -1v-163
q-14 2 -15 2h-13q-22 0 -31 -12t-9 -38v-122q0 -49 -15 -79t-45 -45z" />
    <glyph glyph-name="bar" unicode="|" horiz-adv-x="315" 
d="M69 810h177v-950h-177v950z" />
    <glyph glyph-name="braceright" unicode="}" horiz-adv-x="388" 
d="M171 360l-2 -4q-30 15 -45 45t-15 80v122q0 26 -9 38t-31 12h-13q-12 0 -15 -1v163q14 2 19 2h17q106 0 158 -49q53 -50 53 -145v-132q0 -31 12 -45t39 -14h20v-148h-20q-27 0 -39 -14t-12 -45v-182q0 -95 -53 -145q-52 -49 -158 -49h-17q-5 0 -19 2v163q3 -1 15 -1h14
q23 0 32 12t9 38v172q0 49 15 79q16 30 45 46z" />
    <glyph glyph-name="asciitilde" unicode="~" 
d="M318 427l-3 -2q35 -13 51 -18q13 -4 32 -4q35 0 62 15q25 15 54 53v-173q-12 -23 -48 -41t-80 -18q-28 0 -54 6q-28 6 -61 22q-30 14 -51 20q-25 5 -42 5q-36 0 -64 -16t-57 -57v167q15 29 51 50t78 21q28 0 57 -6t75 -24z" />
    <glyph glyph-name="uni00A0" unicode="&#xa0;" horiz-adv-x="212" 
 />
    <glyph glyph-name="exclamdown" unicode="&#xa1;" horiz-adv-x="299" 
d="M263 414l-3 -1q0 -48 -32 -80t-81 -32t-81 32q-31 31 -31 81q0 46 32 78t81 32q47 0 82 -32q33 -32 33 -78zM203 266l37 -226v-234h-187v234l37 226h113z" />
    <glyph glyph-name="cent" unicode="&#xa2;" horiz-adv-x="612" 
d="M400 -8l-181 -41v145q-85 27 -135 96q-50 71 -50 161q0 91 51 160q52 69 136 95v102l177 41v-141q76 -22 126 -81t59 -138h-176q-9 31 -33 49t-58 18q-46 0 -75 -30q-28 -28 -28 -76q0 -44 29 -76q28 -30 75 -30q35 0 59 18t33 49h175q-9 -80 -58 -138q-50 -59 -126 -81
v-102z" />
    <glyph glyph-name="sterling" unicode="&#xa3;" horiz-adv-x="690" 
d="M646 0l-600 -5v146q30 8 57 38t32 65h-89v145h80q-3 31 -3 44v21q0 123 71 191t189 68q121 0 191 -67q72 -68 72 -187h-185q0 41 -19 60q-20 20 -57 20t-57 -23t-20 -66v-18q0 -10 3 -39h152v-145h-145q-5 -23 -11 -40q-7 -21 -18 -39h357v-169z" />
    <glyph glyph-name="currency" unicode="&#xa4;" horiz-adv-x="687" 
d="M208 83l-173 -3l121 172q-9 20 -16 45q-6 23 -6 45q0 24 6 48q5 21 17 46l-122 173h171l53 -76q17 8 41 14q25 5 43 5q25 0 42 -4q22 -5 40 -12l53 75h171l-121 -171q11 -22 18 -46q6 -24 6 -49t-6 -49q-5 -21 -17 -46l120 -169h-171l-51 73q-23 -10 -40 -13
q-17 -4 -43 -4q-17 0 -42 5q-24 5 -42 14zM343 275l-2 -2q28 0 48 20t20 48q0 29 -19 48q-20 20 -48 20q-29 0 -48 -19t-19 -48q0 -28 20 -48q19 -19 48 -19z" />
    <glyph glyph-name="yen" unicode="&#xa5;" horiz-adv-x="707" 
d="M447 0h-185v114h-185v115h185l-19 38h-166v115h109l-159 321h211l118 -268l129 268h194l-160 -321h113v-115h-171l-14 -38h185v-115h-185v-114z" />
    <glyph glyph-name="brokenbar" unicode="&#xa6;" horiz-adv-x="319" 
d="M71 810h177v-400h-177v400zM71 -140v400h177v-400h-177z" />
    <glyph glyph-name="section" unicode="&#xa7;" horiz-adv-x="597" 
d="M326 253l-95 37q-108 45 -150 96t-42 124q0 93 70 150q71 57 181 57q118 0 192 -63t77 -168h-184q0 34 -21 54q-23 20 -57 20q-33 0 -51 -15t-18 -40q0 -22 21 -40t112 -58l158 -72v-82h-193zM267 238l92 -42q111 -46 153 -96q42 -49 42 -122q0 -93 -69 -150t-179 -57
q-119 0 -194 63t-78 168h184q0 -34 21 -54q19 -19 57 -19q33 0 51 15t18 40q0 22 -21 40q-19 16 -112 59l-158 72v83h193z" />
    <glyph glyph-name="dieresis" unicode="&#xa8;" horiz-adv-x="431" 
d="M206 640q0 -36 -24 -60t-59 -24q-36 0 -60 24t-24 60t24 61t60 25q35 0 59 -25t24 -61zM393 640q0 -36 -24 -60t-59 -24q-36 0 -60 24t-24 60t24 61t60 25q35 0 59 -25t24 -61z" />
    <glyph glyph-name="copyright" unicode="&#xa9;" horiz-adv-x="801" 
d="M765 352q0 -149 -107 -259q-106 -108 -257 -108t-258 108q-107 110 -107 259q0 151 107 258t258 107q150 0 257 -107t107 -258zM120 352l-1 -1q0 -115 83 -198t198 -83t198 83t83 198q0 116 -82 198q-83 83 -198 83q-116 0 -198 -82q-83 -83 -83 -198zM402 549v-1
q82 0 134 -46q54 -46 65 -120h-130q-9 22 -27 34t-42 12q-34 0 -55 -21t-21 -56t21 -57t54 -22q25 0 43 12t26 35h130q-11 -76 -65 -121q-52 -46 -133 -46q-91 0 -148 57t-57 143t57 141q59 56 148 56z" />
    <glyph glyph-name="ordfeminine" unicode="&#xaa;" horiz-adv-x="353" 
d="M207 454l2 24q-9 -14 -28 -23q-21 -8 -39 -8q-37 0 -61 21t-24 54q0 34 23 55t74 33l50 11v2q0 10 -7 14q-8 5 -19 5q-13 0 -21 -5t-9 -14h-90q2 41 36 68t84 27q58 0 86 -28q30 -28 30 -78v-158h-87zM166 519l-2 1q15 0 27 12t12 26v1l-30 -8q-13 -5 -18 -9
q-5 -5 -5 -10q0 -7 4 -10t12 -3zM59 393h235v-100h-235v100z" />
    <glyph glyph-name="guillemotleft" unicode="&#xab;" horiz-adv-x="563" 
d="M135 36l-109 219l109 220h171l-110 -220l110 -219h-171zM361 36l-109 219l109 220h171l-110 -220l110 -219h-171z" />
    <glyph glyph-name="logicalnot" unicode="&#xac;" 
d="M46 275v140h470v-300h-140v160h-330z" />
    <glyph glyph-name="uni00AD" unicode="&#xad;" horiz-adv-x="356" 
d="M53 332h250v-152h-250v152z" />
    <glyph glyph-name="registered" unicode="&#xae;" horiz-adv-x="589" 
d="M294 210l-1 -2q-106 0 -180 74q-73 73 -73 180q0 106 74 180t180 74q107 0 180 -73q74 -74 74 -180t-74 -180q-73 -73 -180 -73zM293 641q-75 0 -127 -52t-52 -129q0 -75 52 -127t127 -52q77 0 129 52t52 127q0 77 -52 129t-129 52zM275 347l-81 -2v232h116q37 0 66 -23
q27 -22 27 -57q0 -23 -10 -39q-9 -17 -28 -29l49 -82h-94l-36 64h-9v-64zM300 508h-25v-37h25q9 0 15 6t6 14q0 7 -6 12q-8 5 -15 5z" />
    <glyph glyph-name="macron" unicode="&#xaf;" horiz-adv-x="375" 
d="M337 579h-299v118h299v-118z" />
    <glyph glyph-name="degree" unicode="&#xb0;" horiz-adv-x="382" 
d="M352 559v-2q0 -65 -47 -112q-46 -46 -114 -46q-67 0 -114 47t-47 113q0 65 47 112q46 46 114 46t114 -46q47 -47 47 -112zM135 556l-1 -2q0 -22 17 -39q16 -16 39 -16q22 0 39 17t17 39q0 23 -16 39q-17 17 -39 17q-23 0 -39 -16q-17 -17 -17 -39z" />
    <glyph glyph-name="plusminus" unicode="&#xb1;" 
d="M355 195h-140v125h-165v140h165v125h140v-125h165v-140h-165v-125zM50 0v140h470v-140h-470z" />
    <glyph glyph-name="twosuperior" unicode="&#xb2;" horiz-adv-x="332" 
d="M303 492h-273v88l122 107q11 9 15 19q5 13 5 22q0 7 -5 12t-12 5q-9 0 -14 -6t-6 -16h-113q3 56 42 92t99 36q58 0 94 -30t36 -81q0 -34 -15 -63q-15 -28 -57 -64l-17 -15h99v-106z" />
    <glyph glyph-name="threesuperior" unicode="&#xb3;" horiz-adv-x="331" 
d="M24 601l107 -4q3 -14 10 -18q7 -6 19 -6q14 0 21 7t7 21q0 13 -9 21q-7 7 -29 7h-28v78h24q18 0 27 6t9 18t-6 18t-17 6q-10 0 -16 -6t-8 -19h-111q4 54 40 86q36 33 95 33q63 0 97 -28q36 -29 36 -72q0 -29 -10 -45q-10 -18 -30 -30q28 -14 38 -31q12 -19 12 -48
q0 -48 -37 -79t-102 -31q-64 0 -98 31q-36 31 -41 85z" />
    <glyph glyph-name="acute" unicode="&#xb4;" horiz-adv-x="330" 
d="M206 567h-168l83 150h171z" />
    <glyph glyph-name="mu" unicode="&#xb5;" horiz-adv-x="616" 
d="M306 145v-2q33 0 50 20t17 57v288h177v-510h-168v57q-22 -34 -60 -52q-36 -18 -78 -18v-198h-177v722h177v-288q0 -37 15 -57q15 -19 47 -19z" />
    <glyph glyph-name="paragraph" unicode="&#xb6;" horiz-adv-x="694" 
d="M413 703l-2 -845h-145v419h-8q-103 0 -168 59t-65 158q0 95 66 152t169 57h153zM611 -142h-145v843h145v-843z" />
    <glyph glyph-name="periodcentered" unicode="&#xb7;" horiz-adv-x="301" 
d="M264 347l2 -1q0 -46 -33 -78q-35 -32 -82 -32q-49 0 -81 32t-32 78q0 49 32 81t81 32t81 -32t32 -80z" />
    <glyph glyph-name="cedilla" unicode="&#xb8;" horiz-adv-x="346" 
d="M38 -111l76 121h113l-36 -58q61 -3 92 -34q33 -32 33 -84q0 -55 -40 -89q-41 -35 -102 -35q-63 0 -103 31q-42 31 -48 81l115 1q2 -11 9 -15q8 -5 21 -5q15 0 24 9t9 23q0 15 -8 23t-24 8q-12 0 -20 -5q-7 -5 -12 -12z" />
    <glyph glyph-name="onesuperior" unicode="&#xb9;" horiz-adv-x="230" 
d="M186 492h-111v246h-62l25 106h148v-352z" />
    <glyph glyph-name="ordmasculine" unicode="&#xba;" horiz-adv-x="379" 
d="M326 584v-2q0 -58 -39 -97t-98 -39q-58 0 -97 39t-39 98q0 56 39 95t97 39q59 0 98 -39t39 -94zM149 580v2q0 -20 12 -33t30 -13q19 0 30 12q11 14 11 33t-11 33q-11 12 -30 12q-18 0 -30 -13t-12 -33zM58 392h264v-100h-264v100z" />
    <glyph glyph-name="guillemotright" unicode="&#xbb;" horiz-adv-x="563" 
d="M428 36h-171l110 219l-110 220h171l109 -220zM202 36h-171l110 219l-110 220h171l109 -220z" />
    <glyph glyph-name="onequarter" unicode="&#xbc;" horiz-adv-x="731" 
d="M379 132l115 220h128l-113 -209h37v42l110 25v-67h21v-100h-21v-43h-110v43h-167v89zM220 351h-111v246h-62l25 106h148v-352zM574 703h131l-547 -703h-131z" />
    <glyph glyph-name="onehalf" unicode="&#xbd;" horiz-adv-x="754" 
d="M712 0h-273v88l122 107q11 9 15 19q5 13 5 22q0 7 -5 12t-12 5q-10 0 -14 -6q-5 -6 -6 -16h-113q3 56 42 92t99 36q58 0 94 -30t36 -81q0 -34 -15 -63q-15 -28 -57 -64l-17 -15h99v-106zM216 351h-111v246h-62l25 106h148v-352zM570 703h131l-547 -703h-131z" />
    <glyph glyph-name="threequarters" unicode="&#xbe;" horiz-adv-x="753" 
d="M402 132l115 220h128l-113 -209h37v42l110 25v-67h21v-100h-21v-43h-110v43h-167v89zM597 703h131l-547 -703h-131zM38 460l107 -4q3 -14 10 -18q7 -6 19 -6q14 0 21 7t7 21t-9 21q-7 7 -29 7h-28v78h24q18 0 27 6t9 18t-6 18t-17 6q-10 0 -16 -6t-8 -19h-111q4 54 40 86
q36 33 95 33q63 0 97 -28q36 -28 36 -72q0 -29 -10 -45q-10 -18 -30 -30q28 -14 38 -31q12 -20 12 -48q0 -48 -37 -79t-102 -31q-64 0 -98 31q-36 31 -41 85z" />
    <glyph glyph-name="questiondown" unicode="&#xbf;" horiz-adv-x="577" 
d="M191 414h-3q0 46 33 78q35 32 82 32q49 0 81 -32t32 -78q0 -50 -31 -81t-81 -31q-49 0 -81 32t-32 80zM388 190l-116 -85q-30 -21 -42 -42t-12 -48q0 -29 18 -45q16 -16 51 -16q34 0 57 20q21 20 21 54h184q-3 -106 -78 -171q-77 -65 -195 -65q-110 0 -181 57
q-70 57 -70 152q0 56 26 110q25 51 69 83l100 73h168v-77z" />
    <glyph glyph-name="Agrave" unicode="&#xc0;" horiz-adv-x="714" 
d="M258 703h199l245 -703h-198l-34 107h-236l-34 -107h-189zM422 262l-70 222l-70 -222h140zM273 760l-86 150h171l83 -150h-168z" />
    <glyph glyph-name="Aacute" unicode="&#xc1;" horiz-adv-x="714" 
d="M258 703h199l245 -703h-198l-34 107h-236l-34 -107h-189zM422 262l-70 222l-70 -222h140zM441 760h-168l83 150h171z" />
    <glyph glyph-name="Acircumflex" unicode="&#xc2;" horiz-adv-x="714" 
d="M258 703h199l245 -703h-198l-34 107h-236l-34 -107h-189zM422 262l-70 222l-70 -222h140zM161 760l92 150h206l93 -150h-155l-42 69l-42 -69h-152z" />
    <glyph glyph-name="Atilde" unicode="&#xc3;" horiz-adv-x="714" 
d="M258 703h199l245 -703h-198l-34 107h-236l-34 -107h-189zM422 262l-70 222l-70 -222h140zM376 888l-2 -3q3 -2 7 -4t6.5 -3.5t3.5 -2.5q5 -3 9 -3q7 0 12 8q4 5 7 27h116q-4 -78 -34 -117t-85 -39q-18 0 -33 6q-12 4 -36 23q-15 11 -19 12q-6 3 -12 3q-10 0 -15 -8
q-5 -11 -8 -27h-117q4 76 34 118q30 40 85 40q20 0 38 -6q19 -7 43 -24z" />
    <glyph glyph-name="Adieresis" unicode="&#xc4;" horiz-adv-x="714" 
d="M258 703h199l245 -703h-198l-34 107h-236l-34 -107h-189zM422 262l-70 222l-70 -222h140zM348 833q0 -36 -24 -60t-59 -24q-36 0 -60 24t-24 60q0 35 24 61q24 25 60 25q35 0 59 -25t24 -61zM535 833q0 -36 -24 -60t-59 -24q-36 0 -60 24t-24 60q0 35 24 61q24 25 60 25
q35 0 59 -25t24 -61z" />
    <glyph glyph-name="Aring" unicode="&#xc5;" horiz-adv-x="714" 
d="M258 703h199l245 -703h-198l-34 107h-236l-34 -107h-189zM422 262l-70 222l-70 -222h140zM485 869l-2 -3q0 -51 -37 -85t-91 -34q-58 0 -92 34q-36 35 -36 87t36 87q38 35 92 35t92 -35t38 -86zM320 866q0 -15 9 -24t24 -9t25 9t10 24t-10 25t-25 10t-24 -10
q-9 -11 -9 -25z" />
    <glyph glyph-name="AE" unicode="&#xc6;" horiz-adv-x="940" 
d="M891 0h-468v107h-203l-53 -107h-192l360 703h551v-169h-278v-99h254v-159h-254v-107h283v-169zM423 513l-125 -251h125v251z" />
    <glyph glyph-name="Ccedilla" unicode="&#xc7;" horiz-adv-x="806" 
d="M581 300l197 -6q-16 -128 -105 -213q-88 -85 -220 -99l-21 -33q61 -3 92 -34q33 -31 33 -84q0 -55 -40 -89q-41 -35 -102 -35q-63 0 -103 31q-42 32 -48 81l115 1q1 -10 9 -15t21 -5q15 0 24 9t9 23q0 15 -8 23t-24 8q-12 0 -20 -5q-8 -4 -12 -12l-99 40l62 102
q-136 21 -220 121q-84 101 -84 240q0 157 104 261t266 104q146 0 246 -82q101 -82 123 -216h-199q-19 58 -64 91t-107 33q-76 0 -126 -54q-49 -52 -49 -137q0 -83 48 -135q48 -53 126 -53q70 0 116 37q47 38 60 102z" />
    <glyph glyph-name="Egrave" unicode="&#xc8;" horiz-adv-x="589" 
d="M540 0h-468v703h463v-169h-278v-99h254v-159h-254v-107h283v-169zM219 760l-86 150h171l83 -150h-168z" />
    <glyph glyph-name="Eacute" unicode="&#xc9;" horiz-adv-x="589" 
d="M540 0h-468v703h463v-169h-278v-99h254v-159h-254v-107h283v-169zM387 760h-168l83 150h171z" />
    <glyph glyph-name="Ecircumflex" unicode="&#xca;" horiz-adv-x="589" 
d="M540 0h-468v703h463v-169h-278v-99h254v-159h-254v-107h283v-169zM107 760l92 150h206l93 -150h-155l-42 69l-42 -69h-152z" />
    <glyph glyph-name="Edieresis" unicode="&#xcb;" horiz-adv-x="589" 
d="M540 0h-468v703h463v-169h-278v-99h254v-159h-254v-107h283v-169zM294 833q0 -36 -24 -60t-59 -24q-36 0 -60 24t-24 60q0 35 24 61q24 25 60 25q35 0 59 -25t24 -61zM481 833q0 -36 -24 -60t-59 -24q-36 0 -60 24t-24 60q0 35 24 61q24 25 60 25q35 0 59 -25t24 -61z
" />
    <glyph glyph-name="Igrave" unicode="&#xcc;" horiz-adv-x="329" 
d="M257 0h-185v703h185v-703zM80 760l-86 150h171l83 -150h-168z" />
    <glyph glyph-name="Iacute" unicode="&#xcd;" horiz-adv-x="329" 
d="M257 0h-185v703h185v-703zM249 760h-168l83 150h171z" />
    <glyph glyph-name="Icircumflex" unicode="&#xce;" horiz-adv-x="329" 
d="M257 0h-185v703h185v-703zM-32 760l92 150h206l93 -150h-155l-42 69l-42 -69h-152z" />
    <glyph glyph-name="Idieresis" unicode="&#xcf;" horiz-adv-x="329" 
d="M257 0h-185v703h185v-703zM155 833q0 -36 -24 -60t-59 -24q-36 0 -60 24t-24 60q0 35 24 61q24 25 60 25q35 0 59 -25q24 -26 24 -61zM342 833q0 -36 -24 -60t-59 -24q-36 0 -60 24t-24 60q0 35 24 61q24 25 60 25q35 0 59 -25t24 -61z" />
    <glyph glyph-name="Eth" unicode="&#xd0;" horiz-adv-x="799" 
d="M384 0l-278 -1v288h-87v120h87v295h278q166 0 273 -95q106 -94 106 -254q0 -161 -106 -257q-107 -96 -273 -96zM291 287l-1 -114h87q87 0 140 47q51 46 51 132q0 82 -51 129q-49 46 -139 46h-87v-120h130v-120h-130z" />
    <glyph glyph-name="Ntilde" unicode="&#xd1;" horiz-adv-x="730" 
d="M246 0h-174v703h175l237 -389v389h174v-703h-177l-235 386v-386zM385 888l-2 -3q3 -2 7 -4t6.5 -3.5t3.5 -2.5q4 -3 9 -3q7 0 12 8q4 5 7 27h116q-4 -78 -34 -117t-85 -39q-18 0 -33 6q-12 4 -36 23q-15 11 -19 12q-6 3 -12 3q-10 0 -15 -8q-5 -11 -8 -27h-117
q4 76 34 118q30 40 85 40q20 0 38 -6q19 -7 43 -24z" />
    <glyph glyph-name="Ograve" unicode="&#xd2;" horiz-adv-x="824" 
d="M35 352q0 158 105 261q107 104 270 104q166 0 273 -104q106 -103 106 -261t-106 -261q-107 -104 -273 -104q-163 0 -270 104q-105 103 -105 261zM595 351q0 83 -51 137t-133 54q-81 0 -132 -54t-51 -137q0 -84 50 -137t132 -53q83 0 134 53q51 52 51 137zM328 760
l-86 150h171l83 -150h-168z" />
    <glyph glyph-name="Oacute" unicode="&#xd3;" horiz-adv-x="824" 
d="M35 352q0 158 105 261q107 104 270 104q166 0 273 -104q106 -103 106 -261t-106 -261q-107 -104 -273 -104q-163 0 -270 104q-105 103 -105 261zM595 351q0 83 -51 137t-133 54q-81 0 -132 -54t-51 -137q0 -84 50 -137t132 -53q83 0 134 53q51 52 51 137zM496 760h-168
l83 150h171z" />
    <glyph glyph-name="Ocircumflex" unicode="&#xd4;" horiz-adv-x="824" 
d="M35 352q0 158 105 261q107 104 270 104q166 0 273 -104q106 -103 106 -261t-106 -261q-107 -104 -273 -104q-163 0 -270 104q-105 103 -105 261zM595 351q0 83 -51 137t-133 54q-81 0 -132 -54t-51 -137q0 -84 50 -137t132 -53q83 0 134 53q51 52 51 137zM216 760l92 150
h206l93 -150h-155l-42 69l-42 -69h-152z" />
    <glyph glyph-name="Otilde" unicode="&#xd5;" horiz-adv-x="824" 
d="M35 352q0 158 105 261q107 104 270 104q166 0 273 -104q106 -103 106 -261t-106 -261q-107 -104 -273 -104q-163 0 -270 104q-105 103 -105 261zM595 351q0 83 -51 137t-133 54q-81 0 -132 -54t-51 -137q0 -84 50 -137t132 -53q83 0 134 53q51 52 51 137zM431 888l-2 -3
q3 -2 7 -4t6.5 -3.5t3.5 -2.5q4 -3 9 -3q7 0 12 8q4 5 7 27h116q-4 -78 -34 -117t-85 -39q-18 0 -33 6q-12 4 -36 23q-15 11 -19 12q-6 3 -12 3q-10 0 -15 -8q-5 -11 -8 -27h-117q4 76 34 118q30 40 85 40q20 0 38 -6q19 -7 43 -24z" />
    <glyph glyph-name="Odieresis" unicode="&#xd6;" horiz-adv-x="824" 
d="M35 352q0 158 105 261q107 104 270 104q166 0 273 -104q106 -103 106 -261t-106 -261q-107 -104 -273 -104q-163 0 -270 104q-105 103 -105 261zM595 351q0 83 -51 137t-133 54q-81 0 -132 -54t-51 -137q0 -84 50 -137t132 -53q83 0 134 53q51 52 51 137zM403 833
q0 -36 -24 -60t-59 -24q-36 0 -60 24t-24 60q0 35 24 61q24 25 60 25q35 0 59 -25t24 -61zM590 833q0 -36 -24 -60t-59 -24q-36 0 -60 24t-24 60q0 35 24 61q24 25 60 25q35 0 59 -25t24 -61z" />
    <glyph glyph-name="multiply" unicode="&#xd7;" 
d="M154 117l-99 99l131 131l-131 130l99 99l131 -130l130 130l99 -99l-130 -130l130 -131l-99 -99l-130 131z" />
    <glyph glyph-name="Oslash" unicode="&#xd8;" horiz-adv-x="825" 
d="M255 15l-37 -51h-183l98 132q-47 50 -72 116q-25 63 -25 139q0 157 105 261q107 104 270 104q47 0 82 -7q39 -7 78 -22l38 50h180l-97 -132q46 -49 72 -115q26 -69 26 -139q0 -158 -106 -261q-107 -104 -273 -104q-37 0 -80 8q-40 8 -76 21zM412 540l2 -1q-81 0 -132 -54
t-51 -137q0 -28 6 -54t18 -48l213 286q-13 4 -28 6q-22 2 -28 2zM414 158l-3 1q83 0 134 53t51 137q0 29 -6 54q-6 28 -19 48l-212 -286q12 -4 26 -6q9 -1 29 -1z" />
    <glyph glyph-name="Ugrave" unicode="&#xd9;" horiz-adv-x="697" 
d="M447 703l184 -1v-455q0 -115 -81 -189q-79 -73 -205 -73q-121 0 -201 74t-80 189v455h185v-449q0 -44 24 -69t68 -25q49 0 78 26q28 25 28 68v449zM263 759l-86 150h171l83 -150h-168z" />
    <glyph glyph-name="Uacute" unicode="&#xda;" horiz-adv-x="697" 
d="M447 703l184 -1v-455q0 -115 -81 -189q-79 -73 -205 -73q-121 0 -201 74t-80 189v455h185v-449q0 -44 24 -69t68 -25q49 0 78 26q28 25 28 68v449zM431 759h-168l83 150h171z" />
    <glyph glyph-name="Ucircumflex" unicode="&#xdb;" horiz-adv-x="697" 
d="M447 703l184 -1v-455q0 -115 -81 -189q-79 -73 -205 -73q-121 0 -201 74t-80 189v455h185v-449q0 -44 24 -69t68 -25q49 0 78 26q28 25 28 68v449zM151 759l92 150h206l93 -150h-155l-42 69l-42 -69h-152z" />
    <glyph glyph-name="Udieresis" unicode="&#xdc;" horiz-adv-x="697" 
d="M447 703l184 -1v-455q0 -115 -81 -189q-79 -73 -205 -73q-121 0 -201 74t-80 189v455h185v-449q0 -44 24 -69t68 -25q49 0 78 26q28 25 28 68v449zM338 832q0 -36 -24 -60t-59 -24q-36 0 -60 24t-24 60t24 61t60 25q35 0 59 -25t24 -61zM525 832q0 -36 -24 -60t-59 -24
q-36 0 -60 24t-24 60t24 61t60 25q35 0 59 -25t24 -61z" />
    <glyph glyph-name="Yacute" unicode="&#xdd;" horiz-adv-x="680" 
d="M434 0h-185v229l-235 474h211l118 -268l129 268h194l-232 -465v-238zM438 760h-168l83 150h171z" />
    <glyph glyph-name="Thorn" unicode="&#xde;" horiz-adv-x="670" 
d="M72 703l184 -1v-109h108q121 0 198 -65t77 -173q0 -113 -76 -179q-77 -66 -198 -66h-108v-110h-185v703zM354 430h-98v-158h98q42 0 66 21t24 59q0 36 -24 57t-66 21z" />
    <glyph glyph-name="germandbls" unicode="&#xdf;" horiz-adv-x="635" 
d="M346 149l-4 -4q37 0 61 24t24 61q0 35 -25 57q-26 23 -63 23h-54v134h31q34 0 53 21q20 23 20 52q0 31 -21 52t-56 21q-34 0 -55 -22t-21 -55v-515h-177v491q0 125 72 195q70 70 188 70q105 0 176 -56q69 -56 69 -149q0 -53 -18 -91q-18 -37 -55 -61q53 -27 83 -75
t30 -107q0 -99 -66 -164q-68 -65 -163 -65q-23 0 -48 5q-21 5 -40 15v155q13 -6 27 -9t32 -3z" />
    <glyph glyph-name="agrave" unicode="&#xe0;" horiz-adv-x="557" 
d="M335 0l-1 49q-22 -31 -57 -48q-37 -17 -76 -17q-73 0 -120 41q-46 40 -46 107q0 69 45 111t143 63l105 23v5q0 21 -15 33t-39 12q-27 0 -42 -12q-15 -11 -17 -34h-172q5 83 71 137t165 54q106 0 165 -56t59 -152v-316h-168zM249 121l-1 -3q31 0 55 26t24 57v10l-58 -13
q-33 -8 -48 -18t-15 -27t10 -24q11 -8 33 -8zM189 561l-86 150h171l83 -150h-168z" />
    <glyph glyph-name="aacute" unicode="&#xe1;" horiz-adv-x="557" 
d="M335 0l-1 49q-22 -31 -57 -48q-37 -17 -76 -17q-73 0 -120 41q-46 40 -46 107q0 69 45 111t143 63l105 23v5q0 21 -15 33t-39 12q-27 0 -42 -12q-15 -11 -17 -34h-172q5 83 71 137t165 54q106 0 165 -56t59 -152v-316h-168zM249 121l-1 -3q31 0 55 26t24 57v10l-58 -13
q-33 -8 -48 -18t-15 -27t10 -24q11 -8 33 -8zM357 561h-168l83 150h171z" />
    <glyph glyph-name="acircumflex" unicode="&#xe2;" horiz-adv-x="557" 
d="M335 0l-1 49q-22 -31 -57 -48q-37 -17 -76 -17q-73 0 -120 41q-46 40 -46 107q0 69 45 111t143 63l105 23v5q0 21 -15 33t-39 12q-27 0 -42 -12q-15 -11 -17 -34h-172q5 83 71 137t165 54q106 0 165 -56t59 -152v-316h-168zM249 121l-1 -3q31 0 55 26t24 57v10l-58 -13
q-33 -8 -48 -18t-15 -27t10 -24q11 -8 33 -8zM78 561l92 150h206l93 -150h-155l-42 69l-42 -69h-152z" />
    <glyph glyph-name="atilde" unicode="&#xe3;" horiz-adv-x="557" 
d="M335 0l-1 49q-22 -31 -57 -48q-37 -17 -76 -17q-73 0 -120 41q-46 40 -46 107q0 69 45 111t143 63l105 23v5q0 21 -15 33t-39 12q-27 0 -42 -12q-15 -11 -17 -34h-172q5 83 71 137t165 54q106 0 165 -56t59 -152v-316h-168zM249 121l-1 -3q31 0 55 26t24 57v10l-58 -13
q-33 -8 -48 -18t-15 -27t10 -24q11 -8 33 -8zM292 689l-2 -3q3 -2 7 -4t6.5 -3.5t3.5 -2.5q5 -3 9 -3q7 0 12 8q4 5 7 27h116q-4 -78 -34 -117t-85 -39q-18 0 -33 6q-12 4 -36 23q-15 11 -19 12q-6 3 -12 3q-10 0 -15 -8q-5 -11 -8 -27h-117q4 76 34 118q30 40 85 40
q20 0 38 -6q19 -7 43 -24z" />
    <glyph glyph-name="adieresis" unicode="&#xe4;" horiz-adv-x="557" 
d="M335 0l-1 49q-22 -31 -57 -48q-37 -17 -76 -17q-73 0 -120 41q-46 40 -46 107q0 69 45 111t143 63l105 23v5q0 21 -15 33t-39 12q-27 0 -42 -12q-15 -11 -17 -34h-172q5 83 71 137t165 54q106 0 165 -56t59 -152v-316h-168zM249 121l-1 -3q31 0 55 26t24 57v10l-58 -13
q-33 -8 -48 -18t-15 -27t10 -24q11 -8 33 -8zM264 634q0 -36 -24 -60t-59 -24q-36 0 -60 24t-24 60t24 61t60 25q35 0 59 -25t24 -61zM451 634q0 -36 -24 -60t-59 -24q-36 0 -60 24t-24 60t24 61t60 25q35 0 59 -25q24 -26 24 -61z" />
    <glyph glyph-name="aring" unicode="&#xe5;" horiz-adv-x="557" 
d="M335 0l-1 49q-22 -31 -57 -48q-37 -17 -76 -17q-73 0 -120 41q-46 40 -46 107q0 69 45 111t143 63l105 23v5q0 21 -15 33t-39 12q-27 0 -42 -12q-15 -11 -17 -34h-172q5 83 71 137t165 54q106 0 165 -56t59 -152v-316h-168zM249 121l-1 -3q31 0 55 26t24 57v10l-58 -13
q-33 -8 -48 -18t-15 -27t10 -24q11 -8 33 -8zM401 670l-2 -3q0 -51 -37 -85t-91 -34q-58 0 -92 34q-36 34 -36 87t36 87q38 35 92 35t92 -35t38 -86zM236 667q0 -15 9 -24t24 -9t25 9t10 24t-10 25t-25 10t-24 -10t-9 -25z" />
    <glyph glyph-name="ae" unicode="&#xe6;" horiz-adv-x="903" 
d="M695 171l171 -6q-22 -88 -90 -136t-168 -48q-62 0 -117 26q-53 25 -87 75q-26 -50 -72 -75q-47 -26 -108 -26q-82 0 -135 41q-52 40 -52 107q0 69 45 111t143 63l105 23v5q0 21 -15 33t-39 12q-27 0 -42 -12q-15 -11 -17 -34h-172q5 83 71 137t164 54q54 0 92 -16
q40 -17 66 -48q34 31 78 48q46 17 93 17q119 0 191 -72t72 -188v-49h-376q9 -41 36 -63q29 -23 71 -23q36 0 55 10q21 10 37 34zM607 377q-36 0 -61 -16t-39 -46h198q-12 30 -37 46t-61 16zM252 118l-3 -3q31 0 55 26t24 56v10l-58 -12q-34 -7 -48 -18q-13 -10 -13 -27
t10 -24q11 -8 33 -8z" />
    <glyph glyph-name="ccedilla" unicode="&#xe7;" horiz-adv-x="605" 
d="M309 524l-1 -3q109 0 182 -64q74 -65 86 -165h-176q-9 31 -33 49t-58 18q-47 0 -75 -30q-28 -28 -28 -76q0 -44 29 -76q29 -30 75 -30q35 0 59 18t33 49h175q-10 -89 -70 -152q-60 -61 -152 -75l-21 -34q61 -3 92 -34q33 -31 33 -84q0 -55 -40 -89q-41 -35 -102 -35
q-63 0 -103 31q-42 32 -48 81l115 1q1 -10 9 -15t21 -5q15 0 24 9t9 23q0 15 -8 23t-24 8q-12 0 -20 -5q-8 -4 -12 -12l-99 40l63 103q-98 20 -156 92q-58 70 -58 171q0 116 78 192q76 76 201 76z" />
    <glyph glyph-name="egrave" unicode="&#xe8;" horiz-adv-x="604" 
d="M304 127l-1 -1q34 0 55 9t36 32h170q-23 -86 -92 -134t-170 -48q-120 0 -196 76t-76 193q0 114 79 192t196 78q121 0 195 -72t74 -188v-52h-375q9 -40 36 -63q25 -22 69 -22zM304 382h2q-36 0 -61 -16t-39 -46h198q-12 30 -37 46t-63 16zM220 566l-86 150h171l83 -150
h-168z" />
    <glyph glyph-name="eacute" unicode="&#xe9;" horiz-adv-x="604" 
d="M304 127l-1 -1q34 0 55 9t36 32h170q-23 -86 -92 -134t-170 -48q-120 0 -196 76t-76 193q0 114 79 192t196 78q121 0 195 -72t74 -188v-52h-375q9 -40 36 -63q25 -22 69 -22zM304 382h2q-36 0 -61 -16t-39 -46h198q-12 30 -37 46t-63 16zM388 566h-168l83 150h171z" />
    <glyph glyph-name="ecircumflex" unicode="&#xea;" horiz-adv-x="604" 
d="M304 127l-1 -1q34 0 55 9t36 32h170q-23 -86 -92 -134t-170 -48q-120 0 -196 76t-76 193q0 114 79 192t196 78q121 0 195 -72t74 -188v-52h-375q9 -40 36 -63q25 -22 69 -22zM304 382h2q-36 0 -61 -16t-39 -46h198q-12 30 -37 46t-63 16zM109 566l92 150h206l93 -150
h-155l-42 69l-42 -69h-152z" />
    <glyph glyph-name="edieresis" unicode="&#xeb;" horiz-adv-x="604" 
d="M304 127l-1 -1q34 0 55 9t36 32h170q-23 -86 -92 -134t-170 -48q-120 0 -196 76t-76 193q0 114 79 192t196 78q121 0 195 -72t74 -188v-52h-375q9 -40 36 -63q25 -22 69 -22zM304 382h2q-36 0 -61 -16t-39 -46h198q-12 30 -37 46t-63 16zM295 639q0 -36 -24 -60t-59 -24
q-36 0 -60 24t-24 60t24 61t60 25q35 0 59 -25t24 -61zM482 639q0 -36 -24 -60t-59 -24q-36 0 -60 24t-24 60t24 61t60 25q35 0 59 -25t24 -61z" />
    <glyph glyph-name="igrave" unicode="&#xec;" horiz-adv-x="297" 
d="M237 0h-177v510h177v-510zM64 567l-86 150h171l83 -150h-168z" />
    <glyph glyph-name="iacute" unicode="&#xed;" horiz-adv-x="297" 
d="M237 0h-177v510h177v-510zM232 567h-168l83 150h171z" />
    <glyph glyph-name="icircumflex" unicode="&#xee;" horiz-adv-x="297" 
d="M237 0h-177v510h177v-510zM-48 567l92 150h206l93 -150h-155l-42 69l-42 -69h-152z" />
    <glyph glyph-name="idieresis" unicode="&#xef;" horiz-adv-x="297" 
d="M237 0h-177v510h177v-510zM138 640q0 -36 -24 -60t-59 -24q-36 0 -60 24t-24 60t24 61t60 25q35 0 59 -25t24 -61zM325 640q0 -36 -24 -60t-59 -24q-36 0 -60 24t-24 60t24 61t60 25q35 0 59 -25t24 -61z" />
    <glyph glyph-name="eth" unicode="&#xf0;" horiz-adv-x="624" 
d="M30 251l-1 -2q0 105 72 177t178 72q31 0 48 -4q28 -6 44 -13q-9 20 -24 46q-13 23 -27 42l-118 -44v97l57 21q-21 23 -47 47q-20 18 -59 51h202q18 -14 27 -22l27 -24l115 45v-98l-51 -19q55 -71 85 -162q30 -89 30 -174q0 -126 -81 -214t-199 -88t-198 77t-80 189z
M413 248h-1q0 43 -29 72t-75 29q-47 0 -75 -28t-28 -73q0 -44 29 -73q28 -28 75 -28q46 0 75 29t29 72z" />
    <glyph glyph-name="ntilde" unicode="&#xf1;" horiz-adv-x="608" 
d="M237 0l-176 1v510h168v-57q26 36 64 53q39 18 84 18q81 0 129 -51t48 -133v-340h-177v288q0 36 -18 54t-52 18t-52 -19q-18 -20 -18 -54v-288zM327 696l-2 -3q3 -2 7 -4t6.5 -3.5t3.5 -2.5q4 -3 9 -3q7 0 12 8q4 5 7 27h116q-4 -78 -34 -117t-85 -39q-18 0 -33 6
q-12 4 -36 23q-15 11 -19 12q-6 3 -12 3q-10 0 -15 -8q-5 -11 -8 -27h-117q4 76 34 118q30 40 85 40q20 0 38 -6q19 -7 43 -24z" />
    <glyph glyph-name="ograve" unicode="&#xf2;" horiz-adv-x="618" 
d="M30 256v-2q0 116 78 192q76 76 200 76q125 0 201 -76q78 -76 78 -192t-78 -192q-80 -77 -201 -77q-120 0 -200 77q-78 76 -78 194zM413 253l-1 -2q0 45 -29 77q-29 30 -75 30t-75 -30q-28 -28 -28 -76q0 -44 29 -76q28 -30 75 -30t75 30q29 32 29 77zM224 563l-86 150
h171l83 -150h-168z" />
    <glyph glyph-name="oacute" unicode="&#xf3;" horiz-adv-x="618" 
d="M30 256v-2q0 116 78 192q76 76 200 76q125 0 201 -76q78 -76 78 -192t-78 -192q-80 -77 -201 -77q-120 0 -200 77q-78 76 -78 194zM413 253l-1 -2q0 45 -29 77q-29 30 -75 30t-75 -30q-28 -28 -28 -76q0 -44 29 -76q28 -30 75 -30t75 30q29 32 29 77zM392 563h-168
l83 150h171z" />
    <glyph glyph-name="ocircumflex" unicode="&#xf4;" horiz-adv-x="618" 
d="M30 256v-2q0 116 78 192q76 76 200 76q125 0 201 -76q78 -76 78 -192t-78 -192q-80 -77 -201 -77q-120 0 -200 77q-78 76 -78 194zM413 253l-1 -2q0 45 -29 77q-29 30 -75 30t-75 -30q-28 -28 -28 -76q0 -44 29 -76q28 -30 75 -30t75 30q29 32 29 77zM113 563l92 150h206
l93 -150h-155l-42 69l-42 -69h-152z" />
    <glyph glyph-name="otilde" unicode="&#xf5;" horiz-adv-x="618" 
d="M30 256v-2q0 116 78 192q76 76 200 76q125 0 201 -76q78 -76 78 -192t-78 -192q-80 -77 -201 -77q-120 0 -200 77q-78 76 -78 194zM413 253l-1 -2q0 45 -29 77q-29 30 -75 30t-75 -30q-28 -28 -28 -76q0 -44 29 -76q28 -30 75 -30t75 30q29 32 29 77zM327 691l-2 -3
q3 -2 7 -4t6.5 -3.5t3.5 -2.5q4 -3 9 -3q7 0 12 8q4 5 7 27h116q-4 -78 -34 -117t-85 -39q-18 0 -33 6q-12 4 -36 23q-15 11 -19 12q-6 3 -12 3q-10 0 -15 -8q-5 -10 -8 -27h-117q4 76 34 118q30 40 85 40q20 0 38 -6q19 -7 43 -24z" />
    <glyph glyph-name="odieresis" unicode="&#xf6;" horiz-adv-x="618" 
d="M30 256v-2q0 116 78 192q76 76 200 76q125 0 201 -76q78 -76 78 -192t-78 -192q-80 -77 -201 -77q-120 0 -200 77q-78 76 -78 194zM413 253l-1 -2q0 45 -29 77q-29 30 -75 30t-75 -30q-28 -28 -28 -76q0 -44 29 -76q28 -30 75 -30t75 30q29 32 29 77zM299 636
q0 -36 -24 -60t-59 -24q-36 0 -60 24t-24 60t24 61t60 25q35 0 59 -25t24 -61zM486 636q0 -36 -24 -60t-59 -24q-36 0 -60 24t-24 60t24 61t60 25q35 0 59 -25t24 -61z" />
    <glyph glyph-name="divide" unicode="&#xf7;" 
d="M388 564l-1 -1q0 -41 -30 -69q-32 -29 -73 -29q-43 0 -72 29q-28 28 -28 69q0 43 29 72t72 29q46 0 74 -28q29 -29 29 -72zM49 279v140h470v-140h-470zM387 132l-1 -1q0 -41 -30 -69q-32 -29 -73 -29q-43 0 -72 29q-28 28 -28 69q0 43 29 72t72 29q46 0 74 -28
q29 -29 29 -72z" />
    <glyph glyph-name="oslash" unicode="&#xf8;" horiz-adv-x="618" 
d="M194 7l-32 -42h-133l73 100q-36 39 -55 87q-19 47 -19 105q0 115 78 192q76 76 200 76q30 0 60 -6q36 -7 58 -16l30 41h133l-74 -101q37 -40 55 -85q19 -45 19 -102q0 -116 -78 -192q-80 -77 -201 -77q-28 0 -60 5q-28 4 -54 15zM306 364l1 -1q-48 0 -78 -31
q-30 -32 -30 -79q0 -15 3 -28t9 -25l119 162l-15 2h-9zM307 143l-1 -2q49 0 79 31q30 32 30 79q0 15 -3 29t-9 26l-119 -162l14 -1h9z" />
    <glyph glyph-name="ugrave" unicode="&#xf9;" horiz-adv-x="599" 
d="M295 145v-1q33 0 50 20t17 57v288h177v-510h-168v57q-26 -35 -60 -53q-36 -18 -81 -18q-78 0 -126 51t-48 133v340h177v-288q0 -37 15 -57q15 -19 47 -19zM214 566l-86 150h171l83 -150h-168z" />
    <glyph glyph-name="uacute" unicode="&#xfa;" horiz-adv-x="599" 
d="M295 145v-1q33 0 50 20t17 57v288h177v-510h-168v57q-26 -35 -60 -53q-36 -18 -81 -18q-78 0 -126 51t-48 133v340h177v-288q0 -37 15 -57q15 -19 47 -19zM382 566h-168l83 150h171z" />
    <glyph glyph-name="ucircumflex" unicode="&#xfb;" horiz-adv-x="599" 
d="M295 145v-1q33 0 50 20t17 57v288h177v-510h-168v57q-26 -35 -60 -53q-36 -18 -81 -18q-78 0 -126 51t-48 133v340h177v-288q0 -37 15 -57q15 -19 47 -19zM102 566l92 150h206l93 -150h-155l-42 69l-42 -69h-152z" />
    <glyph glyph-name="udieresis" unicode="&#xfc;" horiz-adv-x="599" 
d="M295 145v-1q33 0 50 20t17 57v288h177v-510h-168v57q-26 -35 -60 -53q-36 -18 -81 -18q-78 0 -126 51t-48 133v340h177v-288q0 -37 15 -57q15 -19 47 -19zM288 639q0 -36 -24 -60t-59 -24q-36 0 -60 24t-24 60t24 61t60 25q35 0 59 -25t24 -61zM475 639q0 -36 -24 -60
t-59 -24q-36 0 -60 24t-24 60t24 61t60 25q35 0 59 -25t24 -61z" />
    <glyph glyph-name="yacute" unicode="&#xfd;" horiz-adv-x="575" 
d="M382 510h182l-250 -722h-178l66 194l-194 528h188l93 -284zM373 567h-168l83 150h171z" />
    <glyph glyph-name="thorn" unicode="&#xfe;" horiz-adv-x="655" 
d="M388 524h1q104 0 170 -75t66 -193q0 -120 -66 -195t-171 -75q-49 0 -84 16q-38 16 -66 48v-262h-177v953h177v-287q28 34 66 52t84 18zM438 255l2 -1q0 51 -28 79q-28 30 -75 30t-75 -30q-28 -28 -28 -78q0 -49 27 -79t74 -30t75 30q28 28 28 79z" />
    <glyph glyph-name="ydieresis" unicode="&#xff;" horiz-adv-x="575" 
d="M382 510h182l-250 -722h-178l66 194l-194 528h188l93 -284zM280 640q0 -36 -24 -60t-59 -24q-36 0 -60 24t-24 60t24 61t60 25q35 0 59 -25t24 -61zM467 640q0 -36 -24 -60t-59 -24q-36 0 -60 24t-24 60t24 61t60 25q35 0 59 -25t24 -61z" />
    <glyph glyph-name="Amacron" unicode="&#x100;" horiz-adv-x="714" 
d="M258 703h199l245 -703h-198l-34 107h-236l-34 -107h-189zM422 262l-70 222l-70 -222h140zM507 772h-299v118h299v-118z" />
    <glyph glyph-name="amacron" unicode="&#x101;" horiz-adv-x="557" 
d="M335 0l-1 49q-22 -31 -57 -48q-37 -17 -76 -17q-73 0 -120 41q-46 40 -46 107q0 69 45 111t143 63l105 23v5q0 21 -15 33t-39 12q-27 0 -42 -12q-15 -11 -17 -34h-172q5 83 71 137t165 54q106 0 165 -56t59 -152v-316h-168zM249 121l-1 -3q31 0 55 26t24 57v10l-58 -13
q-33 -8 -48 -18t-15 -27t10 -24q11 -8 33 -8zM423 573h-299v118h299v-118z" />
    <glyph glyph-name="Abreve" unicode="&#x102;" horiz-adv-x="714" 
d="M258 703h199l245 -703h-198l-34 107h-236l-34 -107h-189zM422 262l-70 222l-70 -222h140zM357 748l-1 -2q-78 0 -127 46q-51 46 -51 114h129q0 -23 13 -36q14 -14 36 -14t35 15q14 17 14 37h129q0 -68 -51 -114q-49 -46 -126 -46z" />
    <glyph glyph-name="abreve" unicode="&#x103;" horiz-adv-x="557" 
d="M335 0l-1 49q-22 -31 -57 -48q-37 -17 -76 -17q-73 0 -120 41q-46 40 -46 107q0 69 45 111t143 63l105 23v5q0 21 -15 33t-39 12q-27 0 -42 -12q-15 -11 -17 -34h-172q5 83 71 137t165 54q106 0 165 -56t59 -152v-316h-168zM249 121l-1 -3q31 0 55 26t24 57v10l-58 -13
q-33 -8 -48 -18t-15 -27t10 -24q11 -8 33 -8zM273 549l-1 -2q-78 0 -127 46q-51 47 -51 114h129q0 -23 13 -36q14 -14 36 -14t35 15q14 17 14 37h129q0 -67 -51 -114q-49 -46 -126 -46z" />
    <glyph glyph-name="Aogonek" unicode="&#x104;" horiz-adv-x="714" 
d="M258 703l196 -6l245 -703h-77q-48 -52 -67 -81q-16 -25 -16 -46q0 -16 11 -25q10 -9 29 -9q14 0 23 4q12 5 24 12v-113q-18 -12 -46 -19q-26 -6 -54 -6q-55 0 -90 32t-35 86q0 35 19 69q20 34 84 102l-34 107h-236l-34 -107h-189zM419 256l-70 222l-70 -222h140z" />
    <glyph glyph-name="aogonek" unicode="&#x105;" horiz-adv-x="557" 
d="M335 0l-4 43q-23 -31 -57 -48q-37 -17 -76 -17q-73 0 -120 41q-46 40 -46 107q0 69 45 111t143 63l105 23v5q0 21 -15 33t-39 12q-27 0 -42 -12q-15 -11 -17 -34h-172q5 83 71 137t165 54q106 0 165 -56t59 -152v-316h-47q-48 -52 -67 -81q-16 -25 -16 -46q0 -16 11 -25
t29 -9q14 0 23 4q12 5 24 12v-113q-18 -12 -46 -19q-25 -6 -54 -6q-55 0 -90 32t-35 86q0 35 19 69t84 102zM246 115l-1 -3q31 0 55 26t24 57v10l-58 -13q-33 -8 -48 -18t-15 -27t10 -24q11 -8 33 -8z" />
    <glyph glyph-name="Cacute" unicode="&#x106;" horiz-adv-x="806" 
d="M581 300l197 -2q-18 -140 -120 -227t-251 -87q-162 0 -266 104t-104 261t104 261t266 104q146 0 246 -82q101 -82 123 -216h-199q-19 58 -64 91t-107 33q-76 0 -126 -54q-49 -52 -49 -137q0 -83 48 -135q48 -53 126 -53q70 0 116 37q47 38 60 102zM491 758h-168l83 150
h171z" />
    <glyph glyph-name="cacute" unicode="&#x107;" horiz-adv-x="605" 
d="M309 524l-1 -2q109 0 182 -64q74 -65 86 -165h-176q-9 31 -33 49t-58 18q-47 0 -75 -30q-28 -28 -28 -76q0 -44 29 -76q29 -30 75 -30q35 0 59 18t33 49h175q-12 -101 -86 -166q-73 -64 -182 -64q-121 0 -201 77q-78 76 -78 194q0 116 78 192q76 76 201 76zM392 565h-168
l83 150h171z" />
    <glyph glyph-name="Ccircumflex" unicode="&#x108;" horiz-adv-x="806" 
d="M581 300l197 -2q-18 -140 -120 -227t-251 -87q-162 0 -266 104t-104 261t104 261t266 104q146 0 246 -82q101 -82 123 -216h-199q-19 58 -64 91t-107 33q-76 0 -126 -54q-49 -52 -49 -137q0 -83 48 -135q48 -53 126 -53q70 0 116 37q47 38 60 102zM211 758l92 150h206
l93 -150h-155l-42 69l-42 -69h-152z" />
    <glyph glyph-name="ccircumflex" unicode="&#x109;" horiz-adv-x="605" 
d="M309 524l-1 -2q109 0 182 -64q74 -65 86 -165h-176q-9 31 -33 49t-58 18q-47 0 -75 -30q-28 -28 -28 -76q0 -44 29 -76q29 -30 75 -30q35 0 59 18t33 49h175q-12 -101 -86 -166q-73 -64 -182 -64q-121 0 -201 77q-78 76 -78 194q0 116 78 192q76 76 201 76zM113 565
l92 150h206l93 -150h-155l-42 69l-42 -69h-152z" />
    <glyph glyph-name="Cdotaccent" unicode="&#x10a;" horiz-adv-x="806" 
d="M581 300l197 -2q-18 -140 -120 -227t-251 -87q-162 0 -266 104t-104 261t104 261t266 104q146 0 246 -82q101 -82 123 -216h-199q-19 58 -64 91t-107 33q-76 0 -126 -54q-49 -52 -49 -137q0 -83 48 -135q48 -53 126 -53q70 0 116 37q47 38 60 102zM500 838q0 -38 -27 -65
t-65 -27t-65 27t-27 65t27 65t65 27t65 -27t27 -65z" />
    <glyph glyph-name="cdotaccent" unicode="&#x10b;" horiz-adv-x="605" 
d="M309 524l-1 -2q109 0 182 -64q74 -65 86 -165h-176q-9 31 -33 49t-58 18q-47 0 -75 -30q-28 -28 -28 -76q0 -44 29 -76q29 -30 75 -30q35 0 59 18t33 49h175q-12 -101 -86 -166q-73 -64 -182 -64q-121 0 -201 77q-78 76 -78 194q0 116 78 192q76 76 201 76zM401 645
q0 -38 -27 -65t-65 -27t-65 27t-27 65t27 65t65 27t65 -27t27 -65z" />
    <glyph glyph-name="Ccaron" unicode="&#x10c;" horiz-adv-x="806" 
d="M581 300l197 -2q-18 -140 -120 -227t-251 -87q-162 0 -266 104t-104 261t104 261t266 104q146 0 246 -82q101 -82 123 -216h-199q-19 58 -64 91t-107 33q-76 0 -126 -54q-49 -52 -49 -137q0 -83 48 -135q48 -53 126 -53q70 0 116 37q47 38 60 102zM211 908h152l42 -69
l42 69h155l-93 -150h-206z" />
    <glyph glyph-name="ccaron" unicode="&#x10d;" horiz-adv-x="605" 
d="M309 524l-1 -2q109 0 182 -64q74 -65 86 -165h-176q-9 31 -33 49t-58 18q-47 0 -75 -30q-28 -28 -28 -76q0 -44 29 -76q29 -30 75 -30q35 0 59 18t33 49h175q-12 -101 -86 -166q-73 -64 -182 -64q-121 0 -201 77q-78 76 -78 194q0 116 78 192q76 76 201 76zM113 715h152
l42 -69l42 69h155l-93 -150h-206z" />
    <glyph glyph-name="Dcaron" unicode="&#x10e;" horiz-adv-x="765" 
d="M350 0l-278 -1v703h278q166 0 273 -95q106 -94 106 -254q0 -161 -106 -257q-107 -96 -273 -96zM257 527l-1 -354h87q87 0 140 47q51 46 51 132q0 82 -51 129q-49 46 -139 46h-87zM153 908h152l42 -69l42 69h155l-93 -150h-206z" />
    <glyph glyph-name="dcaron" unicode="&#x10f;" horiz-adv-x="793" 
d="M266 -14h-2q-103 0 -169 75t-66 193q0 120 66 195t171 75q49 0 84 -16q38 -16 66 -48v281h177v-741h-167v68q-28 -40 -69 -61t-91 -21zM215 255l-2 1q0 -51 28 -79q29 -30 75 -30t75 30q28 28 28 78q0 49 -27 79t-74 30q-46 0 -75 -30q-28 -28 -28 -79zM828 609l-66 -141
h-100l54 113q-26 9 -41 32t-15 51q0 39 26 65t66 26q38 0 67 -26q27 -25 27 -65q0 -8 -3 -19t-15 -36z" />
    <glyph glyph-name="Dcroat" unicode="&#x110;" horiz-adv-x="799" 
d="M384 0l-278 -1v288h-87v120h87v295h278q166 0 273 -95q106 -94 106 -254q0 -161 -106 -257q-107 -96 -273 -96zM291 287l-1 -114h87q87 0 140 47q51 46 51 132q0 82 -51 129q-49 46 -139 46h-87v-120h130v-120h-130z" />
    <glyph glyph-name="dcroat" unicode="&#x111;" horiz-adv-x="654" 
d="M266 -14h-2q-103 0 -169 75t-66 193q0 120 66 195t171 75q49 0 84 -16q38 -16 66 -48v109h-149v120h149v52h177v-52h69v-120h-69v-569h-167v68q-28 -40 -69 -61t-91 -21zM215 255l-2 1q0 -51 28 -79q29 -30 75 -30t75 30q28 28 28 78q0 49 -27 79t-74 30q-46 0 -75 -30
q-28 -28 -28 -79z" />
    <glyph glyph-name="Emacron" unicode="&#x112;" horiz-adv-x="589" 
d="M540 0h-468v703h463v-169h-278v-99h254v-159h-254v-107h283v-169zM453 772h-299v118h299v-118z" />
    <glyph glyph-name="emacron" unicode="&#x113;" horiz-adv-x="604" 
d="M304 127l-1 -1q34 0 55 9t36 32h170q-23 -86 -92 -134t-170 -48q-120 0 -196 76t-76 193q0 114 79 192t196 78q121 0 195 -72t74 -188v-52h-375q9 -40 36 -63q25 -22 69 -22zM304 382h2q-36 0 -61 -16t-39 -46h198q-12 30 -37 46t-63 16zM454 578h-299v118h299v-118z" />
    <glyph glyph-name="Ebreve" unicode="&#x114;" horiz-adv-x="589" 
d="M540 0h-468v703h463v-169h-278v-99h254v-159h-254v-107h283v-169zM303 748l-1 -2q-78 0 -127 46q-51 46 -51 114h129q0 -23 13 -36q14 -14 36 -14t35 15q14 17 14 37h129q0 -68 -51 -114q-49 -46 -126 -46z" />
    <glyph glyph-name="ebreve" unicode="&#x115;" horiz-adv-x="604" 
d="M304 127l-1 -1q34 0 55 9t36 32h170q-23 -86 -92 -134t-170 -48q-120 0 -196 76t-76 193q0 114 79 192t196 78q121 0 195 -72t74 -188v-52h-375q9 -40 36 -63q25 -22 69 -22zM304 382h2q-36 0 -61 -16t-39 -46h198q-12 30 -37 46t-63 16zM304 554l-1 -2q-78 0 -127 46
q-51 46 -51 114h129q0 -23 13 -36q14 -14 36 -14q21 0 35 15q14 17 14 37h129q0 -68 -51 -114q-49 -46 -126 -46z" />
    <glyph glyph-name="Edotaccent" unicode="&#x116;" horiz-adv-x="589" 
d="M540 0h-468v703h463v-169h-278v-99h254v-159h-254v-107h283v-169zM396 840q0 -38 -27 -65t-65 -27t-65 27t-27 65t27 65t65 27t65 -27t27 -65z" />
    <glyph glyph-name="edotaccent" unicode="&#x117;" horiz-adv-x="604" 
d="M304 127l-1 -1q34 0 55 9t36 32h170q-23 -86 -92 -134t-170 -48q-120 0 -196 76t-76 193q0 114 79 192t196 78q121 0 195 -72t74 -188v-52h-375q9 -40 36 -63q25 -22 69 -22zM304 382h2q-36 0 -61 -16t-39 -46h198q-12 30 -37 46t-63 16zM397 646q0 -38 -27 -65t-65 -27
t-65 27t-27 65t27 65t65 27t65 -27t27 -65z" />
    <glyph glyph-name="Eogonek" unicode="&#x118;" horiz-adv-x="589" 
d="M392 0l-323 -6v703h463v-169h-278v-99h254v-159h-254v-107h283v-169h-27q-48 -52 -67 -81q-16 -25 -16 -46q0 -16 11 -25q10 -9 29 -9q14 0 23 4q12 5 24 12v-113q-18 -12 -46 -19q-26 -6 -54 -6q-55 0 -90 32t-35 86q0 35 19 69q20 34 84 102z" />
    <glyph glyph-name="eogonek" unicode="&#x119;" horiz-adv-x="604" 
d="M312 -14l-17 -4q-120 0 -196 76t-76 193q0 114 79 192q80 78 196 78q122 0 195 -72q74 -72 74 -188v-52h-375q9 -41 36 -63q25 -22 69 -22q34 0 55 9t36 32h170q-8 -31 -21 -57t-33 -48q-88 -96 -112 -132q-21 -33 -21 -61q0 -16 11 -25q10 -9 29 -9q14 0 23 4
q12 5 24 12v-113q-18 -12 -46 -19q-26 -6 -54 -6q-55 0 -90 32t-35 86q0 37 18 73q20 39 61 84zM298 379h2q-36 0 -61 -16t-39 -46h198q-12 30 -37 46t-63 16z" />
    <glyph glyph-name="Ecaron" unicode="&#x11a;" horiz-adv-x="589" 
d="M540 0h-468v703h463v-169h-278v-99h254v-159h-254v-107h283v-169zM107 910h152l42 -69l42 69h155l-93 -150h-206z" />
    <glyph glyph-name="ecaron" unicode="&#x11b;" horiz-adv-x="604" 
d="M304 127l-1 -1q34 0 55 9t36 32h170q-23 -86 -92 -134t-170 -48q-120 0 -196 76t-76 193q0 114 79 192t196 78q121 0 195 -72t74 -188v-52h-375q9 -40 36 -63q25 -22 69 -22zM304 382h2q-36 0 -61 -16t-39 -46h198q-12 30 -37 46t-63 16zM109 716h152l42 -69l42 69h155
l-93 -150h-206z" />
    <glyph glyph-name="Gcircumflex" unicode="&#x11c;" horiz-adv-x="811" 
d="M759 379l2 -378h-155v77q-38 -45 -92 -68q-57 -23 -122 -23q-156 0 -255 104q-99 103 -99 263q0 158 103 261q104 104 265 104q139 0 233 -73q96 -73 123 -196h-204q-21 46 -60 70t-94 24q-78 0 -126 -54t-48 -138q0 -86 50 -142q50 -54 135 -54q59 0 102 21q44 21 65 59
h-174v143h351zM210 761l92 150h206l93 -150h-155l-42 69l-42 -69h-152z" />
    <glyph glyph-name="gcircumflex" unicode="&#x11d;" horiz-adv-x="632" 
d="M38 -22l169 -1q3 -27 27 -42t64 -15q43 0 69 23q24 22 24 65v71q-25 -29 -60 -42q-37 -14 -77 -14q-100 0 -162 69q-61 67 -61 181q0 113 63 182t167 69q48 0 81 -16q36 -16 62 -48v51h167v-483q0 -118 -71 -186q-70 -67 -198 -67q-112 0 -186 57q-73 57 -78 146z
M213 273q0 -43 25 -68q26 -26 66 -26q41 0 67 26q25 25 25 68t-25 68q-26 26 -67 26q-40 0 -66 -26q-25 -25 -25 -68zM98 566l92 150h206l93 -150h-155l-42 69l-42 -69h-152z" />
    <glyph glyph-name="Gbreve" unicode="&#x11e;" horiz-adv-x="811" 
d="M759 379l2 -378h-155v77q-38 -45 -92 -68q-57 -23 -122 -23q-156 0 -255 104q-99 103 -99 263q0 158 103 261q104 104 265 104q139 0 233 -73q96 -73 123 -196h-204q-21 46 -60 70t-94 24q-78 0 -126 -54t-48 -138q0 -86 50 -142q50 -54 135 -54q59 0 102 21q44 21 65 59
h-174v143h351zM406 749l-1 -2q-78 0 -127 46q-51 47 -51 114h129q0 -23 13 -36q14 -14 36 -14q21 0 35 15q14 17 14 37h129q0 -67 -51 -114q-49 -46 -126 -46z" />
    <glyph glyph-name="gbreve" unicode="&#x11f;" horiz-adv-x="632" 
d="M38 -22l169 -1q3 -27 27 -42t64 -15q43 0 69 23q24 22 24 65v71q-25 -29 -60 -42q-37 -14 -77 -14q-100 0 -162 69q-61 67 -61 181q0 113 63 182t167 69q48 0 81 -16q36 -16 62 -48v51h167v-483q0 -118 -71 -186q-70 -67 -198 -67q-112 0 -186 57q-73 57 -78 146z
M213 273q0 -43 25 -68q26 -26 66 -26q41 0 67 26q25 25 25 68t-25 68q-26 26 -67 26q-40 0 -66 -26q-25 -25 -25 -68zM294 554l-1 -2q-78 0 -127 46q-51 46 -51 114h129q0 -23 13 -36q14 -14 36 -14q21 0 35 15q14 17 14 37h129q0 -68 -51 -114q-49 -46 -126 -46z" />
    <glyph glyph-name="Gdotaccent" unicode="&#x120;" horiz-adv-x="811" 
d="M759 379l2 -378h-155v77q-38 -45 -92 -68q-57 -23 -122 -23q-156 0 -255 104q-99 103 -99 263q0 158 103 261q104 104 265 104q139 0 233 -73q96 -73 123 -196h-204q-21 46 -60 70t-94 24q-78 0 -126 -54t-48 -138q0 -86 50 -142q50 -54 135 -54q59 0 102 21q44 21 65 59
h-174v143h351zM499 841q0 -38 -27 -65t-65 -27t-65 27t-27 65t27 65t65 27t65 -27t27 -65z" />
    <glyph glyph-name="gdotaccent" unicode="&#x121;" horiz-adv-x="632" 
d="M38 -22l169 -1q3 -27 27 -42t64 -15q43 0 69 23q24 22 24 65v71q-25 -29 -60 -42q-37 -14 -77 -14q-100 0 -162 69q-61 67 -61 181q0 113 63 182t167 69q48 0 81 -16q36 -16 62 -48v51h167v-483q0 -118 -71 -186q-70 -67 -198 -67q-112 0 -186 57q-73 57 -78 146z
M213 273q0 -43 25 -68q26 -26 66 -26q41 0 67 26q25 25 25 68t-25 68q-26 26 -67 26q-40 0 -66 -26q-25 -25 -25 -68zM386 646q0 -38 -27 -65t-65 -27t-65 27t-27 65t27 65t65 27t65 -27t27 -65z" />
    <glyph glyph-name="uni0122" unicode="&#x122;" horiz-adv-x="811" 
d="M759 379l2 -378h-155v77q-38 -45 -92 -68q-57 -23 -122 -23q-156 0 -255 104q-99 103 -99 263q0 158 103 261q104 104 265 104q139 0 233 -73q96 -73 123 -196h-204q-21 46 -60 70t-94 24q-78 0 -126 -54t-48 -138q0 -86 50 -142q50 -54 135 -54q59 0 102 21q44 21 65 59
h-174v143h351zM471 -184l-64 -121h-90l46 89q-22 9 -36 29q-13 19 -13 44q0 35 24 59t60 24q37 0 61 -24t24 -58q0 -10 -3 -21t-9 -21z" />
    <glyph glyph-name="uni0123" unicode="&#x123;" horiz-adv-x="632" 
d="M38 -22l169 -1q3 -27 27 -42t64 -15q43 0 69 23q24 22 24 65v71q-25 -29 -60 -42q-37 -14 -77 -14q-100 0 -162 69q-61 67 -61 181q0 113 63 182t167 69q48 0 81 -16q36 -16 62 -48v51h167v-483q0 -118 -71 -186q-70 -67 -198 -67q-112 0 -186 57q-73 57 -78 146z
M213 273q0 -43 25 -68q26 -26 66 -26q41 0 67 26q25 25 25 68t-25 68q-26 26 -67 26q-40 0 -66 -26q-25 -25 -25 -68zM222 678l63 119h90l-46 -89q22 -9 36 -29t14 -44q0 -34 -24 -58t-60 -24q-37 0 -61 24t-24 59q0 10 3 21t9 21z" />
    <glyph glyph-name="Hcircumflex" unicode="&#x124;" horiz-adv-x="721" 
d="M257 0h-185v703h185v-259h207v259h185v-703h-185v269h-207v-269zM165 760l92 150h206l93 -150h-155l-42 69l-42 -69h-152z" />
    <glyph glyph-name="hcircumflex" unicode="&#x125;" horiz-adv-x="608" 
d="M237 0l-176 2v741h177v-277q28 31 61 44q36 15 78 15q81 0 129 -51t48 -133v-340h-177v288q0 36 -18 54t-52 18t-52 -19q-18 -20 -18 -54v-288zM-47 800l92 150h206l93 -150h-155l-42 69l-42 -69h-152z" />
    <glyph glyph-name="Hbar" unicode="&#x126;" horiz-adv-x="785" 
d="M289 0h-185v502h-80v120h80v81h185v-81h207v81h185v-81h80v-120h-80v-502h-185v269h-207v-269zM289 502v-58h207v58h-207z" />
    <glyph glyph-name="hbar" unicode="&#x127;" horiz-adv-x="608" 
d="M237 0l-176 2v569h-69v120h69v52h177v-52h149v-120h-149v-105q28 31 61 44q36 15 78 15q81 0 129 -51t48 -133v-340h-177v288q0 36 -18 54t-52 18t-52 -19q-18 -20 -18 -54v-288z" />
    <glyph glyph-name="Itilde" unicode="&#x128;" horiz-adv-x="329" 
d="M257 0h-185v703h185v-703zM183 888l-2 -3q3 -2 7 -4t6.5 -3.5t3.5 -2.5q4 -3 9 -3q7 0 12 8q4 5 7 27h116q-4 -78 -34 -117t-85 -39q-18 0 -33 6q-12 4 -36 23q-15 11 -19 12q-6 3 -12 3q-10 0 -15 -8q-5 -11 -8 -27h-117q4 76 34 118q30 40 85 40q20 0 38 -6
q19 -7 43 -24z" />
    <glyph glyph-name="itilde" unicode="&#x129;" horiz-adv-x="297" 
d="M237 0h-177v510h177v-510zM167 695l-2 -3q3 -2 7 -4t6.5 -3.5t3.5 -2.5q4 -3 9 -3q7 0 12 8q4 5 7 27h116q-4 -78 -34 -117t-85 -39q-18 0 -33 6q-12 4 -36 23q-15 11 -19 12q-6 3 -12 3q-10 0 -15 -8q-5 -11 -8 -27h-117q4 76 34 118q30 40 85 40q20 0 38 -6
q19 -7 43 -24z" />
    <glyph glyph-name="Imacron" unicode="&#x12a;" horiz-adv-x="329" 
d="M257 0h-185v703h185v-703zM314 772h-299v118h299v-118z" />
    <glyph glyph-name="imacron" unicode="&#x12b;" horiz-adv-x="297" 
d="M237 0h-177v510h177v-510zM297 579h-299v118h299v-118z" />
    <glyph glyph-name="Iogonek" unicode="&#x12e;" horiz-adv-x="329" 
d="M-31 -170l-3 -6q0 35 19 69q19 35 84 102v703h185v-703h-64q-48 -52 -67 -81q-16 -25 -16 -46q0 -16 11 -25q10 -9 29 -9q14 0 23 4q12 4 24 12v-113q-18 -12 -46 -19q-26 -6 -54 -6q-55 0 -90 32t-35 86z" />
    <glyph glyph-name="iogonek" unicode="&#x12f;" horiz-adv-x="297" 
d="M42 652v-1q0 46 29 75t77 29q50 0 78 -28q30 -29 30 -75q0 -44 -30 -72q-32 -29 -78 -29q-44 0 -76 29q-30 28 -30 72zM-43 -171l-3 -6q0 35 19 69t84 102v510h177v-510h-56q-48 -52 -67 -81q-16 -25 -16 -46q0 -16 11 -25q10 -9 29 -9q14 0 23 4q12 5 24 12v-113
q-18 -12 -46 -19q-26 -6 -54 -6q-55 0 -90 32t-35 86z" />
    <glyph glyph-name="Idotaccent" unicode="&#x130;" horiz-adv-x="329" 
d="M257 0h-185v703h185v-703zM258 840q0 -38 -27 -65t-65 -27t-65 27t-27 65t27 65t65 27t65 -27t27 -65z" />
    <glyph glyph-name="dotlessi" unicode="&#x131;" horiz-adv-x="297" 
d="M237 0h-177v510h177v-510z" />
    <glyph glyph-name="IJ" unicode="&#x132;" horiz-adv-x="926" 
d="M257 0h-185v703h185v-703zM675 703h184v-458q0 -115 -73 -187q-74 -72 -189 -72t-187 72t-72 189h185q2 -45 20 -66q18 -22 56 -22q37 0 56 24q20 26 20 68v452z" />
    <glyph glyph-name="ij" unicode="&#x133;" horiz-adv-x="602" 
d="M42 652v-1q0 46 29 75t77 29q50 0 78 -28q30 -29 30 -75q0 -44 -30 -72q-32 -29 -78 -29q-44 0 -76 29q-30 28 -30 72zM237 -1h-177v510h177v-510zM554 655v-3q0 -40 -29 -69q-28 -28 -72 -28t-72 28t-28 70q0 44 28 72t72 28t72 -28q29 -29 29 -70zM365 506l178 -1v-528
q0 -108 -49 -157q-49 -51 -151 -51q-20 0 -31 1q-23 2 -30 4v154q8 -1 18 -1h11q30 0 42 12t12 40v527z" />
    <glyph glyph-name="Jcircumflex" unicode="&#x134;" horiz-adv-x="597" 
d="M346 703h184v-458q0 -115 -73 -187t-189 -72q-115 0 -187 72t-72 189h185q2 -45 20 -66q18 -22 56 -22q36 0 56 24q20 26 20 68v452zM241 760l92 150h206l93 -150h-155l-42 69l-42 -69h-152z" />
    <glyph glyph-name="jcircumflex" unicode="&#x135;" horiz-adv-x="305" 
d="M68 510l178 -1v-528q0 -108 -49 -157q-49 -51 -151 -51q-20 0 -31 1q-23 2 -30 4v154q8 -1 18 -1h11q30 0 42 12t12 40v527zM-39 566l92 150h206l93 -150h-155l-42 69l-42 -69h-152z" />
    <glyph glyph-name="uni0136" unicode="&#x136;" horiz-adv-x="683" 
d="M72 703h185v-298l212 298h216l-251 -338l254 -365h-227l-204 306v-306h-185v703zM432 -185l-64 -121h-90l46 89q-22 9 -36 29q-13 19 -13 44q0 35 24 59t60 24q37 0 61 -24t24 -58q0 -11 -3 -21t-9 -21z" />
    <glyph glyph-name="uni0137" unicode="&#x137;" horiz-adv-x="574" 
d="M237 0h-177v741h177v-429l118 198h196l-144 -227l174 -283h-206l-138 234v-234zM379 -185l-64 -121h-90l46 89q-22 9 -36 29q-13 19 -13 44q0 35 24 59t60 24q37 0 61 -24t24 -58q0 -11 -3 -21t-9 -21z" />
    <glyph glyph-name="kgreenlandic" unicode="&#x138;" horiz-adv-x="574" 
d="M237 0h-177v510h177v-198l118 198h196l-144 -227l174 -283h-206l-138 234v-234z" />
    <glyph glyph-name="Lacute" unicode="&#x139;" horiz-adv-x="536" 
d="M520 0h-448v703h185v-534h263v-169zM248 760h-168l83 150h171z" />
    <glyph glyph-name="lacute" unicode="&#x13a;" horiz-adv-x="297" 
d="M60 741h177v-741h-177v741zM233 798h-168l83 150h171z" />
    <glyph glyph-name="uni013B" unicode="&#x13b;" horiz-adv-x="536" 
d="M520 0h-448v703h185v-534h263v-169zM368 -185l-64 -121h-90l46 89q-22 9 -36 29q-13 19 -13 44q0 35 24 59t60 24q37 0 61 -24t24 -58q0 -11 -3 -21t-9 -21z" />
    <glyph glyph-name="uni013C" unicode="&#x13c;" horiz-adv-x="297" 
d="M60 741h177v-741h-177v741zM220 -185l-64 -121h-90l46 89q-22 9 -36 29q-13 19 -13 44q0 35 24 59t60 24q37 0 61 -24t24 -58q0 -11 -3 -21t-9 -21z" />
    <glyph glyph-name="Lcaron" unicode="&#x13d;" horiz-adv-x="547" 
d="M520 0h-448v703h185v-534h263v-169zM494 608l-66 -141h-100l54 113q-26 9 -41 32q-15 22 -15 51q0 39 26 65t66 26q38 0 67 -26q27 -25 27 -65q0 -9 -3 -19t-15 -36z" />
    <glyph glyph-name="lcaron" unicode="&#x13e;" horiz-adv-x="436" 
d="M60 741h177v-741h-177v741zM475 608l-66 -141h-100l54 113q-26 9 -41 32q-15 22 -15 51q0 39 26 65t66 26q38 0 67 -26q27 -25 27 -65q0 -9 -3 -19t-15 -36z" />
    <glyph glyph-name="Ldot" unicode="&#x13f;" horiz-adv-x="560" 
d="M520 0h-448v703h185v-534h263v-169zM546 347l2 -1q0 -46 -33 -78q-35 -32 -82 -32q-49 0 -81 32t-32 78q0 49 32 81t81 32t81 -32t32 -80z" />
    <glyph glyph-name="ldot" unicode="&#x140;" horiz-adv-x="518" 
d="M60 741h177v-741h-177v741zM521 347l2 -1q0 -46 -33 -78q-35 -32 -82 -32q-49 0 -81 32t-32 78q0 49 32 81t81 32t81 -32t32 -80z" />
    <glyph glyph-name="Lslash" unicode="&#x141;" horiz-adv-x="580" 
d="M564 0h-448v215l-83 -41v134l83 41v354h185v-262l134 67v-134l-134 -67v-138h263v-169z" />
    <glyph glyph-name="lslash" unicode="&#x142;" horiz-adv-x="426" 
d="M307 0h-177v302l-100 -50v134l100 50v305h177v-217l100 50v-134l-100 -50v-390z" />
    <glyph glyph-name="Nacute" unicode="&#x143;" horiz-adv-x="730" 
d="M246 0h-174v703h175l237 -389v389h174v-703h-177l-235 386v-386zM450 760h-168l83 150h171z" />
    <glyph glyph-name="nacute" unicode="&#x144;" horiz-adv-x="608" 
d="M237 0l-176 1v510h168v-57q26 36 64 53q39 18 84 18q81 0 129 -51t48 -133v-340h-177v288q0 36 -18 54t-52 18t-52 -19q-18 -20 -18 -54v-288zM392 568h-168l83 150h171z" />
    <glyph glyph-name="uni0145" unicode="&#x145;" horiz-adv-x="730" 
d="M246 0h-174v703h175l237 -389v389h174v-703h-177l-235 386v-386zM435 -185l-64 -121h-90l46 89q-22 9 -36 29q-13 19 -13 44q0 35 24 59t60 24q37 0 61 -24t24 -58q0 -11 -3 -21t-9 -21z" />
    <glyph glyph-name="uni0146" unicode="&#x146;" horiz-adv-x="608" 
d="M237 0l-176 1v510h168v-57q26 36 64 53q39 18 84 18q81 0 129 -51t48 -133v-340h-177v288q0 36 -18 54t-52 18t-52 -19q-18 -20 -18 -54v-288zM380 -184l-64 -121h-90l46 89q-22 9 -36 29q-13 19 -13 44q0 35 24 59t60 24q37 0 61 -24t24 -58q0 -10 -3 -21t-9 -21z" />
    <glyph glyph-name="Ncaron" unicode="&#x147;" horiz-adv-x="730" 
d="M246 0h-174v703h175l237 -389v389h174v-703h-177l-235 386v-386zM170 910h152l42 -69l42 69h155l-93 -150h-206z" />
    <glyph glyph-name="ncaron" unicode="&#x148;" horiz-adv-x="608" 
d="M237 0l-176 1v510h168v-57q26 36 64 53q39 18 84 18q81 0 129 -51t48 -133v-340h-177v288q0 36 -18 54t-52 18t-52 -19q-18 -20 -18 -54v-288zM113 718h152l42 -69l42 69h155l-93 -150h-206z" />
    <glyph glyph-name="napostrophe" unicode="&#x149;" horiz-adv-x="608" 
d="M237 0l-176 1v510h168v-57q26 36 64 53q39 18 84 18q81 0 129 -51t48 -133v-340h-177v288q0 36 -18 54t-52 18t-52 -19q-18 -20 -18 -54v-288zM132 690l-64 -121h-90l46 89q-22 9 -36 29q-13 19 -13 44q0 35 24 59t60 24q37 0 61 -24t24 -58q0 -10 -3 -21t-9 -21z" />
    <glyph glyph-name="Omacron" unicode="&#x14c;" horiz-adv-x="824" 
d="M35 352q0 158 105 261q107 104 270 104q166 0 273 -104q106 -103 106 -261t-106 -261q-107 -104 -273 -104q-163 0 -270 104q-105 103 -105 261zM595 351q0 83 -51 137t-133 54q-81 0 -132 -54t-51 -137q0 -84 50 -137t132 -53q83 0 134 53q51 52 51 137zM562 772h-299
v118h299v-118z" />
    <glyph glyph-name="omacron" unicode="&#x14d;" horiz-adv-x="618" 
d="M30 256v-2q0 116 78 192q76 76 200 76q125 0 201 -76q78 -76 78 -192t-78 -192q-80 -77 -201 -77q-120 0 -200 77q-78 76 -78 194zM413 253l-1 -2q0 45 -29 77q-29 30 -75 30t-75 -30q-28 -28 -28 -76q0 -44 29 -76q28 -30 75 -30t75 30q29 32 29 77zM458 575h-299v118
h299v-118z" />
    <glyph glyph-name="Obreve" unicode="&#x14e;" horiz-adv-x="824" 
d="M35 352q0 158 105 261q107 104 270 104q166 0 273 -104q106 -103 106 -261t-106 -261q-107 -104 -273 -104q-163 0 -270 104q-105 103 -105 261zM595 351q0 83 -51 137t-133 54q-81 0 -132 -54t-51 -137q0 -84 50 -137t132 -53q83 0 134 53q51 52 51 137zM412 748l-1 -2
q-78 0 -127 46q-51 46 -51 114h129q0 -23 13 -36q14 -14 36 -14q21 0 35 15q14 17 14 37h129q0 -68 -51 -114q-49 -46 -126 -46z" />
    <glyph glyph-name="obreve" unicode="&#x14f;" horiz-adv-x="618" 
d="M30 256v-2q0 116 78 192q76 76 200 76q125 0 201 -76q78 -76 78 -192t-78 -192q-80 -77 -201 -77q-120 0 -200 77q-78 76 -78 194zM413 253l-1 -2q0 45 -29 77q-29 30 -75 30t-75 -30q-28 -28 -28 -76q0 -44 29 -76q28 -30 75 -30t75 30q29 32 29 77zM308 551l-1 -2
q-78 0 -127 46q-51 47 -51 114h129q0 -23 13 -36q14 -14 36 -14q21 0 35 15q14 17 14 37h129q0 -67 -51 -114q-49 -46 -126 -46z" />
    <glyph glyph-name="Ohungarumlaut" unicode="&#x150;" horiz-adv-x="824" 
d="M35 352q0 158 105 261q107 104 270 104q166 0 273 -104q106 -103 106 -261t-106 -261q-107 -104 -273 -104q-163 0 -270 104q-105 103 -105 261zM595 351q0 83 -51 137t-133 54q-81 0 -132 -54t-51 -137q0 -84 50 -137t132 -53q83 0 134 53q51 52 51 137zM300 910h161
l-66 -150h-159zM493 910h161l-66 -150h-159z" />
    <glyph glyph-name="ohungarumlaut" unicode="&#x151;" horiz-adv-x="618" 
d="M30 256v-2q0 116 78 192q76 76 200 76q125 0 201 -76q78 -76 78 -192t-78 -192q-80 -77 -201 -77q-120 0 -200 77q-78 76 -78 194zM413 253l-1 -2q0 45 -29 77q-29 30 -75 30t-75 -30q-28 -28 -28 -76q0 -44 29 -76q28 -30 75 -30t75 30q29 32 29 77zM196 713h161
l-66 -150h-159zM389 713h161l-66 -150h-159z" />
    <glyph glyph-name="OE" unicode="&#x152;" horiz-adv-x="1112" 
d="M1063 0l-468 1v45q-44 -29 -95 -44t-108 -15q-148 0 -252 107t-104 258t104 258t252 107q57 0 108 -15t95 -44v45h463v-169h-278v-99h254v-159h-254v-107h283v-169zM595 352q0 83 -51 137t-133 54q-81 0 -132 -54t-51 -137q0 -84 50 -137t132 -53q83 0 134 53t51 137z
" />
    <glyph glyph-name="oe" unicode="&#x153;" horiz-adv-x="1000" 
d="M30 256q0 111 77 191q77 78 191 78q64 0 118 -24q54 -25 91 -69q38 46 89 69q51 24 110 24q120 0 192 -72t72 -189v-52h-375q9 -40 36 -63q25 -22 69 -22q34 0 55 9t36 32h170q-24 -87 -90 -135t-166 -48q-61 0 -112 24q-49 24 -87 68q-37 -43 -91 -67t-117 -24
q-114 0 -191 78q-77 80 -77 192zM702 383h-1q-35 0 -60 -16t-39 -46h198q-12 34 -37 47q-26 15 -61 15zM412 255l-1 -2q0 45 -29 77q-28 30 -75 30t-75 -30q-28 -28 -28 -76q0 -44 29 -76q29 -30 75 -30t75 30q29 32 29 77z" />
    <glyph glyph-name="Racute" unicode="&#x154;" horiz-adv-x="690" 
d="M257 0h-185v703h293q120 0 196 -61t76 -165q0 -74 -39 -128q-40 -54 -109 -80l186 -269h-224l-164 247h-30v-247zM355 542l-99 -1v-144h98q39 0 65 20q24 19 24 54q0 33 -24 52q-22 19 -64 19zM432 759h-168l83 150h171z" />
    <glyph glyph-name="racute" unicode="&#x155;" horiz-adv-x="414" 
d="M355 358v-1q-58 0 -88 -36t-30 -105v-216h-177v510h168v-83q23 47 59 71t79 24q12 0 19 -1l15 -3v-167q-7 3 -21 5q-16 2 -24 2zM318 566h-168l83 150h171z" />
    <glyph glyph-name="uni0156" unicode="&#x156;" horiz-adv-x="690" 
d="M257 0h-185v703h293q120 0 196 -61t76 -165q0 -74 -39 -128q-40 -54 -109 -80l186 -269h-224l-164 247h-30v-247zM355 542l-99 -1v-144h98q39 0 65 20q24 19 24 54q0 33 -24 52q-22 19 -64 19zM421 -186l-64 -121h-90l46 89q-22 9 -36 29q-13 19 -13 44q0 35 24 59t60 24
q37 0 61 -24t24 -58q0 -10 -3 -21t-9 -21z" />
    <glyph glyph-name="uni0157" unicode="&#x157;" horiz-adv-x="414" 
d="M355 358v-1q-58 0 -88 -36t-30 -105v-216h-177v510h168v-83q23 47 59 71t79 24q12 0 19 -1l15 -3v-167q-7 3 -21 5q-16 2 -24 2zM220 -186l-64 -121h-90l46 89q-22 9 -36 29q-13 19 -13 44q0 35 24 59t60 24q37 0 61 -24t24 -58q0 -10 -3 -21t-9 -21z" />
    <glyph glyph-name="Rcaron" unicode="&#x158;" horiz-adv-x="690" 
d="M257 0h-185v703h293q120 0 196 -61t76 -165q0 -74 -39 -128q-40 -54 -109 -80l186 -269h-224l-164 247h-30v-247zM355 542l-99 -1v-144h98q39 0 65 20q24 19 24 54q0 33 -24 52q-22 19 -64 19zM152 909h152l42 -69l42 69h155l-93 -150h-206z" />
    <glyph glyph-name="rcaron" unicode="&#x159;" horiz-adv-x="414" 
d="M355 358v-1q-58 0 -88 -36t-30 -105v-216h-177v510h168v-83q23 47 59 71t79 24q12 0 19 -1l15 -3v-167q-7 3 -21 5q-16 2 -24 2zM38 716h152l42 -69l42 69h155l-93 -150h-206z" />
    <glyph glyph-name="Sacute" unicode="&#x15a;" horiz-adv-x="633" 
d="M315 717l-5 -2q122 0 192 -61q72 -62 78 -174h-192q0 36 -21 55q-19 19 -60 19q-36 0 -55 -13q-21 -13 -21 -36q0 -21 13 -33q16 -12 48 -22l123 -37q87 -26 130 -75t43 -123q0 -110 -72 -170t-200 -60q-131 0 -208 65q-76 64 -79 183h189q0 -39 27 -61q25 -22 70 -22
q43 0 66 14q22 13 22 42q0 19 -13 31q-14 12 -49 23l-127 40q-84 26 -124 75t-40 126q0 96 75 156t190 60zM394 758h-168l83 150h171z" />
    <glyph glyph-name="sacute" unicode="&#x15b;" horiz-adv-x="524" 
d="M265 524l-8 -2q98 0 155 -45q57 -44 65 -127h-181q0 20 -9 29t-31 9q-16 0 -27 -6q-10 -6 -10 -17q0 -13 11 -21q10 -7 39 -13l33 -7q102 -22 144 -60q42 -37 42 -104q0 -82 -60 -129q-58 -46 -164 -46q-110 0 -175 47q-63 47 -67 135h186q0 -25 13 -37t39 -12q21 0 35 8
q12 8 12 21q0 14 -10 21q-14 8 -37 14l-38 8q-98 21 -138 60t-40 104q0 76 62 123t159 47zM342 565h-168l83 150h171z" />
    <glyph glyph-name="Scircumflex" unicode="&#x15c;" horiz-adv-x="633" 
d="M315 717l-5 -2q122 0 192 -61q72 -62 78 -174h-192q0 36 -21 55q-19 19 -60 19q-36 0 -55 -13q-21 -13 -21 -36q0 -21 13 -33q16 -12 48 -22l123 -37q87 -26 130 -75t43 -123q0 -110 -72 -170t-200 -60q-131 0 -208 65q-76 64 -79 183h189q0 -39 27 -61q25 -22 70 -22
q43 0 66 14q22 13 22 42q0 19 -13 31q-14 12 -49 23l-127 40q-84 26 -124 75t-40 126q0 96 75 156t190 60zM114 758l92 150h206l93 -150h-155l-42 69l-42 -69h-152z" />
    <glyph glyph-name="scircumflex" unicode="&#x15d;" horiz-adv-x="524" 
d="M265 524l-8 -2q98 0 155 -45q57 -44 65 -127h-181q0 20 -9 29t-31 9q-16 0 -27 -6q-10 -6 -10 -17q0 -13 11 -21q10 -7 39 -13l33 -7q102 -22 144 -60q42 -37 42 -104q0 -82 -60 -129q-58 -46 -164 -46q-110 0 -175 47q-63 47 -67 135h186q0 -25 13 -37t39 -12q21 0 35 8
q12 8 12 21q0 14 -10 21q-14 8 -37 14l-38 8q-98 21 -138 60t-40 104q0 76 62 123t159 47zM63 565l92 150h206l93 -150h-155l-42 69l-42 -69h-152z" />
    <glyph glyph-name="Scedilla" unicode="&#x15e;" horiz-adv-x="633" 
d="M315 717l-5 -4q122 0 192 -61q72 -62 78 -174h-192q0 36 -21 55q-19 19 -60 19q-36 0 -55 -13q-21 -13 -21 -36q0 -21 13 -33q16 -12 48 -22l123 -37q87 -27 130 -76t43 -121q0 -100 -60 -160t-169 -70l-21 -33q61 -3 92 -34q33 -31 33 -84q0 -55 -40 -89
q-41 -35 -102 -35q-63 0 -103 31q-42 32 -48 81l115 1q1 -10 9 -15t21 -5q15 0 24 9t9 23q0 15 -8 23t-24 8q-12 0 -20 -5q-8 -4 -12 -12l-99 40l63 102q-103 16 -160 79t-60 164h189q0 -39 27 -61q25 -22 70 -22q43 0 66 14q22 13 22 42q0 19 -13 31q-14 12 -49 23l-127 40
q-83 26 -123 75t-40 126q0 96 75 156t190 60z" />
    <glyph glyph-name="scedilla" unicode="&#x15f;" horiz-adv-x="524" 
d="M265 524l-4 -5q98 0 155 -45q57 -44 65 -127h-181q0 20 -9 29t-31 9q-16 0 -27 -6q-10 -6 -10 -17q0 -13 11 -21q10 -7 39 -13l33 -7q102 -22 144 -61q41 -39 41 -103q0 -73 -48 -118t-133 -55l-21 -33q61 -3 92 -34q33 -31 33 -84q0 -55 -40 -89q-41 -35 -102 -35
q-63 0 -103 31q-42 32 -48 81l115 1q2 -10 9 -15q8 -5 21 -5q15 0 24 9t9 23q0 15 -8 23t-24 8q-12 0 -20 -5q-7 -4 -12 -12l-99 40l63 102q-81 13 -126 58t-49 119h186q0 -25 13 -37t39 -12q21 0 35 8q12 8 12 21q0 14 -10 21q-11 8 -39 14l-38 8q-98 21 -138 60t-40 104
q0 76 62 123t159 47z" />
    <glyph glyph-name="Scaron" unicode="&#x160;" horiz-adv-x="633" 
d="M315 717l-5 -2q122 0 192 -61q72 -62 78 -174h-192q0 36 -21 55q-19 19 -60 19q-36 0 -55 -13q-21 -13 -21 -36q0 -21 13 -33q16 -12 48 -22l123 -37q87 -26 130 -75t43 -123q0 -110 -72 -170t-200 -60q-131 0 -208 65q-76 64 -79 183h189q0 -39 27 -61q25 -22 70 -22
q43 0 66 14q22 13 22 42q0 19 -13 31q-14 12 -49 23l-127 40q-84 26 -124 75t-40 126q0 96 75 156t190 60zM114 908h152l42 -69l42 69h155l-93 -150h-206z" />
    <glyph glyph-name="scaron" unicode="&#x161;" horiz-adv-x="524" 
d="M265 524l-8 -2q98 0 155 -45q57 -44 65 -127h-181q0 20 -9 29t-31 9q-16 0 -27 -6q-10 -6 -10 -17q0 -13 11 -21q10 -7 39 -13l33 -7q102 -22 144 -60q42 -37 42 -104q0 -82 -60 -129q-58 -46 -164 -46q-110 0 -175 47q-63 47 -67 135h186q0 -25 13 -37t39 -12q21 0 35 8
q12 8 12 21q0 14 -10 21q-14 8 -37 14l-38 8q-98 21 -138 60t-40 104q0 76 62 123t159 47zM63 715h152l42 -69l42 69h155l-93 -150h-206z" />
    <glyph glyph-name="uni0162" unicode="&#x162;" horiz-adv-x="582" 
d="M236 0l-38 -3v534h-181v169h548v-169h-182v-534h-34l-28 -45q61 -3 92 -34q33 -32 33 -84q0 -55 -40 -89q-41 -35 -102 -35q-63 0 -103 31q-42 31 -48 81l115 1q2 -11 9 -15q8 -5 21 -5q15 0 24 9t9 23q0 15 -8 23t-24 8q-12 0 -20 -5q-7 -5 -12 -12l-99 40z" />
    <glyph glyph-name="uni0163" unicode="&#x163;" horiz-adv-x="429" 
d="M97 510l1 136l177 41v-179h113v-158h-113v-157q0 -28 12 -40t40 -12q20 0 35 3t32 12v-154q-27 -10 -46 -13q-24 -5 -51 -6l-19 -31q61 -3 92 -34q33 -32 33 -84q0 -55 -40 -89q-41 -35 -102 -35q-63 0 -103 31q-42 31 -48 81l115 1q1 -11 9 -15q8 -5 21 -5q15 0 24 9
t9 23q0 15 -8 23t-24 8q-12 0 -20 -5t-12 -12l-99 40l69 112q-49 19 -73 63t-24 116v172h-73v158h73z" />
    <glyph glyph-name="Tcaron" unicode="&#x164;" horiz-adv-x="582" 
d="M383 0h-185v534h-181v169h548v-169h-182v-534zM94 910h152l42 -69l42 69h155l-93 -150h-206z" />
    <glyph glyph-name="tcaron" unicode="&#x165;" horiz-adv-x="429" 
d="M97 510v138l177 41v-179h113v-158h-113v-157q0 -28 12 -40t40 -12q20 0 35 3t32 12v-154q-22 -10 -49 -15q-25 -4 -60 -4q-94 0 -141 48q-46 46 -46 147v172h-73v158h73zM511 718l-66 -141h-100l54 113q-26 9 -41 32q-15 22 -15 51q0 39 26 65t66 26q38 0 67 -26
q27 -26 27 -65q0 -9 -3 -19t-15 -36z" />
    <glyph glyph-name="Tbar" unicode="&#x166;" horiz-adv-x="596" 
d="M390 0h-185v292h-115v120h115v122h-181v169h548v-169h-182v-122h115v-120h-115v-292z" />
    <glyph glyph-name="tbar" unicode="&#x167;" horiz-adv-x="433" 
d="M277 313l112 1v-120h-113q1 -27 13 -39t40 -12q20 0 35 3t32 12v-154q-22 -10 -49 -15q-25 -4 -60 -4q-95 0 -141 48q-46 46 -46 147v13h-73v120h73v39h-73v158h73v138l177 41v-179h113v-158h-113v-39z" />
    <glyph glyph-name="Utilde" unicode="&#x168;" horiz-adv-x="697" 
d="M447 703l184 -1v-455q0 -115 -81 -189q-79 -73 -205 -73q-121 0 -201 74t-80 189v455h185v-449q0 -44 24 -69t68 -25q49 0 78 26q28 25 28 68v449zM366 887l-2 -3q3 -2 7 -4t6.5 -3.5t3.5 -2.5q5 -3 9 -3q7 0 12 8q4 5 7 27h116q-4 -78 -34 -117t-85 -39q-18 0 -33 6
q-12 4 -36 23q-15 11 -19 12q-6 3 -12 3q-10 0 -15 -8q-5 -11 -8 -27h-117q4 76 34 118q30 40 85 40q20 0 38 -6q19 -7 43 -24z" />
    <glyph glyph-name="utilde" unicode="&#x169;" horiz-adv-x="599" 
d="M295 145v-1q33 0 50 20t17 57v288h177v-510h-168v57q-26 -35 -60 -53q-36 -18 -81 -18q-78 0 -126 51t-48 133v340h177v-288q0 -37 15 -57q15 -19 47 -19zM317 694l-2 -3q3 -2 7 -4t6.5 -3.5t3.5 -2.5q4 -3 9 -3q7 0 12 8q4 5 7 27h116q-4 -78 -34 -117t-85 -39
q-18 0 -33 6q-12 4 -36 23q-15 11 -19 12q-6 3 -12 3q-10 0 -15 -8q-5 -11 -8 -27h-117q4 76 34 118q30 40 85 40q20 0 38 -6q19 -7 43 -24z" />
    <glyph glyph-name="Umacron" unicode="&#x16a;" horiz-adv-x="697" 
d="M447 703l184 -1v-455q0 -115 -81 -189q-79 -73 -205 -73q-121 0 -201 74t-80 189v455h185v-449q0 -44 24 -69t68 -25q49 0 78 26q28 25 28 68v449zM497 771h-299v118h299v-118z" />
    <glyph glyph-name="umacron" unicode="&#x16b;" horiz-adv-x="599" 
d="M295 145v-1q33 0 50 20t17 57v288h177v-510h-168v57q-26 -35 -60 -53q-36 -18 -81 -18q-78 0 -126 51t-48 133v340h177v-288q0 -37 15 -57q15 -19 47 -19zM447 578h-299v118h299v-118z" />
    <glyph glyph-name="Ubreve" unicode="&#x16c;" horiz-adv-x="697" 
d="M447 703l184 -1v-455q0 -115 -81 -189q-79 -73 -205 -73q-121 0 -201 74t-80 189v455h185v-449q0 -44 24 -69t68 -25q49 0 78 26q28 25 28 68v449zM347 747l-1 -2q-78 0 -127 46q-51 47 -51 114h129q0 -23 13 -36q14 -14 36 -14t35 15q14 17 14 37h129q0 -67 -51 -114
q-49 -46 -126 -46z" />
    <glyph glyph-name="ubreve" unicode="&#x16d;" horiz-adv-x="599" 
d="M295 145v-1q33 0 50 20t17 57v288h177v-510h-168v57q-26 -35 -60 -53q-36 -18 -81 -18q-78 0 -126 51t-48 133v340h177v-288q0 -37 15 -57q15 -19 47 -19zM298 554l-1 -2q-78 0 -127 46q-51 46 -51 114h129q0 -23 13 -36q14 -14 36 -14q21 0 35 15q14 17 14 37h129
q0 -68 -51 -114q-49 -46 -126 -46z" />
    <glyph glyph-name="Uring" unicode="&#x16e;" horiz-adv-x="697" 
d="M447 703l184 -1v-455q0 -115 -81 -189q-79 -73 -205 -73q-121 0 -201 74t-80 189v455h185v-449q0 -44 24 -69t68 -25q49 0 78 26q28 25 28 68v449zM475 868l-2 -3q0 -51 -37 -85t-91 -34q-58 0 -92 34q-36 34 -36 87t36 87q38 35 92 35t92 -35t38 -86zM310 865
q0 -15 9 -24t24 -9t25 9t10 24t-10 25t-25 10t-24 -10t-9 -25z" />
    <glyph glyph-name="uring" unicode="&#x16f;" horiz-adv-x="599" 
d="M295 145v-1q33 0 50 20t17 57v288h177v-510h-168v57q-26 -35 -60 -53q-36 -18 -81 -18q-78 0 -126 51t-48 133v340h177v-288q0 -37 15 -57q15 -19 47 -19zM426 675l-2 -3q0 -51 -37 -85t-91 -34q-58 0 -92 34q-36 35 -36 87t36 87q38 35 92 35t92 -35t38 -86zM261 672
q0 -15 9 -24t24 -9q14 0 25 9q10 9 10 24t-10 25t-25 10t-24 -10t-9 -25z" />
    <glyph glyph-name="Uhungarumlaut" unicode="&#x170;" horiz-adv-x="697" 
d="M447 703l184 -1v-455q0 -115 -81 -189q-79 -73 -205 -73q-121 0 -201 74t-80 189v455h185v-449q0 -44 24 -69t68 -25q49 0 78 26q28 25 28 68v449zM235 909h161l-66 -150h-159zM428 909h161l-66 -150h-159z" />
    <glyph glyph-name="uhungarumlaut" unicode="&#x171;" horiz-adv-x="599" 
d="M295 145v-1q33 0 50 20t17 57v288h177v-510h-168v57q-26 -35 -60 -53q-36 -18 -81 -18q-78 0 -126 51t-48 133v340h177v-288q0 -37 15 -57q15 -19 47 -19zM186 716h161l-66 -150h-159zM379 716h161l-66 -150h-159z" />
    <glyph glyph-name="Uogonek" unicode="&#x172;" horiz-adv-x="697" 
d="M447 703l183 -4v-455q0 -50 -18 -97q-18 -46 -53 -84q-110 -116 -127 -143q-18 -27 -18 -52q0 -16 11 -25t29 -9q14 0 23 4q12 4 24 12v-113q-18 -12 -46 -19q-25 -6 -54 -6q-55 0 -90 32t-35 86q0 36 18 71t66 84h-15q-121 0 -201 74t-80 189v455h185v-449q0 -44 24 -69
t68 -25q49 0 78 26q28 25 28 68v449z" />
    <glyph glyph-name="uogonek" unicode="&#x173;" horiz-adv-x="599" 
d="M295 145l-3 -7q33 0 50 20t17 57v288h177v-510h-47q-48 -52 -67 -81q-16 -25 -16 -46q0 -16 11 -25t29 -9q14 0 23 4q12 4 24 12v-113q-18 -12 -46 -19q-25 -6 -54 -6q-55 0 -90 32t-35 86q0 35 19 69q19 35 84 102v57q-26 -35 -60 -53q-36 -18 -81 -18q-78 0 -126 51
t-48 133v340h177v-288q0 -37 15 -57q15 -19 47 -19z" />
    <glyph glyph-name="Wcircumflex" unicode="&#x174;" horiz-adv-x="1049" 
d="M411 0h-197l-198 703h200l109 -432l121 432h170l119 -431l112 431h187l-200 -703h-196l-112 376zM334 760l92 150h206l93 -150h-155l-42 69l-42 -69h-152z" />
    <glyph glyph-name="wcircumflex" unicode="&#x175;" horiz-adv-x="880" 
d="M353 0h-178l-166 510h177l85 -283l86 283h170l86 -285l86 285h172l-166 -510h-178l-87 267zM248 567l92 150h206l93 -150h-155l-42 69l-42 -69h-152z" />
    <glyph glyph-name="Ycircumflex" unicode="&#x176;" horiz-adv-x="680" 
d="M434 0h-185v229l-235 474h211l118 -268l129 268h194l-232 -465v-238zM158 760l92 150h206l93 -150h-155l-42 69l-42 -69h-152z" />
    <glyph glyph-name="ycircumflex" unicode="&#x177;" horiz-adv-x="575" 
d="M382 510h182l-250 -722h-178l66 194l-194 528h188l93 -284zM94 567l92 150h206l93 -150h-155l-42 69l-42 -69h-152z" />
    <glyph glyph-name="Ydieresis" unicode="&#x178;" horiz-adv-x="680" 
d="M434 0h-185v229l-235 474h211l118 -268l129 268h194l-232 -465v-238zM345 833q0 -36 -24 -60t-59 -24q-36 0 -60 24t-24 60q0 35 24 61q24 25 60 25q35 0 59 -25t24 -61zM532 833q0 -36 -24 -60t-59 -24q-36 0 -60 24t-24 60q0 35 24 61q24 25 60 25q35 0 59 -25t24 -61z
" />
    <glyph glyph-name="Zacute" unicode="&#x179;" horiz-adv-x="621" 
d="M580 0h-540v148l296 386h-285v169h520v-158l-292 -376h301v-169zM395 760h-168l83 150h171z" />
    <glyph glyph-name="zacute" unicode="&#x17a;" horiz-adv-x="537" 
d="M504 0h-473v117l228 235h-210v158h439v-125l-213 -227h229v-158zM352 567h-168l83 150h171z" />
    <glyph glyph-name="Zdotaccent" unicode="&#x17b;" horiz-adv-x="621" 
d="M580 0h-540v148l296 386h-285v169h520v-158l-292 -376h301v-169zM404 840q0 -38 -27 -65t-65 -27t-65 27t-27 65t27 65t65 27t65 -27t27 -65z" />
    <glyph glyph-name="zdotaccent" unicode="&#x17c;" horiz-adv-x="537" 
d="M504 0h-473v117l228 235h-210v158h439v-125l-213 -227h229v-158zM360 647q0 -38 -27 -65t-65 -27t-65 27t-27 65t27 65t65 27t65 -27t27 -65z" />
    <glyph glyph-name="Zcaron" unicode="&#x17d;" horiz-adv-x="621" 
d="M580 0h-540v148l296 386h-285v169h520v-158l-292 -376h301v-169zM115 910h152l42 -69l42 69h155l-93 -150h-206z" />
    <glyph glyph-name="zcaron" unicode="&#x17e;" horiz-adv-x="537" 
d="M504 0h-473v117l228 235h-210v158h439v-125l-213 -227h229v-158zM72 717h152l42 -69l42 69h155l-93 -150h-206z" />
    <glyph glyph-name="longs" unicode="&#x17f;" horiz-adv-x="317" 
d="M237 0l-179 -2v547q0 104 50 157q49 51 152 51q24 0 46 -3t48 -9v-155l-33 8q-17 3 -30 3q-30 0 -42 -12t-12 -40v-545z" />
    <glyph glyph-name="florin" unicode="&#x192;" horiz-adv-x="564" 
d="M379 325l-57 -343q-20 -117 -69 -162t-142 -45q-24 0 -45 3q-22 3 -40 9v155q4 -2 13 -4t13 -3q14 -3 27 -3q31 0 44 13q15 12 20 40l58 341h-82v155h109l11 67q19 111 69 159t141 48q24 0 45 -3q22 -3 40 -9v-155q-4 2 -13 4t-13 3q-14 3 -27 3q-31 0 -44 -13
q-15 -12 -20 -40l-11 -65h82v-155h-109z" />
    <glyph glyph-name="uni0218" unicode="&#x218;" horiz-adv-x="633" 
d="M315 717l-5 -2q122 0 192 -61q72 -62 78 -174h-192q0 36 -21 55q-19 19 -60 19q-36 0 -55 -13q-21 -13 -21 -36q0 -21 13 -33q16 -12 48 -22l123 -37q87 -26 130 -75t43 -123q0 -110 -72 -170t-200 -60q-131 0 -208 65q-76 64 -79 183h189q0 -39 27 -61q25 -22 70 -22
q43 0 66 14q22 13 22 42q0 19 -13 31q-14 12 -49 23l-127 40q-84 26 -124 75t-40 126q0 96 75 156t190 60zM387 -187l-64 -121h-90l46 89q-22 9 -36 29q-13 19 -13 44q0 35 24 59t60 24q37 0 61 -24t24 -58q0 -11 -3 -21t-9 -21z" />
    <glyph glyph-name="uni0219" unicode="&#x219;" horiz-adv-x="524" 
d="M265 524l-8 -2q98 0 155 -45q57 -44 65 -127h-181q0 20 -9 29t-31 9q-16 0 -27 -6q-10 -6 -10 -17q0 -13 11 -21q10 -7 39 -13l33 -7q102 -22 144 -60q42 -37 42 -104q0 -82 -60 -129q-58 -46 -164 -46q-110 0 -175 47q-63 47 -67 135h186q0 -25 13 -37t39 -12q21 0 35 8
q12 8 12 21q0 14 -10 21q-14 8 -37 14l-38 8q-98 21 -138 60t-40 104q0 76 62 123t159 47zM330 -187l-64 -121h-90l46 89q-22 9 -36 29q-13 19 -13 44q0 35 24 59t60 24q37 0 61 -24t24 -58q0 -11 -3 -21t-9 -21z" />
    <glyph glyph-name="uni021A" unicode="&#x21a;" horiz-adv-x="582" 
d="M383 0h-185v534h-181v169h548v-169h-182v-534zM361 -185l-64 -121h-90l46 89q-22 9 -36 29q-13 19 -13 44q0 35 24 59t60 24q37 0 61 -24t24 -58q0 -11 -3 -21t-9 -21z" />
    <glyph glyph-name="uni021B" unicode="&#x21b;" horiz-adv-x="429" 
d="M97 510v138l177 41v-179h113v-158h-113v-157q0 -28 12 -40t40 -12q20 0 35 3t32 12v-154q-22 -10 -49 -15q-25 -4 -60 -4q-94 0 -141 48q-46 46 -46 147v172h-73v158h73zM290 -185l-64 -121h-90l46 89q-22 9 -36 29q-13 19 -13 44q0 35 24 59t60 24q37 0 61 -24t24 -58
q0 -11 -3 -21t-9 -21z" />
    <glyph glyph-name="uni0237" unicode="&#x237;" horiz-adv-x="305" 
d="M68 510l178 -1v-528q0 -108 -49 -157q-49 -51 -151 -51q-20 0 -31 1q-23 2 -30 4v154q8 -1 18 -1h11q30 0 42 12t12 40v527z" />
    <glyph glyph-name="circumflex" unicode="&#x2c6;" horiz-adv-x="467" 
d="M38 567l92 150h206l93 -150h-155l-42 69l-42 -69h-152z" />
    <glyph glyph-name="caron" unicode="&#x2c7;" horiz-adv-x="488" 
d="M36 717h152l42 -69l42 69h155l-93 -150h-206z" />
    <glyph glyph-name="uni02C9" unicode="&#x2c9;" horiz-adv-x="375" 
d="M337 579h-299v118h299v-118z" />
    <glyph glyph-name="breve" unicode="&#x2d8;" horiz-adv-x="414" 
d="M207 555l-1 -2q-78 0 -127 46q-51 47 -51 114h129q0 -23 13 -36q14 -14 36 -14q21 0 35 15q14 17 14 37h129q0 -67 -51 -114q-49 -46 -126 -46z" />
    <glyph glyph-name="dotaccent" unicode="&#x2d9;" horiz-adv-x="261" 
d="M223 647q0 -38 -27 -65t-65 -27t-65 27t-27 65t27 65t65 27t65 -27t27 -65z" />
    <glyph glyph-name="ring" unicode="&#x2da;" horiz-adv-x="307" 
d="M282 676l-2 -3q0 -51 -37 -85t-91 -34q-58 0 -92 34q-36 34 -36 87t36 87q38 35 92 35t92 -35t38 -86zM117 673q0 -15 9 -24t24 -9q14 0 25 9q10 9 10 24t-10 25t-25 10t-24 -10t-9 -25z" />
    <glyph glyph-name="ogonek" unicode="&#x2db;" horiz-adv-x="318" 
d="M53 -170l-2 -6q0 35 18 68t86 104h121q-52 -56 -69 -81q-16 -25 -16 -47q0 -16 11 -25q10 -9 29 -9q14 0 23 4q12 4 24 12v-113q-18 -12 -46 -19q-26 -6 -54 -6q-55 0 -90 32t-35 86z" />
    <glyph glyph-name="tilde" unicode="&#x2dc;" horiz-adv-x="416" 
d="M227 695l-2 -3q3 -2 7 -4t6.5 -3.5t3.5 -2.5q4 -3 9 -3q7 0 12 8q4 5 7 27h116q-4 -78 -34 -117t-85 -39q-18 0 -33 6q-12 4 -36 23q-15 11 -19 12q-6 3 -12 3q-10 0 -15 -8q-5 -11 -8 -27h-117q4 76 34 118q30 40 85 40q20 0 38 -6q19 -7 43 -24z" />
    <glyph glyph-name="hungarumlaut" unicode="&#x2dd;" horiz-adv-x="494" 
d="M102 717h161l-66 -150h-159zM295 717h161l-66 -150h-159z" />
    <glyph glyph-name="uni0394" unicode="&#x394;" horiz-adv-x="665" 
d="M233 703h199l198 -567v-136h-596v136zM327 484l-100 -318h200z" />
    <glyph glyph-name="uni03A9" unicode="&#x3a9;" horiz-adv-x="774" 
d="M355 0l-294 -5v169h94q-58 52 -87 109q-28 55 -28 124q0 137 96 227t248 90t248 -90t96 -226q0 -68 -28 -123q-28 -57 -85 -108h93v-169h-293v209q67 41 95 82q30 43 30 102q0 64 -44 108q-43 43 -111 43t-111 -43q-44 -44 -44 -106q0 -59 30 -102q28 -41 95 -82v-209z
" />
    <glyph glyph-name="uni03BC" unicode="&#x3bc;" horiz-adv-x="616" 
d="M306 145v-2q33 0 50 20t17 57v288h177v-510h-168v57q-22 -34 -60 -52q-36 -18 -78 -18v-198h-177v722h177v-288q0 -37 15 -57q15 -19 47 -19z" />
    <glyph glyph-name="pi" unicode="&#x3c0;" horiz-adv-x="697" 
d="M39 510h619v-161h-60v-349h-177v349h-145v-349h-177v349h-60v161z" />
    <glyph glyph-name="Wgrave" unicode="&#x1e80;" horiz-adv-x="1049" 
d="M411 0h-197l-198 703h200l109 -432l121 432h170l119 -431l112 431h187l-200 -703h-196l-112 376zM446 760l-86 150h171l83 -150h-168z" />
    <glyph glyph-name="wgrave" unicode="&#x1e81;" horiz-adv-x="880" 
d="M353 0h-178l-166 510h177l85 -283l86 283h170l86 -285l86 285h172l-166 -510h-178l-87 267zM359 567l-86 150h171l83 -150h-168z" />
    <glyph glyph-name="Wacute" unicode="&#x1e82;" horiz-adv-x="1049" 
d="M411 0h-197l-198 703h200l109 -432l121 432h170l119 -431l112 431h187l-200 -703h-196l-112 376zM614 760h-168l83 150h171z" />
    <glyph glyph-name="wacute" unicode="&#x1e83;" horiz-adv-x="880" 
d="M353 0h-178l-166 510h177l85 -283l86 283h170l86 -285l86 285h172l-166 -510h-178l-87 267zM527 567h-168l83 150h171z" />
    <glyph glyph-name="Wdieresis" unicode="&#x1e84;" horiz-adv-x="1049" 
d="M411 0h-197l-198 703h200l109 -432l121 432h170l119 -431l112 431h187l-200 -703h-196l-112 376zM521 833q0 -36 -24 -60t-59 -24q-36 0 -60 24t-24 60q0 35 24 61q24 25 60 25q35 0 59 -25t24 -61zM708 833q0 -36 -24 -60t-59 -24q-36 0 -60 24t-24 60q0 35 24 61
q24 25 60 25q35 0 59 -25t24 -61z" />
    <glyph glyph-name="wdieresis" unicode="&#x1e85;" horiz-adv-x="880" 
d="M353 0h-178l-166 510h177l85 -283l86 283h170l86 -285l86 285h172l-166 -510h-178l-87 267zM434 640q0 -36 -24 -60t-59 -24q-36 0 -60 24t-24 60t24 61t60 25q35 0 59 -25t24 -61zM621 640q0 -36 -24 -60t-59 -24q-36 0 -60 24t-24 60t24 61t60 25q35 0 59 -25t24 -61z
" />
    <glyph glyph-name="uni1E9E" unicode="&#x1e9e;" horiz-adv-x="741" 
d="M448 537l-42 -1q-78 0 -119 -39t-41 -115v-383h-185v386q0 151 93 234q95 83 254 83h230v-145l-104 -152q78 -13 125 -67q48 -54 48 -130q0 -104 -67 -164t-181 -60q-33 0 -73 5q-36 5 -69 15v162q27 -10 59 -16t62 -6q44 0 63 16q21 16 21 48q0 24 -17 41t-42 17
q-11 0 -21 -3q-11 -3 -18 -10l-102 107z" />
    <glyph glyph-name="Ygrave" unicode="&#x1ef2;" horiz-adv-x="680" 
d="M434 0h-185v229l-235 474h211l118 -268l129 268h194l-232 -465v-238zM270 760l-86 150h171l83 -150h-168z" />
    <glyph glyph-name="ygrave" unicode="&#x1ef3;" horiz-adv-x="575" 
d="M382 510h182l-250 -722h-178l66 194l-194 528h188l93 -284zM205 567l-86 150h171l83 -150h-168z" />
    <glyph glyph-name="endash" unicode="&#x2013;" horiz-adv-x="550" 
d="M54 330h442v-152h-442v152z" />
    <glyph glyph-name="emdash" unicode="&#x2014;" horiz-adv-x="1025" 
d="M54 330h917v-152h-917v152z" />
    <glyph glyph-name="quoteleft" unicode="&#x2018;" horiz-adv-x="299" 
d="M156 703l121 1l-89 -169q29 -13 48 -40q18 -27 18 -60q0 -50 -31 -81t-81 -31q-49 0 -81 32t-32 80q0 16 4 27q5 14 15 33z" />
    <glyph glyph-name="quoteright" unicode="&#x2019;" horiz-adv-x="306" 
d="M162 335l-122 -3l89 169q-31 14 -48 41q-18 27 -18 60q0 49 32 81t81 32t81 -32t32 -80q0 -16 -4 -27q-5 -14 -15 -33z" />
    <glyph glyph-name="quotesinglbase" unicode="&#x201a;" horiz-adv-x="298" 
d="M136 -174l-122 -3l89 169q-31 14 -48 41q-18 27 -18 60q0 49 32 81t81 32t81 -32t32 -80q0 -16 -4 -27q-5 -13 -15 -33z" />
    <glyph glyph-name="quotedblleft" unicode="&#x201c;" horiz-adv-x="565" 
d="M156 703l121 1l-89 -169q29 -13 48 -40q18 -27 18 -60q0 -50 -31 -81t-81 -31q-49 0 -81 32t-32 80q0 16 4 27q5 14 15 33zM419 704l121 1l-89 -169q29 -13 48 -40q18 -27 18 -60q0 -50 -31 -81t-81 -31q-49 0 -81 32t-32 80q0 16 4 27q4 13 15 33z" />
    <glyph glyph-name="quotedblright" unicode="&#x201d;" horiz-adv-x="572" 
d="M162 335l-122 -3l89 169q-31 14 -48 41q-18 27 -18 60q0 49 32 81t81 32t81 -32t32 -80q0 -16 -4 -27q-5 -14 -15 -33zM430 332l-122 -3l89 169q-31 14 -48 41q-18 27 -18 60q0 49 32 81t81 32t81 -32t32 -80q0 -16 -4 -27q-5 -13 -15 -33z" />
    <glyph glyph-name="quotedblbase" unicode="&#x201e;" horiz-adv-x="564" 
d="M136 -174l-122 -3l89 169q-31 14 -48 41q-18 27 -18 60q0 49 32 81t81 32t81 -32t32 -80q0 -16 -4 -27q-5 -13 -15 -33zM404 -177l-122 -3l89 169q-31 14 -48 41q-18 27 -18 60q0 49 32 81t81 32t81 -32t32 -80q0 -16 -4 -27q-5 -14 -15 -33z" />
    <glyph glyph-name="dagger" unicode="&#x2020;" horiz-adv-x="479" 
d="M28 393v147h123v136l177 41v-177h123v-147h-123v-365l-177 -42v407h-123z" />
    <glyph glyph-name="daggerdbl" unicode="&#x2021;" horiz-adv-x="515" 
d="M46 163v147h123v83h-123v147h123v136l177 41v-177h123v-147h-123v-83h123v-147h-123v-135l-177 -42v177h-123z" />
    <glyph glyph-name="bullet" unicode="&#x2022;" horiz-adv-x="407" 
d="M349 356v-2q0 -58 -42 -99q-44 -41 -105 -41q-63 0 -104 41t-41 99q0 63 41 104t105 41t105 -41t41 -102z" />
    <glyph glyph-name="ellipsis" unicode="&#x2026;" horiz-adv-x="831" 
d="M262 96l2 -1q0 -47 -33 -78q-35 -32 -82 -32q-49 0 -81 32t-32 78q0 49 32 81t81 32t81 -32t32 -80zM531 95l2 -1q0 -46 -33 -78q-35 -32 -82 -32q-49 0 -81 32t-32 78q0 49 32 81t81 32t81 -32t32 -80zM800 94l2 -1q0 -47 -33 -78q-35 -32 -82 -32q-49 0 -81 32t-32 78
q0 49 32 81t81 32t81 -32t32 -80z" />
    <glyph glyph-name="perthousand" unicode="&#x2030;" horiz-adv-x="1162" 
d="M380 541l-1 -2q0 -73 -49 -121q-50 -48 -126 -48q-78 0 -126 48t-48 122q0 73 48 121t126 48q76 0 126 -48t50 -120zM598 701h131l-547 -703h-131zM144 538l-2 -2q0 -25 17 -42q16 -16 44 -16q25 0 42 17q16 16 16 42q0 28 -16 44q-17 18 -42 18t-42 -18q-17 -20 -17 -43
zM750 159l-1 -2q0 -73 -49 -121q-50 -48 -126 -48q-78 0 -126 48t-48 122q0 73 48 121t126 48q76 0 126 -48t50 -120zM1133 157l-1 -2q0 -73 -49 -121t-126 -48q-78 0 -126 48t-48 122q0 73 48 121t126 48q77 0 126 -48q50 -48 50 -120zM513 154l-2 -2q0 -25 17 -42
q16 -16 44 -16q25 0 42 17q16 16 16 42q0 28 -16 44q-16 18 -42 18t-42 -18q-17 -20 -17 -43zM895 152l-2 -2q0 -25 17 -42q16 -16 44 -16q25 0 42 17q16 16 16 42q0 28 -16 44q-16 18 -42 18t-42 -18q-17 -20 -17 -43z" />
    <glyph glyph-name="guilsinglleft" unicode="&#x2039;" horiz-adv-x="337" 
d="M135 36l-109 219l109 220h171l-110 -220l110 -219h-171z" />
    <glyph glyph-name="guilsinglright" unicode="&#x203a;" horiz-adv-x="337" 
d="M202 474l109 -219l-109 -220h-171l110 220l-110 219h171z" />
    <glyph glyph-name="fraction" unicode="&#x2044;" horiz-adv-x="170" 
d="M293 703h131l-547 -703h-131z" />
    <glyph glyph-name="zero.superior" unicode="&#x2070;" horiz-adv-x="348" 
d="M316 722v-106q0 -62 -39 -96q-41 -35 -102 -35t-102 35q-39 34 -39 96v106q0 62 39 96q37 34 102 34t102 -34q39 -34 39 -96zM174 745q-15 0 -23 -8t-8 -21v-96q0 -13 8 -21t23 -8t23 8t8 21v96q0 13 -8 21t-23 8z" />
    <glyph glyph-name="four.superior" unicode="&#x2074;" horiz-adv-x="345" 
d="M24 624l115 220h128l-113 -209h37v42l110 25v-67h21v-100h-21v-43h-110v43h-167v89z" />
    <glyph glyph-name="five.superior" unicode="&#x2075;" horiz-adv-x="317" 
d="M55 844l216 1v-101h-122l-2 -20q3 0 5.5 0.5t4 1t3 0.5h2.5h6q60 0 91 -31q33 -31 33 -85t-37 -88t-94 -34q-58 0 -97 30q-39 31 -46 81h115q5 -6 9 -9t12 -3q10 0 18 6q7 6 7 17t-7 18t-18 7q-8 0 -14 -3q-10 -6 -11 -7l-92 13z" />
    <glyph glyph-name="six.superior" unicode="&#x2076;" horiz-adv-x="318" 
d="M162 485l1 1q-60 0 -99 36t-39 90q0 28 9 55q10 28 30 61l71 117h128l-78 -115q53 -3 84 -36q32 -35 32 -82q0 -53 -40 -90t-99 -37zM134 613h-2q0 -15 8 -23t21 -8t21 8t8 23q0 14 -7 21q-8 8 -21 8t-21 -8q-7 -7 -7 -21z" />
    <glyph glyph-name="seven.superior" unicode="&#x2077;" horiz-adv-x="302" 
d="M156 738h-132v106h258v-90l-121 -262h-123z" />
    <glyph glyph-name="eight.superior" unicode="&#x2078;" horiz-adv-x="335" 
d="M310 599v-1q0 -50 -39 -81q-41 -32 -103 -32q-61 0 -102 32q-39 31 -39 81q0 26 12 47t35 35q-15 14 -23 32q-8 21 -8 37q0 43 35 72t90 29q56 0 90 -28q35 -29 35 -72q0 -16 -8 -37q-8 -17 -23 -31q24 -15 36 -36t12 -47zM141 741q0 -11 7 -17t19 -6q11 0 19 6q7 6 7 17
t-7 17q-8 6 -19 6t-19 -6q-7 -6 -7 -17zM133 603v-1q0 -13 9 -22t24 -9q16 0 25 9t9 23t-9 23t-25 9q-15 0 -24 -9t-9 -23z" />
    <glyph glyph-name="nine.superior" unicode="&#x2079;" horiz-adv-x="319" 
d="M157 851l-1 -1q60 0 99 -36t39 -90q0 -28 -9 -55q-10 -28 -30 -61l-71 -117h-128l78 115q-52 3 -84 36q-32 35 -32 82q0 53 40 90t99 37zM185 723h-2q0 16 -7 23q-8 8 -21 8t-21 -8q-7 -7 -7 -23q0 -13 8 -21t21 -8t21 8t8 21z" />
    <glyph glyph-name="zero.inferior" unicode="&#x2080;" horiz-adv-x="348" 
d="M316 89v-106q0 -61 -39 -96q-41 -35 -102 -35t-102 35q-39 35 -39 96v106q0 61 39 96q37 34 102 34t102 -34q39 -35 39 -96zM174 112q-15 0 -23 -8t-8 -21v-96q0 -13 8 -21t23 -8t23 8t8 21v96q0 13 -8 21t-23 8z" />
    <glyph glyph-name="one.inferior" unicode="&#x2081;" horiz-adv-x="229" 
d="M186 -141h-111v246h-62l25 106h148v-352z" />
    <glyph glyph-name="two.inferior" unicode="&#x2082;" horiz-adv-x="331" 
d="M302 -141h-273v88l122 107q11 9 15 19q5 13 5 22q0 7 -5 12t-12 5q-10 0 -14 -6q-5 -6 -6 -16h-113q3 56 42 92t99 36q58 0 94 -30t36 -81q0 -35 -15 -63t-57 -64l-17 -15h99v-106z" />
    <glyph glyph-name="three.inferior" unicode="&#x2083;" horiz-adv-x="331" 
d="M24 -32l107 -4q3 -14 10 -18q7 -6 19 -6q14 0 21 7t7 21t-9 21q-7 7 -29 7h-28v78h24q18 0 27 6t9 18t-6 18t-17 6q-10 0 -16 -6t-8 -19h-111q4 54 40 86q36 33 95 33q63 0 97 -28q36 -28 36 -72q0 -29 -10 -45q-10 -18 -30 -30q28 -14 38 -31q12 -20 12 -48
q0 -48 -37 -79t-102 -31q-64 0 -98 31q-36 31 -41 85z" />
    <glyph glyph-name="four.inferior" unicode="&#x2084;" horiz-adv-x="345" 
d="M24 -9l115 220h128l-113 -209h37v42l110 25v-67h21v-100h-21v-43h-110v43h-167v89z" />
    <glyph glyph-name="five.inferior" unicode="&#x2085;" horiz-adv-x="317" 
d="M56 211l216 1v-101h-122l-2 -20q3 0 5.5 0.5t4 1t3 0.5h2.5h6q60 0 91 -31q33 -31 33 -85t-37 -88t-94 -34q-58 0 -97 30q-39 31 -46 81h115q4 -6 9 -9t12 -3q11 0 18 6t7 17t-7 18t-18 7q-8 0 -14 -3q-10 -6 -11 -7l-92 13z" />
    <glyph glyph-name="six.inferior" unicode="&#x2086;" horiz-adv-x="319" 
d="M163 -148l1 1q-60 0 -99 36t-39 90q0 28 9 55q10 28 30 61l71 117h128l-78 -115q52 -3 84 -36q32 -35 32 -82q0 -53 -40 -90t-99 -37zM135 -20h-2q0 -15 8 -23t21 -8t21 8t8 23q0 14 -7 21q-8 8 -21 8t-21 -8q-7 -7 -7 -21z" />
    <glyph glyph-name="seven.inferior" unicode="&#x2087;" horiz-adv-x="301" 
d="M156 105h-132v106h258v-90l-121 -262h-123z" />
    <glyph glyph-name="eight.inferior" unicode="&#x2088;" horiz-adv-x="335" 
d="M310 -34v-1q0 -49 -39 -81q-41 -32 -103 -32q-61 0 -102 32q-39 32 -39 81q0 26 12 47t35 35q-15 14 -23 32q-8 21 -8 37q0 43 35 72t90 29q56 0 90 -28q35 -29 35 -72q0 -16 -8 -37q-8 -17 -23 -31q24 -15 36 -36t12 -47zM141 108q0 -11 7 -17q8 -6 19 -6t19 6q7 6 7 17
t-7 17q-8 6 -19 6t-19 -6q-7 -6 -7 -17zM133 -30v-1q0 -13 9 -22t24 -9q16 0 25 9t9 23t-9 23t-25 9q-15 0 -24 -9t-9 -23z" />
    <glyph glyph-name="nine.inferior" unicode="&#x2089;" horiz-adv-x="318" 
d="M156 218l-1 -1q60 0 99 -36t39 -90q0 -28 -9 -55q-10 -28 -30 -61l-71 -117h-128l78 115q-53 3 -84 36q-32 35 -32 82q0 53 40 90t99 37zM184 90h-2q0 16 -7 23q-8 8 -21 8t-21 -8q-7 -7 -7 -23q0 -13 8 -21t21 -8t21 8t8 21z" />
    <glyph glyph-name="franc" unicode="&#x20a3;" horiz-adv-x="921" 
d="M261 0h-185v703h433v-169h-248v-104h224v-169h-224v-261zM848 358v-1q-58 0 -88 -36t-30 -105v-216h-177v510h168v-83q23 47 59 71t79 24q12 0 19 -1l15 -3v-167q-7 3 -21 5q-16 2 -24 2z" />
    <glyph glyph-name="Euro" unicode="&#x20ac;" horiz-adv-x="678" 
d="M296 332l103 -2v-108h-99q5 -30 24 -46t51 -16q39 0 59 20t20 59h185q0 -119 -73 -186t-192 -67q-111 0 -183 63q-72 62 -80 175h-71v108h70v38h-70v108h71q7 112 79 176q72 63 184 63q119 0 192 -67t73 -187h-185q0 39 -20 59t-59 20q-32 0 -51 -16q-20 -17 -26 -48h100
v-108h-102v-38z" />
    <glyph glyph-name="uni2113" unicode="&#x2113;" horiz-adv-x="502" 
d="M105 165l-63 -37v168l62 34v181q0 91 53 147q52 55 140 55q84 0 136 -46t52 -120q0 -79 -50 -150q-49 -71 -153 -135v-54q0 -34 11 -51q11 -15 36 -15q23 0 40 7q18 7 40 22v-158q-25 -15 -54 -21t-63 -6q-88 0 -135 44q-46 43 -52 135zM303 557l1 -1q-10 0 -16 -8
t-6 -21v-87q22 21 33 44q10 20 10 50q0 11 -6 17t-16 6z" />
    <glyph glyph-name="trademark" unicode="&#x2122;" horiz-adv-x="871" 
d="M233 323h-110v276h-93v104h296v-104h-93v-276zM466 323h-107v380h122l103 -194l105 194h118v-380h-107v185l-96 -185h-42l-96 187v-187z" />
    <glyph glyph-name="Omega" unicode="&#x2126;" horiz-adv-x="774" 
d="M355 0l-294 -5v169h94q-58 52 -87 109q-28 55 -28 124q0 137 96 227t248 90t248 -90t96 -226q0 -68 -28 -123q-28 -57 -85 -108h93v-169h-293v209q67 41 95 82q30 43 30 102q0 64 -44 108q-43 43 -111 43t-111 -43q-44 -44 -44 -106q0 -59 30 -102q28 -41 95 -82v-209z
" />
    <glyph glyph-name="estimated" unicode="&#x212e;" horiz-adv-x="808" 
d="M411 63l-1 -3q70 0 135 35q63 34 104 96h100q-60 -100 -148 -154q-89 -54 -193 -54q-152 0 -262 107q-108 106 -108 258t108 260t262 108q167 0 269 -110q102 -109 102 -299h-533v-192q37 -25 79 -39q39 -13 86 -13zM408 634v1q-46 0 -85 -13q-42 -14 -78 -39v-197h322
v201q-38 23 -75 35q-40 12 -84 12z" />
    <glyph glyph-name="uni2153" unicode="&#x2153;" horiz-adv-x="754" 
d="M220 351h-111v246h-62l25 106h148v-352zM574 703h131l-547 -703h-131zM434 109l107 -4q3 -14 10 -18q7 -6 19 -6q14 0 21 7t7 21q0 13 -9 21q-7 7 -29 7h-28v78h24q18 0 27 6t9 18t-6 18t-17 6q-10 0 -16 -6t-8 -19h-111q4 54 40 86q36 33 95 33q63 0 97 -28
q36 -29 36 -72q0 -29 -10 -45q-10 -18 -30 -30q28 -14 38 -31q12 -19 12 -48q0 -48 -37 -79t-102 -31q-64 0 -98 31q-36 31 -41 85z" />
    <glyph glyph-name="uni2154" unicode="&#x2154;" horiz-adv-x="802" 
d="M309 351h-273v88l122 107q11 9 15 19q5 13 5 22q0 7 -5 12t-12 5q-9 0 -14 -6t-6 -16h-113q3 56 42 92t99 36q58 0 94 -30t36 -81q0 -35 -15 -63t-57 -64l-17 -15h99v-106zM624 703h131l-547 -703h-131zM484 109l107 -4q3 -14 10 -18q7 -6 19 -6q14 0 21 7t7 21
q0 13 -9 21q-7 7 -29 7h-28v78h24q18 0 27 6t9 18t-6 18t-17 6q-10 0 -16 -6t-8 -19h-111q4 54 40 86q36 33 95 33q63 0 97 -28q36 -29 36 -72q0 -29 -10 -45q-10 -18 -30 -30q28 -14 38 -31q12 -19 12 -48q0 -48 -37 -79t-102 -31q-64 0 -98 31q-36 31 -41 85z" />
    <glyph glyph-name="uni2155" unicode="&#x2155;" horiz-adv-x="753" 
d="M574 703h131l-547 -703h-131zM220 351h-111v246h-62l25 106h148v-352zM475 352l216 1v-101h-122l-2 -20q3 0 5.5 0.5t4 1t3 0.5h2.5h6q60 0 91 -31q33 -31 33 -85t-37 -88t-94 -34q-58 0 -97 30q-39 31 -46 81h115q5 -6 9 -9t12 -3q10 0 18 6q7 6 7 17t-7 18t-18 7
q-8 0 -14 -3q-10 -6 -11 -7l-92 13z" />
    <glyph glyph-name="uni2156" unicode="&#x2156;" horiz-adv-x="796" 
d="M309 351h-273v88l122 107q11 9 15 19q5 13 5 22q0 7 -5 12t-12 5q-9 0 -14 -6t-6 -16h-113q3 56 42 92t99 36q58 0 94 -30t36 -81q0 -35 -15 -63t-57 -64l-17 -15h99v-106zM620 703h131l-547 -703h-131zM520 352l216 1v-101h-122l-2 -20q3 0 5.5 0.5t4 1t3 0.5h2.5h6
q60 0 91 -31q33 -31 33 -85t-37 -88t-94 -34q-58 0 -97 30q-39 31 -46 81h115q4 -6 9 -9t12 -3q11 0 18 6t7 17t-7 18t-18 7q-8 0 -14 -3q-10 -6 -11 -7l-92 13z" />
    <glyph glyph-name="uni2157" unicode="&#x2157;" horiz-adv-x="766" 
d="M593 703h131l-547 -703h-131zM495 352l216 1v-101h-122l-2 -20q3 0 5.5 0.5t4 1t3 0.5h2.5h6q60 0 91 -31q33 -31 33 -85t-37 -88t-94 -34q-58 0 -97 30q-39 31 -46 81h115q5 -6 9 -9t12 -3q10 0 18 6q7 6 7 17t-7 18t-18 7q-8 0 -14 -3q-10 -6 -11 -7l-92 13zM34 461
l107 -4q3 -14 10 -18q7 -6 19 -6q14 0 21 7t7 21q0 13 -9 21q-7 7 -29 7h-28v78h24q18 0 27 6t9 18t-6 18t-17 6q-10 0 -16 -6t-8 -19h-111q4 54 40 86q36 33 95 33q63 0 97 -28q36 -29 36 -72q0 -29 -10 -45q-10 -18 -30 -30q28 -14 38 -31q12 -19 12 -48q0 -48 -37 -79
t-102 -31q-64 0 -98 31q-36 31 -41 85z" />
    <glyph glyph-name="uni2158" unicode="&#x2158;" horiz-adv-x="814" 
d="M29 483l115 220h128l-113 -209h37v42l110 25v-67h21v-100h-21v-43h-110v43h-167v89zM637 703h131l-547 -703h-131zM538 352l216 1v-101h-122l-2 -20q3 0 5.5 0.5t4 1t3 0.5h2.5h6q60 0 91 -31q33 -31 33 -85t-37 -88t-94 -34q-58 0 -97 30q-39 31 -46 81h115q4 -6 9 -9
t12 -3q11 0 18 6t7 17t-7 18t-18 7q-8 0 -14 -3q-10 -6 -11 -7l-92 13z" />
    <glyph glyph-name="uni2159" unicode="&#x2159;" horiz-adv-x="736" 
d="M553 -7l1 1q-60 0 -99 36t-39 90q0 28 9 55q10 28 30 61l71 117h128l-78 -115q52 -3 84 -36q32 -35 32 -82q0 -53 -40 -90t-99 -37zM525 121h-2q0 -15 8 -23t21 -8t21 8t8 23q0 14 -7 21q-8 8 -21 8t-21 -8q-7 -7 -7 -21zM219 352h-111v246h-62l25 106h148v-352zM573 704
h131l-547 -703h-131z" />
    <glyph glyph-name="uni215A" unicode="&#x215a;" horiz-adv-x="765" 
d="M585 -7l1 1q-60 0 -99 36t-39 90q0 28 9 55q10 28 30 61l71 117h128l-78 -115q52 -3 84 -36q32 -35 32 -82q0 -53 -40 -90t-99 -37zM557 121h-2q0 -15 8 -23t21 -8t21 8t8 23q0 14 -7 21q-8 8 -21 8t-21 -8q-7 -7 -7 -21zM605 704h131l-547 -703h-131zM66 704l216 1v-101
h-122l-2 -20q3 0 5.5 0.5t4 1t3 0.5h2.5h6q60 0 91 -31q33 -31 33 -85t-37 -88t-94 -34q-58 0 -97 30q-39 31 -46 81h115q4 -6 9 -9t12 -3q11 0 18 6t7 17t-7 18t-18 7q-8 0 -14 -3q-10 -6 -11 -7l-92 13z" />
    <glyph glyph-name="uni215B" unicode="&#x215b;" horiz-adv-x="750" 
d="M574 703h131l-547 -703h-131zM220 351h-111v246h-62l25 106h148v-352zM711 107v-1q0 -50 -39 -81q-41 -32 -103 -32q-61 0 -102 32q-39 31 -39 81q0 26 12 47t35 35q-15 14 -23 32q-8 21 -8 37q0 43 35 72t90 29q56 0 90 -28q35 -29 35 -72q0 -16 -8 -37q-8 -17 -23 -31
q24 -15 36 -36t12 -47zM542 249q0 -11 7 -17t19 -6t19 6t7 17t-7 17t-19 6t-19 -6t-7 -17zM534 111v-1q0 -13 9 -22t24 -9q16 0 25 9t9 23t-9 23t-25 9q-15 0 -24 -9t-9 -23z" />
    <glyph glyph-name="uni215C" unicode="&#x215c;" horiz-adv-x="766" 
d="M596 703h131l-547 -703h-131zM733 107v-1q0 -50 -39 -81q-41 -32 -103 -32q-61 0 -102 32q-39 31 -39 81q0 26 12 47t35 35q-15 14 -23 32q-8 21 -8 37q0 43 35 72t90 29q56 0 90 -28q35 -29 35 -72q0 -16 -8 -37q-8 -17 -23 -31q24 -15 36 -36t12 -47zM564 249
q0 -11 7 -17t19 -6t19 6t7 17t-7 17t-19 6t-19 -6t-7 -17zM556 111v-1q0 -13 9 -22t24 -9q16 0 25 9t9 23t-9 23t-25 9q-15 0 -24 -9t-9 -23zM32 458l107 -4q3 -14 10 -18q8 -6 19 -6q14 0 21 7t7 21t-9 21q-7 7 -29 7h-28v78h24q18 0 27 6t9 18t-6 18t-17 6q-10 0 -16 -6
t-8 -19h-111q4 54 40 86q36 33 95 33q63 0 97 -28q36 -28 36 -72q0 -29 -10 -45q-10 -18 -30 -30q28 -14 38 -31q12 -20 12 -48q0 -48 -37 -79t-102 -31q-64 0 -98 31q-36 31 -41 85z" />
    <glyph glyph-name="uni215D" unicode="&#x215d;" horiz-adv-x="778" 
d="M606 703h131l-547 -703h-131zM67 703l216 1v-101h-122l-2 -20q3 0 5.5 0.5t4 1t3 0.5h2.5h6q60 0 91 -31q33 -32 33 -85q0 -54 -37 -88t-94 -34q-58 0 -97 30q-39 31 -46 81h115q5 -6 9 -9t12 -3q10 0 18 6q7 6 7 17t-7 18t-18 7q-8 0 -14 -3q-10 -6 -11 -7l-92 13z
M744 108v-1q0 -49 -39 -81q-41 -32 -103 -32q-61 0 -102 32q-39 32 -39 81q0 26 12 47t35 35q-15 14 -23 32q-8 21 -8 37q0 43 35 72t90 29q56 0 90 -28q35 -29 35 -72q0 -16 -8 -37q-8 -17 -23 -31q24 -15 36 -36t12 -47zM575 250q0 -11 7 -17q8 -6 19 -6t19 6q7 6 7 17
t-7 17q-8 6 -19 6t-19 -6q-7 -6 -7 -17zM567 112v-1q0 -13 9 -22t24 -9q16 0 25 9t9 23t-9 23t-25 9q-15 0 -24 -9t-9 -23z" />
    <glyph glyph-name="uni215E" unicode="&#x215e;" horiz-adv-x="753" 
d="M191 597h-132v106h258v-90l-121 -262h-123zM574 703h131l-547 -703h-131zM716 107v-1q0 -50 -39 -81q-41 -32 -103 -32q-61 0 -102 32q-39 31 -39 81q0 26 12 47t35 35q-15 14 -23 32q-8 21 -8 37q0 43 35 72t90 29q56 0 90 -28q35 -29 35 -72q0 -16 -8 -37
q-8 -17 -23 -31q24 -15 36 -36t12 -47zM547 249q0 -11 7 -17q8 -6 19 -6t19 6q7 6 7 17t-7 17q-8 6 -19 6t-19 -6q-7 -6 -7 -17zM539 111v-1q0 -13 9 -22t24 -9q16 0 25 9t9 23t-9 23t-25 9q-15 0 -24 -9t-9 -23z" />
    <glyph glyph-name="uni215F" unicode="&#x215f;" horiz-adv-x="734" 
d="M232 351h-111v246h-62l25 106h148v-352zM585 703h131l-547 -703h-131z" />
    <glyph glyph-name="partialdiff" unicode="&#x2202;" horiz-adv-x="614" 
d="M26 242v-3q0 98 65 169q65 69 161 69q47 0 83 -12q34 -12 63 -38q-27 73 -93 114q-68 41 -174 50v163q217 -6 331 -124t114 -330q0 -137 -79 -225q-80 -89 -201 -89q-112 0 -192 74q-78 74 -78 182zM400 238v-1q0 41 -27 66q-25 25 -72 25q-46 0 -71 -25q-27 -25 -27 -66
t27 -66q25 -25 71 -25q43 0 72 26q27 26 27 66z" />
    <glyph glyph-name="Delta" unicode="&#x2206;" horiz-adv-x="665" 
d="M233 703h199l198 -567v-136h-596v136zM327 484l-100 -318h200z" />
    <glyph glyph-name="product" unicode="&#x220f;" horiz-adv-x="785" 
d="M289 0h-185v534h-65v169h707v-169h-65v-534h-185v534h-207v-534z" />
    <glyph glyph-name="summation" unicode="&#x2211;" horiz-adv-x="631" 
d="M47 574v129h531v-169h-289l137 -162l-144 -203h306v-169h-537v120l179 242z" />
    <glyph glyph-name="minus" unicode="&#x2212;" 
d="M50 280v140h470v-140h-470z" />
    <glyph glyph-name="uni2215" unicode="&#x2215;" horiz-adv-x="170" 
d="M293 703h131l-547 -703h-131z" />
    <glyph glyph-name="uni2219" unicode="&#x2219;" horiz-adv-x="447" 
d="M369 356v-2q0 -58 -42 -99q-44 -41 -105 -41q-63 0 -104 41t-41 99q0 63 41 104t105 41t105 -41t41 -102z" />
    <glyph glyph-name="radical" unicode="&#x221a;" horiz-adv-x="629" 
d="M407 0h-198l-111 355h-76v155h216l73 -258l132 451h183z" />
    <glyph glyph-name="infinity" unicode="&#x221e;" horiz-adv-x="823" 
d="M227 452h-2q52 0 102 -26q51 -26 87 -74q38 50 83 75q47 26 98 26q79 0 135 -54q55 -54 55 -137t-55 -137q-56 -54 -135 -54q-52 0 -102 26q-51 26 -87 74q-37 -48 -82 -75q-47 -26 -97 -26q-79 0 -135 54q-55 54 -55 137t55 137q56 54 135 54zM230 314l-1 1
q-25 0 -40 -15t-15 -40t15 -40t40 -15q23 0 41 12t36 39q-14 24 -35 41q-23 17 -41 17zM589 206v-4q25 0 40 15t15 40q0 26 -15 41t-40 15q-22 0 -40 -12t-36 -39q14 -23 35 -40q19 -16 41 -16z" />
    <glyph glyph-name="integral" unicode="&#x222b;" horiz-adv-x="432" 
d="M304 545l-2 -565q0 -108 -49 -157q-49 -51 -151 -51q-24 0 -46 3t-48 9v155q5 -1 16 -3t17 -4q17 -3 30 -3q30 0 42 12t12 41v563q0 104 50 157q49 51 152 51q23 0 46 -3t48 -9v-155l-33 8q-16 3 -30 3q-30 0 -42 -12t-12 -40z" />
    <glyph glyph-name="approxequal" unicode="&#x2248;" 
d="M313 532l-3 -1l47 -15q12 -4 29 -4q29 0 55 14q24 14 48 48v-156q-10 -21 -43 -37q-31 -16 -73 -16q-20 0 -48 5q-23 4 -54 18q-29 14 -47 18q-15 4 -38 4q-32 0 -57 -15t-52 -52v151q14 26 47 45q31 19 70 19q21 0 53 -5q25 -5 66 -21zM310 310l-3 -1l47 -15
q12 -4 29 -4q29 0 55 14q24 14 48 48v-156q-10 -21 -43 -37q-31 -16 -73 -16q-20 0 -48 5q-22 4 -54 18q-29 14 -47 18q-15 4 -38 4q-31 0 -57 -15q-25 -15 -52 -52v151q14 26 47 45q31 19 70 19q21 0 53 -5q26 -5 66 -21z" />
    <glyph glyph-name="notequal" unicode="&#x2260;" 
d="M238 76h-137l41 89h-92v140h156l42 90h-198v140h262l41 89h137l-41 -89h71v-140h-135l-42 -90h177v-140h-241z" />
    <glyph glyph-name="lessequal" unicode="&#x2264;" 
d="M507 165l-450 190v140l450 190v-170l-221 -90l221 -90v-170zM57 0v140h450v-140h-450z" />
    <glyph glyph-name="greaterequal" unicode="&#x2265;" 
d="M63 165v170l221 90l-221 90v170l450 -190v-140zM513 0h-450v140h450v-140z" />
    <glyph glyph-name="lozenge" unicode="&#x25ca;" horiz-adv-x="625" 
d="M253 -14l-226 380l230 351h111l230 -351l-226 -380h-119zM313 523l-102 -159l102 -176l101 176z" />
    <glyph glyph-name="zero.denominator" unicode="&#xf655;" horiz-adv-x="348" 
d="M316 230v-106q0 -62 -39 -96q-41 -35 -102 -35t-102 35q-39 34 -39 96v106q0 62 39 96q37 34 102 34t102 -34q39 -34 39 -96zM174 253q-15 0 -23 -8t-8 -21v-96q0 -13 8 -21t23 -8t23 8t8 21v96q0 13 -8 21t-23 8z" />
    <glyph glyph-name="one.denominator" unicode="&#xf656;" horiz-adv-x="230" 
d="M186 0h-111v246h-62l25 106h148v-352z" />
    <glyph glyph-name="two.denominator" unicode="&#xf657;" horiz-adv-x="331" 
d="M302 0h-273v88l122 107q11 9 15 19q5 13 5 22q0 7 -5 12t-12 5q-10 0 -14 -6q-5 -6 -6 -16h-113q3 56 42 92t99 36q58 0 94 -30t36 -81q0 -34 -15 -63q-15 -28 -57 -64l-17 -15h99v-106z" />
    <glyph glyph-name="three.denominator" unicode="&#xf658;" horiz-adv-x="331" 
d="M24 109l107 -4q3 -14 10 -18q7 -6 19 -6q14 0 21 7t7 21q0 13 -9 21q-7 7 -29 7h-28v78h24q18 0 27 6t9 18t-6 18t-17 6q-10 0 -16 -6t-8 -19h-111q4 54 40 86q36 33 95 33q63 0 97 -28q36 -29 36 -72q0 -29 -10 -45q-10 -18 -30 -30q28 -14 38 -31q12 -19 12 -48
q0 -48 -37 -79t-102 -31q-64 0 -98 31q-36 31 -41 85z" />
    <glyph glyph-name="four.denominator" unicode="&#xf659;" horiz-adv-x="344" 
d="M23 132l115 220h128l-113 -209h37v42l110 25v-67h21v-100h-21v-43h-110v43h-167v89z" />
    <glyph glyph-name="five.denominator" unicode="&#xf65a;" horiz-adv-x="318" 
d="M56 352l216 1v-101h-122l-2 -20q3 0 5.5 0.5t4 1t3 0.5h2.5h6q60 0 91 -31q33 -31 33 -85t-37 -88t-94 -34q-58 0 -97 30q-39 31 -46 81h115q4 -6 9 -9t12 -3q11 0 18 6t7 17t-7 18t-18 7q-8 0 -14 -3q-10 -6 -11 -7l-92 13z" />
    <glyph glyph-name="six.denominator" unicode="&#xf65b;" horiz-adv-x="318" 
d="M162 -7l1 1q-60 0 -99 36t-39 90q0 28 9 55q10 28 30 61l71 117h128l-78 -115q53 -3 84 -36q32 -35 32 -82q0 -53 -40 -90t-99 -37zM134 121h-2q0 -15 8 -23t21 -8t21 8t8 23q0 14 -7 21q-8 8 -21 8t-21 -8q-7 -7 -7 -21z" />
    <glyph glyph-name="seven.denominator" unicode="&#xf65c;" horiz-adv-x="302" 
d="M156 246h-132v106h258v-90l-121 -262h-123z" />
    <glyph glyph-name="eight.denominator" unicode="&#xf65d;" horiz-adv-x="335" 
d="M310 107v-1q0 -50 -39 -81q-41 -32 -103 -32q-61 0 -102 32q-39 31 -39 81q0 26 12 47t35 35q-15 14 -23 32q-8 21 -8 37q0 43 35 72t90 29q56 0 90 -28q35 -29 35 -72q0 -16 -8 -37q-8 -17 -23 -31q24 -15 36 -36t12 -47zM141 249q0 -11 7 -17t19 -6q11 0 19 6q7 6 7 17
t-7 17q-8 6 -19 6t-19 -6q-7 -6 -7 -17zM133 111v-1q0 -13 9 -22t24 -9q16 0 25 9t9 23t-9 23t-25 9q-15 0 -24 -9t-9 -23z" />
    <glyph glyph-name="nine.denominator" unicode="&#xf65e;" horiz-adv-x="319" 
d="M157 359l-1 -1q60 0 99 -36t39 -90q0 -28 -9 -55q-10 -28 -30 -61l-71 -117h-128l78 115q-52 3 -84 36q-32 35 -32 82q0 53 40 90t99 37zM185 231h-2q0 16 -7 23q-8 8 -21 8t-21 -8q-7 -7 -7 -23q0 -13 8 -21t21 -8t21 8t8 21z" />
    <glyph glyph-name="zero.numerator" unicode="&#xf661;" horiz-adv-x="348" 
d="M316 581v-106q0 -61 -39 -96q-41 -35 -102 -35t-102 35q-39 35 -39 96v106q0 61 39 96q37 34 102 34t102 -34q39 -35 39 -96zM174 604q-15 0 -23 -8t-8 -21v-96q0 -13 8 -21t23 -8t23 8t8 21v96q0 13 -8 21t-23 8z" />
    <glyph glyph-name="one.numerator" unicode="&#xf662;" horiz-adv-x="227" 
d="M184 351h-111v246h-62l25 106h148v-352z" />
    <glyph glyph-name="two.numerator" unicode="&#xf663;" horiz-adv-x="332" 
d="M303 351h-273v88l122 107q11 9 15 19q5 13 5 22q0 7 -5 12t-12 5q-9 0 -14 -6t-6 -16h-113q3 56 42 92t99 36q58 0 94 -30t36 -81q0 -35 -15 -63t-57 -64l-17 -15h99v-106z" />
    <glyph glyph-name="three.numerator" unicode="&#xf664;" horiz-adv-x="331" 
d="M24 460l107 -4q3 -14 10 -18q7 -6 19 -6q14 0 21 7t7 21t-9 21q-7 7 -29 7h-28v78h24q18 0 27 6t9 18t-6 18t-17 6q-10 0 -16 -6t-8 -19h-111q4 54 40 86q36 33 95 33q63 0 97 -28q36 -28 36 -72q0 -29 -10 -45q-10 -18 -30 -30q28 -14 38 -31q12 -20 12 -48
q0 -48 -37 -79t-102 -31q-64 0 -98 31q-36 31 -41 85z" />
    <glyph glyph-name="four.numerator" unicode="&#xf665;" horiz-adv-x="345" 
d="M24 483l115 220h128l-113 -209h37v42l110 25v-67h21v-100h-21v-43h-110v43h-167v89z" />
    <glyph glyph-name="five.numerator" unicode="&#xf666;" horiz-adv-x="316" 
d="M55 703l216 1v-101h-122l-2 -20q3 0 5.5 0.5t4 1t3 0.5h2.5h6q60 0 91 -31q33 -32 33 -85q0 -54 -37 -88t-94 -34q-58 0 -97 30q-39 31 -46 81h115q5 -6 9 -9t12 -3q10 0 18 6q7 6 7 17t-7 18t-18 7q-8 0 -14 -3q-10 -6 -11 -7l-92 13z" />
    <glyph glyph-name="six.numerator" unicode="&#xf667;" horiz-adv-x="319" 
d="M163 344l1 1q-60 0 -99 36t-39 90q0 28 9 55q10 28 30 61l71 117h128l-78 -115q52 -3 84 -36q32 -35 32 -82q0 -53 -40 -90t-99 -37zM135 472h-2q0 -15 8 -23t21 -8t21 8t8 23q0 14 -7 21q-8 8 -21 8t-21 -8q-7 -7 -7 -21z" />
    <glyph glyph-name="seven.numerator" unicode="&#xf668;" horiz-adv-x="300" 
d="M155 597h-132v106h258v-90l-121 -262h-123z" />
    <glyph glyph-name="eight.numerator" unicode="&#xf669;" horiz-adv-x="335" 
d="M310 458v-1q0 -49 -39 -81q-41 -32 -103 -32q-61 0 -102 32q-39 32 -39 81q0 26 12 47t35 35q-15 14 -23 32q-8 21 -8 37q0 43 35 72t90 29q56 0 90 -28q35 -29 35 -72q0 -16 -8 -37q-8 -17 -23 -31q24 -15 36 -36t12 -47zM141 600q0 -11 7 -17t19 -6q11 0 19 6q7 6 7 17
t-7 17q-8 6 -19 6t-19 -6q-7 -6 -7 -17zM133 462v-1q0 -13 9 -22t24 -9q16 0 25 9t9 23t-9 23t-25 9q-15 0 -24 -9t-9 -23z" />
    <glyph glyph-name="nine.numerator" unicode="&#xf66a;" horiz-adv-x="319" 
d="M157 710l-1 -1q60 0 99 -36t39 -90q0 -28 -9 -55q-10 -28 -30 -61l-71 -117h-128l78 115q-52 3 -84 36q-32 35 -32 82q0 53 40 90t99 37zM185 582h-2q0 16 -7 23q-8 8 -21 8t-21 -8q-7 -7 -7 -23q0 -13 8 -21t21 -8t21 8t8 21z" />
    <glyph glyph-name="commaaccent" unicode="&#xf6c3;" horiz-adv-x="247" 
d="M195 -168l-64 -121h-90l46 89q-22 9 -36 29q-13 19 -13 44q0 35 24 59t60 24q37 0 61 -24t24 -58q0 -10 -3 -21t-9 -21z" />
    <glyph glyph-name="uniF8FF" unicode="&#xf8ff;" horiz-adv-x="1438" 
d="M741 523v-36h31q3 0 9 -2q3 -1 3 -8v-27q0 -6 -3 -9t-9 -3h-31v-77q0 -9 6 -13q4 -4 18 -4h10q6 0 9 -3t3 -9v-27q0 -6 -3 -9t-9 -3h-19q-40 0 -60 14q-18 13 -18 47v84h-17q-6 0 -9 3t-3 9v25q0 1 2 7q1 3 9 5l16 1h1v36q0 6 3 9t9 3h39q7 0 10 -3t3 -10zM350 488l40 -2
q6 0 9 -3t3 -9v-6q15 11 30 17q17 5 29 5q17 0 30 -6q14 -6 21 -19q19 16 31 20q15 6 33 6q26 0 41 -15t15 -39v-132q0 -6 -3 -9t-10 -3h-38q-7 0 -10 3t-3 9v116q0 10 -3 13t-11 3q-11 0 -19 -4q-7 -4 -19 -12v-117q0 -6 -3 -9t-9 -3h-38q-7 0 -10 3t-3 9v116q0 10 -3 13
t-12 3q-11 0 -19 -4q-9 -3 -18 -10v-117q0 -3 -2 -9q-1 -3 -8 -3h-41q-6 0 -9 3t-3 9v171q0 6 3 9t9 3zM1019 486h36q7 0 10 -3t3 -9l1 -7q15 12 29 17q17 5 30 5q28 0 43 -15t15 -44v-80q0 -30 -15 -46t-43 -16q-13 0 -30 5q-14 5 -27 15v-83q0 -6 -3 -9t-9 -3h-40
q-6 0 -9 3t-3 9v249q0 6 3 9t9 3zM226 490l-1 -1q41 0 62 -15t21 -46v-43q0 -6 -3 -9t-9 -3h-93v-23q0 -8 6 -13q4 -4 18 -4q10 0 18 5q6 4 6 14v1q0 6 3 9t9 3h32q6 0 9 -3t3 -9v-3q0 -31 -20 -46q-19 -15 -60 -15t-63 16t-22 46v79q0 30 21 45t63 15zM1299 489l-3 -1
q41 0 62 -15t21 -46v-43q0 -6 -3 -9t-9 -3h-94v-23q0 -9 6 -13q4 -4 18 -4q10 0 18 5q6 4 6 14v1q0 6 3 9t9 3h32q6 0 9 -3t3 -9v-3q0 -31 -19 -46q-20 -15 -60 -15q-43 0 -62 16q-21 17 -21 46v79q0 30 21 45t63 15zM858 473l17 -71q3 -7 5 -22q0 -3 0.5 -5.5t1 -4t0.5 -3
v-2.5q1 1 4 13q1 4 2.5 11.5t3.5 11.5l24 72q2 8 5 9q6 2 8 2h37q7 0 10 -3q3 -5 2 -8l-84 -249q-2 -4 -5 -8q-3 -3 -8 -3h-28q-7 0 -10 3t-1 8l16 59l-65 190q-2 5 1 8t11 3h40q2 0 8 -2q3 -1 5 -9zM217 441v-2q-14 0 -18 -4q-6 -5 -6 -13v-11h48v11q0 9 -6 14q-8 5 -18 5z
M1291 439l1 -2q-14 0 -18 -4q-6 -5 -6 -13v-11h47v11q0 10 -6 14q-8 5 -18 5zM1099 335l1 1q9 0 13 4t4 13v62q0 8 -4 11q-5 3 -13 3t-15 -3q-5 -1 -22 -12v-63q6 -4 14 -7.5t10 -5.5q6 -3 12 -3zM561 224l-2 -41h47q3 0 3 -1v-3v-8q0 -3 -1 -4t-3 -1h-47v-124q0 -16 12 -25
t38 -9h6q2 0 3 -1q2 -2 2 -3v-7q0 -2 -1 -3t-3 -1h-9q-33 0 -50 11q-15 10 -15 36v126h-25q-2 0 -3 1t-1 4v7q0 2 1 3l3 3h25v41v4q0 1 3 1h11l3 -3zM407 187l-4 1q35 0 51 -12q17 -12 17 -36v-49q0 -2 -1 -3t-3 -1h-114v-48q0 -17 12 -24q14 -8 38 -8q22 0 36 8q12 7 12 24
v8q0 2 1 3t6 1h9q3 0 4 -1t1 -3v-9q0 -25 -17 -37t-51 -12t-51 12t-17 36v102q0 24 18 36t53 12zM153 181l3 -21q16 12 33 18t33 6q26 0 39 -12q14 -12 14 -33v-144q0 -2 -1 -3t-3 -1h-11h-3q-1 0 -1 5v140q0 16 -10 23q-11 8 -30 8t-35 -6q-17 -6 -27 -16v-148q0 -2 -1 -3
t-3 -1h-11q-3 0 -4 1t-1 4v183q0 2 1 3t4 1h9q3 0 4 -1t1 -3zM406 167h-1q-23 0 -37 -8q-12 -7 -12 -24v-36h98v36q0 17 -12 24q-14 8 -36 8zM71 24v-30q0 -3 -1 -4t-4 -1h-11q-2 0 -3 1t-1 4v30q0 3 1 4t3 1h11q3 0 4 -1t1 -4z" />
    <glyph glyph-name="f_f" unicode="&#xfb00;" horiz-adv-x="790" 
d="M286 0l-181 -4v352h-73v158h73v37q0 104 50 157q50 51 152 51q23 0 46 -3t48 -9v-155l-33 8q-16 3 -30 3q-30 0 -42 -12t-12 -40v-35h196v37q0 104 50 157q50 51 152 51q24 0 46 -3t48 -9v-155l-33 8q-17 3 -30 3q-30 0 -42 -12t-12 -40v-35h113v-158h-113v-352h-177v352
h-196v-352z" />
    <glyph glyph-name="fi" unicode="&#xfb01;" horiz-adv-x="714" 
d="M286 0l-179 -1v352h-73v158h73v37q0 104 50 157q49 51 152 51q23 0 46 -3q22 -3 43 -9v-155q-6 2 -15.5 3.5t-15.5 3.5q-15 3 -27 3q-30 0 -42 -12t-12 -40v-35h113v-158h-113v-352zM457 651v-1q0 46 29 75t77 29q50 0 78 -28q30 -28 30 -75q0 -43 -30 -72
q-32 -29 -78 -29q-44 0 -76 29q-30 29 -30 72zM652 -2h-177v510h177v-510z" />
    <glyph glyph-name="fl" unicode="&#xfb02;" horiz-adv-x="714" 
d="M286 0l-179 -1v352h-73v158h73v37q0 104 50 157q49 51 152 51q23 0 46 -3q22 -3 43 -9v-155q-6 2 -15.5 3.5t-15.5 3.5q-15 3 -27 3q-30 0 -42 -12t-12 -40v-35h113v-158h-113v-352zM475 740h177v-741h-177v741z" />
    <glyph glyph-name="f_f_i" unicode="&#xfb03;" horiz-adv-x="1087" 
d="M286 0l-181 -3v352h-73v158h73v37q0 104 50 157q50 51 152 51q23 0 46 -3t48 -9v-155l-33 8q-16 3 -30 3q-30 0 -42 -12t-12 -40v-35h196v37q0 104 50 157q50 51 152 51q24 0 46 -3t43 -9v-155q-5 2 -15.5 3.5t-15.5 3.5q-15 3 -27 3q-30 0 -42 -12t-12 -40v-35h113v-158
h-113v-352h-177v352h-196v-352zM828 649v-1q0 46 29 75t77 29q50 0 78 -28q30 -28 30 -75q0 -43 -30 -72q-32 -29 -78 -29q-44 0 -76 29q-30 29 -30 72zM1023 -4h-177v510h177v-510z" />
    <glyph glyph-name="f_f_l" unicode="&#xfb04;" horiz-adv-x="1087" 
d="M286 0l-181 -3v352h-73v158h73v37q0 104 50 157q50 51 152 51q23 0 46 -3t48 -9v-155l-33 8q-16 3 -30 3q-30 0 -42 -12t-12 -40v-35h196v37q0 104 50 157q50 51 152 51q24 0 46 -3t43 -9v-155q-5 2 -15.5 3.5t-15.5 3.5q-15 3 -27 3q-30 0 -42 -12t-12 -40v-35h113v-158
h-113v-352h-177v352h-196v-352zM846 738h177v-741h-177v741z" />
    <glyph glyph-name="longs_t" unicode="&#xfb05;" horiz-adv-x="746" 
d="M237 0l-179 -2v547q0 104 50 157q49 51 152 51q24 0 46 -3t48 -9v-155l-33 8q-17 3 -30 3q-30 0 -42 -12t-12 -40v-545zM412 508v138l177 41v-179h113v-158h-113v-157q0 -28 12 -40t40 -12q20 0 35 3t32 12v-154q-22 -10 -49 -15q-25 -4 -60 -4q-95 0 -141 48
q-46 46 -46 147v172h-73v158h73z" />
    <glyph glyph-name="zero.tab" unicode="&#xff10;" horiz-adv-x="600" 
d="M574 251v-1q0 -125 -76 -195t-199 -70q-121 0 -198 71q-76 70 -76 195v202q0 125 76 195t198 70q123 0 199 -70t76 -195v-202zM297 541h-2q-42 0 -64 -24q-22 -22 -22 -67v-200q0 -44 22 -66q23 -23 66 -23q46 0 69 23t23 68v200q0 43 -23 66t-69 23z" />
    <glyph glyph-name="one.tab" unicode="&#xff11;" horiz-adv-x="600" 
d="M532 0h-443v169h129v365h-124l42 169h267v-534h129v-169z" />
    <glyph glyph-name="two.tab" unicode="&#xff12;" horiz-adv-x="600" 
d="M568 0l-535 -2v142l267 247q28 28 38 48q12 23 12 45q0 29 -16 45t-46 16q-35 0 -54 -19q-20 -20 -27 -60h-190q7 112 84 183t198 71q114 0 181 -61q69 -61 69 -160q0 -65 -30 -119q-33 -57 -112 -125l-94 -82h255v-169z" />
    <glyph glyph-name="three.tab" unicode="&#xff13;" horiz-adv-x="600" 
d="M30 215l183 -4q6 -28 27 -43t56 -15q34 0 55 18t21 50q0 34 -22 52t-66 18h-75v134h79q31 0 48 17t17 48q0 26 -16 41q-17 15 -46 15q-31 0 -49 -15q-18 -14 -23 -45h-186q7 102 78 165t186 63q111 0 177 -57t66 -140q0 -53 -19 -90t-58 -60q50 -24 74 -63t24 -99
q0 -94 -70 -157q-71 -63 -189 -63q-116 0 -190 62q-72 62 -82 168z" />
    <glyph glyph-name="four.tab" unicode="&#xff14;" horiz-adv-x="600" 
d="M6 244l239 459h213l-234 -434h120v112l181 42v-154h66v-165h-66v-104h-181v104h-338v140z" />
    <glyph glyph-name="five.tab" unicode="&#xff15;" horiz-adv-x="600" 
d="M100 703l417 -1v-169h-268l-7 -76l38 8q18 3 35 3q114 0 180 -63t66 -171t-73 -178t-186 -70q-112 0 -189 62t-89 162h191q9 -26 29 -40q19 -13 51 -13q38 0 60 22q23 23 23 57q0 35 -23 56t-60 21q-25 0 -45 -9t-36 -27l-150 18z" />
    <glyph glyph-name="six.tab" unicode="&#xff16;" horiz-adv-x="600" 
d="M307 -14l-4 -3q-118 0 -194 73q-78 74 -78 180q0 45 17 102q16 54 45 99l165 264h215l-158 -231h19q103 0 174 -68q70 -67 70 -165q0 -105 -78 -178q-76 -73 -193 -73zM216 235q0 -37 24 -63q24 -25 62 -25t62 25q24 26 24 63q0 38 -24 62t-62 24t-62 -24t-24 -62z" />
    <glyph glyph-name="seven.tab" unicode="&#xff17;" horiz-adv-x="600" 
d="M344 534h-296v169h508v-145l-268 -558h-207z" />
    <glyph glyph-name="eight.tab" unicode="&#xff18;" horiz-adv-x="600" 
d="M566 212v1q0 -99 -74 -162t-192 -63t-192 63t-74 162q0 53 24 96q24 44 69 74q-29 29 -44 63q-15 36 -15 75q0 85 65 141t167 56q103 0 168 -56t65 -141q0 -39 -15 -75q-15 -34 -44 -63q44 -32 68 -75q24 -45 24 -96zM235 504l1 -3q0 -27 18 -43q16 -16 47 -16
q28 0 48 17q18 17 18 44q0 29 -18 45q-20 17 -48 17t-48 -17q-18 -16 -18 -44zM217 219h-2q0 -33 24 -55q22 -22 61 -22t61 22q24 22 24 55q0 34 -23 57q-22 22 -60 22q-39 0 -61 -22q-24 -22 -24 -57z" />
    <glyph glyph-name="nine.tab" unicode="&#xff19;" horiz-adv-x="600" 
d="M293 717l2 1q118 0 194 -73q78 -73 78 -180q0 -51 -16 -102q-17 -54 -45 -99l-165 -264h-215l158 231h-19q-103 0 -174 68q-70 67 -70 165q0 106 78 179q80 74 194 74zM382 466q0 38 -24 63t-62 25t-62 -25t-24 -63t24 -62t62 -24t62 24t24 62z" />
    <glyph glyph-name="Lgeminada" horiz-adv-x="1072" 
d="M520 0h-448v703h185v-534h263v-169zM546 347l2 -1q0 -46 -33 -78q-35 -32 -82 -32q-49 0 -81 32t-32 78q0 49 32 81t81 32t81 -32t32 -80zM1058 -1h-448v703h185v-534h263v-169z" />
    <glyph glyph-name="lgeminada" horiz-adv-x="815" 
d="M60 741h177v-741h-177v741zM521 347l2 -1q0 -46 -33 -78q-35 -32 -82 -32q-49 0 -81 32t-32 78q0 49 32 81t81 32t81 -32t32 -80zM580 740h177v-741h-177v741z" />
    <glyph glyph-name="caron.salt" horiz-adv-x="241" 
d="M204 608l-66 -141h-100l54 113q-26 9 -41 32q-15 22 -15 51q0 39 26 65t66 26q38 0 67 -26q27 -26 27 -65q0 -9 -3 -19t-15 -36z" />
    <glyph glyph-name="commaaccent.salt" horiz-adv-x="198" 
d="M30 679l63 119h90l-46 -89q22 -9 36 -29t14 -44q0 -34 -24 -58t-60 -24q-37 0 -61 24t-24 59q0 11 3 21t9 21z" />
    <glyph glyph-name="acute.case" horiz-adv-x="390" 
d="M206 760h-168l83 150h171z" />
    <glyph glyph-name="grave.case" horiz-adv-x="390" 
d="M124 760l-86 150h171l83 -150h-168z" />
    <glyph glyph-name="hungarumlaut.case" horiz-adv-x="396" 
d="M102 910h161l-66 -150h-159zM295 910h161l-66 -150h-159z" />
    <glyph glyph-name="circumflex.case" horiz-adv-x="394" 
d="M38 760l92 150h206l93 -150h-155l-42 69l-42 -69h-152z" />
    <glyph glyph-name="caron.case" horiz-adv-x="394" 
d="M36 910h152l42 -69l42 69h155l-93 -150h-206z" />
    <glyph glyph-name="breve.case" horiz-adv-x="394" 
d="M207 748l-1 -2q-78 0 -127 46q-51 46 -51 114h129q0 -23 13 -36q14 -14 36 -14q21 0 35 15q14 17 14 37h129q0 -68 -51 -114q-49 -46 -126 -46z" />
    <glyph glyph-name="tilde.case" horiz-adv-x="395" 
d="M227 888l-2 -3q3 -2 7 -4t6.5 -3.5t3.5 -2.5q4 -3 9 -3q7 0 12 8q4 5 7 27h116q-4 -78 -34 -117t-85 -39q-18 0 -33 6q-12 4 -36 23q-15 11 -19 12q-6 3 -12 3q-10 0 -15 -8q-5 -11 -8 -27h-117q4 76 34 118q30 40 85 40q20 0 38 -6q19 -7 43 -24z" />
    <glyph glyph-name="macron.case" horiz-adv-x="392" 
d="M337 772h-299v118h299v-118z" />
    <glyph glyph-name="dieresis.case" horiz-adv-x="394" 
d="M206 833q0 -36 -24 -60t-59 -24q-36 0 -60 24t-24 60q0 35 24 61q24 25 60 25q35 0 59 -25q24 -26 24 -61zM393 833q0 -36 -24 -60t-59 -24q-36 0 -60 24t-24 60q0 35 24 61q24 25 60 25q35 0 59 -25t24 -61z" />
    <glyph glyph-name="dotaccent.case" horiz-adv-x="386" 
d="M223 840q0 -38 -27 -65t-65 -27t-65 27t-27 65t27 65t65 27t65 -27t27 -65z" />
    <glyph glyph-name="ring.case" horiz-adv-x="391" 
d="M282 869l-2 -3q0 -51 -37 -85t-91 -34q-58 0 -92 34q-36 35 -36 87t36 87q38 35 92 35t92 -35t38 -86zM117 866q0 -15 9 -24t24 -9q14 0 25 9q10 9 10 24t-10 25t-25 10t-24 -10q-9 -11 -9 -25z" />
    <glyph glyph-name="G.alt" horiz-adv-x="804" 
d="M546 237l-145 -1v142h360q1 -2 1 -10v-16q0 -161 -102 -263t-265 -102q-161 0 -263 104q-102 103 -102 261q0 157 104 261t267 104q135 0 236 -74q99 -73 125 -195h-204q-19 46 -60 70q-40 24 -96 24q-79 0 -127 -54t-48 -138t48 -137t125 -53q48 0 86 20t60 57z" />
    <glyph glyph-name="Gcircumflex.alt" horiz-adv-x="804" 
d="M206 760l92 150h206l93 -150h-155l-42 69l-42 -69h-152zM546 237l-145 -1v142h360q1 -2 1 -10v-16q0 -161 -102 -263t-265 -102q-161 0 -263 104q-102 103 -102 261q0 157 104 261t267 104q135 0 236 -74q99 -73 125 -195h-204q-19 46 -60 70q-40 24 -96 24
q-79 0 -127 -54t-48 -138t48 -137t125 -53q48 0 86 20t60 57z" />
    <glyph glyph-name="Gbreve.alt" horiz-adv-x="804" 
d="M546 237l-145 -1v142h360q1 -2 1 -10v-16q0 -161 -102 -263t-265 -102q-161 0 -263 104q-102 103 -102 261q0 157 104 261t267 104q135 0 236 -74q99 -73 125 -195h-204q-19 46 -60 70q-40 24 -96 24q-79 0 -127 -54t-48 -138t48 -137t125 -53q48 0 86 20t60 57zM396 747
l-1 -2q-78 0 -127 46q-51 47 -51 114h129q0 -23 13 -36q14 -14 36 -14q21 0 35 15q14 17 14 37h129q0 -67 -51 -114q-49 -46 -126 -46z" />
    <glyph glyph-name="Gdotaccent.alt" horiz-adv-x="804" 
d="M494 840q0 -38 -27 -65t-65 -27t-65 27t-27 65t27 65t65 27t65 -27t27 -65zM546 237l-145 -1v142h360q1 -2 1 -10v-16q0 -161 -102 -263t-265 -102q-161 0 -263 104q-102 103 -102 261q0 157 104 261t267 104q135 0 236 -74q99 -73 125 -195h-204q-19 46 -60 70
q-40 24 -96 24q-79 0 -127 -54t-48 -138t48 -137t125 -53q48 0 86 20t60 57z" />
    <glyph glyph-name="uni0122.alt" horiz-adv-x="804" 
d="M469 -185l-64 -121h-90l46 89q-22 9 -36 29q-13 19 -13 44q0 35 24 59t60 24q37 0 61 -24t24 -58q0 -11 -3 -21t-9 -21zM544 235l-145 -1v142h360q1 -2 1 -10v-16q0 -161 -102 -263t-265 -102q-161 0 -263 104q-102 103 -102 261q0 157 104 261t267 104q135 0 236 -74
q99 -73 125 -195h-204q-19 46 -60 70q-40 24 -96 24q-79 0 -127 -54t-48 -138t48 -137t125 -53q48 0 86 20t60 57z" />
    <glyph glyph-name="a.alt" horiz-adv-x="654" 
d="M266 -14l-3 -1q-103 0 -169 75t-66 193q0 120 66 195t171 75q54 0 92 -19q41 -20 69 -57v63h167v-510h-167v68q-28 -40 -69 -61t-91 -21zM214 254l-2 1q0 -51 28 -79q28 -30 75 -30t75 30q28 28 28 78q0 49 -27 79t-74 30t-75 -30q-28 -28 -28 -79z" />
    <glyph glyph-name="agrave.alt" horiz-adv-x="654" 
d="M266 -14l-3 -1q-103 0 -169 75t-66 193q0 120 66 195t171 75q54 0 92 -19q41 -20 69 -57v63h167v-510h-167v68q-28 -40 -69 -61t-91 -21zM214 254l-2 1q0 -51 28 -79q28 -30 75 -30t75 30q28 28 28 78q0 49 -27 79t-74 30t-75 -30q-28 -28 -28 -79zM252 567l-86 150h171
l83 -150h-168z" />
    <glyph glyph-name="aacute.alt" horiz-adv-x="654" 
d="M266 -14l-3 -1q-103 0 -169 75t-66 193q0 120 66 195t171 75q54 0 92 -19q41 -20 69 -57v63h167v-510h-167v68q-28 -40 -69 -61t-91 -21zM214 254l-2 1q0 -51 28 -79q28 -30 75 -30t75 30q28 28 28 78q0 49 -27 79t-74 30t-75 -30q-28 -28 -28 -79zM420 567h-168l83 150
h171z" />
    <glyph glyph-name="acircumflex.alt" horiz-adv-x="654" 
d="M266 -14l-3 -1q-103 0 -169 75t-66 193q0 120 66 195t171 75q54 0 92 -19q41 -20 69 -57v63h167v-510h-167v68q-28 -40 -69 -61t-91 -21zM214 254l-2 1q0 -51 28 -79q28 -30 75 -30t75 30q28 28 28 78q0 49 -27 79t-74 30t-75 -30q-28 -28 -28 -79zM141 567l92 150h206
l93 -150h-155l-42 69l-42 -69h-152z" />
    <glyph glyph-name="atilde.alt" horiz-adv-x="654" 
d="M266 -14l-3 -1q-103 0 -169 75t-66 193q0 120 66 195t171 75q54 0 92 -19q41 -20 69 -57v63h167v-510h-167v68q-28 -40 -69 -61t-91 -21zM214 254l-2 1q0 -51 28 -79q28 -30 75 -30t75 30q28 28 28 78q0 49 -27 79t-74 30t-75 -30q-28 -28 -28 -79zM355 695l-2 -3
q3 -2 7 -4t6.5 -3.5t3.5 -2.5q4 -3 9 -3q7 0 12 8q4 5 7 27h116q-4 -78 -34 -117t-85 -39q-18 0 -33 6q-12 4 -36 23q-15 11 -19 12q-6 3 -12 3q-10 0 -15 -8q-5 -11 -8 -27h-117q4 76 34 118q30 40 85 40q20 0 38 -6q19 -7 43 -24z" />
    <glyph glyph-name="adieresis.alt" horiz-adv-x="654" 
d="M266 -14l-3 -1q-103 0 -169 75t-66 193q0 120 66 195t171 75q54 0 92 -19q41 -20 69 -57v63h167v-510h-167v68q-28 -40 -69 -61t-91 -21zM214 254l-2 1q0 -51 28 -79q28 -30 75 -30t75 30q28 28 28 78q0 49 -27 79t-74 30t-75 -30q-28 -28 -28 -79zM327 640
q0 -36 -24 -60t-59 -24q-36 0 -60 24t-24 60t24 61t60 25q35 0 59 -25t24 -61zM514 640q0 -36 -24 -60t-59 -24q-36 0 -60 24t-24 60t24 61t60 25q35 0 59 -25t24 -61z" />
    <glyph glyph-name="aring.alt" horiz-adv-x="654" 
d="M266 -14l-3 -1q-103 0 -169 75t-66 193q0 120 66 195t171 75q54 0 92 -19q41 -20 69 -57v63h167v-510h-167v68q-28 -40 -69 -61t-91 -21zM214 254l-2 1q0 -51 28 -79q28 -30 75 -30t75 30q28 28 28 78q0 49 -27 79t-74 30t-75 -30q-28 -28 -28 -79zM464 676l-2 -3
q0 -51 -37 -85t-91 -34q-58 0 -92 34q-36 34 -36 87t36 87q38 35 92 35t92 -35t38 -86zM299 673q0 -15 9 -24t24 -9q14 0 25 9q10 9 10 24t-10 25t-25 10t-24 -10t-9 -25z" />
    <glyph glyph-name="amacron.alt" horiz-adv-x="654" 
d="M266 -14l-3 -1q-103 0 -169 75t-66 193q0 120 66 195t171 75q54 0 92 -19q41 -20 69 -57v63h167v-510h-167v68q-28 -40 -69 -61t-91 -21zM214 254l-2 1q0 -51 28 -79q28 -30 75 -30t75 30q28 28 28 78q0 49 -27 79t-74 30t-75 -30q-28 -28 -28 -79zM486 579h-299v118h299
v-118z" />
    <glyph glyph-name="abreve.alt" horiz-adv-x="654" 
d="M266 -14l-3 -1q-103 0 -169 75t-66 193q0 120 66 195t171 75q54 0 92 -19q41 -20 69 -57v63h167v-510h-167v68q-28 -40 -69 -61t-91 -21zM214 254l-2 1q0 -51 28 -79q28 -30 75 -30t75 30q28 28 28 78q0 49 -27 79t-74 30t-75 -30q-28 -28 -28 -79zM336 555l-1 -2
q-78 0 -127 46q-51 47 -51 114h129q0 -23 13 -36q14 -14 36 -14q21 0 35 15q14 17 14 37h129q0 -67 -51 -114q-49 -46 -126 -46z" />
    <glyph glyph-name="aogonek.alt" horiz-adv-x="654" 
d="M266 -14l-6 -7q-103 0 -169 75t-66 193q0 120 66 195t171 75q54 0 92 -19q40 -20 69 -57v63h167v-510h-46q-48 -52 -67 -81q-16 -25 -16 -46q0 -16 11 -25q10 -9 29 -9q14 0 23 4q12 5 24 12v-113q-18 -12 -46 -19q-26 -6 -54 -6q-55 0 -90 32t-35 86q0 35 19 69
q20 34 84 102v68q-28 -40 -69 -61t-91 -21zM211 248l-2 1q0 -51 28 -79q29 -30 75 -30t75 30q28 28 28 78q0 49 -27 79t-74 30q-46 0 -75 -30q-28 -28 -28 -79z" />
    </font>
</defs>
</svg>
