<?xml version="1.0" standalone="no"?>
<!DOCTYPE svg PUBLIC "-//W3C//DTD SVG 1.1//EN" "http://www.w3.org/Graphics/SVG/1.1/DTD/svg11.dtd" >
<svg xmlns="http://www.w3.org/2000/svg" xmlns:xlink="http://www.w3.org/1999/xlink" version="1.1">
<metadata>
Created by FontForge 20170731 at Wed Nov 14 22:12:40 2018
 By Aleksey,,,
Copyright (c) 2018 by Eduardo Manso. All rights reserved.
</metadata>
<defs>
<font id="SteradianMedium" horiz-adv-x="659" >
  <font-face 
    font-family="Steradian Medium"
    font-weight="500"
    font-stretch="normal"
    units-per-em="1000"
    panose-1="0 0 0 0 0 0 0 0 0 0"
    ascent="800"
    descent="-200"
    x-height="507"
    cap-height="703"
    bbox="-242 -278 1379 966"
    underline-thickness="36"
    underline-position="-232"
    unicode-range="U+000D-FF19"
  />
<missing-glyph horiz-adv-x="869" 
d="M773 352l-1 -1q0 -146 -103 -249t-247 -103q-145 0 -249 104q-103 103 -103 249q0 145 104 249q103 103 249 103q144 0 247 -103t103 -249zM94 351h-1q0 -135 96 -231t231 -96t231 96t96 231t-96 231t-230 96q-135 0 -231 -96t-96 -231zM594 211h-71l-105 104l-105 -104
h-72l140 140l-135 136h72l100 -99l100 100h73l-137 -137z" />
    <glyph glyph-name=".notdef" horiz-adv-x="869" 
d="M773 352l-1 -1q0 -146 -103 -249t-247 -103q-145 0 -249 104q-103 103 -103 249q0 145 104 249q103 103 249 103q144 0 247 -103t103 -249zM94 351h-1q0 -135 96 -231t231 -96t231 96t96 231t-96 231t-230 96q-135 0 -231 -96t-96 -231zM594 211h-71l-105 104l-105 -104
h-72l140 140l-135 136h72l100 -99l100 100h73l-137 -137z" />
    <glyph glyph-name=".null" horiz-adv-x="0" 
 />
    <glyph glyph-name="nonmarkingreturn" horiz-adv-x="333" 
 />
    <glyph glyph-name="NULL" horiz-adv-x="0" 
 />
    <glyph glyph-name="NULL" horiz-adv-x="0" 
 />
    <glyph glyph-name="CR" unicode="&#xd;" horiz-adv-x="236" 
 />
    <glyph glyph-name="space" unicode=" " horiz-adv-x="236" 
 />
    <glyph glyph-name="exclam" unicode="!" horiz-adv-x="288" 
d="M185 228h-82l-25 232v243h132v-243zM231 72l4 -1q0 -36 -25 -60q-26 -24 -63 -24t-63 24q-25 24 -25 60q0 38 24 62t62 24t62 -24t24 -61z" />
    <glyph glyph-name="quotedbl" unicode="&#x22;" horiz-adv-x="405" 
d="M153 433h-76l-27 245v25h129v-25zM328 433h-76l-27 245v25h129v-25z" />
    <glyph glyph-name="numbersign" unicode="#" horiz-adv-x="673" 
d="M587 294l-23 -99h-105l-38 -151h-102l37 151h-118l-37 -151h-103l38 151h-104l23 99h106l29 114h-105l25 99h105l37 151h103l-38 -151h118l38 151h102l-38 -151h105l-25 -99h-105l-29 -114h104zM292 408l-29 -114h118l29 114h-118z" />
    <glyph glyph-name="dollar" unicode="$" horiz-adv-x="565" 
d="M343 -115l-121 -29v138q-88 20 -135 80q-48 60 -51 156h133q2 -61 35 -94t90 -33q51 0 78 24t27 71q0 32 -18 51q-18 20 -73 39l-86 30q-93 31 -131 78t-38 118q0 74 45 126t122 69v103l125 29v-132q78 -17 124 -74q45 -57 51 -147h-135q-3 56 -30 84q-27 29 -75 29
q-45 0 -70 -22q-27 -23 -27 -60q0 -33 18 -52t66 -36l96 -32q91 -30 129 -75q38 -47 38 -116q0 -92 -49 -147q-51 -57 -138 -70v-106z" />
    <glyph glyph-name="percent" unicode="%" horiz-adv-x="770" 
d="M375 543v-1q0 -70 -48 -118t-122 -48q-75 0 -123 48t-48 119t48 117q50 47 123 47q72 0 122 -47q48 -46 48 -117zM602 702h103l-539 -703h-103zM124 541v-1q0 -34 23 -57q22 -22 57 -22q34 0 57 23q22 22 22 57q0 36 -22 58q-23 24 -57 24t-57 -24q-23 -26 -23 -58z
M737 159l1 2q0 -70 -48 -118t-122 -48q-73 0 -123 47q-48 47 -48 119q0 71 48 117q50 47 122 47q74 0 122 -48t48 -118zM488 160l-2 -1q0 -34 23 -57q22 -22 57 -22q34 0 57 23t23 57q0 36 -22 58q-22 24 -57 24t-57 -24q-22 -22 -22 -58z" />
    <glyph glyph-name="ampersand" unicode="&#x26;" horiz-adv-x="699" 
d="M533 392l132 -2l-130 -216l161 -176h-156l-70 77q-40 -47 -93 -69q-50 -22 -118 -22q-93 0 -158 57t-65 139q0 70 39 123q41 53 114 83q-37 46 -54 84q-17 40 -17 78q0 68 57 118q55 49 137 49q80 0 132 -45q53 -45 53 -111q0 -57 -37 -103t-106 -78l105 -116zM310 610
l2 -1q-31 0 -52 -21t-21 -51q0 -20 10 -39q10 -16 42 -55q51 26 69 50q20 26 20 52q0 29 -19 47t-51 18zM165 189l1 -1q0 -40 32 -69q31 -28 78 -28q40 0 68 16q30 16 54 49l-143 157q-48 -24 -69 -54t-21 -70z" />
    <glyph glyph-name="quotesingle" unicode="'" horiz-adv-x="229" 
d="M153 433h-76l-27 245v25h129v-25z" />
    <glyph glyph-name="parenleft" unicode="(" horiz-adv-x="324" 
d="M298 -140h-131q-62 99 -93 220q-31 118 -31 258q0 125 32 248q31 120 93 224h129q-65 -116 -96 -234q-32 -122 -32 -240q0 -131 33 -251t96 -225z" />
    <glyph glyph-name="parenright" unicode=")" horiz-adv-x="324" 
d="M26 -140h-2q63 105 96 225t33 251q0 118 -32 240q-31 118 -96 234h129q62 -104 93 -224q32 -123 32 -248q0 -140 -31 -258q-31 -121 -93 -220h-129z" />
    <glyph glyph-name="asterisk" unicode="*" horiz-adv-x="465" 
d="M166 341l-90 62l78 95l-118 33l38 101l113 -49l-10 120h113l-9 -119l111 48l37 -102l-121 -33l79 -95l-89 -63l-66 112z" />
    <glyph glyph-name="plus" unicode="+" horiz-adv-x="570" 
d="M335 121h-100v179h-179v100h179v179h100v-179h179v-100h-179v-179z" />
    <glyph glyph-name="comma" unicode="," horiz-adv-x="269" 
d="M119 -164l-92 -1l75 156q-23 9 -40 32q-15 23 -15 48q0 38 24 62t62 24q37 0 63 -24q25 -24 25 -60q0 -11 -3 -21l-4 -12t-6 -15z" />
    <glyph glyph-name="hyphen" unicode="-" horiz-adv-x="366" 
d="M61 319h244v-113h-244v113z" />
    <glyph glyph-name="period" unicode="." horiz-adv-x="264" 
d="M219 72l4 -1q0 -36 -25 -60q-26 -24 -63 -24t-63 24q-25 24 -25 60q0 38 24 62t62 24t62 -24t24 -61z" />
    <glyph glyph-name="slash" unicode="/" horiz-adv-x="421" 
d="M267 810h125l-237 -950h-125z" />
    <glyph glyph-name="zero" unicode="0" horiz-adv-x="637" 
d="M579 247v-1q0 -123 -72 -192t-189 -69t-189 69t-72 192v210q0 122 72 191t189 69t189 -69t72 -190v-210zM317 591l-3 -1q-59 0 -94 -36q-34 -34 -34 -100v-209q0 -66 34 -100q34 -36 96 -36t96 36q35 38 35 100v209q0 67 -34 101q-35 36 -96 36z" />
    <glyph glyph-name="one" unicode="1" horiz-adv-x="370" 
d="M285 0h-131v583h-140l30 120h241v-703z" />
    <glyph glyph-name="two" unicode="2" horiz-adv-x="605" 
d="M561 0l-512 3v101l280 264q42 38 57 68q17 32 17 62q0 43 -29 70t-77 27q-54 0 -87 -33q-32 -32 -37 -88h-134q6 108 78 176q74 68 187 68q108 0 172 -58q66 -58 66 -153q0 -62 -28 -114q-28 -53 -108 -126l-159 -147h314v-120z" />
    <glyph glyph-name="three" unicode="3" horiz-adv-x="592" 
d="M39 206h134q4 -43 39 -70q34 -27 85 -27q52 0 85 30t33 75q0 50 -33 77t-91 27h-74v96h78q42 0 71 26q27 26 27 69q0 39 -28 63q-29 24 -75 24t-75 -24t-32 -66h-132q5 92 71 152t173 60q103 0 166 -54t63 -134q0 -53 -24 -94q-24 -40 -69 -63q57 -22 86 -66t29 -105
q0 -92 -69 -153q-67 -61 -181 -61q-112 0 -181 60q-69 59 -76 158z" />
    <glyph glyph-name="four" unicode="4" horiz-adv-x="603" 
d="M23 232l268 471h151l-263 -453h198v140l128 30v-170h71v-117h-71v-133h-128v133h-354v99z" />
    <glyph glyph-name="five" unicode="5" horiz-adv-x="584" 
d="M111 703l388 1v-120h-283l-14 -146q21 9 50 16q26 6 51 6q109 0 174 -63q64 -63 64 -169q0 -103 -72 -172t-178 -69t-180 62q-73 61 -81 159h134q6 -45 40 -73t84 -28q51 0 89 35q36 34 36 84q0 52 -34 85q-35 33 -90 33q-35 0 -62 -12t-45 -36l-106 13z" />
    <glyph glyph-name="six" unicode="6" horiz-adv-x="586" 
d="M300 -13l-2 -1q-110 0 -183 72q-74 72 -74 176q0 49 18 103q20 58 49 101l177 266h152l-174 -245q13 5 30 6q22 2 33 2q97 0 165 -68t68 -165q0 -103 -75 -175t-184 -72zM170 232l-2 -1q0 -55 36 -93q36 -37 92 -37t92 37q36 38 36 93q0 53 -36 89t-91 36t-91 -36
t-36 -88z" />
    <glyph glyph-name="seven" unicode="7" horiz-adv-x="533" 
d="M360 583h-335v120h485v-103l-287 -600h-146z" />
    <glyph glyph-name="eight" unicode="8" horiz-adv-x="596" 
d="M551 204h-3q0 -95 -70 -156t-183 -61q-112 0 -183 62q-70 61 -70 156q0 55 27 101t77 75q-34 27 -54 65q-19 37 -19 81q0 81 63 135t161 54q97 0 160 -54t63 -135q0 -44 -19 -81q-20 -38 -54 -65q50 -29 77 -75t27 -102zM192 516l-1 -2q0 -39 29 -65t75 -26t75 26t29 66
q0 41 -28 66q-29 26 -75 26t-75 -26t-29 -65zM170 208l-1 -3q0 -46 35 -78q34 -31 89 -31t90 32t35 78q0 49 -34 80q-35 32 -90 32q-56 0 -90 -31t-34 -79z" />
    <glyph glyph-name="nine" unicode="9" horiz-adv-x="586" 
d="M286 716l2 -1q110 0 183 -72q74 -72 74 -175q0 -49 -18 -103t-49 -100l-177 -266h-152l174 245q-13 -4 -30 -6q-22 -2 -33 -2q-97 0 -165 68t-68 165q0 103 75 175t184 72zM416 469l-2 -1q0 56 -36 93t-91 37t-91 -37t-36 -93q0 -52 36 -88t92 -36t92 36t36 89z" />
    <glyph glyph-name="colon" unicode=":" horiz-adv-x="289" 
d="M231 72l4 -1q0 -36 -25 -60q-26 -24 -63 -24t-63 24q-25 24 -25 60q0 38 24 62t62 24t62 -24t24 -61zM235 433l4 -1q0 -36 -25 -60q-26 -24 -63 -24t-63 24q-25 24 -25 60q0 38 24 62t62 24t62 -24t24 -61z" />
    <glyph glyph-name="semicolon" unicode=";" horiz-adv-x="297" 
d="M135 -164l-92 -1l75 156q-23 9 -40 32q-15 23 -15 48q0 38 24 62t62 24q37 0 63 -24q25 -24 25 -60q0 -11 -3 -21l-4 -12t-6 -15zM236 433l4 -1q0 -36 -25 -60t-63 -24t-63 24t-25 60q0 38 24 62t62 24t62 -24t24 -61z" />
    <glyph glyph-name="less" unicode="&#x3c;" horiz-adv-x="570" 
d="M66 289v101l419 203v-121l-277 -132l277 -134v-120z" />
    <glyph glyph-name="equal" unicode="=" horiz-adv-x="570" 
d="M56 408v100h458v-100h-458zM56 192v100h458v-100h-458z" />
    <glyph glyph-name="greater" unicode="&#x3e;" horiz-adv-x="570" 
d="M504 390v-101l-419 -203v121l277 132l-277 134v120z" />
    <glyph glyph-name="question" unicode="?" horiz-adv-x="557" 
d="M198 284l112 91q34 28 51 61q17 36 17 71q0 41 -28 66t-75 25q-53 0 -84 -30t-33 -81h-130q4 103 73 165q71 62 180 62q103 0 168 -54t65 -142q0 -56 -26 -111q-26 -53 -75 -96l-97 -83h-118v56zM344 70l4 -1q0 -36 -25 -60t-63 -24t-63 24t-25 60q0 38 24 62t62 24
t62 -24t24 -61z" />
    <glyph glyph-name="at" unicode="@" horiz-adv-x="909" 
d="M389 79l-7 -7q-65 0 -107 45t-42 117q0 88 56 150q55 61 135 61q40 0 72 -15q29 -13 49 -44l12 51h108l-50 -210q-11 -47 3 -71t51 -24q46 0 76 48t30 125q0 125 -91 204q-92 80 -231 80q-141 0 -234 -90t-93 -234q0 -143 93 -228q91 -85 234 -85q43 0 78 6q29 5 60 17
v-82q-26 -9 -65 -16q-36 -6 -73 -6q-85 0 -159 28q-77 29 -134 81q-58 54 -90 126q-31 69 -31 159q0 91 31 163q32 75 90 130q57 54 134 84q76 30 161 30q173 0 292 -104q118 -103 118 -261q0 -115 -57 -184t-156 -69q-48 0 -85 22t-49 63q-26 -30 -57 -45t-72 -15zM347 241
l-1 -1q0 -42 18 -64t51 -22q43 0 72 38t29 90q0 33 -21 54t-55 21q-39 0 -66 -34q-27 -35 -27 -82z" />
    <glyph glyph-name="A" unicode="A" horiz-adv-x="691" 
d="M276 703h140l259 -703h-141l-51 147h-283l-51 -147h-134zM444 257l-102 294l-103 -294h205z" />
    <glyph glyph-name="B" unicode="B" horiz-adv-x="676" 
d="M398 0l-313 -1v703h277q106 0 171 -48t65 -131q0 -53 -27 -93t-78 -64q66 -19 105 -64q37 -43 37 -106q0 -88 -66 -142t-171 -54zM464 504h-1q0 42 -31 66q-32 24 -84 24h-132v-187h135q51 0 83 26q30 26 30 71zM499 208q0 44 -33 69q-35 26 -88 26h-164v-197h164
q55 0 88 27t33 75z" />
    <glyph glyph-name="C" unicode="C" horiz-adv-x="804" 
d="M632 285l135 -1q-23 -132 -122 -215q-101 -83 -239 -83q-158 0 -261 105q-104 107 -104 260q0 152 104 259q103 105 261 105q136 0 235 -78t126 -206h-140q-25 73 -84 117t-137 44q-98 0 -162 -69q-65 -71 -65 -170q0 -101 65 -172q64 -69 162 -69q83 0 145 47
q61 47 81 126z" />
    <glyph glyph-name="D" unicode="D" horiz-adv-x="764" 
d="M343 0l-259 -1v703h258q165 0 272 -95q105 -95 105 -254q0 -161 -105 -257t-271 -96zM215 578v-455h123q109 0 177 62q66 61 66 168q0 105 -66 165t-177 60h-123z" />
    <glyph glyph-name="E" unicode="E" horiz-adv-x="585" 
d="M532 0h-447v703h442v-120h-311v-169h287v-114h-287v-180h316v-120z" />
    <glyph glyph-name="F" unicode="F" horiz-adv-x="563" 
d="M216 0h-131v703h442v-120h-311v-179h287v-117h-287v-287z" />
    <glyph glyph-name="G" unicode="G" horiz-adv-x="810" 
d="M752 363l-5 -366h-110v106q-40 -58 -103 -88t-144 -30q-152 0 -251 105t-99 261q0 153 104 260q103 105 260 105q128 0 222 -70t126 -186h-144q-26 62 -80 96q-56 35 -123 35q-97 0 -162 -69q-64 -67 -64 -171t65 -175q64 -69 167 -69q86 0 143 39t75 113h-224v104h347z
" />
    <glyph glyph-name="H" unicode="H" horiz-adv-x="715" 
d="M216 0h-131v703h131v-282h284v282h130v-703h-130v297h-284v-297z" />
    <glyph glyph-name="I" unicode="I" horiz-adv-x="300" 
d="M216 0h-131v703h131v-703z" />
    <glyph glyph-name="J" unicode="J" horiz-adv-x="585" 
d="M376 703l131 -1v-473q0 -107 -69 -175q-67 -67 -177 -67q-106 0 -174 68t-68 177h131q0 -56 30 -89t83 -33t83 34t30 90v469z" />
    <glyph glyph-name="K" unicode="K" horiz-adv-x="633" 
d="M85 703h131v-316l259 316h155l-282 -339l285 -364h-166l-251 324v-324h-131v703z" />
    <glyph glyph-name="L" unicode="L" horiz-adv-x="529" 
d="M513 0h-428v703h131v-583h297v-120z" />
    <glyph glyph-name="M" unicode="M" horiz-adv-x="943" 
d="M211 0h-126v703h160l229 -486l231 486h154v-703h-127v486l-234 -487h-52l-235 492v-491z" />
    <glyph glyph-name="N" unicode="N" horiz-adv-x="720" 
d="M208 0h-123v703h124l302 -483v483h124v-703h-126l-301 481v-481z" />
    <glyph glyph-name="O" unicode="O" horiz-adv-x="827" 
d="M42 352l-1 -1q0 155 105 260t266 105q160 0 267 -105q106 -105 106 -259q0 -155 -106 -260q-107 -105 -267 -105t-265 105t-105 260zM647 351v-1q0 104 -67 171q-68 69 -168 69q-101 0 -167 -69t-66 -171q0 -103 66 -172t168 -69t168 69t66 173z" />
    <glyph glyph-name="P" unicode="P" horiz-adv-x="648" 
d="M216 0l-131 -1v703h267q117 0 194 -62q75 -62 75 -165q0 -107 -75 -171q-73 -64 -194 -64h-136v-240zM345 586h-129v-232h129q61 0 102 32q39 32 39 87q0 53 -39 83t-102 30z" />
    <glyph glyph-name="Q" unicode="Q" horiz-adv-x="828" 
d="M42 352l-1 -1q0 155 105 260t266 105q160 0 267 -105q106 -105 106 -259q0 -81 -33 -153t-91 -124l115 -155h-143l-71 95q-34 -13 -72 -21q-32 -7 -78 -7q-160 0 -265 105t-105 260zM485 118l-173 230h143l127 -172q32 33 48 78q17 48 17 96q0 104 -67 171
q-68 69 -169 69t-169 -69q-67 -67 -67 -171q0 -105 66 -174t170 -69q18 0 36 3z" />
    <glyph glyph-name="R" unicode="R" horiz-adv-x="675" 
d="M216 0l-131 -2v703h268q118 0 191 -58q74 -59 74 -157q0 -83 -49 -138q-49 -56 -138 -75l222 -273h-162l-212 265h-63v-265zM346 587l-130 -1v-217h130q61 0 98 30q38 30 38 81q0 50 -37 78q-38 29 -99 29z" />
    <glyph glyph-name="S" unicode="S" horiz-adv-x="618" 
d="M305 716l-2 1q115 0 182 -60q68 -60 74 -168h-135q-3 56 -34 84q-32 29 -88 29q-50 0 -81 -22t-31 -60q0 -33 19 -52q19 -20 72 -36l109 -32q98 -29 140 -75q42 -47 42 -118q0 -103 -69 -162q-67 -58 -187 -58q-128 0 -201 63t-76 179h133q1 -61 39 -94q37 -33 102 -33
q61 0 94 24t33 71q0 32 -21 53t-83 39l-101 30q-95 29 -135 75t-40 120q0 90 69 146q71 56 176 56z" />
    <glyph glyph-name="T" unicode="T" horiz-adv-x="556" 
d="M343 0h-130v583h-197v120h524v-120h-197v-583z" />
    <glyph glyph-name="U" unicode="U" horiz-adv-x="692" 
d="M483 703l131 -1v-465q0 -110 -76 -180t-193 -70q-114 0 -191 71q-75 70 -75 180v465h131v-461q0 -59 36 -95t95 -36q64 0 103 36t39 95v461z" />
    <glyph glyph-name="V" unicode="V" horiz-adv-x="663" 
d="M401 0h-140l-240 703h145l168 -522l170 522h138z" />
    <glyph glyph-name="W" unicode="W" horiz-adv-x="1013" 
d="M364 0h-140l-203 703h142l139 -515l149 515h121l146 -511l141 511h134l-205 -703h-138l-142 473z" />
    <glyph glyph-name="X" unicode="X" horiz-adv-x="670" 
d="M149 0h-148l254 358l-242 345h153l168 -244l173 244h146l-242 -341l261 -362h-157l-184 257z" />
    <glyph glyph-name="Y" unicode="Y" horiz-adv-x="651" 
d="M392 0h-131v245l-240 458h147l160 -317l165 317h137l-238 -450v-253z" />
    <glyph glyph-name="Z" unicode="Z" horiz-adv-x="594" 
d="M553 0h-513v105l344 478h-337v120h500v-112l-342 -471h348v-120z" />
    <glyph glyph-name="bracketleft" unicode="[" horiz-adv-x="362" 
d="M330 810v-116h-122v-718h122v-116h-248v950h248z" />
    <glyph glyph-name="backslash" unicode="\" horiz-adv-x="421" 
d="M154 810l237 -950h-125l-237 950h125z" />
    <glyph glyph-name="bracketright" unicode="]" horiz-adv-x="362" 
d="M32 810h248v-950h-248v116h122v718h-122v116z" />
    <glyph glyph-name="asciicircum" unicode="^" horiz-adv-x="570" 
d="M225 703h121l183 -419h-132l-112 265l-112 -265h-133z" />
    <glyph glyph-name="underscore" unicode="_" horiz-adv-x="440" 
d="M-1 -104h442v-108h-442v108z" />
    <glyph glyph-name="grave" unicode="`" horiz-adv-x="288" 
d="M125 570l-83 147h121l81 -147h-119z" />
    <glyph glyph-name="a" unicode="a" horiz-adv-x="553" 
d="M367 0l-1 63q-26 -37 -66 -57q-43 -20 -88 -20q-73 0 -120 41t-47 105t42 105q40 40 131 61l146 34v6q0 35 -25 56t-66 21q-39 0 -65 -20t-32 -54h-120q5 77 66 128q62 51 152 51q100 0 156 -53t56 -144v-323h-119zM240 87h-1q51 0 87 38q36 37 36 89v26l-114 -26
q-42 -10 -62 -27t-20 -42q0 -28 19 -43t55 -15z" />
    <glyph glyph-name="b" unicode="b" 
d="M192 0l-116 1v741h125v-306q32 41 77 63q43 22 99 22q107 0 176 -75t69 -190q0 -116 -70 -192t-180 -76q-53 0 -102 23q-46 23 -78 66v-77zM493 255l-2 -3q0 64 -42 108t-106 44t-106 -43t-42 -108t42 -109q42 -43 107 -43t107 44q42 43 42 110z" />
    <glyph glyph-name="c" unicode="c" horiz-adv-x="605" 
d="M310 520l-3 -1q101 0 173 -60t89 -155h-125q-14 45 -50 73q-36 27 -85 27q-64 0 -106 -43t-42 -108t42 -108t106 -43q49 0 87 29t51 75h124q-17 -98 -89 -159q-70 -61 -172 -61q-116 0 -196 77q-78 77 -78 191q0 112 78 189q80 77 196 77z" />
    <glyph glyph-name="d" unicode="d" 
d="M284 -13l-1 -1q-107 0 -176 75t-69 190q0 116 70 192t178 76q53 0 98 -21q46 -22 77 -61v303h125v-741h-118v81q-31 -44 -79 -69q-48 -24 -105 -24zM167 252v-1q0 -65 42 -108t107 -43q64 0 106 44t42 108t-42 108t-106 44q-65 0 -107 -43t-42 -109z" />
    <glyph glyph-name="e" unicode="e" horiz-adv-x="606" 
d="M305 91l2 -2q45 0 78 18q33 19 52 54h122q-25 -83 -93 -129q-68 -47 -162 -47q-115 0 -192 77q-76 76 -76 191q0 111 78 189t192 78q116 0 189 -73q74 -74 74 -186v-40h-412q9 -58 49 -94t99 -36zM308 414h2q-53 0 -90 -28q-38 -28 -54 -78h283q-13 50 -51 78
q-37 28 -90 28z" />
    <glyph glyph-name="f" unicode="f" horiz-adv-x="379" 
d="M239 0l-124 -1v395h-82v112h82v50q0 98 48 147q48 50 142 50q13 0 39 -2q19 -1 37 -6v-110q-18 5 -31 6q-18 2 -24 2q-45 0 -66 -21t-21 -67v-48h124v-112h-124v-395z" />
    <glyph glyph-name="g" unicode="g" horiz-adv-x="631" 
d="M43 -23l123 1q2 -46 38 -72q36 -27 95 -27q64 0 98 34q36 34 36 91v94q-30 -34 -71 -54q-38 -19 -90 -19q-102 0 -168 69t-66 177q0 109 66 179q66 71 170 71q51 0 93 -21t72 -60v67h118v-492q0 -109 -69 -175t-188 -66q-109 0 -181 57q-72 58 -76 146zM168 273v1
q0 -58 38 -99q38 -39 96 -39t96 39q38 41 38 98t-38 98q-38 39 -96 39t-96 -39q-38 -41 -38 -98z" />
    <glyph glyph-name="h" unicode="h" horiz-adv-x="603" 
d="M198 0l-124 1v741h125v-292q26 35 65 53t84 18q85 0 136 -53t51 -140v-327h-125v298q0 49 -27 78t-76 29t-79 -33t-30 -84v-289z" />
    <glyph glyph-name="i" unicode="i" horiz-adv-x="273" 
d="M55 661l-2 -1q0 34 23 57q22 22 59 22t59 -22q23 -23 23 -57t-23 -57q-22 -22 -59 -22q-35 0 -58 23q-22 22 -22 57zM197 -1h-125v507h125v-507z" />
    <glyph glyph-name="j" unicode="j" horiz-adv-x="280" 
d="M221 663h-1q0 -32 -22 -53t-57 -21q-34 0 -55 21t-21 53q0 33 21 54t56 21q34 0 57 -21q22 -21 22 -54zM80 507l125 1v-536q0 -99 -48 -148t-142 -49h-24q-7 0 -21 2v110q9 0 12 -1q5 -1 11 -1q45 0 66 21t21 66v535z" />
    <glyph glyph-name="k" unicode="k" horiz-adv-x="538" 
d="M198 0h-125v741h125v-442l168 208h145l-187 -227l221 -280h-154l-193 247v-247z" />
    <glyph glyph-name="l" unicode="l" horiz-adv-x="273" 
d="M74 741h125v-741h-125v741z" />
    <glyph glyph-name="m" unicode="m" horiz-adv-x="921" 
d="M198 0l-128 1v507h119v-66q26 38 65 59t86 21q54 0 95 -24t63 -67q25 41 71 67q43 24 98 24q83 0 134 -54t51 -139v-327h-125v298q0 49 -26 78t-72 29q-47 0 -76 -33q-28 -31 -28 -84v-289h-125v298q0 49 -26 78t-72 29q-48 0 -76 -33q-28 -31 -28 -84v-289z" />
    <glyph glyph-name="n" unicode="n" horiz-adv-x="603" 
d="M198 0l-126 1v507h119v-66q27 38 68 59t89 21q85 0 136 -53t51 -140v-327h-125v294q0 52 -27 81t-76 29t-79 -33t-30 -84v-289z" />
    <glyph glyph-name="o" unicode="o" horiz-adv-x="619" 
d="M37 254v-3q0 112 77 189t195 77q120 0 196 -76q78 -77 78 -189q0 -114 -78 -190q-76 -76 -196 -76q-118 0 -195 77t-77 191zM459 251l2 -1q0 65 -43 108t-108 43q-64 0 -106 -43q-42 -44 -42 -108t42 -108q42 -43 106 -43q65 0 107 44q42 43 42 108z" />
    <glyph glyph-name="p" unicode="p" 
d="M73 -212v719h119v-79q32 44 80 68t104 24q107 0 176 -75t69 -190q0 -116 -70 -192t-180 -76q-52 0 -97 21t-76 61v-281h-125zM490 254l-2 -3q0 65 -42 108q-42 44 -106 44t-106 -43q-42 -44 -42 -108q0 -66 42 -109t107 -43t107 44t42 110z" />
    <glyph glyph-name="q" unicode="q" 
d="M284 -13q-107 0 -176 75t-69 190q0 116 70 192t178 76q55 0 102 -24t78 -67v78h118v-719h-125v284q-32 -41 -77 -63q-43 -22 -99 -22zM168 253v-1q0 -64 42 -108q42 -43 107 -43q64 0 106 44q42 43 42 108t-42 108q-42 44 -106 44q-65 0 -107 -43q-42 -44 -42 -109z" />
    <glyph glyph-name="r" unicode="r" horiz-adv-x="393" 
d="M339 399l-1 -2q-66 0 -103 -42q-37 -40 -37 -111v-246h-125v507h119v-90q26 48 65 74q41 26 89 26h15q10 0 12 -1v-119l-16 3q-7 1 -18 1z" />
    <glyph glyph-name="s" unicode="s" horiz-adv-x="508" 
d="M255 520l-1 1q91 0 145 -42t60 -121h-128q-1 33 -21 50t-58 17q-35 0 -54 -13q-21 -14 -21 -36t15 -34t62 -22l50 -11q88 -19 127 -55q37 -36 37 -97q0 -78 -57 -123t-153 -45q-105 0 -165 45t-63 131h131q1 -38 25 -60q24 -21 68 -21q40 0 63 15t23 44q0 23 -15 36
q-18 14 -55 23l-60 14q-86 21 -124 56q-36 34 -36 93q0 71 57 113t148 42z" />
    <glyph glyph-name="t" unicode="t" horiz-adv-x="398" 
d="M104 507v150l125 29v-179h125v-112h-125v-219q0 -40 17 -60q16 -18 54 -18q16 0 36 5q17 5 35 15v-110q-20 -9 -47 -16q-24 -6 -52 -6q-84 0 -126 45t-42 135v229h-81v112h81z" />
    <glyph glyph-name="u" unicode="u" horiz-adv-x="594" 
d="M290 101l-3 -1q49 0 78 33q28 31 28 85v289h126v-507h-120v66q-25 -37 -64 -58t-86 -21q-82 0 -132 53t-50 140v327h125v-294q0 -50 26 -82q26 -30 72 -30z" />
    <glyph glyph-name="v" unicode="v" horiz-adv-x="549" 
d="M344 0h-140l-187 507h132l127 -353l127 353h129z" />
    <glyph glyph-name="w" unicode="w" horiz-adv-x="862" 
d="M315 0h-127l-172 507h125l115 -352l116 352h120l117 -353l116 353h121l-173 -507h-125l-117 341z" />
    <glyph glyph-name="x" unicode="x" horiz-adv-x="526" 
d="M142 0h-134l181 256l-174 251h141l111 -160l111 160h132l-175 -248l185 -259h-144l-117 166z" />
    <glyph glyph-name="y" unicode="y" horiz-adv-x="548" 
d="M401 507h130l-264 -719h-126l72 201l-198 518h133l127 -353z" />
    <glyph glyph-name="z" unicode="z" horiz-adv-x="515" 
d="M482 0h-450v84l277 311h-261v112h420v-89l-266 -306h280v-112z" />
    <glyph glyph-name="braceleft" unicode="{" horiz-adv-x="362" 
d="M174 361l-3 -8q31 -13 46 -43t15 -79v-186q0 -43 15 -64t47 -21h15q3 0 17 2v-116q-7 -1 -19 -1h-17q-92 0 -138 48q-46 46 -46 141v193q0 41 -15 59t-46 18h-18v105h18q32 0 47 18t15 58v143q0 95 46 141q47 48 138 48h17q12 0 19 -1v-116q-14 2 -16 2h-15
q-32 0 -47 -21t-15 -64v-136q0 -49 -15 -78t-45 -42z" />
    <glyph glyph-name="bar" unicode="|" horiz-adv-x="290" 
d="M82 810h126v-950h-126v950z" />
    <glyph glyph-name="braceright" unicode="}" horiz-adv-x="362" 
d="M188 361h-3q-30 13 -45 42t-15 78v136q0 44 -15 65t-47 21h-15q-9 0 -16 -1v116q14 2 19 2h17q92 0 138 -48q46 -46 46 -141v-143q0 -40 15 -58t47 -18h18v-105h-18q-31 0 -46 -18t-15 -59v-193q0 -95 -46 -141q-47 -48 -138 -48h-17q-5 0 -19 2v116q7 -1 17 -1h15
q32 0 47 21t15 65v186q0 50 15 80q15 31 46 44z" />
    <glyph glyph-name="asciitilde" unicode="~" horiz-adv-x="570" 
d="M312 418l-1 -3q35 -17 53 -21q15 -4 35 -4q35 0 60 15q26 17 56 57v-124q-17 -27 -50 -46q-33 -18 -75 -18q-27 0 -51 6q-26 6 -61 25q-34 16 -55 21q-25 5 -43 5q-38 0 -68 -18q-30 -19 -55 -57v120q15 28 51 51q34 22 78 22q27 0 54 -6q32 -8 72 -25z" />
    <glyph glyph-name="uni00A0" unicode="&#xa0;" horiz-adv-x="236" 
 />
    <glyph glyph-name="exclamdown" unicode="&#xa1;" horiz-adv-x="276" 
d="M225 435l-4 -1q0 -37 -24 -61t-62 -24t-62 24t-24 62q0 36 25 60q26 24 63 24t63 -24q25 -24 25 -60zM175 278l25 -232v-243h-132v243l25 232h82z" />
    <glyph glyph-name="cent" unicode="&#xa2;" horiz-adv-x="608" 
d="M373 -7l-125 -33v134q-93 21 -150 93t-57 168q0 95 57 167t149 93v106l125 28v-133q80 -16 134 -73t68 -137h-125q-14 45 -50 73q-36 27 -85 27q-64 0 -106 -43t-42 -108t42 -108t106 -43q49 0 87 29q37 29 51 75h124q-15 -82 -69 -139t-134 -73v-103z" />
    <glyph glyph-name="sterling" unicode="&#xa3;" horiz-adv-x="678" 
d="M630 0l-583 -2v103q41 9 71 50t30 92v15q0 7 -1 9h-100v104h88q-5 33 -6 54q-2 30 -2 38q0 119 68 185q67 66 182 66q114 0 183 -66t69 -184h-130q0 61 -31 92q-32 33 -87 33q-57 0 -90 -34q-33 -35 -33 -96q0 -5 2 -27l9 -60h171v-104h-159v-9q0 -40 -12 -76
q-12 -38 -34 -63h395v-120z" />
    <glyph glyph-name="currency" unicode="&#xa4;" horiz-adv-x="660" 
d="M174 83l-128 -2l114 158q-15 25 -22 51q-7 24 -7 55q0 26 8 56t23 50l-115 160h127l64 -89q25 12 45 17q24 6 49 6q26 0 48 -6q19 -5 42 -17l64 89h127l-115 -158q16 -25 24 -52q8 -30 8 -55t-8 -55q-8 -28 -23 -51l114 -157h-127l-63 87q-22 -12 -43 -17q-24 -6 -49 -6
t-49 6q-21 4 -45 17zM330 247q41 0 69 28t28 69t-28 69t-69 28t-69 -28t-28 -69t28 -69t69 -28z" />
    <glyph glyph-name="yen" unicode="&#xa5;" horiz-adv-x="666" 
d="M399 0h-131v129h-180v90h180v26l-14 26h-166v90h119l-179 342h147l160 -317l165 317h137l-181 -342h123v-90h-170l-10 -18v-34h180v-90h-180v-129z" />
    <glyph glyph-name="brokenbar" unicode="&#xa6;" horiz-adv-x="295" 
d="M85 810h125v-400h-125v400zM85 -140v400h125v-400h-125z" />
    <glyph glyph-name="section" unicode="&#xa7;" horiz-adv-x="582" 
d="M355 250l-112 42q-113 46 -157 98q-42 50 -42 120q0 92 66 147q68 56 171 56q114 0 183 -60t74 -164h-130q-1 54 -33 83t-87 29q-53 0 -81 -25q-30 -26 -30 -67q0 -35 27 -61q25 -25 129 -70l157 -69v-59h-135zM226 236l112 -48q115 -48 157 -97t42 -120q0 -91 -66 -147
q-64 -55 -171 -55q-116 0 -186 60t-75 164h130q3 -55 35 -84t87 -29q48 0 80 26q30 25 30 68q0 36 -25 61q-26 25 -129 72l-157 69v60h136z" />
    <glyph glyph-name="dieresis" unicode="&#xa8;" horiz-adv-x="374" 
d="M171 639q0 -27 -18 -46t-45 -19t-46 19t-19 46q0 29 18 48t47 19q27 0 45 -19t18 -48zM333 639q0 -27 -18 -46t-45 -19q-29 0 -48 19t-19 46q0 29 19 48t48 19q27 0 45 -19t18 -48z" />
    <glyph glyph-name="copyright" unicode="&#xa9;" horiz-adv-x="811" 
d="M769 351h-3q0 -151 -106 -257q-107 -107 -256 -107q-150 0 -257 107t-107 257q0 151 107 258t258 107q150 0 257 -107t107 -258zM109 351v-1q0 -121 87 -208t208 -87q122 0 207 87q86 89 86 208q0 120 -86 209q-85 87 -207 87q-121 0 -208 -87t-87 -208zM404 548l-1 -2
q77 0 131 -45t66 -117h-108q-10 29 -34 47q-26 17 -55 17q-41 0 -68 -28t-27 -72q0 -42 27 -70t68 -28q33 0 57 18t33 47h108q-12 -73 -66 -118t-131 -45q-89 0 -146 57t-57 142t57 141q59 56 146 56z" />
    <glyph glyph-name="ordfeminine" unicode="&#xaa;" horiz-adv-x="363" 
d="M222 455v23q-10 -16 -30 -25t-42 -9q-37 0 -61 21t-24 54t22 54q24 21 69 31l62 13v3q0 13 -10 22t-27 9q-16 0 -27 -8q-10 -7 -12 -21h-75q2 41 35 67q33 27 80 27q53 0 83 -27t30 -74v-160h-73zM168 504l1 1q21 0 36 15t15 35v7l-45 -11q-13 -4 -24 -10q-7 -6 -7 -15
q0 -10 6 -16t18 -6zM70 384h226v-79h-226v79z" />
    <glyph glyph-name="guillemotleft" unicode="&#xab;" horiz-adv-x="499" 
d="M147 35l-109 219l109 220h121l-109 -220l109 -219h-121zM335 35l-109 219l109 220h121l-109 -220l109 -219h-121z" />
    <glyph glyph-name="logicalnot" unicode="&#xac;" horiz-adv-x="570" 
d="M51 301v99h459v-279h-100v180h-359z" />
    <glyph glyph-name="uni00AD" unicode="&#xad;" horiz-adv-x="363" 
d="M60 352h244v-113h-244v113z" />
    <glyph glyph-name="registered" unicode="&#xae;" horiz-adv-x="597" 
d="M298 217q-104 0 -176 72t-72 176q0 105 72 177t176 72q105 0 177 -72t72 -177q0 -104 -72 -176t-177 -72zM298 653q-77 0 -131 -54t-54 -133q0 -78 54 -132t131 -54q78 0 132 54t54 132q0 79 -54 133t-132 54zM271 352h-71v232h114q40 0 65 -22q27 -22 27 -57
q0 -23 -12 -42t-33 -31l56 -80h-80l-47 68h-19v-68zM306 524h-36v-50h36q13 0 20 7q8 8 8 18q0 11 -7 18t-21 7z" />
    <glyph glyph-name="macron" unicode="&#xaf;" horiz-adv-x="363" 
d="M322 592h-280v85h280v-85z" />
    <glyph glyph-name="degree" unicode="&#xb0;" horiz-adv-x="380" 
d="M342 566h-2q0 -63 -44 -107t-108 -44q-63 0 -107 44t-44 107q0 62 45 105q47 44 107 44q65 0 108 -43q45 -44 45 -106zM116 565v-1q0 -29 21 -50t50 -21q30 0 51 21t21 51t-21 51t-51 21q-29 0 -50 -21t-21 -51z" />
    <glyph glyph-name="plusminus" unicode="&#xb1;" horiz-adv-x="570" 
d="M335 176h-100v152h-179v99h179v152h100v-152h179v-99h-179v-152zM55 3v100h459v-100h-459z" />
    <glyph glyph-name="twosuperior" unicode="&#xb2;" horiz-adv-x="327" 
d="M296 492l-261 -2v70l129 118q16 15 24 27q7 10 7 26q0 15 -10 24q-11 9 -27 9t-27 -11t-12 -27h-90q3 54 39 89q38 35 95 35q55 0 90 -30q34 -30 34 -79q0 -30 -15 -57t-55 -64l-48 -44h127v-84z" />
    <glyph glyph-name="threesuperior" unicode="&#xb3;" horiz-adv-x="324" 
d="M27 597l84 2q3 -18 15 -28q10 -10 30 -10q19 0 33 11q12 10 12 30q0 22 -13 32q-14 11 -39 11h-29v63h26q22 0 34 9t12 26t-9 26t-26 9t-27 -10t-12 -27h-88q3 50 39 80t93 30q56 0 89 -27t33 -68q0 -26 -12 -46q-12 -19 -34 -31q27 -11 41 -32q14 -23 14 -51
q0 -46 -36 -78q-34 -31 -97 -31q-58 0 -94 30t-39 80z" />
    <glyph glyph-name="acute" unicode="&#xb4;" horiz-adv-x="288" 
d="M163 570h-120l82 147h121z" />
    <glyph glyph-name="mu" unicode="&#xb5;" horiz-adv-x="610" 
d="M301 101l-2 -2q49 0 78 33q28 31 28 85v289h126v-507h-120v66q-25 -37 -64 -58t-85 -21q-20 0 -32 4q-15 4 -27 12v-214h-125v719h125v-294q0 -50 26 -82q25 -30 72 -30z" />
    <glyph glyph-name="paragraph" unicode="&#xb6;" horiz-adv-x="653" 
d="M374 703l-2 -845h-103v419h-8q-103 0 -168 59t-65 158q0 95 66 152t169 57h111zM558 -142h-103v843h103v-843z" />
    <glyph glyph-name="periodcentered" unicode="&#xb7;" horiz-adv-x="274" 
d="M224 355l4 -1q0 -36 -25 -60t-63 -24t-63 24t-25 60q0 38 24 62t62 24t62 -24t24 -61z" />
    <glyph glyph-name="cedilla" unicode="&#xb8;" horiz-adv-x="394" 
d="M50 -106l73 122h86l-41 -66q51 -1 84 -31q32 -30 32 -79q0 -46 -36 -78q-34 -31 -88 -31t-88 28q-34 29 -39 75l88 1q1 -13 12 -22t27 -9t27 11t11 27q0 17 -10 27q-11 11 -28 11q-14 0 -21 -4q-9 -4 -17 -15z" />
    <glyph glyph-name="onesuperior" unicode="&#xb9;" horiz-adv-x="218" 
d="M170 492h-88v268h-68l21 84h135v-352z" />
    <glyph glyph-name="ordmasculine" unicode="&#xba;" horiz-adv-x="397" 
d="M334 585v-2q0 -58 -39 -97t-97 -39q-57 0 -96 39t-39 98q0 54 39 93t96 39q56 0 97 -38q39 -38 39 -93zM144 581l-1 -1q0 -26 15 -42q15 -17 39 -17q26 0 41 17q15 16 15 42t-15 42q-15 17 -40 17q-24 0 -39 -17t-15 -41zM67 385h262v-79h-262v79z" />
    <glyph glyph-name="guillemotright" unicode="&#xbb;" horiz-adv-x="499" 
d="M351 35h-121l109 219l-109 220h121l109 -220zM164 35h-121l109 219l-109 220h121l109 -220z" />
    <glyph glyph-name="onequarter" unicode="&#xbc;" horiz-adv-x="705" 
d="M365 127l127 225h101l-125 -216h69v54l87 19v-73h26v-80h-26v-56h-87v56h-172v71zM210 351h-88v268h-68l21 84h135v-352zM568 703h103l-539 -703h-103z" />
    <glyph glyph-name="onehalf" unicode="&#xbd;" horiz-adv-x="735" 
d="M687 0l-261 -2v70l129 118q17 15 24 27q7 10 7 26q0 15 -10 24t-27 9q-16 0 -27 -11q-10 -11 -12 -27h-90q3 54 39 89q38 35 95 35q56 0 90 -30t34 -79q0 -30 -15 -57t-55 -64l-48 -44h127v-84zM209 349h-88v268h-68l21 84h135v-352zM567 701h103l-539 -703h-103z" />
    <glyph glyph-name="threequarters" unicode="&#xbe;" horiz-adv-x="730" 
d="M393 127l127 225h101l-125 -216h69v54l87 19v-73h26v-80h-26v-56h-87v56h-172v71zM597 703h103l-539 -703h-103zM42 456l84 2q3 -18 15 -28q10 -10 30 -10q19 0 33 11q12 11 12 30q0 22 -13 32q-14 11 -39 11h-29v63h26q22 0 34 9t12 26t-9 26t-26 9t-27 -10
q-11 -11 -12 -27h-88q3 50 39 80t93 30q56 0 89 -27t33 -68q0 -27 -12 -46t-34 -31q27 -11 41 -32q14 -23 14 -51q0 -47 -36 -78q-34 -31 -97 -31q-58 0 -94 30t-39 80z" />
    <glyph glyph-name="questiondown" unicode="&#xbf;" horiz-adv-x="547" 
d="M205 435l-4 -1q0 36 25 60q26 24 63 24t63 -24q25 -24 25 -60q0 -37 -24 -61t-62 -24t-62 24t-24 62zM348 222l-113 -93q-34 -28 -51 -61q-17 -36 -17 -71q0 -41 28 -66t75 -25q52 0 84 30t33 81h130q-4 -103 -73 -165q-67 -61 -180 -61q-104 0 -168 54t-64 143
q0 56 26 111q26 53 75 96l97 83h118v-56z" />
    <glyph glyph-name="Agrave" unicode="&#xc0;" horiz-adv-x="691" 
d="M276 703h140l259 -703h-141l-51 147h-283l-51 -147h-134zM444 257l-102 294l-103 -294h205zM286 763l-83 147h121l81 -147h-119z" />
    <glyph glyph-name="Aacute" unicode="&#xc1;" horiz-adv-x="691" 
d="M276 703h140l259 -703h-141l-51 147h-283l-51 -147h-134zM444 257l-102 294l-103 -294h205zM406 763h-120l82 147h121z" />
    <glyph glyph-name="Acircumflex" unicode="&#xc2;" horiz-adv-x="691" 
d="M276 703h140l259 -703h-141l-51 147h-283l-51 -147h-134zM444 257l-102 294l-103 -294h205zM173 763l107 147h131l107 -147h-111l-62 84l-63 -84h-109z" />
    <glyph glyph-name="Atilde" unicode="&#xc3;" horiz-adv-x="691" 
d="M276 703h140l259 -703h-141l-51 147h-283l-51 -147h-134zM444 257l-102 294l-103 -294h205zM369 869q17 -13 20 -15q6 -3 11 -3q12 0 18 11q6 10 9 36h84q-5 -68 -30 -101t-73 -33q-20 0 -36 6t-39 26q-14 14 -21 17q-8 3 -15 3q-17 0 -24 -12q-7 -9 -10 -37h-84
q5 69 32 102q27 35 78 35q23 0 38 -7q17 -7 42 -28z" />
    <glyph glyph-name="Adieresis" unicode="&#xc4;" horiz-adv-x="691" 
d="M276 703h140l259 -703h-141l-51 147h-283l-51 -147h-134zM444 257l-102 294l-103 -294h205zM330 831q0 -27 -18 -46t-45 -19t-46 19t-19 46q0 29 18 48t47 19q27 0 45 -19t18 -48zM492 831q0 -27 -18 -46t-45 -19q-29 0 -48 19t-19 46q0 29 19 48t48 19q27 0 45 -19
t18 -48z" />
    <glyph glyph-name="Aring" unicode="&#xc5;" horiz-adv-x="691" 
d="M276 703h140l259 -703h-141l-51 147h-283l-51 -147h-134zM444 257l-102 294l-103 -294h205zM457 859q0 -45 -33 -75t-79 -30q-47 0 -78 30q-32 30 -32 75q0 44 32 76q31 31 78 31q48 0 79 -31q33 -31 33 -76zM305 859h-1q0 -17 12 -29t29 -12q18 0 30 12t12 29
q0 18 -12 30t-30 12q-16 0 -28 -12t-12 -30z" />
    <glyph glyph-name="AE" unicode="&#xc6;" horiz-adv-x="935" 
d="M882 0h-447v147h-238l-83 -147h-137l398 703h502v-120h-311v-169h287v-114h-287v-180h316v-120zM435 568l-176 -311h176v311z" />
    <glyph glyph-name="Ccedilla" unicode="&#xc7;" horiz-adv-x="804" 
d="M632 285l133 -2q-21 -121 -110 -204q-87 -81 -216 -92l-23 -38q51 -1 84 -31q32 -30 32 -79q0 -47 -36 -78q-34 -31 -88 -31t-88 28t-39 75l88 1q1 -13 12 -22t27 -9t27 11t11 27q0 17 -10 27q-11 11 -28 11q-14 0 -21 -4q-9 -4 -17 -15l-72 33l59 96q-140 17 -228 119
q-88 100 -88 243q0 152 104 259q103 105 261 105q136 0 235 -78t126 -206h-140q-25 73 -84 117t-137 44q-98 0 -162 -69q-65 -71 -65 -170q0 -101 65 -172q64 -69 162 -69q83 0 145 47q61 47 81 126z" />
    <glyph glyph-name="Egrave" unicode="&#xc8;" horiz-adv-x="585" 
d="M247 763l-83 147h121l81 -147h-119zM532 0h-447v703h442v-120h-311v-169h287v-114h-287v-180h316v-120z" />
    <glyph glyph-name="Eacute" unicode="&#xc9;" horiz-adv-x="585" 
d="M532 0h-447v703h442v-120h-311v-169h287v-114h-287v-180h316v-120zM367 763h-120l82 147h121z" />
    <glyph glyph-name="Ecircumflex" unicode="&#xca;" horiz-adv-x="585" 
d="M133 763l107 147h131l107 -147h-111l-62 84l-63 -84h-109zM532 0h-447v703h442v-120h-311v-169h287v-114h-287v-180h316v-120z" />
    <glyph glyph-name="Edieresis" unicode="&#xcb;" horiz-adv-x="585" 
d="M532 0h-447v703h442v-120h-311v-169h287v-114h-287v-180h316v-120zM291 831q0 -27 -18 -46t-45 -19t-46 19t-19 46q0 29 18 48t47 19q27 0 45 -19t18 -48zM453 831q0 -27 -18 -46t-45 -19q-29 0 -48 19t-19 46q0 29 19 48t48 19q27 0 45 -19t18 -48z" />
    <glyph glyph-name="Igrave" unicode="&#xcc;" horiz-adv-x="300" 
d="M216 0h-131v703h131v-703zM91 763l-83 147h121l81 -147h-119z" />
    <glyph glyph-name="Iacute" unicode="&#xcd;" horiz-adv-x="300" 
d="M216 0h-131v703h131v-703zM211 763h-120l82 147h121z" />
    <glyph glyph-name="Icircumflex" unicode="&#xce;" horiz-adv-x="300" 
d="M216 0h-131v703h131v-703zM-22 763l107 147h131l107 -147h-111l-62 84l-63 -84h-109z" />
    <glyph glyph-name="Idieresis" unicode="&#xcf;" horiz-adv-x="300" 
d="M216 0h-131v703h131v-703zM135 831q0 -27 -18 -46t-45 -19t-46 19t-19 46q0 29 18 48t47 19q27 0 45 -19t18 -48zM297 831q0 -27 -18 -46t-45 -19q-29 0 -48 19t-19 46q0 29 19 48t48 19q27 0 45 -19t18 -48z" />
    <glyph glyph-name="Eth" unicode="&#xd0;" horiz-adv-x="783" 
d="M362 0l-259 -1v302h-83v96h83v305h258q165 0 272 -95q105 -95 105 -254q0 -161 -105 -257t-271 -96zM234 301v-178h123q109 0 177 62q66 61 66 168q0 105 -66 165t-177 60h-123v-181h170v-96h-170z" />
    <glyph glyph-name="Ntilde" unicode="&#xd1;" horiz-adv-x="720" 
d="M385 869q17 -13 20 -15q6 -3 11 -3q12 0 18 11q6 10 9 36h84q-5 -68 -30 -101t-73 -33q-20 0 -36 6t-39 26q-14 14 -21 17q-8 3 -15 3q-17 0 -24 -12q-7 -9 -10 -37h-84q5 69 32 102q27 35 78 35q23 0 38 -7q17 -7 42 -28zM208 0h-123v703h124l302 -483v483h124v-703
h-126l-301 481v-481z" />
    <glyph glyph-name="Ograve" unicode="&#xd2;" horiz-adv-x="827" 
d="M354 763l-83 147h121l81 -147h-119zM42 352l-1 -1q0 155 105 260t266 105q160 0 267 -105q106 -105 106 -259q0 -155 -106 -260q-107 -105 -267 -105t-265 105t-105 260zM647 351v-1q0 104 -67 171q-68 69 -168 69q-101 0 -167 -69t-66 -171q0 -103 66 -172t168 -69
t168 69t66 173z" />
    <glyph glyph-name="Oacute" unicode="&#xd3;" horiz-adv-x="827" 
d="M475 763h-120l82 147h121zM42 352l-1 -1q0 155 105 260t266 105q160 0 267 -105q106 -105 106 -259q0 -155 -106 -260q-107 -105 -267 -105t-265 105t-105 260zM647 351v-1q0 104 -67 171q-68 69 -168 69q-101 0 -167 -69t-66 -171q0 -103 66 -172t168 -69t168 69t66 173
z" />
    <glyph glyph-name="Ocircumflex" unicode="&#xd4;" horiz-adv-x="827" 
d="M241 763l107 147h131l107 -147h-111l-62 84l-63 -84h-109zM42 352l-1 -1q0 155 105 260t266 105q160 0 267 -105q106 -105 106 -259q0 -155 -106 -260q-107 -105 -267 -105t-265 105t-105 260zM647 351v-1q0 104 -67 171q-68 69 -168 69q-101 0 -167 -69t-66 -171
q0 -103 66 -172t168 -69t168 69t66 173z" />
    <glyph glyph-name="Otilde" unicode="&#xd5;" horiz-adv-x="827" 
d="M42 352l-1 -1q0 155 105 260t266 105q160 0 267 -105q106 -105 106 -259q0 -155 -106 -260q-107 -105 -267 -105t-265 105t-105 260zM647 351v-1q0 104 -67 171q-68 69 -168 69q-101 0 -167 -69t-66 -171q0 -103 66 -172t168 -69t168 69t66 173zM437 867q17 -13 20 -15
q6 -3 11 -3q12 0 18 11q6 10 9 36h84q-5 -68 -30 -101t-73 -33q-20 0 -36 6t-39 26q-14 14 -21 17q-8 3 -15 3q-17 0 -24 -12q-7 -9 -10 -37h-84q5 69 32 102q27 35 78 35q23 0 38 -7q17 -7 42 -28z" />
    <glyph glyph-name="Odieresis" unicode="&#xd6;" horiz-adv-x="827" 
d="M42 352l-1 -1q0 155 105 260t266 105q160 0 267 -105q106 -105 106 -259q0 -155 -106 -260q-107 -105 -267 -105t-265 105t-105 260zM647 351v-1q0 104 -67 171q-68 69 -168 69q-101 0 -167 -69t-66 -171q0 -103 66 -172t168 -69t168 69t66 173zM397 829q0 -27 -18 -46
t-45 -19t-46 19t-19 46q0 29 18 48t47 19q27 0 45 -19t18 -48zM559 829q0 -27 -18 -46t-45 -19q-29 0 -48 19t-19 46q0 29 19 48t48 19q27 0 45 -19t18 -48z" />
    <glyph glyph-name="multiply" unicode="&#xd7;" horiz-adv-x="570" 
d="M139 133l-70 70l146 146l-145 144l71 71l145 -144l144 144l70 -71l-144 -144l145 -146l-71 -70l-145 145z" />
    <glyph glyph-name="Oslash" unicode="&#xd8;" horiz-adv-x="829" 
d="M230 32l-51 -66h-134l102 129q-47 47 -76 116q-27 66 -27 140q0 155 105 260t266 105q51 0 98 -12q50 -12 87 -34l52 65h133l-101 -129q49 -49 76 -115t27 -140q0 -155 -106 -260q-107 -105 -267 -105q-50 0 -97 12q-50 12 -87 34zM416 591l-1 -1q-101 0 -167 -69
t-66 -171q0 -43 12 -82t38 -71l294 368q-26 14 -52 20q-28 6 -58 6zM415 109l2 -2q102 0 168 69t66 173q0 45 -13 81q-13 39 -39 71l-293 -368q26 -12 53 -18t56 -6z" />
    <glyph glyph-name="Ugrave" unicode="&#xd9;" horiz-adv-x="692" 
d="M287 763l-83 147h121l81 -147h-119zM483 703l131 -1v-465q0 -110 -76 -180t-193 -70q-114 0 -191 71q-75 70 -75 180v465h131v-461q0 -59 36 -95t95 -36q64 0 103 36t39 95v461z" />
    <glyph glyph-name="Uacute" unicode="&#xda;" horiz-adv-x="692" 
d="M483 703l131 -1v-465q0 -110 -76 -180t-193 -70q-114 0 -191 71q-75 70 -75 180v465h131v-461q0 -59 36 -95t95 -36q64 0 103 36t39 95v461zM406 762h-120l82 147h121z" />
    <glyph glyph-name="Ucircumflex" unicode="&#xdb;" horiz-adv-x="692" 
d="M173 763l107 147h131l107 -147h-111l-62 84l-63 -84h-109zM483 703l131 -1v-465q0 -110 -76 -180t-193 -70q-114 0 -191 71q-75 70 -75 180v465h131v-461q0 -59 36 -95t95 -36q64 0 103 36t39 95v461z" />
    <glyph glyph-name="Udieresis" unicode="&#xdc;" horiz-adv-x="692" 
d="M483 703l131 -1v-465q0 -110 -76 -180t-193 -70q-114 0 -191 71q-75 70 -75 180v465h131v-461q0 -59 36 -95t95 -36q64 0 103 36t39 95v461zM330 830q0 -26 -18 -46q-18 -19 -45 -19t-46 19t-19 46q0 28 18 48q18 19 47 19q27 0 45 -19q18 -20 18 -48zM492 830
q0 -26 -18 -46q-18 -19 -45 -19q-29 0 -48 19t-19 46q0 29 19 48t48 19q27 0 45 -19q18 -20 18 -48z" />
    <glyph glyph-name="Yacute" unicode="&#xdd;" horiz-adv-x="651" 
d="M392 0h-131v245l-240 458h147l160 -317l165 317h137l-238 -450v-253zM396 763h-120l82 147h121z" />
    <glyph glyph-name="Thorn" unicode="&#xde;" 
d="M85 703l132 -1v-119h136q117 0 194 -62q75 -61 75 -165q0 -108 -75 -172q-73 -64 -195 -64h-136v-120h-131v703zM346 467h-129v-232h129q61 0 102 32q39 31 39 87q0 53 -39 83t-102 30z" />
    <glyph glyph-name="germandbls" unicode="&#xdf;" horiz-adv-x="625" 
d="M350 102l1 -3q53 0 84 33q31 31 31 87q0 49 -35 82t-86 33h-71v96h47q45 0 77 29q30 29 30 72q0 46 -31 76t-81 30q-52 0 -85 -34q-33 -35 -33 -88v-516h-125v499q0 121 67 188q68 68 178 68q103 0 167 -55q66 -55 66 -144q0 -55 -22 -95q-23 -40 -66 -63q60 -22 92 -73
q33 -51 33 -114q0 -94 -63 -159q-63 -64 -154 -64q-31 0 -55 6t-43 18v110q15 -11 33 -15q15 -4 44 -4z" />
    <glyph glyph-name="agrave" unicode="&#xe0;" horiz-adv-x="552" 
d="M367 0l-1 63q-26 -37 -66 -57q-43 -20 -88 -20q-73 0 -120 41t-47 105t42 105q40 40 131 61l146 34v6q0 35 -25 56t-66 21q-39 0 -65 -20t-32 -54h-120q5 77 66 128q62 51 152 51q100 0 156 -53t56 -144v-323h-119zM240 87h-1q51 0 87 38q36 37 36 89v26l-114 -26
q-42 -10 -62 -27t-20 -42q0 -28 19 -43t55 -15zM209 569l-83 147h121l81 -147h-119z" />
    <glyph glyph-name="aacute" unicode="&#xe1;" horiz-adv-x="552" 
d="M367 0l-1 63q-26 -37 -66 -57q-43 -20 -88 -20q-73 0 -120 41t-47 105t42 105q40 40 131 61l146 34v6q0 35 -25 56t-66 21q-39 0 -65 -20t-32 -54h-120q5 77 66 128q62 51 152 51q100 0 156 -53t56 -144v-323h-119zM240 87h-1q51 0 87 38q36 37 36 89v26l-114 -26
q-42 -10 -62 -27t-20 -42q0 -28 19 -43t55 -15zM329 569h-120l82 147h121z" />
    <glyph glyph-name="acircumflex" unicode="&#xe2;" horiz-adv-x="552" 
d="M367 0l-1 63q-26 -37 -66 -57q-43 -20 -88 -20q-73 0 -120 41t-47 105t42 105q40 40 131 61l146 34v6q0 35 -25 56t-66 21q-39 0 -65 -20t-32 -54h-120q5 77 66 128q62 51 152 51q100 0 156 -53t56 -144v-323h-119zM240 87h-1q51 0 87 38q36 37 36 89v26l-114 -26
q-42 -10 -62 -27t-20 -42q0 -28 19 -43t55 -15zM97 569l107 147h131l107 -147h-111l-62 84l-63 -84h-109z" />
    <glyph glyph-name="atilde" unicode="&#xe3;" horiz-adv-x="552" 
d="M367 0l-1 63q-26 -37 -66 -57q-43 -20 -88 -20q-73 0 -120 41t-47 105t42 105q40 40 131 61l146 34v6q0 35 -25 56t-66 21q-39 0 -65 -20t-32 -54h-120q5 77 66 128q62 51 152 51q100 0 156 -53t56 -144v-323h-119zM240 87h-1q51 0 87 38q36 37 36 89v26l-114 -26
q-42 -10 -62 -27t-20 -42q0 -28 19 -43t55 -15zM294 677q17 -13 20 -15q6 -3 11 -3q12 0 18 11q6 10 9 36h84q-5 -68 -30 -101t-73 -33q-19 0 -36 6q-16 6 -39 26q-14 14 -21 17t-15 3q-16 0 -24 -12q-7 -9 -10 -37h-84q5 69 32 102q27 35 78 35q23 0 38 -7q17 -7 42 -28z
" />
    <glyph glyph-name="adieresis" unicode="&#xe4;" horiz-adv-x="552" 
d="M367 0l-1 63q-26 -37 -66 -57q-43 -20 -88 -20q-73 0 -120 41t-47 105t42 105q40 40 131 61l146 34v6q0 35 -25 56t-66 21q-39 0 -65 -20t-32 -54h-120q5 77 66 128q62 51 152 51q100 0 156 -53t56 -144v-323h-119zM240 87h-1q51 0 87 38q36 37 36 89v26l-114 -26
q-42 -10 -62 -27t-20 -42q0 -28 19 -43t55 -15zM253 638q0 -26 -18 -46q-18 -19 -45 -19t-46 19t-19 46q0 28 18 48q18 19 47 19q27 0 45 -19q18 -20 18 -48zM415 638q0 -26 -18 -46q-18 -19 -45 -19q-29 0 -48 19t-19 46q0 29 19 48t48 19q27 0 45 -19q18 -20 18 -48z" />
    <glyph glyph-name="aring" unicode="&#xe5;" horiz-adv-x="552" 
d="M367 0l-1 63q-26 -37 -66 -57q-43 -20 -88 -20q-73 0 -120 41t-47 105t42 105q40 40 131 61l146 34v6q0 35 -25 56t-66 21q-39 0 -65 -20t-32 -54h-120q5 77 66 128q62 51 152 51q100 0 156 -53t56 -144v-323h-119zM240 87h-1q51 0 87 38q36 37 36 89v26l-114 -26
q-42 -10 -62 -27t-20 -42q0 -28 19 -43t55 -15zM380 666q0 -45 -33 -75t-79 -30t-78 30t-32 75q0 44 32 76q31 31 78 31q48 0 79 -31q33 -31 33 -76zM228 666h-1q0 -17 12 -29t29 -12q18 0 30 12t12 29q0 18 -12 30t-30 12q-16 0 -28 -12t-12 -30z" />
    <glyph glyph-name="ae" unicode="&#xe6;" horiz-adv-x="932" 
d="M762 164l122 4q-26 -82 -93 -129q-68 -47 -160 -47q-68 0 -123 31q-56 31 -90 87q-24 -56 -75 -87q-49 -31 -118 -31q-83 0 -132 39t-49 105q0 65 42 104t132 60l146 34v6q0 35 -25 56t-66 21q-39 0 -65 -20t-32 -54h-120q5 77 66 128q62 51 152 51q59 0 102 -22
q44 -23 68 -66q33 42 84 65q52 23 105 23q116 0 189 -73t73 -186v-39h-411q9 -62 49 -96q41 -36 99 -36q45 0 78 18q33 19 52 54zM632 420v1q-51 0 -88 -28t-52 -78l281 -1q-13 50 -51 78q-37 28 -90 28zM243 93l-2 1q49 0 85 36t36 83v33l-114 -26q-42 -10 -62 -27t-20 -42
q0 -28 20 -43t57 -15z" />
    <glyph glyph-name="ccedilla" unicode="&#xe7;" horiz-adv-x="605" 
d="M310 520l-6 -2q101 0 173 -60t89 -155h-125q-14 45 -50 73q-36 27 -85 27q-64 0 -106 -43q-42 -44 -42 -108t42 -108q42 -43 106 -43q49 0 87 29q37 28 51 75h124q-15 -85 -77 -147q-63 -60 -149 -70l-24 -38q51 -1 84 -31q32 -30 32 -79q0 -46 -36 -78q-34 -31 -88 -31
t-88 28q-34 29 -39 75l88 1q1 -13 12 -22t27 -9t27 11t11 27q0 17 -10 27q-11 11 -28 11q-14 0 -21 -4q-9 -4 -17 -15l-72 33l60 97q-100 15 -162 89t-62 174q0 112 78 189q80 77 196 77z" />
    <glyph glyph-name="egrave" unicode="&#xe8;" horiz-adv-x="606" 
d="M305 91l2 -2q45 0 78 18q33 19 52 54h122q-25 -83 -93 -129q-68 -47 -162 -47q-115 0 -192 77q-76 76 -76 191q0 111 78 189t192 78q116 0 189 -73q74 -74 74 -186v-40h-412q9 -58 49 -94t99 -36zM308 414h2q-53 0 -90 -28q-38 -28 -54 -78h283q-13 50 -51 78
q-37 28 -90 28zM248 568l-83 147h121l81 -147h-119z" />
    <glyph glyph-name="eacute" unicode="&#xe9;" horiz-adv-x="606" 
d="M365 570h-120l82 147h121zM305 91l2 -2q45 0 78 18q33 19 52 54h122q-25 -83 -93 -129q-68 -47 -162 -47q-115 0 -192 77q-76 76 -76 191q0 111 78 189t192 78q116 0 189 -73q74 -74 74 -186v-40h-412q9 -58 49 -94t99 -36zM308 414h2q-53 0 -90 -28q-38 -28 -54 -78h283
q-13 50 -51 78q-37 28 -90 28z" />
    <glyph glyph-name="ecircumflex" unicode="&#xea;" horiz-adv-x="606" 
d="M132 570l107 147h131l107 -147h-111l-62 84l-63 -84h-109zM305 91l2 -2q45 0 78 18q33 19 52 54h122q-25 -83 -93 -129q-68 -47 -162 -47q-115 0 -192 77q-76 76 -76 191q0 111 78 189t192 78q116 0 189 -73q74 -74 74 -186v-40h-412q9 -58 49 -94t99 -36zM308 414h2
q-53 0 -90 -28q-38 -28 -54 -78h283q-13 50 -51 78q-37 28 -90 28z" />
    <glyph glyph-name="edieresis" unicode="&#xeb;" horiz-adv-x="606" 
d="M288 639q0 -27 -18 -46t-45 -19t-46 19t-19 46q0 29 18 48t47 19q27 0 45 -19t18 -48zM450 639q0 -27 -18 -46t-45 -19q-29 0 -48 19t-19 46q0 29 19 48t48 19q27 0 45 -19t18 -48zM305 91l2 -2q45 0 78 18q33 19 52 54h122q-25 -83 -93 -129q-68 -47 -162 -47
q-115 0 -192 77q-76 76 -76 191q0 111 78 189t192 78q116 0 189 -73q74 -74 74 -186v-40h-412q9 -58 49 -94t99 -36zM308 414h2q-53 0 -90 -28q-38 -28 -54 -78h283q-13 50 -51 78q-37 28 -90 28z" />
    <glyph glyph-name="igrave" unicode="&#xec;" horiz-adv-x="273" 
d="M199 0h-125v507h125v-507zM77 570l-83 147h121l81 -147h-119z" />
    <glyph glyph-name="iacute" unicode="&#xed;" horiz-adv-x="273" 
d="M196 570h-120l82 147h121zM199 0h-125v507h125v-507z" />
    <glyph glyph-name="icircumflex" unicode="&#xee;" horiz-adv-x="273" 
d="M-37 570l107 147h131l107 -147h-111l-62 84l-63 -84h-109zM199 0h-125v507h125v-507z" />
    <glyph glyph-name="idieresis" unicode="&#xef;" horiz-adv-x="273" 
d="M120 639q0 -27 -18 -46t-45 -19t-46 19t-19 46q0 29 18 48t47 19q27 0 45 -19t18 -48zM282 639q0 -27 -18 -46t-45 -19q-29 0 -48 19t-19 46q0 29 19 48t48 19q27 0 45 -19t18 -48zM199 0h-125v507h125v-507z" />
    <glyph glyph-name="eth" unicode="&#xf0;" horiz-adv-x="628" 
d="M37 251l2 2q0 106 73 179q74 74 180 74q47 0 80 -13q36 -13 63 -39q-10 35 -31 75q-21 37 -51 75l-114 -47v71l67 28q-22 22 -48 45q-4 3 -54 43h139q13 -9 27 -21l33 -28l108 48v-70l-60 -27q65 -76 99 -171q35 -97 35 -192q0 -125 -79 -210t-195 -85q-115 0 -195 77
q-79 76 -79 186zM462 253v2q0 62 -42 104t-107 42q-64 0 -106 -42t-42 -105q0 -64 42 -106t106 -42q65 0 107 42t42 105z" />
    <glyph glyph-name="ntilde" unicode="&#xf1;" horiz-adv-x="603" 
d="M198 0l-126 1v507h119v-66q27 38 68 59t89 21q85 0 136 -53t51 -140v-327h-125v294q0 52 -27 81t-76 29t-79 -33t-30 -84v-289zM330 679q17 -13 20 -15q6 -3 11 -3q12 0 18 11q6 10 9 36h84q-5 -68 -30 -101q-26 -33 -73 -33q-19 0 -36 6q-16 6 -39 26q-14 14 -21 17
t-15 3q-16 0 -24 -12q-7 -9 -10 -37h-84q5 69 32 102q27 35 78 35q23 0 38 -7q17 -7 42 -28z" />
    <glyph glyph-name="ograve" unicode="&#xf2;" horiz-adv-x="619" 
d="M37 254v-3q0 112 77 189t195 77q120 0 196 -76q78 -77 78 -189q0 -114 -78 -190q-76 -76 -196 -76q-118 0 -195 77t-77 191zM459 251l2 -1q0 65 -43 108t-108 43q-64 0 -106 -43q-42 -44 -42 -108t42 -108q42 -43 106 -43q65 0 107 44q42 43 42 108zM252 566l-83 147h121
l81 -147h-119z" />
    <glyph glyph-name="oacute" unicode="&#xf3;" horiz-adv-x="619" 
d="M370 570h-120l82 147h121zM37 254v-3q0 112 77 189t195 77q120 0 196 -76q78 -77 78 -189q0 -114 -78 -190q-76 -76 -196 -76q-118 0 -195 77t-77 191zM459 251l2 -1q0 65 -43 108t-108 43q-64 0 -106 -43q-42 -44 -42 -108t42 -108q42 -43 106 -43q65 0 107 44
q42 43 42 108z" />
    <glyph glyph-name="ocircumflex" unicode="&#xf4;" horiz-adv-x="619" 
d="M137 570l107 147h131l107 -147h-111l-62 84l-63 -84h-109zM37 254v-3q0 112 77 189t195 77q120 0 196 -76q78 -77 78 -189q0 -114 -78 -190q-76 -76 -196 -76q-118 0 -195 77t-77 191zM459 251l2 -1q0 65 -43 108t-108 43q-64 0 -106 -43q-42 -44 -42 -108t42 -108
q42 -43 106 -43q65 0 107 44q42 43 42 108z" />
    <glyph glyph-name="otilde" unicode="&#xf5;" horiz-adv-x="619" 
d="M37 254v-3q0 112 77 189t195 77q120 0 196 -76q78 -77 78 -189q0 -114 -78 -190q-76 -76 -196 -76q-118 0 -195 77t-77 191zM459 251l2 -1q0 65 -43 108t-108 43q-64 0 -106 -43q-42 -44 -42 -108t42 -108q42 -43 106 -43q65 0 107 44q42 43 42 108zM336 674
q17 -13 20 -15q6 -3 11 -3q12 0 18 11t9 36h84q-5 -68 -30 -101q-26 -33 -73 -33q-19 0 -36 6q-16 6 -39 26q-14 14 -21 17t-15 3q-16 0 -24 -12q-7 -9 -10 -37h-84q5 69 32 102q27 35 78 35q23 0 38 -7q17 -7 42 -28z" />
    <glyph glyph-name="odieresis" unicode="&#xf6;" horiz-adv-x="619" 
d="M294 639q0 -27 -18 -46t-45 -19t-46 19t-19 46q0 29 18 48t47 19q27 0 45 -19t18 -48zM456 639q0 -27 -18 -46t-45 -19q-29 0 -48 19t-19 46q0 29 19 48t48 19q27 0 45 -19t18 -48zM37 254v-3q0 112 77 189t195 77q120 0 196 -76q78 -77 78 -189q0 -114 -78 -190
q-76 -76 -196 -76q-118 0 -195 77t-77 191zM459 251l2 -1q0 65 -43 108t-108 43q-64 0 -106 -43q-42 -44 -42 -108t42 -108q42 -43 106 -43q65 0 107 44q42 43 42 108z" />
    <glyph glyph-name="divide" unicode="&#xf7;" horiz-adv-x="570" 
d="M364 549l-2 -1q0 -32 -22 -54t-55 -22q-34 0 -57 23q-22 22 -22 54q0 33 22 55t57 22t57 -22t22 -55zM54 299v100h458v-100h-458zM362 150l-2 -1q0 -32 -22 -54t-55 -22q-34 0 -57 23q-22 22 -22 54q0 33 22 55t57 22t57 -22t22 -55z" />
    <glyph glyph-name="oslash" unicode="&#xf8;" horiz-adv-x="623" 
d="M183 16l-39 -51h-106l74 98q-36 37 -55 86q-19 45 -19 102q0 112 77 189t195 77q39 0 68 -7q31 -7 63 -22l38 50h106l-76 -99q36 -36 56 -84q20 -51 20 -102q0 -113 -78 -190q-76 -76 -196 -76q-31 0 -68 8q-31 7 -60 21zM309 404v-1q-65 0 -108 -43t-43 -108
q0 -24 8 -51t23 -44l181 235q-14 6 -29 9t-32 3zM309 98l-1 1q64 0 108 44q43 43 43 108q0 29 -7 50q-7 24 -22 44l-181 -235q14 -6 29 -9t31 -3z" />
    <glyph glyph-name="ugrave" unicode="&#xf9;" horiz-adv-x="594" 
d="M290 101l-3 -1q49 0 78 33q28 31 28 85v289h126v-507h-120v66q-25 -37 -64 -58t-86 -21q-82 0 -132 53t-50 140v327h125v-294q0 -50 26 -82q26 -30 72 -30zM231 569l-83 147h121l81 -147h-119z" />
    <glyph glyph-name="uacute" unicode="&#xfa;" horiz-adv-x="594" 
d="M354 570h-120l82 147h121zM290 101l-3 -1q49 0 78 33q28 31 28 85v289h126v-507h-120v66q-25 -37 -64 -58t-86 -21q-82 0 -132 53t-50 140v327h125v-294q0 -50 26 -82q26 -30 72 -30z" />
    <glyph glyph-name="ucircumflex" unicode="&#xfb;" horiz-adv-x="594" 
d="M121 570l107 147h131l107 -147h-111l-62 84l-63 -84h-109zM290 101l-3 -1q49 0 78 33q28 31 28 85v289h126v-507h-120v66q-25 -37 -64 -58t-86 -21q-82 0 -132 53t-50 140v327h125v-294q0 -50 26 -82q26 -30 72 -30z" />
    <glyph glyph-name="udieresis" unicode="&#xfc;" horiz-adv-x="594" 
d="M278 639q0 -27 -18 -46t-45 -19t-46 19t-19 46q0 29 18 48t47 19q27 0 45 -19t18 -48zM440 639q0 -27 -18 -46t-45 -19q-29 0 -48 19t-19 46q0 29 19 48t48 19q27 0 45 -19t18 -48zM290 101l-3 -1q49 0 78 33q28 31 28 85v289h126v-507h-120v66q-25 -37 -64 -58t-86 -21
q-82 0 -132 53t-50 140v327h125v-294q0 -50 26 -82q26 -30 72 -30z" />
    <glyph glyph-name="yacute" unicode="&#xfd;" horiz-adv-x="548" 
d="M401 507h130l-264 -719h-126l72 201l-198 518h133l127 -353zM335 570h-120l82 147h121z" />
    <glyph glyph-name="thorn" unicode="&#xfe;" 
d="M375 520h2q107 0 176 -75t69 -190q0 -116 -70 -192t-180 -76q-52 0 -97 21t-76 61v-281h-125v953h125v-306q32 41 77 63q43 22 99 22zM492 254l-2 -3q0 65 -42 108q-42 44 -106 44t-106 -43q-42 -44 -42 -108q0 -66 42 -109t107 -43t107 44t42 110z" />
    <glyph glyph-name="ydieresis" unicode="&#xff;" horiz-adv-x="548" 
d="M401 507h130l-264 -719h-126l72 201l-198 518h133l127 -353zM258 639q0 -27 -18 -46t-45 -19t-46 19t-19 46q0 29 18 48t47 19q27 0 45 -19t18 -48zM420 639q0 -27 -18 -46t-45 -19q-29 0 -48 19t-19 46q0 29 19 48t48 19q27 0 45 -19t18 -48z" />
    <glyph glyph-name="Amacron" unicode="&#x100;" horiz-adv-x="691" 
d="M276 703h140l259 -703h-141l-51 147h-283l-51 -147h-134zM444 257l-102 294l-103 -294h205zM486 784h-280v85h280v-85z" />
    <glyph glyph-name="amacron" unicode="&#x101;" horiz-adv-x="552" 
d="M367 0l-1 63q-26 -37 -66 -57q-43 -20 -88 -20q-73 0 -120 41t-47 105t42 105q40 40 131 61l146 34v6q0 35 -25 56t-66 21q-39 0 -65 -20t-32 -54h-120q5 77 66 128q62 51 152 51q100 0 156 -53t56 -144v-323h-119zM240 87h-1q51 0 87 38q36 37 36 89v26l-114 -26
q-42 -10 -62 -27t-20 -42q0 -28 19 -43t55 -15zM409 591h-280v85h280v-85z" />
    <glyph glyph-name="Abreve" unicode="&#x102;" horiz-adv-x="691" 
d="M276 703h140l259 -703h-141l-51 147h-283l-51 -147h-134zM444 257l-102 294l-103 -294h205zM345 752l-2 -1q-69 0 -112 43q-45 44 -45 108h92q0 -32 18 -51t48 -19t48 20t18 51h92q0 -65 -45 -108q-43 -43 -112 -43z" />
    <glyph glyph-name="abreve" unicode="&#x103;" horiz-adv-x="552" 
d="M367 0l-1 63q-26 -37 -66 -57q-43 -20 -88 -20q-73 0 -120 41t-47 105t42 105q40 40 131 61l146 34v6q0 35 -25 56t-66 21q-39 0 -65 -20t-32 -54h-120q5 77 66 128q62 51 152 51q100 0 156 -53t56 -144v-323h-119zM240 87h-1q51 0 87 38q36 37 36 89v26l-114 -26
q-42 -10 -62 -27t-20 -42q0 -28 19 -43t55 -15zM269 559l-2 -1q-69 0 -112 43q-45 43 -45 108h92q0 -31 18 -51q18 -19 48 -19t48 20q18 19 18 51h92q0 -64 -45 -108q-43 -43 -112 -43z" />
    <glyph glyph-name="Aogonek" unicode="&#x104;" horiz-adv-x="691" 
d="M276 703h141l259 -703h-48q-56 -67 -68 -85q-18 -29 -18 -51q0 -19 11 -30q10 -10 30 -10q11 0 25 3q11 3 24 11v-83q-20 -12 -39 -18t-42 -6q-49 0 -81 29t-32 75q0 34 18 67t78 99l-51 146h-283l-51 -147h-134zM445 257l-102 294l-103 -294h205z" />
    <glyph glyph-name="aogonek" unicode="&#x105;" horiz-adv-x="552" 
d="M367 1v62q-25 -37 -66 -57q-43 -20 -88 -20q-73 0 -120 41t-47 105t42 105q40 40 131 61l146 34v6q0 35 -25 56q-26 21 -66 21q-39 0 -65 -20t-32 -54h-120q5 77 66 128t152 51q100 0 156 -53t56 -144v-323h-26q-56 -67 -68 -85q-18 -29 -18 -51q0 -19 11 -30
q10 -10 30 -10q12 0 25 3q11 3 24 11v-83q-19 -12 -39 -18t-42 -6q-49 0 -81 29t-32 75q0 34 18 67t78 99zM241 87h-1q51 0 87 38q36 37 36 89v26l-114 -26q-42 -10 -62 -27t-20 -42q0 -28 19 -43q20 -15 55 -15z" />
    <glyph glyph-name="Cacute" unicode="&#x106;" horiz-adv-x="804" 
d="M632 285l135 -1q-23 -132 -122 -215q-101 -83 -239 -83q-158 0 -261 105q-104 107 -104 260q0 152 104 259q103 105 261 105q136 0 235 -78t126 -206h-140q-25 73 -84 117t-137 44q-98 0 -162 -69q-65 -71 -65 -170q0 -101 65 -172q64 -69 162 -69q83 0 145 47
q61 47 81 126zM466 762h-120l82 147h121z" />
    <glyph glyph-name="cacute" unicode="&#x107;" horiz-adv-x="605" 
d="M369 570h-120l82 147h121zM310 520l-3 -1q101 0 173 -60t89 -155h-125q-14 45 -50 73q-36 27 -85 27q-64 0 -106 -43t-42 -108t42 -108t106 -43q49 0 87 29t51 75h124q-17 -98 -89 -159q-70 -61 -172 -61q-116 0 -196 77q-78 77 -78 191q0 112 78 189q80 77 196 77z" />
    <glyph glyph-name="Ccircumflex" unicode="&#x108;" horiz-adv-x="804" 
d="M632 285l135 -1q-23 -132 -122 -215q-101 -83 -239 -83q-158 0 -261 105q-104 107 -104 260q0 152 104 259q103 105 261 105q136 0 235 -78t126 -206h-140q-25 73 -84 117t-137 44q-98 0 -162 -69q-65 -71 -65 -170q0 -101 65 -172q64 -69 162 -69q83 0 145 47
q61 47 81 126zM233 762l107 147h131l107 -147h-111l-62 84l-63 -84h-109z" />
    <glyph glyph-name="ccircumflex" unicode="&#x109;" horiz-adv-x="605" 
d="M137 570l107 147h131l107 -147h-111l-62 84l-63 -84h-109zM310 520l-3 -1q101 0 173 -60t89 -155h-125q-14 45 -50 73q-36 27 -85 27q-64 0 -106 -43t-42 -108t42 -108t106 -43q49 0 87 29t51 75h124q-17 -98 -89 -159q-70 -61 -172 -61q-116 0 -196 77q-78 77 -78 191
q0 112 78 189q80 77 196 77z" />
    <glyph glyph-name="Cdotaccent" unicode="&#x10a;" horiz-adv-x="804" 
d="M480 837h1q0 -30 -21 -51t-51 -21q-29 0 -50 21t-21 51q0 29 21 50t50 21t50 -21t21 -50zM633 285l135 -1q-23 -132 -122 -215q-101 -83 -239 -83q-157 0 -261 105q-104 107 -104 260q0 152 104 259q104 105 261 105q136 0 235 -78t126 -206h-140q-26 73 -84 117
q-59 44 -137 44q-97 0 -162 -69q-65 -71 -65 -170q0 -101 65 -172q65 -69 162 -69q83 0 145 47t81 126z" />
    <glyph glyph-name="cdotaccent" unicode="&#x10b;" horiz-adv-x="605" 
d="M310 520l-3 -1q101 0 173 -60t89 -155h-125q-14 45 -50 73q-36 27 -85 27q-64 0 -106 -43t-42 -108t42 -108t106 -43q49 0 87 29t51 75h124q-17 -98 -89 -159q-70 -61 -172 -61q-116 0 -196 77q-78 77 -78 191q0 112 78 189q80 77 196 77zM378 644h1q0 -30 -21 -51
t-51 -21q-29 0 -50 21t-21 51q0 29 21 50t50 21t50 -21t21 -50z" />
    <glyph glyph-name="Ccaron" unicode="&#x10c;" horiz-adv-x="804" 
d="M632 285l135 -1q-23 -132 -122 -215q-101 -83 -239 -83q-158 0 -261 105q-104 107 -104 260q0 152 104 259q103 105 261 105q136 0 235 -78t126 -206h-140q-25 73 -84 117t-137 44q-98 0 -162 -69q-65 -71 -65 -170q0 -101 65 -172q64 -69 162 -69q83 0 145 47
q61 47 81 126zM231 909h109l63 -84l62 84h111l-107 -147h-131z" />
    <glyph glyph-name="ccaron" unicode="&#x10d;" horiz-adv-x="605" 
d="M136 717h109l63 -84l62 84h111l-107 -147h-131zM310 520l-3 -1q101 0 173 -60t89 -155h-125q-14 45 -50 73q-36 27 -85 27q-64 0 -106 -43t-42 -108t42 -108t106 -43q49 0 87 29t51 75h124q-17 -98 -89 -159q-70 -61 -172 -61q-116 0 -196 77q-78 77 -78 191
q0 112 78 189q80 77 196 77z" />
    <glyph glyph-name="Dcaron" unicode="&#x10e;" horiz-adv-x="764" 
d="M343 0l-259 -1v703h258q165 0 272 -95q105 -95 105 -254q0 -161 -105 -257t-271 -96zM215 578v-455h123q109 0 177 62q66 61 66 168q0 105 -66 165t-177 60h-123zM179 909h109l63 -84l62 84h111l-107 -147h-131z" />
    <glyph glyph-name="dcaron" unicode="&#x10f;" horiz-adv-x="728" 
d="M795 634l-54 -130h-75l47 112q-23 8 -36 26q-13 16 -13 41q0 30 21 51t52 21t52 -21t21 -51q0 -9 -3 -19t-12 -30zM283 -13l-1 -1q-107 0 -176 75t-69 190q0 116 70 192t178 76q53 0 98 -21q46 -22 77 -61v303h125v-741h-118v81q-31 -44 -79 -69q-48 -24 -105 -24z
M166 252v-1q0 -65 42 -108t107 -43q64 0 106 44t42 108t-42 108t-106 44q-65 0 -107 -43t-42 -109z" />
    <glyph glyph-name="Dcroat" unicode="&#x110;" horiz-adv-x="783" 
d="M362 0l-259 -1v302h-83v96h83v305h258q165 0 272 -95q105 -95 105 -254q0 -161 -105 -257t-271 -96zM234 301v-178h123q109 0 177 62q66 61 66 168q0 105 -66 165t-177 60h-123v-181h170v-96h-170z" />
    <glyph glyph-name="dcroat" unicode="&#x111;" 
d="M284 -13l-1 -1q-107 0 -176 75t-69 190q0 116 70 192t178 76q53 0 98 -21q46 -22 77 -61v141h-177v92h177v70h125v-70h70v-92h-70v-579h-118v81q-31 -44 -79 -69q-48 -24 -105 -24zM167 252v-1q0 -65 42 -108t107 -43q64 0 106 44t42 108t-42 108t-106 44q-65 0 -107 -43
t-42 -109z" />
    <glyph glyph-name="Emacron" unicode="&#x112;" horiz-adv-x="585" 
d="M532 0h-447v703h442v-120h-311v-169h287v-114h-287v-180h316v-120zM447 784h-280v85h280v-85z" />
    <glyph glyph-name="emacron" unicode="&#x113;" horiz-adv-x="606" 
d="M305 91l2 -2q45 0 78 18q33 19 52 54h122q-25 -83 -93 -129q-68 -47 -162 -47q-115 0 -192 77q-76 76 -76 191q0 111 78 189t192 78q116 0 189 -73q74 -74 74 -186v-40h-412q9 -58 49 -94t99 -36zM308 414h2q-53 0 -90 -28q-38 -28 -54 -78h283q-13 50 -51 78
q-37 28 -90 28zM449 590h-280v85h280v-85z" />
    <glyph glyph-name="Ebreve" unicode="&#x114;" horiz-adv-x="585" 
d="M532 0h-447v703h442v-120h-311v-169h287v-114h-287v-180h316v-120zM305 752l-2 -1q-69 0 -112 43q-45 44 -45 108h92q0 -32 18 -51t48 -19t48 20t18 51h92q0 -65 -45 -108q-43 -43 -112 -43z" />
    <glyph glyph-name="ebreve" unicode="&#x115;" horiz-adv-x="606" 
d="M305 91l2 -2q45 0 78 18q33 19 52 54h122q-25 -83 -93 -129q-68 -47 -162 -47q-115 0 -192 77q-76 76 -76 191q0 111 78 189t192 78q116 0 189 -73q74 -74 74 -186v-40h-412q9 -58 49 -94t99 -36zM308 414h2q-53 0 -90 -28q-38 -28 -54 -78h283q-13 50 -51 78
q-37 28 -90 28zM308 558l-2 -1q-69 0 -112 43q-45 44 -45 108h92q0 -32 18 -51t48 -19t48 20t18 51h92q0 -65 -45 -108q-43 -43 -112 -43z" />
    <glyph glyph-name="Edotaccent" unicode="&#x116;" horiz-adv-x="585" 
d="M379 837h1q0 -30 -21 -51t-51 -21q-29 0 -50 21t-21 51q0 29 21 50t50 21t50 -21t21 -50zM533 0h-447v703h442v-120h-311v-169h287v-114h-287v-180h316v-120z" />
    <glyph glyph-name="edotaccent" unicode="&#x117;" horiz-adv-x="606" 
d="M305 91l2 -2q45 0 78 18q33 19 52 54h122q-25 -83 -93 -129q-68 -47 -162 -47q-115 0 -192 77q-76 76 -76 191q0 111 78 189t192 78q116 0 189 -73q74 -74 74 -186v-40h-412q9 -58 49 -94t99 -36zM308 414h2q-53 0 -90 -28q-38 -28 -54 -78h283q-13 50 -51 78
q-37 28 -90 28zM380 643h1q0 -30 -21 -51t-51 -21q-29 0 -50 21t-21 51q0 29 21 50t50 21t50 -21t21 -50z" />
    <glyph glyph-name="Eogonek" unicode="&#x118;" horiz-adv-x="585" 
d="M410 0l-323 1v703h442v-120h-311v-169h287v-114h-287v-180h316v-120h-28q-56 -67 -68 -85q-18 -28 -18 -51q0 -19 11 -30q10 -10 30 -10q11 0 25 3q11 3 24 11v-83q-20 -12 -39 -18t-42 -6q-49 0 -81 29t-32 75q0 35 18 68q20 36 76 96z" />
    <glyph glyph-name="eogonek" unicode="&#x119;" horiz-adv-x="606" 
d="M340 -10v-5q-14 -2 -17 -2h-19q-115 0 -192 77q-76 76 -76 191q0 111 78 189t192 78q116 0 189 -73q74 -74 74 -186v-40h-412q9 -58 49 -94t99 -36q45 0 78 18q33 19 52 54h122q-7 -25 -21 -48t-36 -48q-77 -87 -102 -127q-27 -44 -27 -75q0 -19 11 -30q10 -10 30 -10
q12 0 24 3t23 11v-83q-17 -12 -36 -18t-42 -6q-48 0 -80 29t-32 75q0 38 15 72q13 32 56 84zM306 411h3q-53 0 -90 -28q-37 -29 -54 -78h282q-13 49 -51 78q-37 28 -90 28z" />
    <glyph glyph-name="Ecaron" unicode="&#x11a;" horiz-adv-x="585" 
d="M532 0h-447v703h442v-120h-311v-169h287v-114h-287v-180h316v-120zM132 910h109l63 -84l62 84h111l-107 -147h-131z" />
    <glyph glyph-name="ecaron" unicode="&#x11b;" horiz-adv-x="606" 
d="M131 717h109l63 -84l62 84h111l-107 -147h-131zM305 91l2 -2q45 0 78 18q33 19 52 54h122q-25 -83 -93 -129q-68 -47 -162 -47q-115 0 -192 77q-76 76 -76 191q0 111 78 189t192 78q116 0 189 -73q74 -74 74 -186v-40h-412q9 -58 49 -94t99 -36zM308 414h2q-53 0 -90 -28
q-38 -28 -54 -78h283q-13 50 -51 78q-37 28 -90 28z" />
    <glyph glyph-name="Gcircumflex" unicode="&#x11c;" horiz-adv-x="810" 
d="M233 763l107 147h131l107 -147h-111l-62 84l-63 -84h-109zM752 363l-5 -366h-110v106q-40 -58 -103 -88t-144 -30q-152 0 -251 105t-99 261q0 153 104 260q103 105 260 105q128 0 222 -70t126 -186h-144q-26 62 -80 96q-56 35 -123 35q-97 0 -162 -69q-64 -67 -64 -171
t65 -175q64 -69 167 -69q86 0 143 39t75 113h-224v104h347z" />
    <glyph glyph-name="gcircumflex" unicode="&#x11d;" horiz-adv-x="631" 
d="M124 570l107 147h131l107 -147h-111l-62 84l-63 -84h-109zM43 -23l123 1q2 -46 38 -72q36 -27 95 -27q64 0 98 34q36 34 36 91v94q-30 -34 -71 -54q-38 -19 -90 -19q-102 0 -168 69t-66 177q0 109 66 179q66 71 170 71q51 0 93 -21t72 -60v67h118v-492q0 -109 -69 -175
t-188 -66q-109 0 -181 57q-72 58 -76 146zM168 273v1q0 -58 38 -99q38 -39 96 -39t96 39q38 41 38 98t-38 98q-38 39 -96 39t-96 -39q-38 -41 -38 -98z" />
    <glyph glyph-name="Gbreve" unicode="&#x11e;" horiz-adv-x="810" 
d="M752 363l-5 -366h-110v106q-40 -58 -103 -88t-144 -30q-152 0 -251 105t-99 261q0 153 104 260q103 105 260 105q128 0 222 -70t126 -186h-144q-26 62 -80 96q-56 35 -123 35q-97 0 -162 -69q-64 -67 -64 -171t65 -175q64 -69 167 -69q86 0 143 39t75 113h-224v104h347z
M400 749l-2 -1q-69 0 -112 43q-45 43 -45 108h92q0 -31 18 -51q18 -19 48 -19t48 20q18 19 18 51h92q0 -64 -45 -108q-43 -43 -112 -43z" />
    <glyph glyph-name="gbreve" unicode="&#x11f;" horiz-adv-x="631" 
d="M43 -23l123 1q2 -46 38 -72q36 -27 95 -27q64 0 98 34q36 34 36 91v94q-30 -34 -71 -54q-38 -19 -90 -19q-102 0 -168 69t-66 177q0 109 66 179q66 71 170 71q51 0 93 -21t72 -60v67h118v-492q0 -109 -69 -175t-188 -66q-109 0 -181 57q-72 58 -76 146zM168 273v1
q0 -58 38 -99q38 -39 96 -39t96 39q38 41 38 98t-38 98q-38 39 -96 39t-96 -39q-38 -41 -38 -98zM296 562l-2 -1q-69 0 -112 43q-45 44 -45 108h92q0 -32 18 -51t48 -19t48 20t18 51h92q0 -65 -45 -108q-43 -43 -112 -43z" />
    <glyph glyph-name="Gdotaccent" unicode="&#x120;" horiz-adv-x="810" 
d="M479 837h1q0 -30 -21 -51t-51 -21q-29 0 -50 21t-21 51q0 29 21 50t50 21t50 -21t21 -50zM753 363l-5 -366h-110v106q-40 -58 -103 -88t-144 -30q-152 0 -251 105t-99 261q0 153 104 260q104 105 260 105q128 0 222 -70q95 -70 126 -186h-144q-26 62 -80 96
q-56 35 -123 35q-98 0 -162 -69q-64 -67 -64 -171t65 -175q65 -69 167 -69q86 0 143 39t75 113h-224v104h347z" />
    <glyph glyph-name="gdotaccent" unicode="&#x121;" horiz-adv-x="631" 
d="M43 -23l123 1q2 -46 38 -72q36 -27 95 -27q64 0 98 34q36 34 36 91v94q-30 -34 -71 -54q-38 -19 -90 -19q-102 0 -168 69t-66 177q0 109 66 179q66 71 170 71q51 0 93 -21t72 -60v67h118v-492q0 -109 -69 -175t-188 -66q-109 0 -181 57q-72 58 -76 146zM168 273v1
q0 -58 38 -99q38 -39 96 -39t96 39q38 41 38 98t-38 98q-38 39 -96 39t-96 -39q-38 -41 -38 -98zM367 647h1q0 -30 -21 -51t-51 -21q-29 0 -50 21t-21 51q0 29 21 50t50 21t50 -21t21 -50z" />
    <glyph glyph-name="uni0122" unicode="&#x122;" horiz-adv-x="810" 
d="M456 -161l-52 -117h-67l41 88q-20 6 -32 24t-12 38q0 29 18 47t47 18t47 -18t18 -46q0 -4 -2 -18q-2 -9 -6 -16zM753 361l-5 -366h-110v106q-40 -58 -103 -88t-144 -30q-152 0 -251 105t-99 261q0 153 104 260q104 105 260 105q128 0 222 -70q95 -70 126 -186h-144
q-26 62 -80 96q-56 35 -123 35q-98 0 -162 -69q-64 -67 -64 -171t65 -175q65 -69 167 -69q86 0 143 39t75 113h-224v104h347z" />
    <glyph glyph-name="uni0123" unicode="&#x123;" horiz-adv-x="631" 
d="M238 670l52 114h68l-42 -88q22 -6 32 -22q12 -16 12 -37q0 -28 -18 -46t-47 -18t-47 18t-18 47q0 1 2 15q2 8 6 17zM41 -25l123 1q2 -46 38 -72q36 -27 95 -27q64 0 98 34q36 34 36 91v94q-30 -34 -71 -54q-38 -19 -90 -19q-102 0 -168 69t-66 177q0 109 66 179
q66 71 170 71q51 0 93 -21t72 -60v67h118v-492q0 -109 -69 -175t-188 -66q-109 0 -181 57q-72 58 -76 146zM166 271v1q0 -58 38 -99q38 -39 96 -39t96 39q38 41 38 98t-38 98q-38 39 -96 39t-96 -39q-38 -41 -38 -98z" />
    <glyph glyph-name="Hcircumflex" unicode="&#x124;" horiz-adv-x="715" 
d="M216 0h-131v703h131v-282h284v282h130v-703h-130v297h-284v-297zM186 763l107 147h131l107 -147h-111l-62 84l-63 -84h-109z" />
    <glyph glyph-name="hcircumflex" unicode="&#x125;" horiz-adv-x="603" 
d="M-37 804l107 147h131l107 -147h-111l-62 84l-63 -84h-109zM198 0l-124 1v741h125v-292q26 35 65 53t84 18q85 0 136 -53t51 -140v-327h-125v298q0 49 -27 78t-76 29t-79 -33t-30 -84v-289z" />
    <glyph glyph-name="Hbar" unicode="&#x126;" horiz-adv-x="753" 
d="M235 0h-131v503h-79v94h79v106h131v-106h284v106h130v-106h79v-94h-79v-503h-130v297h-284v-297zM235 503v-82h284v82h-284z" />
    <glyph glyph-name="hbar" unicode="&#x127;" horiz-adv-x="603" 
d="M198 0l-124 1v579h-70v92h70v70h125v-70h177v-92h-177v-130q26 35 65 53t84 18q85 0 136 -53t51 -140v-327h-125v298q0 49 -27 78t-76 29t-79 -33t-30 -84v-289z" />
    <glyph glyph-name="Itilde" unicode="&#x128;" horiz-adv-x="300" 
d="M216 0h-131v703h131v-703zM174 869q17 -13 20 -15q6 -3 11 -3q12 0 18 11q6 10 9 36h84q-5 -68 -30 -101q-26 -33 -73 -33q-19 0 -36 6q-16 6 -39 26q-14 14 -21 17t-15 3q-16 0 -24 -12q-7 -9 -10 -37h-84q5 69 32 102q27 35 78 35q23 0 38 -7q17 -7 42 -28z" />
    <glyph glyph-name="itilde" unicode="&#x129;" horiz-adv-x="273" 
d="M199 0h-125v507h125v-507zM161 678q17 -13 20 -15q6 -3 11 -3q12 0 18 11t9 36h84q-5 -68 -30 -101t-73 -33q-20 0 -36 6t-39 26q-14 14 -21 17q-8 3 -15 3q-17 0 -24 -12q-7 -9 -10 -37h-84q5 69 32 102q27 35 78 35q23 0 38 -7q17 -7 42 -28z" />
    <glyph glyph-name="Imacron" unicode="&#x12a;" horiz-adv-x="300" 
d="M216 0h-131v703h131v-703zM291 784h-280v85h280v-85z" />
    <glyph glyph-name="imacron" unicode="&#x12b;" horiz-adv-x="273" 
d="M199 0h-125v507h125v-507zM277 592h-280v85h280v-85z" />
    <glyph glyph-name="Iogonek" unicode="&#x12e;" horiz-adv-x="300" 
d="M183 -162l1 -83q-20 -12 -39 -18t-42 -6q-49 0 -81 29t-32 75q0 34 18 67t78 99v702h131v-703h-38q-56 -67 -68 -85q-18 -29 -18 -51q0 -19 11 -30q10 -10 30 -10q12 0 25 3q11 3 24 11z" />
    <glyph glyph-name="iogonek" unicode="&#x12f;" horiz-adv-x="273" 
d="M55 661l-2 -1q0 34 23 57q22 22 59 22t59 -22q23 -23 23 -57t-23 -57q-22 -22 -59 -22q-35 0 -58 23q-22 22 -22 57zM170 -163l1 -83q-19 -12 -39 -18t-42 -6q-49 0 -81 29t-32 75q0 34 18 67t78 99v506h125v-507h-32q-56 -67 -68 -85q-18 -28 -18 -51q0 -19 11 -30
q10 -10 30 -10q11 0 25 3q11 3 24 11z" />
    <glyph glyph-name="Idotaccent" unicode="&#x130;" horiz-adv-x="300" 
d="M216 0h-131v703h131v-703zM223 837h1q0 -30 -21 -51t-51 -21q-29 0 -50 21t-21 51q0 29 21 50t50 21t50 -21t21 -50z" />
    <glyph glyph-name="dotlessi" unicode="&#x131;" horiz-adv-x="273" 
d="M199 0h-125v507h125v-507z" />
    <glyph glyph-name="IJ" unicode="&#x132;" horiz-adv-x="886" 
d="M216 0h-131v703h131v-703zM676 703l131 -1v-473q0 -107 -69 -175q-67 -67 -177 -67q-106 0 -174 68t-68 177h131q0 -56 30 -89t83 -33t83 34t30 90v469z" />
    <glyph glyph-name="ij" unicode="&#x133;" horiz-adv-x="553" 
d="M55 661l-2 -1q0 34 23 57q22 22 59 22t59 -22q23 -23 23 -57t-23 -57q-22 -22 -59 -22q-35 0 -58 23q-22 22 -22 57zM197 -1h-125v507h125v-507zM492 662h-1q0 -32 -22 -53q-23 -21 -57 -21t-55 21t-21 53q0 33 21 54t56 21t57 -21t22 -54zM351 506l125 1v-536
q0 -99 -48 -148t-142 -49h-24q-7 0 -21 2v110q9 0 12 -1q5 -1 11 -1q45 0 66 21t21 66v535z" />
    <glyph glyph-name="Jcircumflex" unicode="&#x134;" horiz-adv-x="585" 
d="M376 703l131 -1v-473q0 -107 -69 -175q-67 -67 -177 -67q-106 0 -174 68t-68 177h131q0 -56 30 -89t83 -33t83 34t30 90v469zM269 762l107 147h131l107 -147h-111l-62 84l-63 -84h-109z" />
    <glyph glyph-name="jcircumflex" unicode="&#x135;" horiz-adv-x="280" 
d="M-29 570l107 147h131l107 -147h-111l-62 84l-63 -84h-109zM81 507l124 -1v-536q0 -98 -47 -148q-46 -48 -143 -48h-24q-7 0 -21 2v110q7 -1 15 -1h9q45 0 66 21t21 66v535z" />
    <glyph glyph-name="uni0136" unicode="&#x136;" horiz-adv-x="633" 
d="M401 -161l-52 -117h-67l41 88q-20 6 -32 24t-12 38q0 29 18 47t47 18t47 -18t18 -46q0 -4 -2 -18q-2 -9 -6 -16zM86 701h131v-316l259 316h155l-282 -339l285 -364h-166l-251 324v-324h-131v703z" />
    <glyph glyph-name="uni0137" unicode="&#x137;" horiz-adv-x="538" 
d="M355 -161l-52 -117h-67l41 88q-20 6 -32 24t-12 38q0 29 18 47t47 18t47 -18t18 -46q0 -4 -2 -18q-2 -9 -6 -16zM199 -2h-125v741h125v-442l168 208h145l-187 -227l221 -280h-154l-193 247v-247z" />
    <glyph glyph-name="kgreenlandic" unicode="&#x138;" horiz-adv-x="538" 
d="M198 0h-125v507h125v-208l168 208h145l-187 -227l221 -280h-154l-193 247v-247z" />
    <glyph glyph-name="Lacute" unicode="&#x139;" horiz-adv-x="529" 
d="M211 763h-120l82 147h121zM513 0h-428v703h131v-583h297v-120z" />
    <glyph glyph-name="lacute" unicode="&#x13a;" horiz-adv-x="273" 
d="M197 804h-120l82 147h121zM74 741h125v-741h-125v741z" />
    <glyph glyph-name="uni013B" unicode="&#x13b;" horiz-adv-x="529" 
d="M357 -161l-52 -117h-67l41 88q-20 6 -32 24t-12 38q0 29 18 47t47 18t47 -18t18 -46q0 -4 -2 -18q-2 -9 -6 -16zM514 -2h-428v703h131v-583h297v-120z" />
    <glyph glyph-name="uni013C" unicode="&#x13c;" horiz-adv-x="273" 
d="M194 -161l-52 -117h-67l41 88q-20 6 -32 24t-12 38q0 29 18 47t47 18t47 -18t18 -46q0 -4 -2 -18q-2 -9 -6 -16zM75 739h125v-741h-125v741z" />
    <glyph glyph-name="Lcaron" unicode="&#x13d;" horiz-adv-x="535" 
d="M425 634l-54 -130h-75l47 112q-23 8 -36 26q-13 16 -13 41q0 30 21 51t52 21t52 -21t21 -51q0 -9 -3 -19t-12 -30zM512 0h-428v703h131v-583h297v-120z" />
    <glyph glyph-name="lcaron" unicode="&#x13e;" horiz-adv-x="341" 
d="M409 634l-54 -130h-75l47 112q-23 8 -36 26q-13 16 -13 41q0 30 21 51t52 21t52 -21t21 -51q0 -9 -3 -19t-12 -30zM73 741h125v-741h-125v741z" />
    <glyph glyph-name="Ldot" unicode="&#x13f;" horiz-adv-x="543" 
d="M513 0h-428v703h131v-583h297v-120zM502 355l4 -1q0 -36 -25 -60t-63 -24t-63 24t-25 60q0 38 24 62t62 24t62 -24t24 -61z" />
    <glyph glyph-name="ldot" unicode="&#x140;" horiz-adv-x="426" 
d="M74 741h125v-741h-125v741zM437 355l4 -1q0 -36 -25 -60q-26 -24 -63 -24t-63 24q-25 24 -25 60q0 38 24 62t62 24t62 -24t24 -61z" />
    <glyph glyph-name="Lslash" unicode="&#x141;" horiz-adv-x="563" 
d="M546 0h-428v235l-80 -43v108l80 43v360h131v-290l145 77v-108l-145 -77v-185h297v-120z" />
    <glyph glyph-name="lslash" unicode="&#x142;" horiz-adv-x="385" 
d="M261 0h-125v310l-104 -56v106l104 55v326h125v-259l105 56v-105l-105 -56v-377z" />
    <glyph glyph-name="Nacute" unicode="&#x143;" horiz-adv-x="720" 
d="M421 763h-120l82 147h121zM208 0h-123v703h124l302 -483v483h124v-703h-126l-301 481v-481z" />
    <glyph glyph-name="nacute" unicode="&#x144;" horiz-adv-x="603" 
d="M366 570h-120l82 147h121zM198 0l-126 1v507h119v-66q27 38 68 59t89 21q85 0 136 -53t51 -140v-327h-125v294q0 52 -27 81t-76 29t-79 -33t-30 -84v-289z" />
    <glyph glyph-name="uni0145" unicode="&#x145;" horiz-adv-x="720" 
d="M416 -161l-52 -117h-67l41 88q-20 6 -32 24t-12 38q0 29 18 47t47 18t47 -18t18 -46q0 -4 -2 -18q-2 -9 -6 -16zM209 -2h-123v703h124l302 -483v483h124v-703h-126l-301 481v-481z" />
    <glyph glyph-name="uni0146" unicode="&#x146;" horiz-adv-x="603" 
d="M362 -161l-52 -117h-67l41 88q-20 6 -32 24t-12 38q0 29 18 47t47 18t47 -18t18 -46q0 -4 -2 -18q-2 -9 -6 -16zM199 -2l-126 1v507h119v-66q27 38 68 59q40 21 89 21q85 0 136 -53t51 -140v-327h-125v294q0 52 -27 81t-76 29t-79 -33t-30 -84v-289z" />
    <glyph glyph-name="Ncaron" unicode="&#x147;" horiz-adv-x="720" 
d="M208 0h-123v703h124l302 -483v483h124v-703h-126l-301 481v-481zM187 910h109l63 -84l62 84h111l-107 -147h-131z" />
    <glyph glyph-name="ncaron" unicode="&#x148;" horiz-adv-x="603" 
d="M133 717h109l63 -84l62 84h111l-107 -147h-131zM198 0l-126 1v507h119v-66q27 38 68 59t89 21q85 0 136 -53t51 -140v-327h-125v294q0 52 -27 81t-76 29t-79 -33t-30 -84v-289z" />
    <glyph glyph-name="napostrophe" unicode="&#x149;" horiz-adv-x="603" 
d="M121 673l-52 -117h-67l41 88q-20 6 -32 24t-12 38q0 29 18 47t47 18t47 -18t18 -46q0 -4 -2 -18q-2 -9 -6 -16zM199 -2l-126 1v507h119v-66q27 38 68 59q40 21 89 21q85 0 136 -53t51 -140v-327h-125v294q0 52 -27 81t-76 29t-79 -33t-30 -84v-289z" />
    <glyph glyph-name="Omacron" unicode="&#x14c;" horiz-adv-x="827" 
d="M42 352l-1 -1q0 155 105 260t266 105q160 0 267 -105q106 -105 106 -259q0 -155 -106 -260q-107 -105 -267 -105t-265 105t-105 260zM647 351v-1q0 104 -67 171q-68 69 -168 69q-101 0 -167 -69t-66 -171q0 -103 66 -172t168 -69t168 69t66 173zM554 782h-280v85h280v-85
z" />
    <glyph glyph-name="omacron" unicode="&#x14d;" horiz-adv-x="619" 
d="M450 592h-280v85h280v-85zM37 254v-3q0 112 77 189t195 77q120 0 196 -76q78 -77 78 -189q0 -114 -78 -190q-76 -76 -196 -76q-118 0 -195 77t-77 191zM459 251l2 -1q0 65 -43 108t-108 43q-64 0 -106 -43q-42 -44 -42 -108t42 -108q42 -43 106 -43q65 0 107 44
q42 43 42 108z" />
    <glyph glyph-name="Obreve" unicode="&#x14e;" horiz-adv-x="827" 
d="M42 352l-1 -1q0 155 105 260t266 105q160 0 267 -105q106 -105 106 -259q0 -155 -106 -260q-107 -105 -267 -105t-265 105t-105 260zM647 351v-1q0 104 -67 171q-68 69 -168 69q-101 0 -167 -69t-66 -171q0 -103 66 -172t168 -69t168 69t66 173zM412 750l-2 -1
q-69 0 -112 43q-45 44 -45 108h92q0 -32 18 -51t48 -19t48 20t18 51h92q0 -65 -45 -108q-43 -43 -112 -43z" />
    <glyph glyph-name="obreve" unicode="&#x14f;" horiz-adv-x="619" 
d="M37 254v-3q0 112 77 189t195 77q120 0 196 -76q78 -77 78 -189q0 -114 -78 -190q-76 -76 -196 -76q-118 0 -195 77t-77 191zM459 251l2 -1q0 65 -43 108t-108 43q-64 0 -106 -43q-42 -44 -42 -108t42 -108q42 -43 106 -43q65 0 107 44q42 43 42 108zM312 556l-2 -1
q-69 0 -112 43q-45 44 -45 108h92q0 -32 18 -51t48 -19t48 20t18 51h92q0 -65 -45 -108q-43 -43 -112 -43z" />
    <glyph glyph-name="Ohungarumlaut" unicode="&#x150;" horiz-adv-x="827" 
d="M351 910h114l-70 -147h-113zM502 910h114l-70 -147h-113zM42 352l-1 -1q0 155 105 260t266 105q160 0 267 -105q106 -105 106 -259q0 -155 -106 -260q-107 -105 -267 -105t-265 105t-105 260zM647 351v-1q0 104 -67 171q-68 69 -168 69q-101 0 -167 -69t-66 -171
q0 -103 66 -172t168 -69t168 69t66 173z" />
    <glyph glyph-name="ohungarumlaut" unicode="&#x151;" horiz-adv-x="619" 
d="M247 717h114l-70 -147h-113zM398 717h114l-70 -147h-113zM37 254v-3q0 112 77 189t195 77q120 0 196 -76q78 -77 78 -189q0 -114 -78 -190q-76 -76 -196 -76q-118 0 -195 77t-77 191zM459 251l2 -1q0 65 -43 108t-108 43q-64 0 -106 -43q-42 -44 -42 -108t42 -108
q42 -43 106 -43q65 0 107 44q42 43 42 108z" />
    <glyph glyph-name="OE" unicode="&#x152;" horiz-adv-x="1148" 
d="M1096 0h-449v85q-51 -48 -114 -73q-62 -25 -136 -25q-148 0 -253 107q-105 106 -105 258q0 150 105 257t253 107q76 0 138 -25q63 -25 114 -73v85h442v-120h-311v-169h287v-114h-287v-180h316v-120zM646 352v-1q0 104 -67 171q-67 69 -168 69t-167 -69t-66 -171
q0 -103 66 -172t168 -69t168 69t66 173z" />
    <glyph glyph-name="oe" unicode="&#x153;" horiz-adv-x="1033" 
d="M37 254l-3 -3q0 108 77 188q77 78 186 78q71 0 129 -30q61 -32 95 -85q35 56 90 86t122 30q116 0 189 -73t73 -186v-40h-412q9 -58 49 -94t99 -36q45 0 78 18q33 19 52 54h122q-25 -82 -91 -129q-64 -46 -159 -46q-65 0 -121 30t-90 85q-36 -54 -94 -84t-129 -30
q-109 0 -186 78q-76 76 -76 189zM730 413h2q-52 0 -89 -28q-38 -29 -53 -78h281q-13 49 -51 78q-37 28 -90 28zM458 251l2 -1q0 65 -43 108t-108 43q-64 0 -106 -43q-42 -44 -42 -108t42 -108q42 -43 106 -43q65 0 107 44q42 43 42 108z" />
    <glyph glyph-name="Racute" unicode="&#x154;" horiz-adv-x="675" 
d="M216 0l-131 -2v703h268q118 0 191 -58q74 -59 74 -157q0 -83 -49 -138q-49 -56 -138 -75l222 -273h-162l-212 265h-63v-265zM346 587l-130 -1v-217h130q61 0 98 30q38 30 38 81q0 50 -37 78q-38 29 -99 29zM402 760h-120l82 147h121z" />
    <glyph glyph-name="racute" unicode="&#x155;" horiz-adv-x="393" 
d="M288 570h-120l82 147h121zM339 399l-1 -2q-66 0 -103 -42q-37 -40 -37 -111v-246h-125v507h119v-90q26 48 65 74q41 26 89 26h15q10 0 12 -1v-119l-16 3q-7 1 -18 1z" />
    <glyph glyph-name="uni0156" unicode="&#x156;" horiz-adv-x="675" 
d="M409 -161l-52 -117h-67l41 88q-20 6 -32 24t-12 38q0 29 18 47t47 18t47 -18t18 -46q0 -4 -2 -18q-2 -9 -6 -16zM217 -2l-131 -2v703h268q118 0 191 -58q74 -59 74 -157q0 -83 -49 -138q-50 -56 -138 -75l222 -273h-162l-212 265h-63v-265zM347 585l-130 -1v-217h130
q61 0 98 30q38 30 38 81q0 50 -37 78q-38 29 -99 29z" />
    <glyph glyph-name="uni0157" unicode="&#x157;" horiz-adv-x="393" 
d="M193 -161l-52 -117h-67l41 88q-20 6 -32 24t-12 38q0 29 18 47t47 18t47 -18t18 -46q0 -4 -2 -18q-2 -9 -6 -16zM340 397l-1 -2q-65 0 -103 -42q-37 -40 -37 -111v-246h-125v507h119v-90q26 48 65 74q41 26 89 26h15q10 0 12 -1v-119l-16 3q-7 1 -18 1z" />
    <glyph glyph-name="Rcaron" unicode="&#x158;" horiz-adv-x="675" 
d="M216 0l-131 -2v703h268q118 0 191 -58q74 -59 74 -157q0 -83 -49 -138q-49 -56 -138 -75l222 -273h-162l-212 265h-63v-265zM346 587l-130 -1v-217h130q61 0 98 30q38 30 38 81q0 50 -37 78q-38 29 -99 29zM167 907h109l63 -84l62 84h111l-107 -147h-131z" />
    <glyph glyph-name="rcaron" unicode="&#x159;" horiz-adv-x="393" 
d="M54 717h109l63 -84l62 84h111l-107 -147h-131zM339 399l-1 -2q-66 0 -103 -42q-37 -40 -37 -111v-246h-125v507h119v-90q26 48 65 74q41 26 89 26h15q10 0 12 -1v-119l-16 3q-7 1 -18 1z" />
    <glyph glyph-name="Sacute" unicode="&#x15a;" horiz-adv-x="618" 
d="M305 716l-2 1q115 0 182 -60q68 -60 74 -168h-135q-3 56 -34 84q-32 29 -88 29q-50 0 -81 -22t-31 -60q0 -33 19 -52q19 -20 72 -36l109 -32q98 -29 140 -75q42 -47 42 -118q0 -103 -69 -162q-67 -58 -187 -58q-128 0 -201 63t-76 179h133q1 -61 39 -94q37 -33 102 -33
q61 0 94 24t33 71q0 32 -21 53t-83 39l-101 30q-95 29 -135 75t-40 120q0 90 69 146q71 56 176 56zM363 764h-120l82 147h121z" />
    <glyph glyph-name="sacute" unicode="&#x15b;" horiz-adv-x="508" 
d="M316 570h-120l82 147h121zM255 520l-1 1q91 0 145 -42t60 -121h-128q-1 33 -21 50t-58 17q-35 0 -54 -13q-21 -14 -21 -36t15 -34t62 -22l50 -11q88 -19 127 -55q37 -36 37 -97q0 -78 -57 -123t-153 -45q-105 0 -165 45t-63 131h131q1 -38 25 -60q24 -21 68 -21
q40 0 63 15t23 44q0 23 -15 36q-18 14 -55 23l-60 14q-86 21 -124 56q-36 34 -36 93q0 71 57 113t148 42z" />
    <glyph glyph-name="Scircumflex" unicode="&#x15c;" horiz-adv-x="618" 
d="M305 716l-2 1q115 0 182 -60q68 -60 74 -168h-135q-3 56 -34 84q-32 29 -88 29q-50 0 -81 -22t-31 -60q0 -33 19 -52q19 -20 72 -36l109 -32q98 -29 140 -75q42 -47 42 -118q0 -103 -69 -162q-67 -58 -187 -58q-128 0 -201 63t-76 179h133q1 -61 39 -94q37 -33 102 -33
q61 0 94 24t33 71q0 32 -21 53t-83 39l-101 30q-95 29 -135 75t-40 120q0 90 69 146q71 56 176 56zM130 764l107 147h131l107 -147h-111l-62 84l-63 -84h-109z" />
    <glyph glyph-name="scircumflex" unicode="&#x15d;" horiz-adv-x="508" 
d="M83 570l107 147h131l107 -147h-111l-62 84l-63 -84h-109zM255 520l-1 1q91 0 145 -42t60 -121h-128q-1 33 -21 50t-58 17q-35 0 -54 -13q-21 -14 -21 -36t15 -34t62 -22l50 -11q88 -19 127 -55q37 -36 37 -97q0 -78 -57 -123t-153 -45q-105 0 -165 45t-63 131h131
q1 -38 25 -60q24 -21 68 -21q40 0 63 15t23 44q0 23 -15 36q-18 14 -55 23l-60 14q-86 21 -124 56q-36 34 -36 93q0 71 57 113t148 42z" />
    <glyph glyph-name="Scedilla" unicode="&#x15e;" horiz-adv-x="618" 
d="M305 716h-5q114 0 182 -60t74 -168h-135q-3 56 -34 84q-32 29 -88 29q-50 0 -81 -22t-31 -60q0 -31 18 -51t72 -36l109 -32q98 -29 140 -75q42 -47 42 -118q0 -95 -58 -152t-162 -66l-23 -37q51 -1 84 -31q32 -30 32 -79q0 -46 -36 -78q-34 -31 -88 -31t-88 28
q-35 29 -39 75l88 1q1 -13 12 -22q10 -9 27 -9q16 0 27 11t11 27q0 17 -10 27q-11 11 -28 11q-14 0 -21 -4q-9 -4 -17 -15l-72 33l59 96q-106 12 -165 74q-58 61 -61 165h133q1 -61 39 -94t102 -33q61 0 94 24t33 71q0 31 -21 51t-84 39l-101 30q-95 29 -135 75t-40 120
q0 90 69 146q71 56 176 56z" />
    <glyph glyph-name="scedilla" unicode="&#x15f;" horiz-adv-x="508" 
d="M255 520l-6 -4q91 0 145 -42t60 -121h-128q-1 33 -21 50t-58 17q-35 0 -54 -13q-21 -13 -21 -36q0 -22 15 -34t62 -22l50 -11q87 -19 126 -55q38 -36 38 -97q0 -71 -46 -114q-47 -44 -129 -51l-23 -38q51 -1 84 -31q32 -30 32 -79q0 -47 -36 -78q-34 -31 -88 -31t-88 28
q-35 28 -39 75l88 1q1 -13 12 -22q10 -9 27 -9q16 0 27 11t11 27q0 17 -10 27q-11 11 -28 11q-14 0 -21 -4q-9 -4 -17 -15l-72 33l59 96q-84 11 -128 56q-45 45 -48 119h131q1 -38 25 -60q24 -21 68 -21q40 0 63 15t23 44q0 22 -15 36t-55 24l-60 14q-86 21 -124 56
q-36 34 -36 93q0 71 57 113t148 42z" />
    <glyph glyph-name="Scaron" unicode="&#x160;" horiz-adv-x="618" 
d="M305 716l-2 1q115 0 182 -60q68 -60 74 -168h-135q-3 56 -34 84q-32 29 -88 29q-50 0 -81 -22t-31 -60q0 -33 19 -52q19 -20 72 -36l109 -32q98 -29 140 -75q42 -47 42 -118q0 -103 -69 -162q-67 -58 -187 -58q-128 0 -201 63t-76 179h133q1 -61 39 -94q37 -33 102 -33
q61 0 94 24t33 71q0 32 -21 53t-83 39l-101 30q-95 29 -135 75t-40 120q0 90 69 146q71 56 176 56zM129 911h109l63 -84l62 84h111l-107 -147h-131z" />
    <glyph glyph-name="scaron" unicode="&#x161;" horiz-adv-x="508" 
d="M82 717h109l63 -84l62 84h111l-107 -147h-131zM255 520l-1 1q91 0 145 -42t60 -121h-128q-1 33 -21 50t-58 17q-35 0 -54 -13q-21 -14 -21 -36t15 -34t62 -22l50 -11q88 -19 127 -55q37 -36 37 -97q0 -78 -57 -123t-153 -45q-105 0 -165 45t-63 131h131q1 -38 25 -60
q24 -21 68 -21q40 0 63 15t23 44q0 23 -15 36q-18 14 -55 23l-60 14q-86 21 -124 56q-36 34 -36 93q0 71 57 113t148 42z" />
    <glyph glyph-name="uni0162" unicode="&#x162;" horiz-adv-x="556" 
d="M235 0l-25 -1v583h-197v120h524v-120h-197v-583h-22l-30 -49q51 -1 84 -31q32 -30 32 -79q0 -46 -36 -78q-34 -31 -88 -31t-88 28q-34 29 -39 75l88 1q1 -13 12 -22t27 -9t27 11t11 27q0 17 -10 27q-11 11 -28 11q-14 0 -21 -4q-9 -4 -17 -15l-72 33z" />
    <glyph glyph-name="uni0163" unicode="&#x163;" horiz-adv-x="398" 
d="M104 507l-4 150l125 29v-179h125v-112h-125v-219q0 -40 17 -60q16 -18 54 -18q16 0 36 5q17 5 35 15v-110q-20 -9 -45 -16q-22 -6 -48 -6l-22 -36q51 -1 84 -31q32 -30 32 -79q0 -46 -36 -78q-34 -31 -88 -31t-88 28q-34 29 -39 75l88 1q1 -13 12 -22t27 -9t27 11t11 27
q0 17 -10 27q-11 11 -28 11q-14 0 -21 -4q-9 -4 -17 -15l-72 33l64 104q-46 16 -70 58t-24 110v229h-81v112h81z" />
    <glyph glyph-name="Tcaron" unicode="&#x164;" horiz-adv-x="556" 
d="M343 0h-130v583h-197v120h524v-120h-197v-583zM103 910h109l63 -84l62 84h111l-107 -147h-131z" />
    <glyph glyph-name="tcaron" unicode="&#x165;" horiz-adv-x="398" 
d="M438 710l-54 -130h-75l47 112q-23 8 -36 26q-13 16 -13 41q0 30 21 51t52 21t52 -21t21 -51q0 -9 -3 -19t-12 -30zM103 507v150l125 29v-179h125v-112h-125v-219q0 -40 17 -60q17 -18 54 -18q16 0 36 5q17 5 35 15v-110q-20 -9 -47 -16q-24 -6 -52 -6q-84 0 -126 45
t-42 135v229h-81v112h81z" />
    <glyph glyph-name="Tbar" unicode="&#x166;" horiz-adv-x="580" 
d="M355 0h-130v313h-138v95h138v175h-197v120h524v-120h-197v-175h136v-95h-136v-313z" />
    <glyph glyph-name="tbar" unicode="&#x167;" horiz-adv-x="406" 
d="M234 312h124v-92h-124v-44q0 -40 17 -60q17 -18 54 -18q16 0 36 5q17 5 35 15v-110q-20 -9 -47 -16q-24 -6 -52 -6q-84 0 -126 45t-42 135v54h-81v92h81v83h-81v112h81v150l125 29v-179h125v-112h-125v-83z" />
    <glyph glyph-name="Utilde" unicode="&#x168;" horiz-adv-x="692" 
d="M483 703l131 -1v-465q0 -110 -76 -180t-193 -70q-114 0 -191 71q-75 70 -75 180v465h131v-461q0 -59 36 -95t95 -36q64 0 103 36t39 95v461zM370 868q17 -13 20 -15q6 -3 11 -3q12 0 18 11t9 36h84q-5 -68 -30 -101q-26 -33 -73 -33q-19 0 -36 6q-16 6 -39 26
q-14 14 -21 17t-15 3q-16 0 -24 -12q-7 -9 -10 -37h-84q5 69 32 102q27 35 78 35q23 0 38 -7q17 -7 42 -28z" />
    <glyph glyph-name="utilde" unicode="&#x169;" horiz-adv-x="594" 
d="M290 101l-3 -1q49 0 78 33q28 31 28 85v289h126v-507h-120v66q-25 -37 -64 -58t-86 -21q-82 0 -132 53t-50 140v327h125v-294q0 -50 26 -82q26 -30 72 -30zM316 677q17 -13 20 -15q6 -3 11 -3q12 0 18 11q6 10 9 36h84q-5 -68 -30 -101q-26 -33 -73 -33q-19 0 -36 6
q-16 6 -39 26q-14 14 -21 17t-15 3q-16 0 -24 -12q-7 -9 -10 -37h-84q5 69 32 102q27 35 78 35q23 0 38 -7q17 -7 42 -28z" />
    <glyph glyph-name="Umacron" unicode="&#x16a;" horiz-adv-x="692" 
d="M483 703l131 -1v-465q0 -110 -76 -180t-193 -70q-114 0 -191 71q-75 70 -75 180v465h131v-461q0 -59 36 -95t95 -36q64 0 103 36t39 95v461zM486 783h-280v85h280v-85z" />
    <glyph glyph-name="umacron" unicode="&#x16b;" horiz-adv-x="594" 
d="M290 101l-3 -1q49 0 78 33q28 31 28 85v289h126v-507h-120v66q-25 -37 -64 -58t-86 -21q-82 0 -132 53t-50 140v327h125v-294q0 -50 26 -82q26 -30 72 -30zM431 591h-280v85h280v-85z" />
    <glyph glyph-name="Ubreve" unicode="&#x16c;" horiz-adv-x="692" 
d="M483 703l131 -1v-465q0 -110 -76 -180t-193 -70q-114 0 -191 71q-75 70 -75 180v465h131v-461q0 -59 36 -95t95 -36q64 0 103 36t39 95v461zM345 751l-2 -1q-69 0 -112 43q-45 43 -45 108h92q0 -31 18 -51q18 -19 48 -19t48 20q18 19 18 51h92q0 -64 -45 -108
q-43 -43 -112 -43z" />
    <glyph glyph-name="ubreve" unicode="&#x16d;" horiz-adv-x="594" 
d="M290 101l-3 -1q49 0 78 33q28 31 28 85v289h126v-507h-120v66q-25 -37 -64 -58t-86 -21q-82 0 -132 53t-50 140v327h125v-294q0 -50 26 -82q26 -30 72 -30zM291 559l-2 -1q-69 0 -112 43q-45 43 -45 108h92q0 -31 18 -51q18 -19 48 -19t48 20q18 19 18 51h92
q0 -64 -45 -108q-43 -43 -112 -43z" />
    <glyph glyph-name="Uring" unicode="&#x16e;" horiz-adv-x="692" 
d="M457 859q0 -45 -33 -75t-79 -30q-47 0 -78 30q-32 30 -32 75q0 44 32 76q31 31 78 31q48 0 79 -31q33 -31 33 -76zM305 859h-1q0 -17 12 -29t29 -12q18 0 30 12t12 29q0 18 -12 30t-30 12q-16 0 -28 -12t-12 -30zM482 703l131 -1v-465q0 -110 -76 -180t-193 -70
q-114 0 -191 71q-75 70 -75 180v465h131v-461q0 -59 36 -95t95 -36q64 0 103 36t39 95v461z" />
    <glyph glyph-name="uring" unicode="&#x16f;" horiz-adv-x="594" 
d="M405 667q0 -45 -33 -75t-79 -30q-47 0 -78 30q-32 30 -32 75q0 44 32 76q31 31 78 31q48 0 79 -31q33 -32 33 -76zM253 667h-1q0 -17 12 -29t29 -12q18 0 30 12t12 29q0 18 -12 30t-30 12q-16 0 -28 -12t-12 -30zM289 101l-3 -1q50 0 78 33q28 31 28 85v289h126v-507
h-120v66q-25 -37 -64 -58t-86 -21q-82 0 -132 53t-50 140v327h125v-294q0 -50 26 -82q25 -30 72 -30z" />
    <glyph glyph-name="Uhungarumlaut" unicode="&#x170;" horiz-adv-x="692" 
d="M283 910h114l-70 -147h-113zM434 910h114l-70 -147h-113zM483 703l131 -1v-465q0 -110 -76 -180t-193 -70q-114 0 -191 71q-75 70 -75 180v465h131v-461q0 -59 36 -95t95 -36q64 0 103 36t39 95v461z" />
    <glyph glyph-name="uhungarumlaut" unicode="&#x171;" horiz-adv-x="594" 
d="M290 101l-3 -1q49 0 78 33q28 31 28 85v289h126v-507h-120v66q-25 -37 -64 -58t-86 -21q-82 0 -132 53t-50 140v327h125v-294q0 -50 26 -82q26 -30 72 -30zM228 716h114l-70 -147h-113zM379 716h114l-70 -147h-113z" />
    <glyph glyph-name="Uogonek" unicode="&#x172;" horiz-adv-x="692" 
d="M483 703l133 -1v-465q0 -51 -18 -94t-53 -81q-76 -79 -101 -118q-30 -45 -30 -80q0 -19 11 -30q10 -10 30 -10q11 0 25 3q11 3 24 11v-83q-20 -12 -39 -18t-42 -6q-48 0 -80 29t-32 75q0 40 16 72q15 33 58 84l-19 -3q-7 -1 -21 -1q-114 0 -191 71q-75 70 -75 180v465
h131v-461q0 -59 36 -95t95 -36q64 0 103 36t39 95v461z" />
    <glyph glyph-name="uogonek" unicode="&#x173;" horiz-adv-x="594" 
d="M290 101l-2 -1q50 0 78 33q28 31 28 85v289h126v-507h-27q-56 -67 -68 -85q-18 -29 -18 -51q0 -19 11 -30q10 -10 30 -10q12 0 25 3q11 3 24 11v-83q-19 -12 -39 -18t-42 -6q-49 0 -81 29t-32 75q0 34 18 67t78 99v65q-25 -37 -64 -58t-86 -21q-82 0 -132 53t-50 140v327
h125v-294q0 -50 26 -82q26 -30 72 -30z" />
    <glyph glyph-name="Wcircumflex" unicode="&#x174;" horiz-adv-x="1013" 
d="M338 763l107 147h131l107 -147h-111l-62 84l-63 -84h-109zM364 0h-140l-203 703h142l139 -515l149 515h121l146 -511l141 511h134l-205 -703h-138l-142 473z" />
    <glyph glyph-name="wcircumflex" unicode="&#x175;" horiz-adv-x="862" 
d="M260 570l107 147h131l107 -147h-111l-62 84l-63 -84h-109zM315 0h-127l-172 507h125l115 -352l116 352h120l117 -353l116 353h121l-173 -507h-125l-117 341z" />
    <glyph glyph-name="Ycircumflex" unicode="&#x176;" horiz-adv-x="651" 
d="M392 0h-131v245l-240 458h147l160 -317l165 317h137l-238 -450v-253zM163 763l107 147h131l107 -147h-111l-62 84l-63 -84h-109z" />
    <glyph glyph-name="ycircumflex" unicode="&#x177;" horiz-adv-x="548" 
d="M401 507h130l-264 -719h-126l72 201l-198 518h133l127 -353zM102 570l107 147h131l107 -147h-111l-62 84l-63 -84h-109z" />
    <glyph glyph-name="Ydieresis" unicode="&#x178;" horiz-adv-x="651" 
d="M392 0h-131v245l-240 458h147l160 -317l165 317h137l-238 -450v-253zM320 831q0 -27 -18 -46t-45 -19t-46 19t-19 46q0 29 18 48t47 19q27 0 45 -19t18 -48zM482 831q0 -27 -18 -46t-45 -19q-29 0 -48 19t-19 46q0 29 19 48t48 19q27 0 45 -19t18 -48z" />
    <glyph glyph-name="Zacute" unicode="&#x179;" horiz-adv-x="594" 
d="M553 0h-513v105l344 478h-337v120h500v-112l-342 -471h348v-120zM358 763h-120l82 147h121z" />
    <glyph glyph-name="zacute" unicode="&#x17a;" horiz-adv-x="515" 
d="M318 570h-120l82 147h121zM482 0h-450v84l277 311h-261v112h420v-89l-266 -306h280v-112z" />
    <glyph glyph-name="Zdotaccent" unicode="&#x17b;" horiz-adv-x="594" 
d="M370 837h1q0 -30 -21 -51t-51 -21q-29 0 -50 21t-21 51q0 29 21 50t50 21t50 -21t21 -50zM554 0h-513v105l344 478h-337v120h500v-112l-342 -471h348v-120z" />
    <glyph glyph-name="zdotaccent" unicode="&#x17c;" horiz-adv-x="515" 
d="M482 0h-450v84l277 311h-261v112h420v-89l-266 -306h280v-112zM329 645h1q0 -30 -21 -51t-51 -21q-29 0 -50 21t-21 51q0 29 21 50t50 21t50 -21t21 -50z" />
    <glyph glyph-name="Zcaron" unicode="&#x17d;" horiz-adv-x="594" 
d="M553 0h-513v105l344 478h-337v120h500v-112l-342 -471h348v-120zM123 910h109l63 -84l62 84h111l-107 -147h-131z" />
    <glyph glyph-name="zcaron" unicode="&#x17e;" horiz-adv-x="515" 
d="M84 717h109l63 -84l62 84h111l-107 -147h-131zM482 0h-450v84l277 311h-261v112h420v-89l-266 -306h280v-112z" />
    <glyph glyph-name="longs" unicode="&#x17f;" horiz-adv-x="291" 
d="M198 0l-124 -1v557q0 99 47 149q46 48 143 48q13 0 39 -2q19 -1 37 -6v-110q-16 5 -30 6q-18 2 -25 2q-45 0 -66 -21t-21 -67v-555z" />
    <glyph glyph-name="florin" unicode="&#x192;" horiz-adv-x="560" 
d="M355 351l-62 -382q-18 -111 -64 -154t-133 -43q-18 0 -36 3q-6 1 -17 3t-17 4v110q11 -5 23 -6q16 -2 24 -2q41 0 64 20q21 20 29 68l63 379h-100v111h118l16 95q18 107 65 152q46 45 132 45q12 0 36 -2q18 -1 35 -6v-110q-9 3 -23 5q-16 2 -25 2q-45 0 -64 -19
q-21 -19 -29 -69l-16 -93h101v-111h-120z" />
    <glyph glyph-name="uni0218" unicode="&#x218;" horiz-adv-x="618" 
d="M373 -161l-52 -117h-67l41 88q-20 6 -32 24t-12 38q0 29 18 47t47 18t47 -18t18 -46q0 -4 -2 -18q-2 -9 -6 -16zM306 714l-2 1q114 0 182 -60t74 -168h-135q-3 56 -34 84q-32 29 -88 29q-50 0 -81 -22t-31 -60q0 -33 19 -52q20 -20 72 -36l109 -32q98 -29 140 -75
q42 -47 42 -118q0 -103 -69 -162q-67 -58 -187 -58q-127 0 -201 63q-73 63 -76 179h133q1 -61 39 -94t102 -33q61 0 94 24t33 71q0 32 -21 53t-83 39l-101 30q-94 29 -135 75q-40 46 -40 120q0 90 69 146q71 56 176 56z" />
    <glyph glyph-name="uni0219" unicode="&#x219;" horiz-adv-x="508" 
d="M316 -161l-52 -117h-67l41 88q-20 6 -32 24t-12 38q0 29 18 47t47 18t47 -18t18 -46q0 -4 -2 -18q-2 -9 -6 -16zM256 518l-1 1q91 0 145 -42t60 -121h-128q-1 33 -21 50t-58 17q-35 0 -54 -13q-21 -14 -21 -36t15 -34t62 -22l50 -11q88 -19 127 -55q37 -36 37 -97
q0 -78 -57 -123t-153 -45q-105 0 -165 45t-63 131h131q1 -38 25 -60q24 -21 68 -21q41 0 63 15q23 15 23 44q0 23 -15 36q-18 14 -55 23l-60 14q-86 21 -124 56q-36 34 -36 93q0 71 57 113t148 42z" />
    <glyph glyph-name="uni021A" unicode="&#x21a;" horiz-adv-x="556" 
d="M334 -161l-52 -117h-67l41 88q-20 6 -32 24t-12 38q0 29 18 47t47 18t47 -18t18 -46q0 -4 -2 -18q-2 -9 -6 -16zM344 -2h-130v583h-197v120h524v-120h-197v-583z" />
    <glyph glyph-name="uni021B" unicode="&#x21b;" horiz-adv-x="398" 
d="M254 -161l-52 -117h-67l41 88q-20 6 -32 24t-12 38q0 29 18 47t47 18t47 -18t18 -46q0 -4 -2 -18q-2 -9 -6 -16zM105 505v150l125 29v-179h125v-112h-125v-219q0 -40 17 -60q17 -18 54 -18q16 0 36 5q17 5 35 15v-110q-20 -9 -47 -16q-24 -6 -52 -6q-84 0 -126 45
t-42 135v229h-81v112h81z" />
    <glyph glyph-name="uni0237" unicode="&#x237;" horiz-adv-x="280" 
d="M81 507l124 -1v-536q0 -98 -47 -148q-46 -48 -143 -48h-24q-7 0 -21 2v110q7 -1 15 -1h9q45 0 66 21t21 66v535z" />
    <glyph glyph-name="circumflex" unicode="&#x2c6;" horiz-adv-x="408" 
d="M31 570l107 147h131l107 -147h-111l-62 84l-63 -84h-109z" />
    <glyph glyph-name="caron" unicode="&#x2c7;" horiz-adv-x="425" 
d="M28 717h109l63 -84l62 84h111l-107 -147h-131z" />
    <glyph glyph-name="uni02C9" unicode="&#x2c9;" horiz-adv-x="363" 
d="M322 592h-280v85h280v-85z" />
    <glyph glyph-name="breve" unicode="&#x2d8;" horiz-adv-x="378" 
d="M189 560l-2 -1q-69 0 -112 43q-45 44 -45 108h92q0 -32 18 -51t48 -19t48 20t18 51h92q0 -65 -45 -108q-43 -43 -112 -43z" />
    <glyph glyph-name="dotaccent" unicode="&#x2d9;" horiz-adv-x="227" 
d="M185 645h1q0 -30 -21 -51t-51 -21q-29 0 -50 21t-21 51q0 29 21 50t50 21t50 -21t21 -50z" />
    <glyph glyph-name="ring" unicode="&#x2da;" horiz-adv-x="289" 
d="M256 667q0 -45 -33 -75t-79 -30t-78 30t-32 75q0 44 32 76q31 31 78 31q48 0 79 -31q33 -31 33 -76zM104 667h-1q0 -17 12 -29t29 -12q18 0 30 12t12 29q0 18 -12 30t-30 12q-16 0 -28 -12t-12 -30z" />
    <glyph glyph-name="ogonek" unicode="&#x2db;" horiz-adv-x="280" 
d="M44 -165l3 -1q0 35 18 68q17 33 85 107h94q-60 -67 -78 -96t-18 -49q0 -19 11 -30q10 -10 30 -10q11 0 25 3q11 3 24 11v-83q-20 -12 -39 -18t-42 -6q-49 0 -81 29t-32 75z" />
    <glyph glyph-name="tilde" unicode="&#x2dc;" horiz-adv-x="393" 
d="M220 678q17 -13 20 -15q6 -3 11 -3q12 0 18 11t9 36h84q-5 -68 -30 -101q-26 -33 -73 -33q-19 0 -36 6q-16 6 -39 26q-14 14 -21 17t-15 3q-16 0 -24 -12q-7 -9 -10 -37h-84q5 69 32 102q27 35 78 35q23 0 38 -7q17 -7 42 -28z" />
    <glyph glyph-name="hungarumlaut" unicode="&#x2dd;" horiz-adv-x="419" 
d="M112 717h114l-70 -147h-113zM263 717h114l-70 -147h-113z" />
    <glyph glyph-name="uni0394" unicode="&#x394;" horiz-adv-x="656" 
d="M259 703h140l225 -607v-96h-592v96zM325 551l-153 -434h306z" />
    <glyph glyph-name="uni03A9" unicode="&#x3a9;" horiz-adv-x="799" 
d="M351 0l-289 1v119h140q-78 54 -116 123q-38 68 -38 147q0 140 99 234q97 94 251 94t251 -94q99 -94 99 -234q0 -80 -39 -147q-39 -68 -115 -123h139v-119h-288v148q85 43 127 102t42 132q0 86 -62 148q-61 61 -155 61q-92 0 -153 -61q-62 -62 -62 -148q0 -75 42 -133
q42 -59 127 -102v-148z" />
    <glyph glyph-name="uni03BC" unicode="&#x3bc;" horiz-adv-x="610" 
d="M301 101l-2 -2q49 0 78 33q28 31 28 85v289h126v-507h-120v66q-25 -37 -64 -58t-85 -21q-20 0 -32 4q-15 4 -27 12v-214h-125v719h125v-294q0 -50 26 -82q25 -30 72 -30z" />
    <glyph glyph-name="pi" unicode="&#x3c0;" horiz-adv-x="671" 
d="M26 507h619v-114h-86v-393h-125v393h-197v-393h-125v393h-86v114z" />
    <glyph glyph-name="Wgrave" unicode="&#x1e80;" horiz-adv-x="1013" 
d="M452 763l-83 147h121l81 -147h-119zM364 0h-140l-203 703h142l139 -515l149 515h121l146 -511l141 511h134l-205 -703h-138l-142 473z" />
    <glyph glyph-name="wgrave" unicode="&#x1e81;" horiz-adv-x="862" 
d="M315 0h-127l-172 507h125l115 -352l116 352h120l117 -353l116 353h121l-173 -507h-125l-117 341zM373 570l-83 147h121l81 -147h-119z" />
    <glyph glyph-name="Wacute" unicode="&#x1e82;" horiz-adv-x="1013" 
d="M571 763h-120l82 147h121zM364 0h-140l-203 703h142l139 -515l149 515h121l146 -511l141 511h134l-205 -703h-138l-142 473z" />
    <glyph glyph-name="wacute" unicode="&#x1e83;" horiz-adv-x="862" 
d="M493 570h-120l82 147h121zM315 0h-127l-172 507h125l115 -352l116 352h120l117 -353l116 353h121l-173 -507h-125l-117 341z" />
    <glyph glyph-name="Wdieresis" unicode="&#x1e84;" horiz-adv-x="1013" 
d="M364 0h-140l-203 703h142l139 -515l149 515h121l146 -511l141 511h134l-205 -703h-138l-142 473zM495 831q0 -27 -18 -46t-45 -19t-46 19t-19 46q0 29 18 48t47 19q27 0 45 -19t18 -48zM657 831q0 -27 -18 -46t-45 -19q-29 0 -48 19t-19 46q0 29 19 48t48 19q27 0 45 -19
t18 -48z" />
    <glyph glyph-name="wdieresis" unicode="&#x1e85;" horiz-adv-x="862" 
d="M417 639q0 -27 -18 -46t-45 -19t-46 19t-19 46q0 29 18 48t47 19q27 0 45 -19t18 -48zM579 639q0 -27 -18 -46t-45 -19q-29 0 -48 19t-19 46q0 29 19 48t48 19q27 0 45 -19t18 -48zM315 0h-127l-172 507h125l115 -352l116 352h120l117 -353l116 353h121l-173 -507h-125
l-117 341z" />
    <glyph glyph-name="uni1E9E" unicode="&#x1e9e;" horiz-adv-x="725" 
d="M474 586l-80 -1q-87 0 -138 -51t-51 -141v-393h-131v395q0 142 89 225t233 83h218v-103l-136 -191q88 -3 147 -60t59 -141q0 -100 -66 -160t-172 -60q-51 0 -83 7q-37 8 -67 21v120q26 -16 63 -25q35 -9 71 -9q56 0 89 27t33 77q0 43 -29 72t-75 29q-19 0 -30 -4
q-16 -5 -26 -12l-77 77z" />
    <glyph glyph-name="Ygrave" unicode="&#x1ef2;" horiz-adv-x="651" 
d="M392 0h-131v245l-240 458h147l160 -317l165 317h137l-238 -450v-253zM276 763l-83 147h121l81 -147h-119z" />
    <glyph glyph-name="ygrave" unicode="&#x1ef3;" horiz-adv-x="548" 
d="M401 507h130l-264 -719h-126l72 201l-198 518h133l127 -353zM215 570l-83 147h121l81 -147h-119z" />
    <glyph glyph-name="endash" unicode="&#x2013;" horiz-adv-x="567" 
d="M63 315h442v-108h-442v108z" />
    <glyph glyph-name="emdash" unicode="&#x2014;" horiz-adv-x="1042" 
d="M63 315h917v-108h-917v108z" />
    <glyph glyph-name="quoteleft" unicode="&#x2018;" horiz-adv-x="264" 
d="M141 703l89 -1l-75 -156q28 -9 41 -31q15 -23 15 -48q0 -37 -24 -61t-61 -24q-38 0 -63 24t-25 60q0 10 3 21l11 27z" />
    <glyph glyph-name="quoteright" unicode="&#x2019;" horiz-adv-x="270" 
d="M140 395l-92 -1l75 156q-23 9 -40 32q-15 22 -15 48q0 38 24 62t62 24t63 -24t25 -60q0 -10 -3 -21l-4 -12t-6 -15z" />
    <glyph glyph-name="quotesinglbase" unicode="&#x201a;" horiz-adv-x="269" 
d="M119 -164l-92 -1l75 156q-23 9 -40 32q-15 23 -15 48q0 38 24 62t62 24q37 0 63 -24q25 -24 25 -60q0 -11 -3 -21l-4 -12t-6 -15z" />
    <glyph glyph-name="quotedblleft" unicode="&#x201c;" horiz-adv-x="476" 
d="M141 703l89 -1l-75 -156q28 -9 41 -31q15 -23 15 -48q0 -37 -24 -61t-61 -24q-38 0 -63 24t-25 60q0 10 3 21l11 27zM351 702l89 -1l-75 -156q28 -9 41 -31q15 -22 15 -48q0 -37 -24 -61t-61 -24q-38 0 -63 24t-25 60q0 11 3 21l11 27z" />
    <glyph glyph-name="quotedblright" unicode="&#x201d;" horiz-adv-x="481" 
d="M140 395l-92 -1l75 156q-23 9 -40 32q-15 22 -15 48q0 38 24 62t62 24t63 -24t25 -60q0 -10 -3 -21l-4 -12t-6 -15zM350 394l-92 -1l75 156q-23 9 -40 32q-15 23 -15 48q0 38 24 62t62 24t63 -24t25 -60q0 -11 -3 -21l-4 -12t-6 -15z" />
    <glyph glyph-name="quotedblbase" unicode="&#x201e;" horiz-adv-x="480" 
d="M119 -164l-92 -1l75 156q-23 9 -40 32q-15 23 -15 48q0 38 24 62t62 24q37 0 63 -24q25 -24 25 -60q0 -11 -3 -21l-4 -12t-6 -15zM329 -165l-92 -1l75 156q-23 9 -40 32q-15 22 -15 48q0 38 24 62t62 24q37 0 63 -24q25 -24 25 -60q0 -10 -3 -21l-4 -12t-6 -15z" />
    <glyph glyph-name="dagger" unicode="&#x2020;" horiz-adv-x="477" 
d="M30 415v104h145v166l126 28v-194h145v-104h-145v-396l-126 -29v425h-145z" />
    <glyph glyph-name="daggerdbl" unicode="&#x2021;" horiz-adv-x="510" 
d="M47 185v104h146v126h-146v104h146v166l125 28v-194h145v-104h-145v-126h145v-104h-145v-166l-125 -29v195h-146z" />
    <glyph glyph-name="bullet" unicode="&#x2022;" horiz-adv-x="392" 
d="M330 367h-1q0 -53 -38 -91q-37 -37 -93 -37t-93 37t-37 91q0 55 36 93q36 37 95 37q57 0 94 -37t37 -93z" />
    <glyph glyph-name="ellipsis" unicode="&#x2026;" horiz-adv-x="719" 
d="M219 72l4 -1q0 -36 -25 -60q-26 -24 -63 -24t-63 24q-25 24 -25 60q0 38 24 62t62 24t62 -24t24 -61zM450 71l4 -1q0 -36 -25 -60t-63 -24t-63 24t-25 60q0 38 24 62t62 24t62 -24t24 -61zM682 70l4 -1q0 -36 -25 -60t-63 -24t-63 24t-25 60q0 38 24 62t62 24t62 -24
t24 -61z" />
    <glyph glyph-name="perthousand" unicode="&#x2030;" horiz-adv-x="1147" 
d="M375 543v-1q0 -70 -48 -118t-122 -48q-75 0 -123 48t-48 119t48 117q50 47 123 47q72 0 122 -47q48 -46 48 -117zM602 702h103l-539 -703h-103zM124 541v-1q0 -34 23 -57q22 -22 57 -22q34 0 57 23q22 22 22 57q0 36 -22 58q-23 24 -57 24t-57 -24q-23 -26 -23 -58z
M737 159l1 2q0 -70 -48 -118t-122 -48q-73 0 -123 47q-48 47 -48 119q0 71 48 117q50 47 122 47q74 0 122 -48t48 -118zM1120 161v2q0 -70 -48 -118t-122 -48q-73 0 -123 47q-48 46 -48 119q0 71 48 117q50 47 123 47q74 0 122 -48t48 -118zM488 162l-2 -1q0 -34 23 -57
q22 -22 57 -22q34 0 57 23t23 57q0 36 -22 58q-22 24 -57 24t-57 -24q-22 -22 -22 -58zM867 161l-1 -1q0 -34 23 -57q22 -22 57 -22q34 0 57 23q22 22 22 57q0 36 -22 58q-23 24 -57 24t-57 -24q-22 -22 -22 -58z" />
    <glyph glyph-name="guilsinglleft" unicode="&#x2039;" horiz-adv-x="311" 
d="M147 35l-109 219l109 220h121l-109 -220l109 -219h-121z" />
    <glyph glyph-name="guilsinglright" unicode="&#x203a;" horiz-adv-x="311" 
d="M164 474l109 -219l-109 -220h-121l109 220l-109 219h121z" />
    <glyph glyph-name="fraction" unicode="&#x2044;" horiz-adv-x="158" 
d="M297 703h103l-539 -703h-103z" />
    <glyph glyph-name="zero.superior" unicode="&#x2070;" horiz-adv-x="344" 
d="M308 615h-2q0 -62 -37 -96t-99 -34t-99 34t-37 96v108q0 60 38 93t99 33t99 -33t38 -93v-108zM170 767v-2q-23 0 -36 -13t-13 -36v-100q0 -23 13 -36t36 -13q22 0 36 14q13 13 13 36v100q0 23 -13 36q-14 14 -36 14z" />
    <glyph glyph-name="four.superior" unicode="&#x2074;" horiz-adv-x="333" 
d="M23 619l127 225h101l-125 -216h69v54l87 19v-73h26v-80h-26v-56h-87v56h-172v71z" />
    <glyph glyph-name="five.superior" unicode="&#x2075;" horiz-adv-x="312" 
d="M60 844h200v-80h-130l-4 -48l20 3q5 1 14 1q58 0 89 -31q33 -31 33 -84t-36 -87q-34 -34 -92 -34q-56 0 -93 30t-42 80h90q5 -14 15 -21t27 -7q19 0 31 12t12 29q0 18 -12 30t-30 12q-14 0 -21 -4q-9 -5 -15 -12l-74 10z" />
    <glyph glyph-name="six.superior" unicode="&#x2076;" horiz-adv-x="313" 
d="M159 486v-2q-57 0 -95 36t-38 89q0 27 9 53q9 28 30 59l78 122h102l-81 -117h6q54 0 88 -33t34 -83q0 -52 -39 -88t-94 -36zM113 608l2 -2q0 -20 13 -33t33 -13t32 14t12 33q0 20 -13 33q-14 14 -33 14q-20 0 -33 -13t-13 -33z" />
    <glyph glyph-name="seven.superior" unicode="&#x2077;" horiz-adv-x="293" 
d="M172 760h-148v84h247v-72l-129 -280h-98z" />
    <glyph glyph-name="eight.superior" unicode="&#x2078;" horiz-adv-x="330" 
d="M300 596h-3q0 -48 -37 -79t-99 -31q-58 0 -96 32t-38 78q0 28 14 51q13 23 39 36q-17 14 -26 33t-9 40q0 41 33 68t85 27q53 0 86 -27t33 -68q0 -21 -9 -40t-26 -33q25 -13 39 -36t14 -51zM123 746l1 1q0 -14 11 -25q11 -10 27 -9q19 2 28 11q10 9 10 24t-11 24t-29 9
q-17 0 -27 -10t-10 -25zM114 600h-1q0 -19 13 -31q14 -12 36 -12t36 12t14 31q0 20 -13 33t-36 13t-36 -13t-13 -33z" />
    <glyph glyph-name="nine.superior" unicode="&#x2079;" horiz-adv-x="313" 
d="M155 850l-1 1q58 0 95 -36q38 -36 38 -88q0 -27 -9 -53q-9 -28 -30 -59l-78 -122h-102l81 117h-6q-54 0 -88 33t-34 83q0 52 39 88t95 36zM200 727l-2 -2q0 20 -13 33q-14 14 -33 14q-20 0 -32 -13t-12 -33t13 -33t33 -13q19 0 33 14q13 13 13 33z" />
    <glyph glyph-name="zero.inferior" unicode="&#x2080;" horiz-adv-x="344" 
d="M308 -18h-2q0 -62 -37 -96t-99 -34t-99 34t-37 96v108q0 60 38 93t99 33t99 -33t38 -93v-108zM170 134v-2q-23 0 -36 -13t-13 -36v-100q0 -23 13 -36t36 -13q22 0 36 14q13 13 13 36v100q0 23 -13 36q-14 14 -36 14z" />
    <glyph glyph-name="one.inferior" unicode="&#x2081;" horiz-adv-x="219" 
d="M170 -141h-88v268h-68l21 84h135v-352z" />
    <glyph glyph-name="two.inferior" unicode="&#x2082;" horiz-adv-x="326" 
d="M295 -141l-261 -2v70l129 118q17 15 24 27q7 10 7 26q0 15 -10 24t-27 9q-16 0 -27 -11q-10 -10 -12 -27h-90q3 54 39 89q38 35 95 35q56 0 90 -30t34 -79q0 -30 -15 -57t-55 -64l-48 -44h127v-84z" />
    <glyph glyph-name="three.inferior" unicode="&#x2083;" horiz-adv-x="324" 
d="M27 -36l84 2q3 -18 15 -28q10 -10 30 -10q19 0 33 11q12 11 12 30q0 22 -13 32q-14 11 -39 11h-29v63h26q22 0 34 9t12 26t-9 26t-26 9t-27 -10q-10 -11 -12 -27h-88q3 50 39 80t93 30q56 0 89 -27t33 -68q0 -27 -12 -46t-34 -31q27 -11 41 -32q14 -23 14 -51
q0 -47 -36 -78q-34 -31 -97 -31q-58 0 -94 30t-39 80z" />
    <glyph glyph-name="four.inferior" unicode="&#x2084;" horiz-adv-x="333" 
d="M24 -14l127 225h101l-125 -216h69v54l87 19v-73h26v-80h-26v-56h-87v56h-172v71z" />
    <glyph glyph-name="five.inferior" unicode="&#x2085;" horiz-adv-x="312" 
d="M60 211h200v-80h-130l-4 -48l20 3q5 1 14 1q58 0 89 -31q33 -32 33 -84t-36 -87q-34 -34 -92 -34q-56 0 -93 30t-42 80h90q5 -13 15 -21q10 -7 27 -7q19 0 31 12t12 29q0 18 -12 30t-30 12q-14 0 -21 -4q-9 -4 -15 -12l-74 10z" />
    <glyph glyph-name="six.inferior" unicode="&#x2086;" horiz-adv-x="314" 
d="M159 -147v-2q-57 0 -95 36t-38 89q0 28 9 53q9 28 30 59l78 122h102l-81 -117h6q54 0 88 -33t34 -83q0 -52 -39 -88t-94 -36zM113 -25l2 -2q0 -20 13 -33t33 -13t32 14q12 13 12 33t-13 33q-14 14 -33 14q-20 0 -33 -13t-13 -33z" />
    <glyph glyph-name="seven.inferior" unicode="&#x2087;" horiz-adv-x="292" 
d="M172 127h-148v84h247v-72l-129 -280h-98z" />
    <glyph glyph-name="eight.inferior" unicode="&#x2088;" horiz-adv-x="330" 
d="M300 -37h-3q0 -48 -37 -79t-99 -31q-58 0 -96 32t-38 78q0 28 14 51q13 22 39 36q-17 14 -26 33t-9 40q0 41 33 68t85 27q53 0 86 -27t33 -68q0 -21 -9 -40t-26 -33q25 -14 39 -36q14 -23 14 -51zM123 113l1 1q0 -14 11 -25t27 -9q19 2 28 11q10 9 10 24t-11 24t-29 9
q-17 0 -27 -10t-10 -25zM114 -33h-1q0 -19 13 -31q14 -12 36 -12t36 12t14 31q0 20 -13 33t-36 13t-36 -13t-13 -33z" />
    <glyph glyph-name="nine.inferior" unicode="&#x2089;" horiz-adv-x="313" 
d="M155 217l-1 1q58 0 95 -36q38 -36 38 -88q0 -28 -9 -53q-9 -28 -30 -59l-78 -122h-102l81 117h-6q-54 0 -88 33t-34 83q0 52 39 88t95 36zM200 94l-2 -2q0 20 -13 33q-14 14 -33 14q-20 0 -32 -13q-12 -14 -12 -33q0 -20 13 -33t33 -13q19 0 33 14q13 13 13 33z" />
    <glyph glyph-name="franc" unicode="&#x20a3;" horiz-adv-x="889" 
d="M221 0h-131v703h412v-120h-281v-177h257v-119h-257v-287zM823 399l-1 -2q-66 0 -103 -42q-37 -40 -37 -111v-246h-125v507h119v-90q26 48 65 74q41 26 89 26h15q10 0 12 -1v-119l-16 3q-7 1 -18 1z" />
    <glyph glyph-name="Euro" unicode="&#x20ac;" horiz-adv-x="672" 
d="M247 325l149 -3v-88h-150q3 -60 36 -93t89 -33q58 0 91 33t33 95h131q0 -119 -70 -185t-186 -66q-112 0 -183 66q-70 66 -73 184h-71v88h71v52h-71v88h71q3 119 73 185q71 66 183 66q116 0 186 -66t70 -185h-131q0 59 -33 94q-33 34 -90 34q-56 0 -89 -33t-36 -93h150
v-88h-150v-52z" />
    <glyph glyph-name="uni2113" unicode="&#x2113;" horiz-adv-x="463" 
d="M111 207l-70 -41v120l68 39v199q0 89 46 138q47 51 124 51q73 0 116 -42q44 -42 44 -108q0 -77 -45 -143t-140 -128l-19 -12v-87q0 -53 15 -74t50 -21q21 0 45 8q21 8 42 24v-113q-24 -17 -51 -24q-24 -7 -61 -7q-83 0 -124 48q-40 46 -40 149v24zM284 603l-1 -1
q-24 0 -36 -18t-12 -50v-132q48 35 69 71t21 80q0 22 -11 36t-30 14z" />
    <glyph glyph-name="trademark" unicode="&#x2122;" horiz-adv-x="862" 
d="M221 323h-88v297h-101v83h290v-83h-101v-297zM444 323h-86v380h98l118 -231l121 231h94v-380h-85v221l-113 -221h-35l-112 224v-224z" />
    <glyph glyph-name="Omega" unicode="&#x2126;" horiz-adv-x="799" 
d="M351 0l-289 1v119h140q-78 54 -116 123q-38 68 -38 147q0 140 99 234q97 94 251 94t251 -94q99 -94 99 -234q0 -80 -39 -147q-39 -68 -115 -123h139v-119h-288v148q85 43 127 102t42 132q0 86 -62 148q-61 61 -155 61q-92 0 -153 -61q-62 -62 -62 -148q0 -75 42 -133
q42 -59 127 -102v-148z" />
    <glyph glyph-name="estimated" unicode="&#x212e;" horiz-adv-x="809" 
d="M412 50l-1 -1q83 0 152 42q69 43 107 115h81q-55 -105 -144 -162t-197 -57q-149 0 -259 107q-108 106 -108 258t108 258q110 107 260 107q163 0 263 -108q101 -110 101 -288h-551v-202q40 -32 88 -51q48 -18 100 -18zM410 650h-1q-52 0 -100 -18q-51 -18 -87 -49v-199
h370v204q-39 30 -85 46q-44 16 -97 16z" />
    <glyph glyph-name="uni2153" unicode="&#x2153;" horiz-adv-x="733" 
d="M210 351h-88v268h-68l21 84h135v-352zM568 703h103l-539 -703h-103zM419 105l84 2q3 -18 15 -28q10 -10 30 -10q19 0 33 11q12 10 12 30q0 22 -13 32q-14 11 -39 11h-29v63h26q22 0 34 9t12 26t-9 26t-26 9t-27 -10t-12 -27h-88q3 50 39 80t93 30q56 0 89 -27t33 -68
q0 -26 -12 -46q-12 -19 -34 -31q27 -11 41 -32q14 -23 14 -51q0 -46 -36 -78q-34 -31 -97 -31q-58 0 -94 30t-39 80z" />
    <glyph glyph-name="uni2154" unicode="&#x2154;" horiz-adv-x="786" 
d="M306 351l-261 -2v70l129 118q16 15 24 27q7 10 7 26q0 15 -10 24q-11 9 -27 9t-27 -11q-11 -10 -12 -27h-90q3 54 39 89q38 35 95 35q55 0 90 -30q34 -30 34 -79q0 -30 -15 -57t-55 -64l-48 -44h127v-84zM627 701h103l-539 -703h-103zM478 103l84 2q3 -18 15 -28
q10 -10 30 -10q19 0 33 11q12 10 12 30q0 22 -13 32q-14 11 -39 11h-29v63h26q22 0 34 9t12 26t-9 26t-26 9t-27 -10q-11 -10 -12 -27h-88q3 50 39 80t93 30q56 0 89 -27t33 -68q0 -26 -12 -46q-12 -19 -34 -31q27 -11 41 -32q14 -23 14 -51q0 -46 -36 -78q-34 -31 -97 -31
q-58 0 -94 30t-39 80z" />
    <glyph glyph-name="uni2155" unicode="&#x2155;" horiz-adv-x="731" 
d="M568 703h103l-539 -703h-103zM210 351h-88v268h-68l21 84h135v-352zM459 352h200v-80h-130l-4 -48l20 3q5 1 14 1q58 0 89 -31q33 -31 33 -84t-36 -87q-34 -34 -92 -34q-55 0 -93 30q-37 30 -42 80h90q4 -14 15 -21q10 -7 27 -7q19 0 31 12t12 29q0 18 -12 30t-30 12
q-14 0 -21 -4q-9 -5 -15 -12l-74 10z" />
    <glyph glyph-name="uni2156" unicode="&#x2156;" horiz-adv-x="780" 
d="M306 351l-261 -2v70l129 118q16 15 24 27q7 10 7 26q0 15 -10 24q-11 9 -27 9t-27 -11q-11 -10 -12 -27h-90q3 54 39 89q38 35 95 35q55 0 90 -30q34 -30 34 -79q0 -30 -15 -57t-55 -64l-48 -44h127v-84zM623 701h103l-539 -703h-103zM512 350h200v-80h-130l-4 -48l20 3
q5 1 14 1q58 0 89 -31q33 -31 33 -84t-36 -87q-34 -34 -92 -34q-56 0 -93 30t-42 80h90q5 -14 15 -21t27 -7q19 0 31 12t12 29q0 18 -12 30t-30 12q-14 0 -21 -4q-9 -5 -15 -12l-74 10z" />
    <glyph glyph-name="uni2157" unicode="&#x2157;" horiz-adv-x="752" 
d="M596 703h103l-539 -703h-103zM487 352h200v-80h-130l-4 -48l20 3q5 1 14 1q58 0 89 -31q33 -31 33 -84t-36 -87q-34 -34 -92 -34q-55 0 -93 30q-37 30 -42 80h90q4 -14 15 -21q10 -7 27 -7q19 0 31 12t12 29q0 18 -12 30t-30 12q-14 0 -21 -4q-9 -5 -15 -12l-74 10z
M36 456l84 2q3 -18 15 -28q10 -10 30 -10q19 0 33 11q12 11 12 30q0 22 -13 32q-14 11 -39 11h-29v63h26q22 0 34 9t12 26t-9 26t-26 9t-27 -10q-11 -11 -12 -27h-88q3 50 39 80t93 30q56 0 89 -27t33 -68q0 -27 -12 -46t-34 -31q27 -11 41 -32q14 -23 14 -51q0 -47 -36 -78
q-34 -31 -97 -31q-58 0 -94 30t-39 80z" />
    <glyph glyph-name="uni2158" unicode="&#x2158;" horiz-adv-x="783" 
d="M32 478l127 225h101l-125 -216h69v54l87 19v-73h26v-80h-26v-56h-87v56h-172v71zM623 703h103l-539 -703h-103zM514 352h200v-80h-130l-4 -48l20 3q5 1 14 1q58 0 89 -31q33 -31 33 -84t-36 -87q-34 -34 -92 -34q-56 0 -93 30t-42 80h90q5 -14 15 -21t27 -7q19 0 31 12
t12 29q0 18 -12 30t-30 12q-14 0 -21 -4q-9 -5 -15 -12l-74 10z" />
    <glyph glyph-name="uni2159" unicode="&#x2159;" horiz-adv-x="711" 
d="M531 -6v-2q-57 0 -95 36t-38 89q0 27 9 53q9 28 30 59l78 122h102l-81 -117h6q54 0 88 -33t34 -83q0 -52 -39 -88t-94 -36zM485 116l2 -2q0 -20 13 -33t33 -13t32 14t12 33q0 20 -13 33q-14 14 -33 14q-20 0 -33 -13t-13 -33zM212 347h-88v268h-68l21 84h135v-352z
M570 699h103l-539 -703h-103z" />
    <glyph glyph-name="uni215A" unicode="&#x215a;" horiz-adv-x="742" 
d="M566 -6v-2q-58 0 -95 36q-38 36 -38 89q0 27 9 53q9 28 30 59l78 122h102l-81 -117h6q53 0 88 -33q34 -33 34 -83q0 -52 -39 -88t-94 -36zM520 116l2 -2q0 -20 13 -33t33 -13t32 14t12 33q0 20 -13 33q-14 14 -33 14q-20 0 -33 -13t-13 -33zM605 699h103l-539 -703h-103z
M75 699h200v-80h-130l-4 -48l20 3q5 1 14 1q58 0 89 -31q33 -32 33 -84t-36 -87q-34 -34 -92 -34q-55 0 -93 30q-37 30 -42 80h90q4 -13 15 -21q10 -7 27 -7q19 0 31 12t12 29q0 18 -12 30t-30 12q-14 0 -21 -4q-9 -4 -15 -12l-74 10z" />
    <glyph glyph-name="uni215B" unicode="&#x215b;" horiz-adv-x="729" 
d="M568 703h103l-539 -703h-103zM210 351h-88v268h-68l21 84h135v-352zM684 104h-3q0 -48 -37 -79t-99 -31q-58 0 -96 32t-38 78q0 28 14 51q13 23 39 36q-17 14 -26 33t-9 40q0 41 33 68t85 27q53 0 86 -27t33 -68q0 -20 -9 -40q-9 -19 -26 -33q25 -13 39 -36t14 -51z
M507 254l1 1q0 -14 11 -25q11 -10 27 -9q19 2 28 11q10 9 10 24t-11 24t-29 9q-17 0 -27 -10t-10 -25zM498 108h-1q0 -19 13 -31q14 -12 36 -12t36 12t14 31q0 20 -13 33t-36 13t-36 -13t-13 -33z" />
    <glyph glyph-name="uni215C" unicode="&#x215c;" horiz-adv-x="753" 
d="M598 703h103l-539 -703h-103zM714 104h-3q0 -48 -37 -79t-99 -31q-58 0 -96 32t-38 78q0 28 14 51q13 23 39 36q-17 14 -26 33t-9 40q0 41 33 68t85 27q53 0 86 -27t33 -68q0 -20 -9 -40q-9 -19 -26 -33q25 -13 39 -36t14 -51zM537 254l1 1q0 -14 11 -25q11 -10 27 -9
q19 2 28 11q10 9 10 24t-11 24t-29 9q-17 0 -27 -10t-10 -25zM528 108h-1q0 -19 13 -31q14 -12 36 -12t36 12t14 31q0 20 -13 33t-36 13t-36 -13t-13 -33zM35 457l84 2q3 -18 15 -28q10 -10 30 -10q19 0 33 11q12 10 12 30q0 22 -13 32q-14 11 -39 11h-29v63h26q22 0 34 9
t12 26t-9 26t-26 9t-27 -10t-12 -27h-88q3 50 39 80t93 30q56 0 89 -27t33 -68q0 -26 -12 -46q-12 -19 -34 -31q27 -11 41 -32q14 -23 14 -51q0 -46 -36 -78q-34 -31 -97 -31q-58 0 -94 30t-39 80z" />
    <glyph glyph-name="uni215D" unicode="&#x215d;" horiz-adv-x="759" 
d="M603 703h103l-539 -703h-103zM73 703h200v-80h-130l-4 -48l20 3q5 1 14 1q58 0 89 -31q33 -32 33 -84t-36 -87q-34 -34 -92 -34q-55 0 -93 30q-37 30 -42 80h90q4 -13 15 -21q10 -7 27 -7q19 0 31 12t12 29q0 18 -12 30t-30 12q-14 0 -21 -4q-9 -4 -15 -12l-74 10z
M715 104h-3q0 -48 -37 -79t-99 -31q-58 0 -96 32t-38 78q0 28 14 51t39 36q-17 14 -26 33t-9 40q0 41 33 68t85 27q53 0 86 -27t33 -68q0 -20 -9 -40q-9 -19 -26 -33q26 -13 39 -36q14 -23 14 -51zM538 254l1 1q0 -14 11 -25q10 -10 27 -9q19 2 28 11q10 9 10 24t-11 24
q-10 9 -29 9q-17 0 -27 -10t-10 -25zM529 108h-1q0 -19 13 -31t36 -12t36 12q14 12 14 31q0 20 -13 33t-36 13t-36 -13t-13 -33z" />
    <glyph glyph-name="uni215E" unicode="&#x215e;" horiz-adv-x="733" 
d="M214 619h-148v84h247v-72l-129 -280h-98zM569 703h103l-539 -703h-103zM690 104h-3q0 -48 -37 -79t-99 -31q-58 0 -96 32t-38 78q0 28 14 51q13 23 39 36q-17 14 -26 33t-9 40q0 41 33 68t85 27q53 0 86 -27t33 -68q0 -20 -9 -40q-9 -19 -26 -33q25 -13 39 -36t14 -51z
M513 254l1 1q0 -14 11 -25q11 -10 27 -9q19 2 28 11q10 9 10 24t-11 24t-29 9q-17 0 -27 -10t-10 -25zM504 108h-1q0 -19 13 -31q14 -12 36 -12t36 12t14 31q0 20 -13 33t-36 13t-36 -13t-13 -33z" />
    <glyph glyph-name="uni215F" unicode="&#x215f;" horiz-adv-x="703" 
d="M224 351h-88v268h-68l21 84h135v-352zM580 703h103l-539 -703h-103z" />
    <glyph glyph-name="partialdiff" unicode="&#x2202;" horiz-adv-x="610" 
d="M28 241l-1 -2q0 100 68 171t167 71q54 0 99 -18q42 -16 76 -53q-27 105 -103 162q-75 57 -202 65v116q211 -6 322 -129t111 -343q0 -126 -78 -210t-194 -84q-112 0 -189 74q-76 73 -76 180zM440 239q0 58 -41 97t-104 39q-61 0 -102 -39t-41 -97q0 -59 41 -98t102 -39
q63 0 104 39t41 98z" />
    <glyph glyph-name="Delta" unicode="&#x2206;" horiz-adv-x="656" 
d="M259 703h140l225 -607v-96h-592v96zM325 551l-153 -434h306z" />
    <glyph glyph-name="product" unicode="&#x220f;" horiz-adv-x="756" 
d="M252 0h-131v583h-84v120h682v-120h-84v-583h-130v583h-253v-583z" />
    <glyph glyph-name="summation" unicode="&#x2211;" horiz-adv-x="606" 
d="M42 611v92h512v-120h-341l173 -214l-178 -249h356v-120h-519v85l203 276z" />
    <glyph glyph-name="minus" unicode="&#x2212;" horiz-adv-x="570" 
d="M56 301v99h458v-99h-458z" />
    <glyph glyph-name="uni2215" unicode="&#x2215;" horiz-adv-x="158" 
d="M297 703h103l-539 -703h-103z" />
    <glyph glyph-name="uni2219" unicode="&#x2219;" horiz-adv-x="432" 
d="M350 367h-1q0 -53 -38 -91q-37 -37 -93 -37t-93 37t-37 91q0 55 36 93q36 37 95 37q57 0 94 -37t37 -93z" />
    <glyph glyph-name="radical" unicode="&#x221a;" horiz-adv-x="583" 
d="M353 0h-140l-117 362h-75v110h173l90 -299l162 530h129z" />
    <glyph glyph-name="infinity" unicode="&#x221e;" horiz-adv-x="807" 
d="M222 439l-1 -4q56 0 102 -28q48 -30 82 -81q35 56 80 84q47 29 98 29q74 0 125 -51t51 -128t-51 -128t-125 -51q-53 0 -99 30t-84 86q-36 -59 -81 -87q-47 -29 -97 -29q-74 0 -125 51t-51 128t51 128t125 51zM225 337l1 -3q-35 0 -57 -22q-23 -23 -23 -58t23 -58
q22 -22 57 -22q31 0 57 20q25 20 48 63q-21 36 -48 58q-28 22 -58 22zM582 172v-2q34 0 57 23t23 59q0 37 -22 59q-23 23 -57 23q-32 0 -57 -19q-24 -19 -48 -58q20 -42 47 -63q25 -22 57 -22z" />
    <glyph glyph-name="integral" unicode="&#x222b;" horiz-adv-x="413" 
d="M269 555l1 -584q0 -98 -47 -148q-47 -48 -143 -48q-14 0 -40 2q-19 1 -37 6v110q20 -5 32 -6q8 -1 23 -1q44 0 65 21t21 66v585q0 99 47 149q46 48 143 48q20 0 39 -3q6 -1 19 -3t19 -4v-110q-11 3 -29 5t-26 2q-45 0 -66 -21t-21 -66z" />
    <glyph glyph-name="approxequal" unicode="&#x2248;" horiz-adv-x="570" 
d="M309 500h-4q31 -14 48 -18q13 -4 32 -4q32 0 54 13q23 14 50 51v-112q-15 -26 -45 -42q-28 -16 -68 -16q-20 0 -45 5q-21 5 -55 21q-30 16 -48 21q-22 5 -39 5q-32 0 -61 -17q-27 -16 -50 -51v108q14 26 47 45q35 20 70 20q25 0 49 -6q15 -4 65 -23zM305 300h-4
q31 -14 48 -18q13 -4 32 -4q32 0 54 13q23 14 50 51v-112q-15 -26 -45 -42q-28 -16 -68 -16q-20 0 -45 5q-21 5 -55 21q-30 16 -48 21q-22 5 -39 5q-32 0 -61 -17q-27 -16 -50 -51v108q14 26 47 45q35 20 70 20q25 0 49 -6q15 -4 65 -23z" />
    <glyph glyph-name="notequal" unicode="&#x2260;" horiz-adv-x="570" 
d="M216 105h-100l45 87h-105v100h156l60 116h-216v100h267l45 87h100l-45 -87h91v-100h-142l-60 -116h202v-100h-253z" />
    <glyph glyph-name="lessequal" unicode="&#x2264;" horiz-adv-x="570" 
d="M491 159l-419 190v100l419 190v-121l-264 -119l264 -119v-121zM72 3v100h419v-100h-419z" />
    <glyph glyph-name="greaterequal" unicode="&#x2265;" horiz-adv-x="570" 
d="M79 159v121l264 119l-264 119v121l419 -190v-100zM498 3h-419v100h419v-100z" />
    <glyph glyph-name="lozenge" unicode="&#x25ca;" horiz-adv-x="614" 
d="M265 -13l-234 378l237 351h78l237 -351l-234 -378h-84zM308 578l-146 -213l146 -235l144 235z" />
    <glyph glyph-name="zero.denominator" unicode="&#xf655;" horiz-adv-x="344" 
d="M308 123h-2q0 -62 -37 -96t-99 -34t-99 34t-37 96v108q0 60 38 93t99 33t99 -33t38 -93v-108zM170 275v-2q-23 0 -36 -13t-13 -36v-100q0 -23 13 -36t36 -13q22 0 36 14q13 13 13 36v100q0 23 -13 36q-14 14 -36 14z" />
    <glyph glyph-name="one.denominator" unicode="&#xf656;" horiz-adv-x="220" 
d="M171 0h-88v268h-68l21 84h135v-352z" />
    <glyph glyph-name="two.denominator" unicode="&#xf657;" horiz-adv-x="326" 
d="M295 0l-261 -2v70l129 118q17 15 24 27q7 10 7 26q0 15 -10 24t-27 9q-16 0 -27 -11q-10 -11 -12 -27h-90q3 54 39 89q38 35 95 35q56 0 90 -30t34 -79q0 -30 -15 -57t-55 -64l-48 -44h127v-84z" />
    <glyph glyph-name="three.denominator" unicode="&#xf658;" horiz-adv-x="324" 
d="M27 105l84 2q3 -18 15 -28q10 -10 30 -10q19 0 33 11q12 10 12 30q0 22 -13 32q-14 11 -39 11h-29v63h26q22 0 34 9t12 26t-9 26t-26 9t-27 -10t-12 -27h-88q3 50 39 80t93 30q56 0 89 -27t33 -68q0 -26 -12 -46q-12 -19 -34 -31q27 -11 41 -32q14 -23 14 -51
q0 -46 -36 -78q-34 -31 -97 -31q-58 0 -94 30t-39 80z" />
    <glyph glyph-name="four.denominator" unicode="&#xf659;" horiz-adv-x="332" 
d="M23 127l127 225h101l-125 -216h69v54l87 19v-73h26v-80h-26v-56h-87v56h-172v71z" />
    <glyph glyph-name="five.denominator" unicode="&#xf65a;" horiz-adv-x="313" 
d="M61 352h200v-80h-130l-4 -48l20 3q5 1 14 1q58 0 89 -31q33 -31 33 -84t-36 -87q-34 -34 -92 -34q-55 0 -93 30q-37 30 -42 80h90q4 -14 15 -21q10 -7 27 -7q19 0 31 12t12 29q0 18 -12 30t-30 12q-14 0 -21 -4q-9 -5 -15 -12l-74 10z" />
    <glyph glyph-name="six.denominator" unicode="&#xf65b;" horiz-adv-x="313" 
d="M158 -6v-2q-58 0 -95 36q-38 36 -38 89q0 27 9 53q9 28 30 59l78 122h102l-81 -117h6q53 0 88 -33q34 -33 34 -83q0 -52 -39 -88t-94 -36zM112 116l2 -2q0 -20 13 -33t33 -13t32 14t12 33q0 20 -13 33q-14 14 -33 14q-20 0 -33 -13t-13 -33z" />
    <glyph glyph-name="seven.denominator" unicode="&#xf65c;" horiz-adv-x="293" 
d="M173 268h-148v84h247v-72l-129 -280h-98z" />
    <glyph glyph-name="eight.denominator" unicode="&#xf65d;" horiz-adv-x="330" 
d="M300 104h-3q0 -48 -37 -79t-99 -31q-58 0 -96 32t-38 78q0 28 14 51q13 23 39 36q-17 14 -26 33q-9 20 -9 40q0 41 33 68t85 27q53 0 86 -27t33 -68q0 -20 -9 -40q-9 -19 -26 -33q25 -13 39 -36t14 -51zM123 254l1 1q0 -14 11 -25q11 -10 27 -9q19 2 28 11q10 9 10 24
t-11 24t-29 9q-17 0 -27 -10t-10 -25zM114 108h-1q0 -19 13 -31q14 -12 36 -12t36 12t14 31q0 20 -13 33t-36 13t-36 -13t-13 -33z" />
    <glyph glyph-name="nine.denominator" unicode="&#xf65e;" horiz-adv-x="313" 
d="M155 358l-1 1q58 0 95 -36q38 -36 38 -88q0 -28 -9 -53q-9 -28 -30 -59l-78 -122h-102l81 117h-6q-54 0 -88 33t-34 83q0 52 39 88t95 36zM200 235l-2 -2q0 20 -13 33q-14 14 -33 14q-20 0 -32 -13t-12 -33t13 -33t33 -13q19 0 33 14q13 13 13 33z" />
    <glyph glyph-name="zero.numerator" unicode="&#xf661;" horiz-adv-x="344" 
d="M308 474h-2q0 -62 -37 -96t-99 -34t-99 34t-37 96v108q0 60 38 93t99 33t99 -33t38 -93v-108zM170 626v-2q-23 0 -36 -13t-13 -36v-100q0 -23 13 -36t36 -13q22 0 36 14q13 13 13 36v100q0 23 -13 36q-14 14 -36 14z" />
    <glyph glyph-name="one.numerator" unicode="&#xf662;" horiz-adv-x="218" 
d="M170 351h-88v268h-68l21 84h135v-352z" />
    <glyph glyph-name="two.numerator" unicode="&#xf663;" horiz-adv-x="327" 
d="M296 351l-261 -2v70l129 118q16 15 24 27q7 10 7 26q0 15 -10 24q-11 9 -27 9t-27 -11q-11 -10 -12 -27h-90q3 54 39 89q38 35 95 35q55 0 90 -30q34 -30 34 -79q0 -30 -15 -57t-55 -64l-48 -44h127v-84z" />
    <glyph glyph-name="three.numerator" unicode="&#xf664;" horiz-adv-x="324" 
d="M27 456l84 2q3 -18 15 -28q10 -10 30 -10q19 0 33 11q12 11 12 30q0 22 -13 32q-14 11 -39 11h-29v63h26q22 0 34 9t12 26t-9 26t-26 9t-27 -10q-10 -11 -12 -27h-88q3 50 39 80t93 30q56 0 89 -27t33 -68q0 -27 -12 -46t-34 -31q27 -11 41 -32q14 -23 14 -51
q0 -47 -36 -78q-34 -31 -97 -31q-58 0 -94 30t-39 80z" />
    <glyph glyph-name="four.numerator" unicode="&#xf665;" horiz-adv-x="333" 
d="M23 478l127 225h101l-125 -216h69v54l87 19v-73h26v-80h-26v-56h-87v56h-172v71z" />
    <glyph glyph-name="five.numerator" unicode="&#xf666;" horiz-adv-x="311" 
d="M60 703h200v-80h-130l-4 -48l20 3q5 1 14 1q58 0 89 -31q33 -32 33 -84t-36 -87q-34 -34 -92 -34q-56 0 -93 30t-42 80h90q5 -13 15 -21q10 -7 27 -7q19 0 31 12t12 29q0 18 -12 30t-30 12q-14 0 -21 -4q-9 -4 -15 -12l-74 10z" />
    <glyph glyph-name="six.numerator" unicode="&#xf667;" horiz-adv-x="314" 
d="M159 345v-2q-57 0 -95 36t-38 89q0 28 9 53q9 28 30 59l78 122h102l-81 -117h6q54 0 88 -33t34 -83q0 -52 -39 -88t-94 -36zM113 467l2 -2q0 -20 13 -33t33 -13t32 14q12 13 12 33t-13 33q-14 14 -33 14q-20 0 -33 -13t-13 -33z" />
    <glyph glyph-name="seven.numerator" unicode="&#xf668;" horiz-adv-x="292" 
d="M172 619h-148v84h247v-72l-129 -280h-98z" />
    <glyph glyph-name="eight.numerator" unicode="&#xf669;" horiz-adv-x="330" 
d="M300 455h-3q0 -48 -37 -79t-99 -31q-58 0 -96 32t-38 78q0 28 14 51q13 22 39 36q-17 14 -26 33t-9 40q0 41 33 68t85 27q53 0 86 -27t33 -68q0 -21 -9 -40t-26 -33q25 -14 39 -36q14 -23 14 -51zM123 605l1 1q0 -14 11 -25t27 -9q19 2 28 11q10 9 10 24t-11 24t-29 9
q-17 0 -27 -10t-10 -25zM114 459h-1q0 -19 13 -31q14 -12 36 -12t36 12t14 31q0 20 -13 33t-36 13t-36 -13t-13 -33z" />
    <glyph glyph-name="nine.numerator" unicode="&#xf66a;" horiz-adv-x="314" 
d="M155 709l-1 1q58 0 95 -36q38 -36 38 -88q0 -28 -9 -53q-9 -28 -30 -59l-78 -122h-102l81 117h-6q-54 0 -88 33t-34 83q0 52 39 88t95 36zM200 586l-2 -2q0 20 -13 33q-14 14 -33 14q-20 0 -32 -13q-12 -14 -12 -33q0 -20 13 -33t33 -13q19 0 33 14q13 13 13 33z" />
    <glyph glyph-name="commaaccent" unicode="&#xf6c3;" horiz-adv-x="200" 
d="M158 -149l-52 -117h-67l41 88q-20 6 -32 24t-12 38q0 29 18 47t47 18t47 -18t18 -46q0 -4 -2 -18q-2 -9 -6 -16z" />
    <glyph glyph-name="uniF8FF" unicode="&#xf8ff;" horiz-adv-x="1438" 
d="M741 523v-36h31q3 0 9 -2q3 -1 3 -8v-27q0 -6 -3 -9t-9 -3h-31v-77q0 -9 6 -13q4 -4 18 -4h10q6 0 9 -3t3 -9v-27q0 -6 -3 -9t-9 -3h-19q-40 0 -60 14q-18 13 -18 47v84h-17q-6 0 -9 3t-3 9v25q0 1 2 7q1 3 9 5l16 1h1v36q0 6 3 9t9 3h39q7 0 10 -3t3 -10zM350 488l40 -2
q6 0 9 -3t3 -9v-6q15 11 30 17q17 5 29 5q17 0 30 -6q14 -6 21 -19q19 16 31 20q15 6 33 6q26 0 41 -15t15 -39v-132q0 -6 -3 -9t-10 -3h-38q-7 0 -10 3t-3 9v116q0 10 -3 13t-11 3q-11 0 -19 -4q-7 -4 -19 -12v-117q0 -6 -3 -9t-9 -3h-38q-7 0 -10 3t-3 9v116q0 10 -3 13
t-12 3q-11 0 -19 -4q-9 -3 -18 -10v-117q0 -3 -2 -9q-1 -3 -8 -3h-41q-6 0 -9 3t-3 9v171q0 6 3 9t9 3zM1019 486h36q7 0 10 -3t3 -9l1 -7q15 12 29 17q17 5 30 5q28 0 43 -15t15 -44v-80q0 -30 -15 -46t-43 -16q-13 0 -30 5q-14 5 -27 15v-83q0 -6 -3 -9t-9 -3h-40
q-6 0 -9 3t-3 9v249q0 6 3 9t9 3zM226 490l-1 -1q41 0 62 -15t21 -46v-43q0 -6 -3 -9t-9 -3h-93v-23q0 -8 6 -13q4 -4 18 -4q10 0 18 5q6 4 6 14v1q0 6 3 9t9 3h32q6 0 9 -3t3 -9v-3q0 -31 -20 -46q-19 -15 -60 -15t-63 16t-22 46v79q0 30 21 45t63 15zM1299 489l-3 -1
q41 0 62 -15t21 -46v-43q0 -6 -3 -9t-9 -3h-94v-23q0 -9 6 -13q4 -4 18 -4q10 0 18 5q6 4 6 14v1q0 6 3 9t9 3h32q6 0 9 -3t3 -9v-3q0 -31 -19 -46q-20 -15 -60 -15q-43 0 -62 16q-21 17 -21 46v79q0 30 21 45t63 15zM858 473l17 -71q3 -7 5 -22q0 -3 0.5 -5.5t1 -4t0.5 -3
v-2.5q1 1 4 13q1 4 2.5 11.5t3.5 11.5l24 72q2 8 5 9q6 2 8 2h37q7 0 10 -3q3 -5 2 -8l-84 -249q-2 -4 -5 -8q-3 -3 -8 -3h-28q-7 0 -10 3t-1 8l16 59l-65 190q-2 5 1 8t11 3h40q2 0 8 -2q3 -1 5 -9zM217 441v-2q-14 0 -18 -4q-6 -5 -6 -13v-11h48v11q0 9 -6 14q-8 5 -18 5z
M1291 439l1 -2q-14 0 -18 -4q-6 -5 -6 -13v-11h47v11q0 10 -6 14q-8 5 -18 5zM1099 335l1 1q9 0 13 4t4 13v62q0 8 -4 11q-5 3 -13 3t-15 -3q-5 -1 -22 -12v-63q6 -4 14 -7.5t10 -5.5q6 -3 12 -3zM561 224l-2 -41h47q3 0 3 -1v-3v-8q0 -3 -1 -4t-3 -1h-47v-124q0 -16 12 -25
t38 -9h6q2 0 3 -1q2 -2 2 -3v-7q0 -2 -1 -3t-3 -1h-9q-33 0 -50 11q-15 10 -15 36v126h-25q-2 0 -3 1t-1 4v7q0 2 1 3l3 3h25v41v4q0 1 3 1h11l3 -3zM407 187l-4 1q35 0 51 -12q17 -12 17 -36v-49q0 -2 -1 -3t-3 -1h-114v-48q0 -17 12 -24q14 -8 38 -8q22 0 36 8q12 7 12 24
v8q0 2 1 3t6 1h9q3 0 4 -1t1 -3v-9q0 -25 -17 -37t-51 -12t-51 12t-17 36v102q0 24 18 36t53 12zM153 181l3 -21q16 12 33 18t33 6q26 0 39 -12q14 -12 14 -33v-144q0 -2 -1 -3t-3 -1h-11h-3q-1 0 -1 5v140q0 16 -10 23q-11 8 -30 8t-35 -6q-17 -6 -27 -16v-148q0 -2 -1 -3
t-3 -1h-11q-3 0 -4 1t-1 4v183q0 2 1 3t4 1h9q3 0 4 -1t1 -3zM406 167h-1q-23 0 -37 -8q-12 -7 -12 -24v-36h98v36q0 17 -12 24q-14 8 -36 8zM71 24v-30q0 -3 -1 -4t-4 -1h-11q-2 0 -3 1t-1 4v30q0 3 1 4t3 1h11q3 0 4 -1t1 -4z" />
    <glyph glyph-name="f_f" unicode="&#xfb00;" horiz-adv-x="733" 
d="M239 0l-124 -2v395h-82v112h82v50q0 97 48 147t142 50q13 0 39 -2q19 -1 37 -6v-110q-18 5 -31 6q-18 2 -24 2q-45 0 -66 -21t-21 -67v-48h228v50q0 98 48 147q48 50 142 50q13 0 39 -2q20 -1 39 -6v-110q-18 5 -31 6q-18 2 -24 2q-45 0 -66 -21t-21 -67v-48h124v-112
h-124v-395h-126v395h-228v-395z" />
    <glyph glyph-name="fi" unicode="&#xfb01;" horiz-adv-x="653" 
d="M239 0h-125v395h-82v112h82v50q0 97 48 147t142 50q14 0 38 -2q18 -2 33 -6v-110q-9 3 -25 5t-24 2q-45 0 -66 -21t-21 -67v-48h124v-112h-124v-395zM434 661l-2 -1q0 34 23 57q22 22 59 22t59 -22q23 -23 23 -57t-23 -57q-22 -22 -59 -22q-35 0 -58 23q-22 22 -22 57z
M576 -1h-125v507h125v-507z" />
    <glyph glyph-name="fl" unicode="&#xfb02;" horiz-adv-x="653" 
d="M239 0h-125v395h-82v112h82v50q0 97 48 147t142 50q14 0 38 -2q18 -2 33 -6v-110q-9 3 -25 5t-24 2q-45 0 -66 -21t-21 -67v-48h124v-112h-124v-395zM453 741h125v-741h-125v741z" />
    <glyph glyph-name="f_f_i" unicode="&#xfb03;" horiz-adv-x="1006" 
d="M239 0l-123 -1v395h-82v112h82v50q0 98 48 147q48 50 142 50q13 0 39 -2q19 -1 37 -6v-110q-18 5 -31 6q-18 2 -24 2q-45 0 -66 -21t-21 -67v-48h228v50q0 97 48 147t142 50q14 0 38 -2q18 -2 34 -6v-110q-11 3 -27 5t-23 2q-45 0 -66 -21t-21 -67v-48h124v-112h-124
v-395h-126v395h-228v-395zM790 660l-2 -1q0 34 23 57q22 22 59 22t59 -22q23 -23 23 -57t-23 -57q-22 -22 -59 -22q-35 0 -58 23q-22 22 -22 57zM932 -2h-125v507h125v-507z" />
    <glyph glyph-name="f_f_l" unicode="&#xfb04;" horiz-adv-x="1006" 
d="M239 0l-123 -1v395h-82v112h82v50q0 98 48 147q48 50 142 50q13 0 39 -2q19 -1 37 -6v-110q-18 5 -31 6q-18 2 -24 2q-45 0 -66 -21t-21 -67v-48h228v50q0 97 48 147t142 50q14 0 38 -2q18 -2 34 -6v-110q-11 3 -27 5t-23 2q-45 0 -66 -21t-21 -67v-48h124v-112h-124
v-395h-126v395h-228v-395zM809 740h125v-741h-125v741z" />
    <glyph glyph-name="longs_t" unicode="&#xfb05;" horiz-adv-x="690" 
d="M198 0l-124 -1v557q0 99 47 149q46 48 143 48q13 0 39 -2q19 -1 37 -6v-110q-16 5 -30 6q-18 2 -25 2q-45 0 -66 -21t-21 -67v-555zM397 506v150l125 29v-179h125v-112h-125v-219q0 -40 17 -60q17 -18 54 -18q16 0 36 5q17 5 35 15v-110q-20 -9 -47 -16q-24 -6 -52 -6
q-84 0 -126 45t-42 135v229h-81v112h81z" />
    <glyph glyph-name="zero.tab" unicode="&#xff10;" horiz-adv-x="600" 
d="M560 247v-1q0 -123 -72 -192t-189 -69t-189 69t-72 192v210q0 122 72 191t189 69t189 -69t72 -190v-210zM298 591l-3 -1q-59 0 -94 -36q-34 -34 -34 -100v-209q0 -66 34 -100q35 -36 96 -36t96 36q35 38 35 100v209q0 67 -34 101q-34 36 -96 36z" />
    <glyph glyph-name="one.tab" unicode="&#xff11;" horiz-adv-x="600" 
d="M527 0h-433v119h151v464h-141l31 120h241v-584h151v-119z" />
    <glyph glyph-name="two.tab" unicode="&#xff12;" horiz-adv-x="600" 
d="M558 0l-512 3v101l280 264q42 38 57 68q17 32 17 62q0 43 -29 70t-77 27q-54 0 -87 -33q-32 -32 -37 -88h-134q6 108 78 176q74 68 187 68q108 0 172 -58q66 -58 66 -153q0 -62 -28 -114q-29 -53 -108 -126l-159 -147h314v-120z" />
    <glyph glyph-name="three.tab" unicode="&#xff13;" horiz-adv-x="600" 
d="M43 206h134q4 -43 39 -70q34 -27 85 -27q52 0 85 30t33 75q0 50 -33 77t-91 27h-74v96h78q42 0 71 26q27 26 27 69q0 39 -28 63q-29 24 -75 24t-75 -24t-32 -66h-132q5 92 71 152t173 60q103 0 166 -54t63 -134q0 -53 -24 -94q-24 -40 -69 -63q57 -22 86 -66t29 -105
q0 -92 -69 -153q-67 -61 -181 -61q-112 0 -181 60q-69 59 -76 158z" />
    <glyph glyph-name="four.tab" unicode="&#xff14;" horiz-adv-x="600" 
d="M22 232l268 471h151l-263 -453h198v140l128 30v-170h71v-117h-71v-133h-128v133h-354v99z" />
    <glyph glyph-name="five.tab" unicode="&#xff15;" horiz-adv-x="600" 
d="M118 703l388 1v-120h-283l-14 -146q21 9 50 16q25 6 51 6q110 0 174 -63t64 -169q0 -103 -72 -172t-178 -69t-180 62q-74 61 -81 159h134q6 -45 40 -73t84 -28q51 0 89 35q36 34 36 84q0 52 -34 85t-90 33q-35 0 -62 -12t-45 -36l-106 13z" />
    <glyph glyph-name="six.tab" unicode="&#xff16;" horiz-adv-x="600" 
d="M307 -13l-2 -1q-109 0 -183 72t-74 176q0 49 18 103q20 58 49 101l177 266h152l-174 -245q14 5 30 6q22 2 33 2q97 0 165 -68t68 -165q0 -103 -75 -175t-184 -72zM177 232l-2 -1q0 -55 36 -93q36 -37 92 -37t92 37q36 38 36 93q0 53 -36 89t-91 36t-91 -36t-36 -88z" />
    <glyph glyph-name="seven.tab" unicode="&#xff17;" horiz-adv-x="600" 
d="M394 583h-335v120h485v-103l-287 -600h-146z" />
    <glyph glyph-name="eight.tab" unicode="&#xff18;" horiz-adv-x="600" 
d="M553 204h-3q0 -95 -70 -156t-183 -61q-112 0 -183 62q-70 61 -70 156q0 55 27 101t77 75q-34 27 -54 65q-19 37 -19 81q0 81 63 135t161 54q97 0 160 -54t63 -135q0 -44 -19 -81q-20 -38 -54 -65q50 -29 77 -75t27 -102zM194 516l-1 -2q0 -39 29 -65t75 -26t75 26t29 66
q0 41 -28 66q-29 26 -75 26t-75 -26t-29 -65zM172 208l-1 -3q0 -46 35 -78q34 -31 89 -31t90 32t35 78q0 49 -34 80q-35 32 -90 32q-56 0 -90 -31t-34 -79z" />
    <glyph glyph-name="nine.tab" unicode="&#xff19;" horiz-adv-x="600" 
d="M293 716l2 -1q109 0 183 -72t74 -175q0 -49 -18 -103t-49 -100l-177 -266h-152l174 245q-14 -4 -30 -6q-22 -2 -33 -2q-97 0 -165 68t-68 165q0 103 75 175t184 72zM423 469l-2 -1q0 56 -36 93t-91 37t-91 -37t-36 -93q0 -52 36 -88t92 -36t92 36t36 89z" />
    <glyph glyph-name="Lgeminada" horiz-adv-x="1059" 
d="M513 0h-428v703h131v-583h297v-120zM502 355l4 -1q0 -36 -25 -60t-63 -24t-63 24t-25 60q0 38 24 62t62 24t62 -24t24 -61zM1047 -1h-428v703h131v-583h297v-120z" />
    <glyph glyph-name="lgeminada" horiz-adv-x="699" 
d="M74 741h125v-741h-125v741zM437 355l4 -1q0 -36 -25 -60q-26 -24 -63 -24t-63 24q-25 24 -25 60q0 38 24 62t62 24t62 -24t24 -61zM504 740h125v-741h-125v741z" />
    <glyph glyph-name="caron.salt" horiz-adv-x="214" 
d="M171 634l-54 -130h-75l47 112q-23 8 -36 26q-13 16 -13 41q0 30 21 51t52 21t52 -21t21 -51q0 -9 -3 -19t-12 -30z" />
    <glyph glyph-name="commaaccent.salt" horiz-adv-x="198" 
d="M35 670l52 114h68l-42 -88q22 -6 32 -22q12 -16 12 -37q0 -28 -18 -46t-47 -18t-47 18t-18 47q0 1 2 15q2 8 6 17z" />
    <glyph glyph-name="acute.case" horiz-adv-x="336" 
d="M167 763h-120l82 147h121z" />
    <glyph glyph-name="grave.case" horiz-adv-x="336" 
d="M129 763l-83 147h121l81 -147h-119z" />
    <glyph glyph-name="hungarumlaut.case" horiz-adv-x="358" 
d="M116 910h114l-70 -147h-113zM267 910h114l-70 -147h-113z" />
    <glyph glyph-name="circumflex.case" horiz-adv-x="364" 
d="M35 763l107 147h131l107 -147h-111l-62 84l-63 -84h-109z" />
    <glyph glyph-name="caron.case" horiz-adv-x="364" 
d="M32 910h109l63 -84l62 84h111l-107 -147h-131z" />
    <glyph glyph-name="breve.case" horiz-adv-x="379" 
d="M196 752l-2 -1q-69 0 -112 43q-45 44 -45 108h92q0 -32 18 -51t48 -19t48 20t18 51h92q0 -65 -45 -108q-43 -43 -112 -43z" />
    <glyph glyph-name="tilde.case" horiz-adv-x="391" 
d="M227 869q17 -13 20 -15q6 -3 11 -3q12 0 18 11q6 10 9 36h84q-5 -68 -30 -101t-73 -33q-20 0 -36 6t-39 26q-14 14 -21 17q-8 3 -15 3q-17 0 -24 -12q-7 -9 -10 -37h-84q5 69 32 102q27 35 78 35q23 0 38 -7q17 -7 42 -28z" />
    <glyph glyph-name="macron.case" horiz-adv-x="382" 
d="M326 784h-280v85h280v-85z" />
    <glyph glyph-name="dieresis.case" horiz-adv-x="356" 
d="M175 831q0 -27 -18 -46t-45 -19t-46 19t-19 46q0 29 18 48t47 19q27 0 45 -19t18 -48zM337 831q0 -27 -18 -46t-45 -19q-29 0 -48 19t-19 46q0 29 19 48t48 19q27 0 45 -19t18 -48z" />
    <glyph glyph-name="dotaccent.case" horiz-adv-x="320" 
d="M189 837h1q0 -30 -21 -51t-51 -21q-29 0 -50 21t-21 51q0 29 21 50t50 21t50 -21t21 -50z" />
    <glyph glyph-name="ring.case" horiz-adv-x="354" 
d="M260 859q0 -45 -33 -75t-79 -30t-78 30t-32 75q0 44 32 76q31 31 78 31q48 0 79 -31q33 -31 33 -76zM108 859h-1q0 -17 12 -29t29 -12q18 0 30 12t12 29q0 18 -12 30t-30 12q-16 0 -28 -12t-12 -30z" />
    <glyph glyph-name="G.alt" horiz-adv-x="801" 
d="M606 262l-206 1v101h353v-20q0 -160 -99 -258q-101 -98 -256 -98t-257 105t-102 260q0 153 104 260q103 105 261 105q129 0 223 -70q96 -71 127 -186h-144q-26 62 -80 96q-56 35 -124 35q-98 0 -162 -69q-65 -71 -65 -171q0 -103 63 -172t160 -69q79 0 133 39
q54 38 71 111z" />
    <glyph glyph-name="Gcircumflex.alt" horiz-adv-x="801" 
d="M228 763l107 147h131l107 -147h-111l-62 84l-63 -84h-109zM606 262l-206 1v101h353v-20q0 -160 -99 -258q-101 -98 -256 -98t-257 105t-102 260q0 153 104 260q103 105 261 105q129 0 223 -70q96 -71 127 -186h-144q-26 62 -80 96q-56 35 -124 35q-98 0 -162 -69
q-65 -71 -65 -171q0 -103 63 -172t160 -69q79 0 133 39q54 38 71 111z" />
    <glyph glyph-name="Gbreve.alt" horiz-adv-x="801" 
d="M606 262l-206 1v101h353v-20q0 -160 -99 -258q-101 -98 -256 -98t-257 105t-102 260q0 153 104 260q103 105 261 105q129 0 223 -70q96 -71 127 -186h-144q-26 62 -80 96q-56 35 -124 35q-98 0 -162 -69q-65 -71 -65 -171q0 -103 63 -172t160 -69q79 0 133 39
q54 38 71 111zM396 753l-2 -1q-69 0 -112 43q-45 43 -45 108h92q0 -31 18 -51q18 -19 48 -19t48 20q18 19 18 51h92q0 -64 -45 -108q-43 -43 -112 -43z" />
    <glyph glyph-name="Gdotaccent.alt" horiz-adv-x="801" 
d="M472 837h1q0 -30 -21 -51t-51 -21q-29 0 -50 21t-21 51q0 29 21 50t50 21t50 -21t21 -50zM607 262l-206 1v101h353v-20q0 -160 -99 -258q-101 -98 -256 -98t-257 105t-102 260q0 153 104 260q104 105 261 105q129 0 223 -70q96 -71 127 -186h-144q-26 62 -80 96
q-56 35 -124 35q-97 0 -162 -69q-65 -71 -65 -171q0 -103 63 -172t160 -69q79 0 133 39q54 38 71 111z" />
    <glyph glyph-name="uni0122.alt" horiz-adv-x="801" 
d="M456 -161l-52 -117h-67l41 88q-20 6 -32 24t-12 38q0 29 18 47t47 18t47 -18t18 -46q0 -4 -2 -18q-2 -9 -6 -16zM607 260l-206 1v101h353v-20q0 -160 -99 -258q-101 -98 -256 -98t-257 105t-102 260q0 153 104 260q104 105 261 105q129 0 223 -70q96 -71 127 -186h-144
q-26 62 -80 96q-56 35 -124 35q-97 0 -162 -69q-65 -71 -65 -171q0 -103 63 -172t160 -69q79 0 133 39q54 38 71 111z" />
    <glyph glyph-name="a.alt" 
d="M284 -13l1 -1q-107 0 -176 75t-69 190q0 116 70 192t178 76q56 0 102 -24q47 -24 78 -67v78h118v-507h-118v81q-31 -44 -79 -69q-48 -24 -105 -24zM169 252v-1q0 -65 42 -108t107 -43q64 0 106 44t42 108t-42 108t-106 44q-65 0 -107 -43t-42 -109z" />
    <glyph glyph-name="agrave.alt" 
d="M284 -13l1 -1q-107 0 -176 75t-69 190q0 116 70 192t178 76q56 0 102 -24q47 -24 78 -67v78h118v-507h-118v81q-31 -44 -79 -69q-48 -24 -105 -24zM169 252v-1q0 -65 42 -108t107 -43q64 0 106 44t42 108t-42 108t-106 44q-65 0 -107 -43t-42 -109zM272 568l-83 147h121
l81 -147h-119z" />
    <glyph glyph-name="aacute.alt" 
d="M392 570h-120l82 147h121zM284 -13l1 -1q-107 0 -176 75t-69 190q0 116 70 192t178 76q56 0 102 -24q47 -24 78 -67v78h118v-507h-118v81q-31 -44 -79 -69q-48 -24 -105 -24zM169 252v-1q0 -65 42 -108t107 -43q64 0 106 44t42 108t-42 108t-106 44q-65 0 -107 -43
t-42 -109z" />
    <glyph glyph-name="acircumflex.alt" 
d="M159 570l107 147h131l107 -147h-111l-62 84l-63 -84h-109zM284 -13l1 -1q-107 0 -176 75t-69 190q0 116 70 192t178 76q56 0 102 -24q47 -24 78 -67v78h118v-507h-118v81q-31 -44 -79 -69q-48 -24 -105 -24zM169 252v-1q0 -65 42 -108t107 -43q64 0 106 44t42 108
t-42 108t-106 44q-65 0 -107 -43t-42 -109z" />
    <glyph glyph-name="atilde.alt" 
d="M284 -13l1 -1q-107 0 -176 75t-69 190q0 116 70 192t178 76q56 0 102 -24q47 -24 78 -67v78h118v-507h-118v81q-31 -44 -79 -69q-48 -24 -105 -24zM169 252v-1q0 -65 42 -108t107 -43q64 0 106 44t42 108t-42 108t-106 44q-65 0 -107 -43t-42 -109zM357 676
q17 -13 20 -15q6 -3 11 -3q12 0 18 11t9 36h84q-5 -68 -30 -101t-73 -33q-20 0 -36 6t-39 26q-14 14 -21 17q-8 3 -15 3q-17 0 -24 -12q-7 -9 -10 -37h-84q5 69 32 102q27 35 78 35q23 0 38 -7q17 -7 42 -28z" />
    <glyph glyph-name="adieresis.alt" 
d="M315 639q0 -27 -18 -46t-45 -19t-46 19t-19 46q0 29 18 48t47 19q27 0 45 -19t18 -48zM477 639q0 -27 -18 -46t-45 -19q-29 0 -48 19t-19 46q0 29 19 48t48 19q27 0 45 -19t18 -48zM284 -13l1 -1q-107 0 -176 75t-69 190q0 116 70 192t178 76q56 0 102 -24q47 -24 78 -67
v78h118v-507h-118v81q-31 -44 -79 -69q-48 -24 -105 -24zM169 252v-1q0 -65 42 -108t107 -43q64 0 106 44t42 108t-42 108t-106 44q-65 0 -107 -43t-42 -109z" />
    <glyph glyph-name="aring.alt" 
d="M442 667q0 -45 -33 -75t-79 -30t-78 30t-32 75q0 44 32 76q31 31 78 31q48 0 79 -31q33 -32 33 -76zM290 667h-1q0 -17 12 -29t29 -12q18 0 30 12t12 29q0 18 -12 30t-30 12q-16 0 -28 -12t-12 -30zM283 -13l1 -1q-107 0 -176 75t-69 190q0 116 70 192t178 76
q55 0 102 -24t78 -67v78h118v-507h-118v81q-31 -44 -79 -69q-48 -24 -105 -24zM168 252v-1q0 -65 42 -108t107 -43q64 0 106 44t42 108t-42 108t-106 44q-65 0 -107 -43t-42 -109z" />
    <glyph glyph-name="amacron.alt" 
d="M284 -13l1 -1q-107 0 -176 75t-69 190q0 116 70 192t178 76q56 0 102 -24q47 -24 78 -67v78h118v-507h-118v81q-31 -44 -79 -69q-48 -24 -105 -24zM169 252v-1q0 -65 42 -108t107 -43q64 0 106 44t42 108t-42 108t-106 44q-65 0 -107 -43t-42 -109zM473 590h-280v85h280
v-85z" />
    <glyph glyph-name="abreve.alt" 
d="M284 -13l1 -1q-107 0 -176 75t-69 190q0 116 70 192t178 76q56 0 102 -24q47 -24 78 -67v78h118v-507h-118v81q-31 -44 -79 -69q-48 -24 -105 -24zM169 252v-1q0 -65 42 -108t107 -43q64 0 106 44t42 108t-42 108t-106 44q-65 0 -107 -43t-42 -109zM333 558l-2 -1
q-69 0 -112 43q-45 44 -45 108h92q0 -32 18 -51t48 -19t48 20t18 51h92q0 -65 -45 -108q-43 -43 -112 -43z" />
    <glyph glyph-name="aogonek.alt" 
d="M284 -13l2 -1q-107 0 -176 75t-69 190q0 116 70 192t178 76q55 0 102 -24t78 -67v78h118v-507h-25q-56 -67 -68 -85q-18 -28 -18 -51q0 -19 11 -30q10 -10 30 -10q11 0 25 3q11 3 24 11v-83q-20 -12 -39 -18t-42 -6q-49 0 -81 29t-32 75q0 34 18 67t78 99v80
q-31 -44 -79 -69q-48 -24 -105 -24zM170 252v-1q0 -65 42 -108t107 -43q64 0 106 44t42 108t-42 108t-106 44q-65 0 -107 -43t-42 -109z" />
    </font>
</defs>
</svg>
