<?xml version="1.0" standalone="no"?>
<!DOCTYPE svg PUBLIC "-//W3C//DTD SVG 1.1//EN" "http://www.w3.org/Graphics/SVG/1.1/DTD/svg11.dtd" >
<svg xmlns="http://www.w3.org/2000/svg" xmlns:xlink="http://www.w3.org/1999/xlink" version="1.1">
<metadata>
Created by FontForge 20170731 at Wed Nov 14 22:10:28 2018
 By Aleksey,,,
Copyright (c) 2018 by Eduardo Manso. All rights reserved.
</metadata>
<defs>
<font id="SteradianLight" horiz-adv-x="570" >
  <font-face 
    font-family="Steradian Light"
    font-weight="300"
    font-stretch="normal"
    units-per-em="1000"
    panose-1="0 0 0 0 0 0 0 0 0 0"
    ascent="800"
    descent="-200"
    x-height="503"
    cap-height="703"
    bbox="-231 -256 1379 954"
    underline-thickness="36"
    underline-position="-232"
    unicode-range="U+000D-FF19"
  />
<missing-glyph horiz-adv-x="869" 
d="M779 352l-1 -1q0 -146 -103 -249t-247 -103q-145 0 -249 104q-103 103 -103 249q0 145 104 249q103 103 249 103q144 0 247 -103t103 -249zM94 351h-1q0 -138 98 -236t236 -98q136 0 234 98t98 236q0 137 -97 234q-98 98 -234 98q-134 0 -235 -98q-99 -97 -99 -234z
M586 213h-46l-116 114l-114 -113h-47l137 137l-134 135h46l112 -111l113 113h48l-137 -137z" />
    <glyph glyph-name=".notdef" horiz-adv-x="869" 
d="M779 352l-1 -1q0 -146 -103 -249t-247 -103q-145 0 -249 104q-103 103 -103 249q0 145 104 249q103 103 249 103q144 0 247 -103t103 -249zM94 351h-1q0 -138 98 -236t236 -98q136 0 234 98t98 236q0 137 -97 234q-98 98 -234 98q-134 0 -235 -98q-99 -97 -99 -234z
M586 213h-46l-116 114l-114 -113h-47l137 137l-134 135h46l112 -111l113 113h48l-137 -137z" />
    <glyph glyph-name=".null" horiz-adv-x="0" 
 />
    <glyph glyph-name="nonmarkingreturn" horiz-adv-x="333" 
 />
    <glyph glyph-name="NULL" horiz-adv-x="0" 
 />
    <glyph glyph-name="NULL" horiz-adv-x="0" 
 />
    <glyph glyph-name="CR" unicode="&#xd;" horiz-adv-x="259" 
 />
    <glyph glyph-name="space" unicode=" " horiz-adv-x="259" 
 />
    <glyph glyph-name="exclam" unicode="!" horiz-adv-x="266" 
d="M158 214h-50l-14 237v252h79v-252zM194 48h1q0 -25 -18 -43t-43 -18t-43 18t-18 43t17 42t42 17q24 0 44 -17q18 -16 18 -42z" />
    <glyph glyph-name="quotedbl" unicode="&#x22;" horiz-adv-x="327" 
d="M125 472h-48l-15 206v25h77v-25zM250 472h-48l-15 206v25h77v-25z" />
    <glyph glyph-name="numbersign" unicode="#" horiz-adv-x="640" 
d="M552 277l-15 -65h-108l-42 -168h-67l42 168h-152l-42 -168h-67l42 168h-108l15 65h109l38 148h-108l15 64h108l43 169h67l-43 -169h152l43 169h67l-43 -169h108l-15 -64h-108l-38 -148h107zM263 425l-37 -148h152l38 148h-153z" />
    <glyph glyph-name="dollar" unicode="$" horiz-adv-x="547" 
d="M309 -121l-79 -22v129q-92 14 -143 74t-55 162h80q4 -82 48 -126q43 -43 121 -43q68 0 107 36t39 99q0 43 -24 70t-103 55l-72 25q-41 14 -79 32q-27 14 -45 30q-26 23 -38 54q-12 32 -12 72q0 76 49 125t129 60v108l75 17v-126q83 -11 131 -66q48 -56 54 -149h-80
q-6 74 -43 111q-38 38 -103 38q-58 0 -96 -30q-37 -30 -37 -82q0 -28 9 -47t26 -33q9 -8 27 -17q17 -7 54 -21l86 -29q102 -34 137 -76q36 -42 36 -110q0 -91 -53 -147t-146 -63v-110z" />
    <glyph glyph-name="percent" unicode="%" horiz-adv-x="753" 
d="M368 546h-2q0 -70 -48 -116q-50 -47 -118 -47t-118 47q-48 46 -48 116q0 68 48 114q50 47 119 47t119 -47q48 -46 48 -114zM607 703h69l-536 -703h-70zM97 545h-2q0 -43 30 -73t74 -30t74 30t30 73q0 44 -30 74t-73 30t-73 -30t-30 -74zM713 158l-1 -2q0 -70 -48 -116
q-50 -47 -118 -47q-70 0 -117 47t-47 116t47 116t117 47q73 0 119 -46q48 -47 48 -115zM443 156l-2 -1q0 -43 30 -73t74 -30t74 30t30 74q0 43 -30 73t-73 30t-73 -30t-30 -73z" />
    <glyph glyph-name="ampersand" unicode="&#x26;" horiz-adv-x="677" 
d="M558 392l80 -2l-130 -223l156 -169h-96l-98 106q-39 -59 -94 -89q-56 -29 -123 -29q-89 0 -151 54q-61 54 -61 134q0 70 42 123q42 52 128 90q-45 51 -63 90t-18 79q0 68 51 114q49 46 126 46q73 0 120 -42t47 -106q0 -58 -39 -105q-39 -46 -121 -82l147 -159zM305 649
v-2q-46 0 -74 -28q-29 -29 -29 -72q0 -25 14 -55q15 -28 57 -73q76 37 103 69t27 70q0 40 -27 66q-25 25 -71 25zM118 178l1 1q0 -53 41 -91q40 -37 102 -37q49 0 90 26q39 25 69 78l-172 187q-72 -34 -101 -73q-30 -39 -30 -91z" />
    <glyph glyph-name="quotesingle" unicode="'" horiz-adv-x="202" 
d="M125 472h-48l-15 206v25h77v-25z" />
    <glyph glyph-name="parenleft" unicode="(" horiz-adv-x="286" 
d="M256 -140l-79 -4q-61 98 -94 222q-33 122 -33 255q0 127 33 249q32 119 95 226h78q-64 -107 -97 -229q-33 -120 -33 -244q0 -133 33 -253q33 -123 97 -222z" />
    <glyph glyph-name="parenright" unicode=")" horiz-adv-x="286" 
d="M30 -140l-1 1q64 99 97 222q33 120 33 254q0 125 -33 245q-37 128 -97 230h78q63 -107 95 -226q33 -122 33 -249q0 -133 -33 -255q-33 -124 -94 -222h-78z" />
    <glyph glyph-name="asterisk" unicode="*" horiz-adv-x="461" 
d="M149 352l-58 39l93 116l-140 41l25 65l133 -53l-8 143h74l-8 -143l133 53l24 -66l-142 -40l93 -116l-56 -41l-82 129z" />
    <glyph glyph-name="plus" unicode="+" 
d="M315 127h-60v193h-193v60h193v193h60v-193h193v-60h-193v-193z" />
    <glyph glyph-name="comma" unicode="," horiz-adv-x="234" 
d="M100 -155l-57 2l61 144q-21 5 -34 21t-13 36q0 25 17 42t42 17q24 0 44 -17q18 -16 18 -42q0 -3 -2 -13l-8 -22z" />
    <glyph glyph-name="hyphen" unicode="-" horiz-adv-x="375" 
d="M68 301h238v-72h-238v72z" />
    <glyph glyph-name="period" unicode="." horiz-adv-x="237" 
d="M179 48h1q0 -25 -18 -43t-43 -18t-43 18t-18 43t17 42t42 17q24 0 44 -17q18 -16 18 -42z" />
    <glyph glyph-name="slash" unicode="/" horiz-adv-x="386" 
d="M274 810h75l-237 -950h-75z" />
    <glyph glyph-name="zero" unicode="0" horiz-adv-x="629" 
d="M562 243h-1q0 -121 -68 -189q-67 -67 -179 -67t-180 68t-68 188v218q0 119 69 187q67 67 180 67q112 0 179 -67q68 -68 68 -187v-218zM313 640l-1 4q-78 0 -123 -48t-45 -133v-217q0 -85 45 -133t123 -48q80 0 125 47q45 46 45 132v217q0 85 -45 132t-124 47z" />
    <glyph glyph-name="one" unicode="1" horiz-adv-x="344" 
d="M247 0h-78v631h-156l19 72h215v-703z" />
    <glyph glyph-name="two" unicode="2" horiz-adv-x="588" 
d="M541 0l-491 -2v61l294 281q53 51 74 89q21 37 21 80q0 57 -40 93q-41 36 -106 36q-70 0 -117 -44q-45 -45 -49 -114h-80q4 103 72 169q67 66 177 66q102 0 163 -55q63 -56 63 -144q0 -59 -27 -110q-27 -50 -102 -122l-223 -212h371v-72z" />
    <glyph glyph-name="three" unicode="3" horiz-adv-x="580" 
d="M45 197l75 -2q1 -58 48 -97q46 -39 116 -39q66 0 113 41q45 40 45 101q0 65 -42 102q-44 38 -113 38h-73v59h76q57 0 95 35q36 35 36 89q0 51 -39 84t-100 33q-64 0 -101 -34q-39 -34 -41 -87h-79q3 82 66 138q65 56 160 56q97 0 155 -52q60 -52 60 -129q0 -57 -28 -97
q-28 -42 -81 -63q64 -19 99 -67q34 -46 34 -112q0 -87 -66 -147t-171 -60t-172 60t-72 150z" />
    <glyph glyph-name="four" unicode="4" horiz-adv-x="575" 
d="M24 221l297 482h91l-293 -471h274v167l76 18v-185h77v-71h-77v-161h-76v161h-369v60z" />
    <glyph glyph-name="five" unicode="5" horiz-adv-x="567" 
d="M120 703l359 -1v-72h-297l-21 -219q30 17 60 26q33 9 68 9q103 0 168 -62q63 -62 63 -165q0 -97 -69 -165q-67 -67 -171 -67q-100 0 -171 63q-70 63 -75 158h80q4 -63 51 -105t114 -42t117 47q48 47 48 113q0 71 -45 114q-47 44 -118 44q-47 0 -78 -16q-33 -17 -54 -48
l-64 8z" />
    <glyph glyph-name="six" unicode="6" horiz-adv-x="573" 
d="M294 -12h2q-104 0 -174 70q-71 71 -71 171q0 49 18 102q17 49 53 102l189 269h91l-197 -270q24 14 51 21q24 7 56 7q94 0 162 -68q67 -67 67 -165t-72 -169q-70 -70 -175 -70zM128 227h-2q0 -71 48 -120t119 -49t120 49t49 120q0 69 -48 117t-119 48t-119 -48t-48 -117z
" />
    <glyph glyph-name="seven" unicode="7" horiz-adv-x="510" 
d="M396 631h-372v72h462v-62l-304 -641h-87z" />
    <glyph glyph-name="eight" unicode="8" horiz-adv-x="586" 
d="M533 196l-1 -3q0 -88 -67 -148t-174 -60t-174 60t-67 149q0 58 33 108t90 75q-44 24 -68 65q-24 40 -24 89q0 77 60 130q58 52 154 52q94 0 152 -52q59 -53 59 -129q0 -49 -25 -89q-25 -41 -69 -66q57 -26 89 -74q32 -50 32 -107zM154 525h-2q0 -53 39 -87
q37 -34 102 -34q59 0 100 35q39 35 39 86q0 52 -38 87q-37 34 -99 34q-65 0 -102 -34q-39 -34 -39 -87zM127 197l2 -1q0 -62 45 -102q47 -41 117 -41t117 41q45 40 45 102t-45 102q-47 41 -118 41q-75 0 -118 -40q-45 -41 -45 -102z" />
    <glyph glyph-name="nine" unicode="9" horiz-adv-x="573" 
d="M279 715h-2q104 0 174 -70q71 -71 71 -171q0 -50 -18 -102q-17 -49 -53 -102l-189 -269h-91l197 270q-24 -13 -51 -21q-24 -7 -56 -7q-94 0 -162 68q-67 67 -67 165t72 169q70 70 175 70zM445 476h2q0 70 -48 120q-48 49 -119 49t-120 -49t-49 -120q0 -69 48 -117
t119 -48t119 48t48 117z" />
    <glyph glyph-name="colon" unicode=":" horiz-adv-x="258" 
d="M190 48h1q0 -25 -18 -43t-43 -18t-43 18t-18 43t17 42t42 17q24 0 44 -17q18 -16 18 -42zM191 456h1q0 -25 -18 -43t-43 -18t-43 18t-18 43t17 42t42 17q24 0 44 -17q18 -16 18 -42z" />
    <glyph glyph-name="semicolon" unicode=";" horiz-adv-x="272" 
d="M121 -155l-57 2l61 144q-21 5 -34 21t-13 36q0 25 17 42t42 17q24 0 44 -17q18 -16 18 -42q0 -3 -2 -13l-8 -22zM199 458h1q0 -25 -18 -43t-43 -18t-43 18t-18 43t17 42t42 17q24 0 44 -17q18 -16 18 -42z" />
    <glyph glyph-name="less" unicode="&#x3c;" 
d="M80 322v62l389 197v-73l-308 -154l308 -156v-73z" />
    <glyph glyph-name="equal" unicode="=" 
d="M62 422v60h446v-60h-446zM62 218v60h446v-60h-446z" />
    <glyph glyph-name="greater" unicode="&#x3e;" 
d="M490 386v-62l-389 -197v73l308 154l-308 156v73z" />
    <glyph glyph-name="question" unicode="?" horiz-adv-x="530" 
d="M207 250l106 101q42 39 63 83t21 90q0 54 -37 87q-38 33 -97 33q-67 0 -108 -39q-40 -39 -45 -107h-78q5 99 68 158q65 59 167 59q93 0 152 -51t59 -134q0 -57 -26 -114q-26 -54 -81 -109l-95 -93h-69v36zM302 48h1q0 -25 -18 -43t-43 -18t-43 18t-18 43t17 42t42 17
q24 0 44 -17q18 -16 18 -42z" />
    <glyph glyph-name="at" unicode="@" horiz-adv-x="914" 
d="M403 82l-6 -3q-66 0 -108 44q-42 43 -42 114q0 90 55 148q56 60 135 60q47 0 81 -21q35 -21 51 -58l17 70h70l-51 -214q-12 -52 6 -81q18 -28 63 -28q56 0 89 51t33 134q0 137 -97 225q-98 89 -243 89q-148 0 -249 -96q-100 -96 -100 -250q0 -73 26 -137q26 -62 75 -107
q47 -44 113 -68t136 -24q41 0 75 6q29 5 60 17v-58q-23 -9 -64 -16q-36 -6 -73 -6q-80 0 -159 29q-78 29 -132 80q-59 56 -89 126q-30 72 -30 159q0 89 30 162q30 74 88 129q54 53 134 85q77 30 161 30q171 0 288 -105t117 -264q0 -109 -53 -177q-52 -66 -144 -66
q-48 0 -84 24q-36 25 -43 68q-26 -35 -60 -53q-35 -18 -76 -18zM321 242l1 -3q0 -49 24 -78q24 -28 68 -28q57 0 93 46q36 47 36 114q0 40 -27 67t-72 27q-51 0 -87 -42t-36 -103z" />
    <glyph glyph-name="A" unicode="A" horiz-adv-x="668" 
d="M293 703h83l272 -703h-84l-70 184h-325l-70 -184h-80zM469 251l-137 362l-138 -362h275z" />
    <glyph glyph-name="B" unicode="B" horiz-adv-x="664" 
d="M381 0l-284 -2v703h249q104 0 169 -47q64 -46 64 -128q0 -59 -31 -99q-33 -42 -90 -64q74 -17 116 -63t42 -111q0 -87 -66 -138t-169 -51zM499 515h-1q0 56 -43 89t-117 33h-164v-250h168q70 0 114 35q43 34 43 93zM534 196v-1q0 59 -45 93q-47 35 -118 35h-197v-260h197
q73 0 118 36t45 97z" />
    <glyph glyph-name="C" unicode="C" horiz-adv-x="802" 
d="M682 271l82 3q-27 -124 -125 -204q-97 -79 -228 -79q-153 0 -258 106q-105 107 -105 258q0 152 105 257t258 105q130 0 224 -76q96 -77 126 -198h-84q-29 90 -102 144t-166 54q-117 0 -198 -84t-81 -204q0 -121 81 -205t198 -84q97 0 172 57q75 56 101 150z" />
    <glyph glyph-name="D" unicode="D" horiz-adv-x="763" 
d="M335 0l-239 -1v703h238q165 0 272 -95q105 -95 105 -254q0 -161 -105 -257t-271 -96zM174 628v-554h158q134 0 216 75t82 204q0 128 -82 201q-83 74 -216 74h-158z" />
    <glyph glyph-name="E" unicode="E" horiz-adv-x="579" 
d="M524 0h-427v703h422v-72h-344v-238h320v-69h-320v-252h349v-72z" />
    <glyph glyph-name="F" unicode="F" horiz-adv-x="554" 
d="M175 0h-78v703h422v-72h-344v-249h320v-71h-320v-311z" />
    <glyph glyph-name="G" unicode="G" horiz-adv-x="810" 
d="M745 348l-4 -343h-66v147q-39 -76 -111 -117q-74 -41 -168 -41q-148 0 -249 105q-100 103 -100 258q0 150 104 257q103 105 255 105q119 0 210 -67q92 -68 128 -177h-86q-32 77 -99 122q-68 45 -152 45q-118 0 -197 -84q-80 -86 -80 -205q0 -121 80 -207q80 -84 198 -84
q110 0 180 57q71 57 86 164h-272v65h343z" />
    <glyph glyph-name="H" unicode="H" horiz-adv-x="709" 
d="M175 0h-78v703h78v-304h359v304h78v-703h-78v324h-359v-324z" />
    <glyph glyph-name="I" unicode="I" horiz-adv-x="272" 
d="M175 0h-78v703h78v-703z" />
    <glyph glyph-name="J" unicode="J" horiz-adv-x="574" 
d="M406 703l77 -3v-487q0 -101 -65 -164q-64 -63 -165 -63t-165 64t-64 165h79q0 -70 42 -112t109 -42q68 0 110 43q42 44 42 114v485z" />
    <glyph glyph-name="K" unicode="K" horiz-adv-x="583" 
d="M97 703h78v-331l305 331h95l-316 -343l320 -360h-103l-301 339v-339h-78v703z" />
    <glyph glyph-name="L" unicode="L" horiz-adv-x="523" 
d="M505 0h-408v703h78v-631h330v-72z" />
    <glyph glyph-name="M" unicode="M" horiz-adv-x="915" 
d="M173 0h-76v703h94l268 -574l268 574h91v-703h-76v568l-268 -569h-33l-268 572v-571z" />
    <glyph glyph-name="N" unicode="N" horiz-adv-x="709" 
d="M171 0h-74v703h76l365 -573v573h74v-703h-76l-365 573v-573z" />
    <glyph glyph-name="O" unicode="O" horiz-adv-x="831" 
d="M48 352h-1q0 152 106 257q107 105 261 105q156 0 262 -105t106 -257q0 -153 -106 -258t-262 -105t-261 105t-105 258zM700 352h-3q0 118 -83 204q-83 84 -203 84q-119 0 -202 -84q-82 -82 -82 -205t82 -205q83 -84 204 -84t204 84q83 86 83 206z" />
    <glyph glyph-name="P" unicode="P" horiz-adv-x="636" 
d="M175 0l-78 1v703h242q118 0 192 -59t74 -159q0 -103 -74 -165q-73 -61 -192 -61h-164v-260zM336 634l-161 1v-304h161q82 0 135 42q52 42 52 113q0 68 -52 108t-135 40z" />
    <glyph glyph-name="Q" unicode="Q" horiz-adv-x="832" 
d="M48 352l-1 2q0 152 106 257q107 105 261 105q156 0 262 -105t106 -257q0 -85 -34 -156q-34 -73 -96 -124l121 -153h-87l-91 114q-37 -22 -87 -34q-46 -12 -94 -12q-156 0 -261 105t-105 258zM549 96l-206 258h86l174 -218q47 41 71 98t24 121q0 118 -83 204
q-83 84 -203 84t-202 -84q-82 -82 -82 -205q0 -124 82 -206q82 -84 204 -84q29 0 69 8q35 8 66 24z" />
    <glyph glyph-name="R" unicode="R" horiz-adv-x="659" 
d="M175 0l-78 -1v703h243q113 0 187 -56q72 -56 72 -150q0 -91 -63 -148t-166 -65l262 -283h-102l-258 282h-97v-282zM337 633l-163 -1v-287h162q82 0 131 40q51 41 51 108q0 65 -51 102q-53 38 -130 38z" />
    <glyph glyph-name="S" unicode="S" horiz-adv-x="604" 
d="M295 715l-6 -2q109 0 174 -57t72 -162h-80q-6 74 -48 111q-44 38 -116 38q-67 0 -107 -31q-41 -32 -41 -82q0 -43 26 -72q26 -27 101 -48l89 -25q107 -30 149 -74q42 -43 42 -114q0 -97 -66 -153q-68 -56 -175 -56q-120 0 -191 62q-69 62 -73 177h79q4 -82 52 -126
q46 -43 133 -43q76 0 120 35q43 34 43 99q0 44 -29 73t-116 54l-74 21q-106 30 -147 74q-40 43 -40 114q0 82 65 135q64 52 164 52z" />
    <glyph glyph-name="T" unicode="T" horiz-adv-x="535" 
d="M306 0h-78v631h-211v72h501v-72h-212v-631z" />
    <glyph glyph-name="U" unicode="U" horiz-adv-x="685" 
d="M517 703l76 -3v-474q0 -106 -72 -174q-70 -67 -181 -67q-109 0 -180 68t-71 174v474h78v-472q0 -73 48 -120q50 -47 124 -47q79 0 129 47q49 46 49 122v472z" />
    <glyph glyph-name="V" unicode="V" horiz-adv-x="639" 
d="M361 0h-83l-254 703h87l210 -598l211 598h83z" />
    <glyph glyph-name="W" unicode="W" horiz-adv-x="978" 
d="M318 0h-84l-207 703h84l169 -592l176 592h73l173 -587l170 587h81l-209 -703h-83l-171 566z" />
    <glyph glyph-name="X" unicode="X" horiz-adv-x="643" 
d="M100 0h-90l263 355l-256 348h92l212 -289l215 289h88l-256 -346l267 -357h-94l-221 296z" />
    <glyph glyph-name="Y" unicode="Y" horiz-adv-x="621" 
d="M350 0h-78v262l-246 441h88l198 -361l200 361h83l-245 -437v-266z" />
    <glyph glyph-name="Z" unicode="Z" horiz-adv-x="564" 
d="M526 0h-487v64l388 567h-384v72h479v-67l-388 -564h392v-72z" />
    <glyph glyph-name="bracketleft" unicode="[" horiz-adv-x="339" 
d="M316 810v-70h-145v-810h145v-70h-221v950h221z" />
    <glyph glyph-name="backslash" unicode="\" horiz-adv-x="386" 
d="M112 810l237 -950h-75l-237 950h75z" />
    <glyph glyph-name="bracketright" unicode="]" horiz-adv-x="339" 
d="M23 810h221v-950h-221v70h145v810h-145v70z" />
    <glyph glyph-name="asciicircum" unicode="^" 
d="M249 703h73l178 -419h-79l-136 325l-136 -325h-79z" />
    <glyph glyph-name="underscore" unicode="_" horiz-adv-x="440" 
d="M-1 -146h442v-66h-442v66z" />
    <glyph glyph-name="grave" unicode="`" horiz-adv-x="247" 
d="M126 573l-81 144h73l80 -144h-72z" />
    <glyph glyph-name="a" unicode="a" horiz-adv-x="548" 
d="M398 0l-3 87q-29 -47 -75 -72q-47 -26 -102 -26q-74 0 -120 40q-47 41 -47 102t39 98t119 57l186 45v8q0 51 -35 81q-34 30 -93 30q-51 0 -89 -29q-36 -29 -42 -75h-73q8 72 65 121q57 48 140 48q91 0 147 -50q54 -49 54 -135v-330h-71zM231 51v-1q67 0 114 51
q47 53 47 120v47l-167 -40q-50 -12 -76 -35q-25 -22 -25 -57q0 -40 29 -63q28 -22 78 -22z" />
    <glyph glyph-name="b" unicode="b" horiz-adv-x="664" 
d="M157 0h-74v741h75v-335q34 52 88 81q56 29 118 29q110 0 183 -75q73 -73 73 -187q0 -112 -74 -189q-73 -76 -183 -76q-64 0 -118 30q-54 31 -88 84v-103zM540 253l-1 -1q0 83 -55 138q-56 57 -138 57q-80 0 -136 -56q-55 -55 -55 -138q0 -84 55 -139q56 -57 136 -57
q82 0 138 57q56 59 56 139z" />
    <glyph glyph-name="c" unicode="c" horiz-adv-x="605" 
d="M310 516l-4 1q94 0 165 -57t90 -147h-76q-18 60 -66 96t-112 36q-80 0 -136 -56q-55 -55 -55 -137q0 -80 56 -139q56 -57 137 -57q65 0 114 39q50 41 68 100h74q-19 -91 -90 -150q-70 -58 -165 -58q-112 0 -189 77t-77 189q0 109 77 186t189 77z" />
    <glyph glyph-name="d" unicode="d" horiz-adv-x="663" 
d="M299 -12l1 -1q-110 0 -183 75q-73 73 -73 188q0 112 74 189q73 76 183 76q64 0 116 -28q53 -29 86 -81v334h75v-741h-71v104q-33 -55 -88 -85t-120 -30zM122 251h-3q0 -80 56 -139q55 -57 138 -57q81 0 137 57q56 59 56 139q0 84 -55 139q-55 57 -136 57q-83 0 -138 -57
q-55 -55 -55 -139z" />
    <glyph glyph-name="e" unicode="e" horiz-adv-x="608" 
d="M306 54l1 1q59 0 102 28q45 28 68 78h75q-27 -79 -93 -126q-64 -46 -153 -46q-110 0 -187 77q-76 76 -76 188q0 109 77 186t186 77q111 0 185 -74t74 -183v-26h-447q6 -76 59 -129q53 -51 129 -51zM307 452h1q-70 0 -119 -43q-51 -43 -66 -112h368q-13 72 -64 113
q-51 42 -120 42z" />
    <glyph glyph-name="f" unicode="f" horiz-adv-x="347" 
d="M192 0l-75 1v437h-89v67h89v59q0 93 45 141t132 48q11 0 33 -2q21 -2 30 -5v-67q-17 5 -27 6q-7 1 -23 1q-59 0 -87 -30q-28 -28 -28 -94v-58h142v-67h-142v-437z" />
    <glyph glyph-name="g" unicode="g" horiz-adv-x="631" 
d="M50 -24l74 -1q2 -62 50 -99q50 -38 125 -38t125 44q48 44 48 114v127q-30 -46 -79 -73t-108 -27q-102 0 -171 71q-69 70 -69 176q0 104 69 174q69 71 172 71q60 0 110 -27t80 -77v92h71v-500q0 -103 -68 -166q-67 -63 -180 -63q-107 0 -177 57q-71 57 -72 145zM123 269
v-1q0 -74 50 -127q49 -51 125 -51q74 0 125 53t51 126t-51 126q-51 52 -125 52q-76 0 -125 -51q-50 -53 -50 -127z" />
    <glyph glyph-name="h" unicode="h" horiz-adv-x="597" 
d="M160 0h-76v741h75v-316q27 43 70 67t94 24q89 0 141 -54q53 -56 53 -143v-318h-75v306q0 65 -36 102q-36 38 -100 38t-105 -45q-41 -47 -41 -112v-290z" />
    <glyph glyph-name="i" unicode="i" horiz-adv-x="250" 
d="M69 669h-3q0 23 15 39t41 16q25 0 41 -16q17 -17 17 -39q0 -23 -16 -39t-40 -16q-25 0 -40 16t-15 39zM160 0h-76v504h76v-504z" />
    <glyph glyph-name="j" unicode="j" horiz-adv-x="255" 
d="M185 670l1 -1q0 -22 -16 -37t-39 -15q-24 0 -39 15t-15 38t15 38t39 15t39 -15t15 -38zM94 503l75 1v-543q0 -95 -45 -141t-135 -46h-15q-1 0 -15 2v66q3 -1 9 -1h8q60 0 89 29t29 90v543z" />
    <glyph glyph-name="k" unicode="k" horiz-adv-x="503" 
d="M160 0h-75v741h75v-455l219 218h93l-231 -227l267 -277h-99l-249 259v-259z" />
    <glyph glyph-name="l" unicode="l" horiz-adv-x="250" 
d="M87 741h76v-741h-76v741z" />
    <glyph glyph-name="m" unicode="m" horiz-adv-x="937" 
d="M160 0l-79 1v504h72v-83q26 45 69 70t94 25q63 0 106 -28q45 -28 67 -79q26 51 72 79t105 28q86 0 138 -54q52 -52 52 -143v-318h-75v306q0 64 -35 102t-96 38q-62 0 -102 -45q-40 -43 -40 -112v-290h-75v306q0 64 -35 102t-96 38q-62 0 -102 -45q-40 -43 -40 -112v-290z
" />
    <glyph glyph-name="n" unicode="n" horiz-adv-x="597" 
d="M160 0l-74 -2v504h72v-83q26 45 69 70t96 25q89 0 141 -54q53 -56 53 -143v-318h-75v301q0 69 -36 108t-100 39t-105 -45q-41 -47 -41 -112v-290z" />
    <glyph glyph-name="o" unicode="o" horiz-adv-x="620" 
d="M43 253v-2q0 109 77 186t189 77q113 0 189 -76q77 -77 77 -186q0 -112 -77 -189q-76 -76 -189 -76q-112 0 -189 77t-77 189zM503 251h-3q0 82 -55 137q-56 56 -138 56q-80 0 -136 -56q-55 -55 -55 -137q0 -80 56 -139q56 -57 137 -57q83 0 138 57q56 59 56 139z" />
    <glyph glyph-name="p" unicode="p" horiz-adv-x="664" 
d="M85 -212l-1 716h72v-103q33 54 87 84t120 30q109 0 183 -75q73 -73 73 -187q0 -112 -74 -189q-73 -76 -183 -76q-63 0 -116 29t-86 81v-310h-75zM541 253l-1 -1q0 83 -55 138q-55 57 -138 57q-80 0 -136 -56q-55 -55 -55 -138q0 -84 55 -139q55 -57 136 -57q83 0 138 57
q56 59 56 139z" />
    <glyph glyph-name="q" unicode="q" horiz-adv-x="663" 
d="M299 -12l1 -1q-110 0 -183 75q-73 73 -73 188q0 112 74 189q73 76 183 76q65 0 119 -30t87 -84v103h71v-716h-75v310q-33 -52 -87 -81q-56 -29 -117 -29zM122 251h-3q0 -80 56 -139q55 -57 138 -57q81 0 137 57q56 59 56 139q0 84 -55 139q-55 57 -136 57q-83 0 -138 -57
q-55 -55 -55 -139z" />
    <glyph glyph-name="r" unicode="r" horiz-adv-x="372" 
d="M322 439v-2q-73 0 -118 -49q-45 -50 -45 -126v-263h-75v504h72v-105q25 54 69 83t98 29h12q9 0 14 -1v-71q-2 1 -10 1h-17z" />
    <glyph glyph-name="s" unicode="s" horiz-adv-x="492" 
d="M245 516l-2 -7q89 0 138 -40q51 -40 55 -115h-77q-1 46 -31 71q-30 24 -85 24q-48 0 -79 -21t-31 -55q0 -31 21 -49t84 -31l55 -12q83 -18 117 -51q35 -33 35 -90q0 -73 -53 -115q-52 -42 -141 -42q-99 0 -154 45t-58 129h78q2 -54 36 -82t96 -28q57 0 89 24t32 66
q0 31 -21 51q-23 20 -76 32l-66 15q-83 19 -116 52t-33 87q0 64 52 103t135 39z" />
    <glyph glyph-name="t" unicode="t" horiz-adv-x="369" 
d="M109 504l-3 161l75 18v-179h142v-67h-142v-271q0 -62 21 -86t68 -24q20 0 38 6t38 20v-68q-24 -15 -42 -20q-21 -6 -48 -6q-75 0 -111 42t-36 131v276h-87v67h87z" />
    <glyph glyph-name="u" unicode="u" horiz-adv-x="588" 
d="M285 57l1 -1q62 0 103 45q40 43 40 112v290h75v-504h-72v84q-26 -45 -69 -70t-94 -25q-85 0 -138 54q-52 52 -52 143v318h75v-301q0 -65 35 -106q35 -39 96 -39z" />
    <glyph glyph-name="v" unicode="v" horiz-adv-x="522" 
d="M303 0h-84l-196 504h79l160 -417l159 417h78z" />
    <glyph glyph-name="w" unicode="w" horiz-adv-x="844" 
d="M278 0h-77l-179 504h75l145 -415l145 415h72l145 -415l145 415h73l-179 -504h-75l-146 408z" />
    <glyph glyph-name="x" unicode="x" horiz-adv-x="496" 
d="M96 0h-82l190 256l-182 248h86l142 -195l143 195h81l-182 -247l191 -257h-87l-150 203z" />
    <glyph glyph-name="y" unicode="y" horiz-adv-x="521" 
d="M420 504h78l-277 -716h-75l78 206l-202 510h79l160 -416z" />
    <glyph glyph-name="z" unicode="z" horiz-adv-x="490" 
d="M458 0h-426v51l322 386h-308v67h401v-54l-315 -383h326v-67z" />
    <glyph glyph-name="braceleft" unicode="{" horiz-adv-x="334" 
d="M133 361l-1 -5q31 -12 46 -41t15 -80v-200q0 -60 21 -90t63 -30h15q3 0 17 2v-70q-7 -1 -18 -1h-15q-77 0 -117 46t-40 136v204q0 50 -16 72t-54 22h-16v63h16q38 0 54 22q17 23 17 72v153q0 90 40 136t117 46h15q11 0 18 -1v-70q-14 2 -17 2h-15q-42 0 -63 -30t-21 -90
v-149q0 -52 -15 -80q-15 -29 -46 -39z" />
    <glyph glyph-name="bar" unicode="|" horiz-adv-x="266" 
d="M95 810h76v-950h-76v950z" />
    <glyph glyph-name="braceright" unicode="}" horiz-adv-x="334" 
d="M201 361l-1 1q-31 10 -46 39t-15 80v149q0 60 -21 90t-63 30h-15q-10 0 -17 -1v70q14 2 18 2h15q77 0 117 -46t40 -136v-153q0 -49 17 -72q16 -22 54 -22h16v-63h-16q-38 0 -54 -22t-16 -72v-204q0 -90 -40 -136t-117 -46h-15q-4 0 -18 2v70q7 -1 17 -1h15q42 0 63 30
t21 90v200q0 52 15 80q15 29 46 41z" />
    <glyph glyph-name="asciitilde" unicode="~" 
d="M305 409v1q37 -18 57 -24t39 -6q35 0 60 15t57 60v-77q-21 -34 -52 -52q-32 -18 -72 -18q-26 0 -48 6q-19 4 -60 26q-35 19 -58 25q-21 6 -44 6q-35 0 -70 -20q-33 -19 -57 -57v75q17 30 53 52q36 21 77 21q25 0 51 -6q25 -6 67 -27z" />
    <glyph glyph-name="uni00A0" unicode="&#xa0;" horiz-adv-x="259" 
 />
    <glyph glyph-name="exclamdown" unicode="&#xa1;" horiz-adv-x="248" 
d="M185 456h-3q0 -26 -18 -42q-20 -17 -43 -17q-25 0 -42 17t-17 42t18 43t43 18q26 0 44 -18t18 -43zM146 290l15 -237v-252h-79v252l14 237h50z" />
    <glyph glyph-name="cent" unicode="&#xa2;" horiz-adv-x="605" 
d="M347 -7l-78 -17v125q-98 14 -161 87q-63 74 -63 174t63 173t161 87v111l75 17v-127q83 -10 143 -64t78 -136h-76q-18 60 -66 96t-112 36q-80 0 -136 -56q-55 -55 -55 -137q0 -80 56 -139q56 -57 137 -57q65 0 114 39q50 41 68 100h74q-19 -82 -79 -139t-143 -67v-106z
" />
    <glyph glyph-name="sterling" unicode="&#xa3;" horiz-adv-x="664" 
d="M612 0l-566 -1v62q48 10 80 58q32 50 32 113q0 21 -1 30l-3 26h-107v64h97l-8 47q-8 50 -8 72q0 115 66 180q64 64 176 64q111 0 175 -64q66 -65 66 -180h-77q0 83 -43 126q-44 45 -118 45q-77 0 -120 -45q-44 -47 -44 -126q0 -12 4 -39l12 -79h188v-64h-178q2 -16 2 -24
v-24q0 -51 -17 -99q-17 -45 -45 -70h437v-72z" />
    <glyph glyph-name="currency" unicode="&#xa4;" horiz-adv-x="630" 
d="M138 83l-80 -6l109 146q-20 26 -30 56q-10 27 -10 62q0 29 11 62q10 30 30 56l-110 148h82l77 -103q23 14 48 21q29 8 53 8q29 0 51 -7q25 -8 48 -21l76 103h82l-110 -148q19 -24 30 -54q11 -33 11 -63q0 -34 -10 -61q-11 -30 -30 -55l109 -146h-82l-75 102
q-24 -15 -48 -22q-22 -7 -53 -7q-24 0 -54 8q-27 8 -49 23zM318 213l1 1q53 0 89 36t36 90t-36 90t-89 36t-90 -37t-37 -90q0 -54 36 -90t90 -36z" />
    <glyph glyph-name="yen" unicode="&#xa5;" horiz-adv-x="627" 
d="M353 0h-78v149h-176v62h176v51l-6 11h-170v63h135l-205 367h88l198 -361l200 361h83l-206 -367h136v-63h-171l-4 -7v-55h175v-62h-175v-149z" />
    <glyph glyph-name="brokenbar" unicode="&#xa6;" horiz-adv-x="272" 
d="M98 810h76v-400h-76v400zM98 -140v400h76v-400h-76z" />
    <glyph glyph-name="section" unicode="&#xa7;" horiz-adv-x="569" 
d="M383 247l-129 51q-120 50 -162 99t-42 120q0 89 63 143t164 54q110 0 174 -58q65 -59 71 -160h-78q-5 73 -47 111q-42 39 -117 39q-67 0 -109 -36t-42 -94q0 -50 33 -84t144 -81l156 -65v-39h-79zM186 239l131 -54q121 -50 163 -98t42 -118q0 -89 -63 -143t-163 -54
q-109 0 -175 57t-72 161h78q5 -72 47 -112q42 -39 117 -39q67 0 108 36t41 96q0 34 -15 59q-15 26 -46 48q-22 14 -40 23q-20 10 -76 34l-156 66v38h79z" />
    <glyph glyph-name="dieresis" unicode="&#xa8;" horiz-adv-x="320" 
d="M138 639l-1 -2q0 -20 -13 -33t-33 -13q-19 0 -33 14q-13 13 -13 33q0 19 14 33t33 14q20 0 33 -13t13 -33zM275 637l-1 -1q0 -19 -14 -33q-13 -13 -33 -13q-19 0 -33 14q-13 13 -13 33q0 19 14 33q13 13 33 13t33 -13q14 -14 14 -33z" />
    <glyph glyph-name="copyright" unicode="&#xa9;" horiz-adv-x="822" 
d="M773 351l-3 -3q0 -149 -106 -255q-107 -107 -255 -107q-149 0 -256 107q-106 106 -106 257t107 258t257 107q149 0 256 -107q106 -106 106 -257zM97 348h-2q0 -127 92 -219t219 -92t219 92t92 219q0 130 -91 221q-92 92 -219 92t-219 -92q-91 -91 -91 -221zM406 546
q75 0 127 -43q54 -43 69 -114h-77q-13 39 -45 63t-73 24q-53 0 -89 -37t-36 -91q0 -53 36 -91q36 -37 89 -37q43 0 75 24t42 64h77q-14 -71 -68 -114q-56 -44 -127 -44q-86 0 -143 57t-57 141t57 141t143 57z" />
    <glyph glyph-name="ordfeminine" unicode="&#xaa;" horiz-adv-x="367" 
d="M238 457l-4 34q-12 -19 -33 -30q-24 -11 -47 -11q-37 0 -60 20t-23 51t21 51q23 20 63 29l79 17v5q0 20 -14 32t-36 12t-37 -12q-15 -13 -16 -32h-54q1 39 33 65t76 26q48 0 77 -26q27 -26 27 -69v-162h-52zM165 495h-2q29 0 48 19q20 20 20 45v20l-68 -15
q-20 -4 -29 -13t-9 -23q0 -15 11 -24q10 -9 29 -9zM72 386h212v-53h-212v53z" />
    <glyph glyph-name="guillemotleft" unicode="&#xab;" horiz-adv-x="434" 
d="M157 35l-109 219l109 220h75l-109 -220l109 -219h-75zM307 35l-109 219l109 220h75l-109 -220l109 -219h-75z" />
    <glyph glyph-name="logicalnot" unicode="&#xac;" 
d="M57 326v60h447v-259h-60v199h-387z" />
    <glyph glyph-name="uni00AD" unicode="&#xad;" horiz-adv-x="368" 
d="M64 367h238v-72h-238v72z" />
    <glyph glyph-name="registered" unicode="&#xae;" horiz-adv-x="595" 
d="M297 230v-1q-100 0 -171 71t-71 171t71 171t171 71q102 0 173 -71t71 -171t-71 -171q-70 -70 -173 -70zM297 666v1q-81 0 -138 -57t-57 -139q0 -81 57 -138t138 -57q80 0 139 56q57 56 57 138t-57 139t-139 57zM255 357h-54v232h113q38 0 63 -21t25 -55q0 -25 -15 -46
q-14 -21 -41 -31l68 -79h-63l-63 74h-33v-74zM308 543h-54v-69h54q19 0 29 10q11 11 11 25q0 16 -11 25q-10 9 -29 9z" />
    <glyph glyph-name="macron" unicode="&#xaf;" horiz-adv-x="352" 
d="M308 605h-263v53h263v-53z" />
    <glyph glyph-name="degree" unicode="&#xb0;" horiz-adv-x="378" 
d="M332 573l-1 -2q0 -58 -42 -100t-100 -42q-59 0 -101 42t-42 101t42 101t101 42t101 -42t42 -100zM98 571v4q0 -37 27 -64t64 -27t63 26t26 63t-26 63t-63 26t-64 -27t-27 -64z" />
    <glyph glyph-name="plusminus" unicode="&#xb1;" 
d="M315 158h-60v177h-193v60h193v178h60v-178h193v-60h-193v-177zM61 6v61h447v-61h-447z" />
    <glyph glyph-name="twosuperior" unicode="&#xb2;" horiz-adv-x="320" 
d="M287 492l-251 -2v49l138 130q23 23 32 38t9 32q0 23 -16 38q-17 15 -42 15q-28 0 -45 -17q-16 -17 -18 -42h-62q3 50 38 85q35 33 89 33q51 0 86 -29q33 -29 33 -77q0 -28 -14 -54q-14 -25 -54 -63l-84 -78h161v-58z" />
    <glyph glyph-name="threesuperior" unicode="&#xb3;" horiz-adv-x="315" 
d="M30 592l62 -4q2 -22 21 -39q19 -16 46 -16t47 17q18 16 18 42q0 29 -18 44t-50 15h-31v45h30q25 0 42 14q16 13 16 36q0 22 -15 36q-17 14 -40 14q-26 0 -42 -15q-17 -15 -18 -37h-61q3 45 36 74q35 29 86 29q49 0 81 -26q31 -25 31 -65q0 -28 -13 -47q-12 -20 -37 -32
q29 -11 44 -33t15 -54q0 -44 -34 -74t-90 -30t-90 30q-35 30 -36 76z" />
    <glyph glyph-name="acute" unicode="&#xb4;" horiz-adv-x="247" 
d="M121 573h-72l80 144h73z" />
    <glyph glyph-name="mu" unicode="&#xb5;" horiz-adv-x="604" 
d="M296 57l-1 -3q63 0 103 45q40 43 40 112v290h75v-504h-72v84q-26 -45 -69 -70t-94 -25q-32 0 -63 11t-50 32v-242h-75v716h75v-301q0 -65 35 -106q34 -39 96 -39z" />
    <glyph glyph-name="paragraph" unicode="&#xb6;" horiz-adv-x="614" 
d="M337 703l-2 -845h-63v419h-8q-103 0 -168 59t-65 158q0 95 66 152t169 57h71zM507 -142h-63v843h63v-843z" />
    <glyph glyph-name="periodcentered" unicode="&#xb7;" horiz-adv-x="248" 
d="M184 363h1q0 -25 -18 -43t-43 -18t-43 18t-18 43t17 42t42 17q24 0 44 -17q18 -17 18 -42z" />
    <glyph glyph-name="cedilla" unicode="&#xb8;" horiz-adv-x="440" 
d="M62 -100l70 113h57l-44 -72q1 1 3 1h7q45 0 74 -27t29 -69t-30 -70q-28 -28 -75 -28q-43 0 -75 26q-30 26 -31 68h57q1 -19 15 -31q13 -12 33 -12q19 0 33 14t14 33q0 22 -13 35q-14 14 -34 14q-16 0 -24 -4q-9 -4 -21 -16z" />
    <glyph glyph-name="onesuperior" unicode="&#xb9;" horiz-adv-x="204" 
d="M150 492h-60v294h-74l14 58h120v-352z" />
    <glyph glyph-name="ordmasculine" unicode="&#xba;" horiz-adv-x="412" 
d="M339 585v1q0 -57 -39 -96t-96 -39q-55 0 -94 39t-39 95q0 55 39 92q41 38 94 38q55 0 96 -38q39 -37 39 -92zM130 584l-1 -3q0 -34 22 -56q23 -23 54 -23q35 0 56 23t21 57t-21 56q-21 23 -55 23q-31 0 -54 -23q-22 -22 -22 -54zM77 384h257v-53h-257v53z" />
    <glyph glyph-name="guillemotright" unicode="&#xbb;" horiz-adv-x="435" 
d="M277 35h-75l109 219l-109 220h75l109 -220zM128 35h-75l109 219l-109 220h75l109 -220z" />
    <glyph glyph-name="onequarter" unicode="&#xbc;" horiz-adv-x="678" 
d="M352 120l141 232h70l-141 -225h108v68l60 14v-82h30v-56h-30v-71h-60v71h-178v49zM197 351h-60v294h-74l14 58h120v-352zM569 703h69l-536 -703h-70z" />
    <glyph glyph-name="onehalf" unicode="&#xbd;" horiz-adv-x="714" 
d="M662 0l-251 -2v49l138 130q23 23 32 38t9 32q0 23 -16 38t-42 15q-28 0 -45 -17t-18 -42h-62q3 50 38 85q35 33 89 33q51 0 86 -29q33 -28 33 -77q0 -28 -14 -54q-13 -25 -54 -63l-84 -78h161v-58zM196 349h-60v294h-74l14 58h120v-352zM568 701h69l-536 -703h-70z" />
    <glyph glyph-name="threequarters" unicode="&#xbe;" horiz-adv-x="707" 
d="M386 120l141 232h70l-141 -225h108v68l60 14v-82h30v-56h-30v-71h-60v71h-178v49zM603 703h69l-536 -703h-70zM46 451l62 -4q2 -23 21 -39t46 -16t47 17q18 17 18 42q0 29 -18 44t-50 15h-31v45h30q25 0 42 14q16 13 16 36t-15 36q-17 14 -40 14q-26 0 -42 -15
q-17 -15 -18 -37h-61q3 45 36 74q35 29 86 29q49 0 81 -26q31 -25 31 -65q0 -28 -13 -47q-12 -20 -37 -32q29 -11 44 -33q15 -23 15 -54q0 -44 -34 -74t-90 -30t-90 30q-35 30 -36 76z" />
    <glyph glyph-name="questiondown" unicode="&#xbf;" horiz-adv-x="518" 
d="M218 456h-3q0 25 18 43t44 18q25 0 43 -18t18 -43t-17 -42t-42 -17q-23 0 -43 17q-18 16 -18 42zM311 254l-107 -103q-42 -39 -63 -83t-21 -90q0 -54 37 -87t97 -33q68 0 108 39t45 107h78q-5 -99 -68 -157q-61 -58 -166 -58q-93 0 -152 51t-59 134q0 57 26 114
q26 54 81 109l95 93h69v-36z" />
    <glyph glyph-name="Agrave" unicode="&#xc0;" horiz-adv-x="668" 
d="M293 703h83l272 -703h-84l-70 184h-325l-70 -184h-80zM469 251l-137 362l-138 -362h275zM298 766l-81 144h73l80 -144h-72z" />
    <glyph glyph-name="Aacute" unicode="&#xc1;" horiz-adv-x="668" 
d="M293 703h83l272 -703h-84l-70 184h-325l-70 -184h-80zM469 251l-137 362l-138 -362h275zM370 766h-72l80 144h73z" />
    <glyph glyph-name="Acircumflex" unicode="&#xc2;" horiz-adv-x="668" 
d="M293 703h83l272 -703h-84l-70 184h-325l-70 -184h-80zM469 251l-137 362l-138 -362h275zM188 766l112 144h67l113 -144h-68l-78 100l-79 -100h-67z" />
    <glyph glyph-name="Atilde" unicode="&#xc3;" horiz-adv-x="668" 
d="M293 703h83l272 -703h-84l-70 184h-325l-70 -184h-80zM469 251l-137 362l-138 -362h275zM358 850l-2 -6q13 -13 23 -19q7 -4 15 -4q16 0 23 13t12 46h51q-5 -58 -26 -85t-61 -27q-17 0 -35 8q-15 8 -36 30q-15 15 -25 21q-12 5 -19 5q-20 0 -30 -15t-15 -47h-51
q4 58 30 88t69 30q22 0 36 -7q17 -7 41 -31z" />
    <glyph glyph-name="Adieresis" unicode="&#xc4;" horiz-adv-x="668" 
d="M293 703h83l272 -703h-84l-70 184h-325l-70 -184h-80zM469 251l-137 362l-138 -362h275zM312 830l-1 -2q0 -20 -13 -33t-33 -13q-19 0 -33 14q-13 13 -13 33q0 19 14 33t33 14q20 0 33 -13t13 -33zM449 828l-1 -1q0 -19 -14 -33q-13 -13 -33 -13q-19 0 -33 14
q-13 13 -13 33q0 19 14 33q13 13 33 13t33 -13q14 -14 14 -33z" />
    <glyph glyph-name="Aring" unicode="&#xc5;" horiz-adv-x="668" 
d="M293 703h83l272 -703h-84l-70 184h-325l-70 -184h-80zM469 251l-137 362l-138 -362h275zM430 851q0 -39 -28 -66t-69 -27t-69 27t-28 66q0 38 28 65t69 27q39 0 68 -27t29 -65zM285 851h-1q0 -20 15 -35t35 -15t35 15t15 35t-15 35t-35 15q-19 0 -34 -15t-15 -35z" />
    <glyph glyph-name="AE" unicode="&#xc6;" horiz-adv-x="930" 
d="M875 0h-427v184h-271l-114 -184h-83l433 703h457v-72h-344v-238h320v-69h-320v-252h349v-72zM448 620l-229 -369h229v369z" />
    <glyph glyph-name="Ccedilla" unicode="&#xc7;" horiz-adv-x="802" 
d="M682 271h79q-26 -119 -116 -197t-213 -85l-27 -45q1 1 3 1h7q45 0 74 -27t29 -69q0 -41 -30 -70q-28 -28 -75 -28q-43 0 -75 26q-30 26 -31 68h57q1 -19 15 -31q13 -12 33 -12q19 0 33 14t14 33q0 22 -13 35q-14 14 -34 14q-16 0 -24 -4q-9 -4 -21 -16l-45 25l55 89
q-141 14 -235 117t-94 246q0 152 105 257t258 105q130 0 224 -76q96 -77 126 -198h-84q-29 90 -102 144t-166 54q-117 0 -198 -84t-81 -204q0 -121 81 -205t198 -84q97 0 172 57q75 56 101 150z" />
    <glyph glyph-name="Egrave" unicode="&#xc8;" horiz-adv-x="579" 
d="M273 766l-81 144h73l80 -144h-72zM524 0h-427v703h422v-72h-344v-238h320v-69h-320v-252h349v-72z" />
    <glyph glyph-name="Eacute" unicode="&#xc9;" horiz-adv-x="579" 
d="M524 0h-427v703h422v-72h-344v-238h320v-69h-320v-252h349v-72zM346 766h-72l80 144h73z" />
    <glyph glyph-name="Ecircumflex" unicode="&#xca;" horiz-adv-x="579" 
d="M162 766l112 144h67l113 -144h-68l-78 100l-79 -100h-67zM524 0h-427v703h422v-72h-344v-238h320v-69h-320v-252h349v-72z" />
    <glyph glyph-name="Edieresis" unicode="&#xcb;" horiz-adv-x="579" 
d="M524 0h-427v703h422v-72h-344v-238h320v-69h-320v-252h349v-72zM288 830l-1 -2q0 -20 -13 -33t-33 -13q-19 0 -33 14q-13 13 -13 33q0 19 14 33t33 14q20 0 33 -13t13 -33zM425 828l-1 -1q0 -19 -14 -33q-13 -13 -33 -13q-19 0 -33 14q-13 13 -13 33q0 19 14 33
q13 13 33 13t33 -13q14 -14 14 -33z" />
    <glyph glyph-name="Igrave" unicode="&#xcc;" horiz-adv-x="272" 
d="M175 0h-78v703h78v-703zM100 766l-81 144h73l80 -144h-72z" />
    <glyph glyph-name="Iacute" unicode="&#xcd;" horiz-adv-x="272" 
d="M175 0h-78v703h78v-703zM173 766h-72l80 144h73z" />
    <glyph glyph-name="Icircumflex" unicode="&#xce;" horiz-adv-x="272" 
d="M175 0h-78v703h78v-703zM-10 766l112 144h67l113 -144h-68l-78 100l-79 -100h-67z" />
    <glyph glyph-name="Idieresis" unicode="&#xcf;" horiz-adv-x="272" 
d="M175 0h-78v703h78v-703zM115 830l-1 -2q0 -20 -13 -33t-33 -13q-19 0 -33 14q-13 13 -13 33q0 19 14 33t33 14q20 0 33 -13t13 -33zM252 828l-1 -1q0 -19 -14 -33q-13 -13 -33 -13q-19 0 -33 14q-13 13 -13 33q0 19 14 33q13 13 33 13t33 -13q14 -14 14 -33z" />
    <glyph glyph-name="Eth" unicode="&#xd0;" horiz-adv-x="772" 
d="M344 0l-239 -1v319h-78v66h78v318h238q165 0 272 -95q105 -95 105 -254q0 -161 -105 -257t-271 -96zM183 318v-244h158q133 0 216 75q82 75 82 204q0 128 -82 201q-83 74 -216 74h-158v-244h209v-66h-209z" />
    <glyph glyph-name="Ntilde" unicode="&#xd1;" horiz-adv-x="709" 
d="M380 850l-2 -6q13 -13 23 -19q7 -4 15 -4q16 0 23 13t12 46h51q-5 -58 -26 -85t-61 -27q-17 0 -35 8q-15 8 -36 30q-15 15 -25 21q-12 5 -19 5q-20 0 -30 -15t-15 -47h-51q4 58 30 88t69 30q22 0 36 -7q17 -7 41 -31zM169 -6h-74v703h76l365 -573v573h74v-703h-76
l-365 573v-573z" />
    <glyph glyph-name="Ograve" unicode="&#xd2;" horiz-adv-x="831" 
d="M379 766l-81 144h73l80 -144h-72zM48 352h-1q0 152 106 257q107 105 261 105q156 0 262 -105t106 -257q0 -153 -106 -258t-262 -105t-261 105t-105 258zM700 352h-3q0 118 -83 204q-83 84 -203 84q-119 0 -202 -84q-82 -82 -82 -205t82 -205q83 -84 204 -84t204 84
q83 86 83 206z" />
    <glyph glyph-name="Oacute" unicode="&#xd3;" horiz-adv-x="831" 
d="M453 766h-72l80 144h73zM48 352h-1q0 152 106 257q107 105 261 105q156 0 262 -105t106 -257q0 -153 -106 -258t-262 -105t-261 105t-105 258zM700 352h-3q0 118 -83 204q-83 84 -203 84q-119 0 -202 -84q-82 -82 -82 -205t82 -205q83 -84 204 -84t204 84q83 86 83 206z
" />
    <glyph glyph-name="Ocircumflex" unicode="&#xd4;" horiz-adv-x="831" 
d="M270 766l112 144h67l113 -144h-68l-78 100l-79 -100h-67zM48 352h-1q0 152 106 257q107 105 261 105q156 0 262 -105t106 -257q0 -153 -106 -258t-262 -105t-261 105t-105 258zM700 352h-3q0 118 -83 204q-83 84 -203 84q-119 0 -202 -84q-82 -82 -82 -205t82 -205
q83 -84 204 -84t204 84q83 86 83 206z" />
    <glyph glyph-name="Otilde" unicode="&#xd5;" horiz-adv-x="831" 
d="M48 352h-1q0 152 106 257q107 105 261 105q156 0 262 -105t106 -257q0 -153 -106 -258t-262 -105t-261 105t-105 258zM700 352h-3q0 118 -83 204q-83 84 -203 84q-119 0 -202 -84q-82 -82 -82 -205t82 -205q83 -84 204 -84t204 84q83 86 83 206zM436 850l-2 -6
q13 -13 23 -19q7 -4 15 -4q16 0 23 13t12 46h51q-5 -58 -26 -85t-61 -27q-17 0 -35 8q-15 8 -36 30q-15 15 -25 21q-12 5 -19 5q-20 0 -30 -15t-15 -47h-51q4 58 30 88t69 30q22 0 36 -7q17 -7 41 -31z" />
    <glyph glyph-name="Odieresis" unicode="&#xd6;" horiz-adv-x="831" 
d="M48 352h-1q0 152 106 257q107 105 261 105q156 0 262 -105t106 -257q0 -153 -106 -258t-262 -105t-261 105t-105 258zM700 352h-3q0 118 -83 204q-83 84 -203 84q-119 0 -202 -84q-82 -82 -82 -205t82 -205q83 -84 204 -84t204 84q83 86 83 206zM390 830l-1 -2
q0 -20 -13 -33t-33 -13q-19 0 -33 14q-13 13 -13 33q0 19 14 33t33 14q20 0 33 -13t13 -33zM527 828l-1 -1q0 -19 -14 -33q-13 -13 -33 -13q-19 0 -33 14q-13 13 -13 33q0 19 14 33q13 13 33 13t33 -13q14 -14 14 -33z" />
    <glyph glyph-name="multiply" unicode="&#xd7;" 
d="M125 148l-43 43l160 160l-157 158l43 43l158 -158l157 158l43 -43l-157 -157l160 -161l-44 -43l-160 160z" />
    <glyph glyph-name="Oslash" unicode="&#xd8;" horiz-adv-x="834" 
d="M207 51l-70 -85h-85l105 125q-51 51 -78 118t-27 141q0 152 106 257t261 105q60 0 111 -16q54 -17 100 -48l71 84h85l-105 -126q51 -51 78 -117t27 -139q0 -153 -106 -258t-262 -105q-61 0 -112 16q-54 17 -99 48zM418 638h-3q-119 0 -202 -84q-82 -82 -82 -205
q0 -53 20 -107q19 -51 57 -92l372 438q-40 26 -78 38q-40 12 -84 12zM415 61l1 -3q122 0 204 84q83 86 83 206q0 59 -19 107q-19 51 -57 92l-371 -438q34 -24 75 -36t84 -12z" />
    <glyph glyph-name="Ugrave" unicode="&#xd9;" horiz-adv-x="685" 
d="M307 766l-81 144h73l80 -144h-72zM517 703l76 -3v-474q0 -106 -72 -174q-70 -67 -181 -67q-109 0 -180 68t-71 174v474h78v-472q0 -73 48 -120q50 -47 124 -47q79 0 129 47q49 46 49 122v472z" />
    <glyph glyph-name="Uacute" unicode="&#xda;" horiz-adv-x="685" 
d="M517 703l76 -3v-474q0 -106 -72 -174q-70 -67 -181 -67q-109 0 -180 68t-71 174v474h78v-472q0 -73 48 -120q50 -47 124 -47q79 0 129 47q49 46 49 122v472zM378 763h-72l80 144h73z" />
    <glyph glyph-name="Ucircumflex" unicode="&#xdb;" horiz-adv-x="685" 
d="M196 766l112 144h67l113 -144h-68l-78 100l-79 -100h-67zM517 703l76 -3v-474q0 -106 -72 -174q-70 -67 -181 -67q-109 0 -180 68t-71 174v474h78v-472q0 -73 48 -120q50 -47 124 -47q79 0 129 47q49 46 49 122v472z" />
    <glyph glyph-name="Udieresis" unicode="&#xdc;" horiz-adv-x="685" 
d="M517 703l76 -3v-474q0 -106 -72 -174q-70 -67 -181 -67q-109 0 -180 68t-71 174v474h78v-472q0 -73 48 -120q50 -47 124 -47q79 0 129 47q49 46 49 122v472zM320 827l-1 -2q0 -20 -13 -33t-33 -13q-19 0 -33 14q-13 13 -13 33q0 19 14 33t33 14q20 0 33 -13t13 -33z
M457 825l-1 -1q0 -19 -14 -33q-13 -13 -33 -13q-19 0 -33 14q-13 13 -13 33q0 19 14 33q13 13 33 13t33 -13q14 -14 14 -33z" />
    <glyph glyph-name="Yacute" unicode="&#xdd;" horiz-adv-x="621" 
d="M350 0h-78v262l-246 441h88l198 -361l200 361h83l-245 -437v-266zM353 766h-72l80 144h73z" />
    <glyph glyph-name="Thorn" unicode="&#xde;" horiz-adv-x="648" 
d="M97 703l78 -1v-129h164q118 0 192 -59t74 -158q0 -103 -74 -165q-73 -61 -192 -61h-164v-130h-78v703zM336 503h-161v-304h161q82 0 135 42q52 42 52 114q0 68 -52 108t-135 40z" />
    <glyph glyph-name="germandbls" unicode="&#xdf;" horiz-adv-x="616" 
d="M353 57l2 -2q67 0 106 42t39 112q0 64 -44 106t-108 42h-87v59h63q61 0 102 38t41 95t-42 96t-104 39q-71 0 -114 -45q-43 -43 -43 -121v-516h-75v507q0 114 63 180t168 66q93 0 156 -54t63 -138q0 -57 -27 -101q-27 -43 -77 -66q65 -20 102 -72q38 -53 38 -120
q0 -92 -60 -153q-60 -62 -148 -62q-37 0 -62 6q-23 6 -45 20v67q16 -13 39 -19t54 -6z" />
    <glyph glyph-name="agrave" unicode="&#xe0;" horiz-adv-x="547" 
d="M398 0l-3 87q-29 -47 -75 -72q-47 -26 -102 -26q-74 0 -120 40q-47 41 -47 102t39 98t119 57l186 45v8q0 51 -35 81q-34 30 -93 30q-51 0 -89 -29q-36 -29 -42 -75h-73q8 72 65 121q57 48 140 48q91 0 147 -50q54 -49 54 -135v-330h-71zM231 51v-1q67 0 114 51
q47 53 47 120v47l-167 -40q-50 -12 -76 -35q-25 -22 -25 -57q0 -40 29 -63q28 -22 78 -22zM228 572l-81 144h73l80 -144h-72z" />
    <glyph glyph-name="aacute" unicode="&#xe1;" horiz-adv-x="547" 
d="M398 0l-3 87q-29 -47 -75 -72q-47 -26 -102 -26q-74 0 -120 40q-47 41 -47 102t39 98t119 57l186 45v8q0 51 -35 81q-34 30 -93 30q-51 0 -89 -29q-36 -29 -42 -75h-73q8 72 65 121q57 48 140 48q91 0 147 -50q54 -49 54 -135v-330h-71zM231 51v-1q67 0 114 51
q47 53 47 120v47l-167 -40q-50 -12 -76 -35q-25 -22 -25 -57q0 -40 29 -63q28 -22 78 -22zM301 572h-72l80 144h73z" />
    <glyph glyph-name="acircumflex" unicode="&#xe2;" horiz-adv-x="547" 
d="M398 0l-3 87q-29 -47 -75 -72q-47 -26 -102 -26q-74 0 -120 40q-47 41 -47 102t39 98t119 57l186 45v8q0 51 -35 81q-34 30 -93 30q-51 0 -89 -29q-36 -29 -42 -75h-73q8 72 65 121q57 48 140 48q91 0 147 -50q54 -49 54 -135v-330h-71zM231 51v-1q67 0 114 51
q47 53 47 120v47l-167 -40q-50 -12 -76 -35q-25 -22 -25 -57q0 -40 29 -63q28 -22 78 -22zM118 572l112 144h67l113 -144h-68l-78 100l-79 -100h-67z" />
    <glyph glyph-name="atilde" unicode="&#xe3;" horiz-adv-x="547" 
d="M398 0l-3 87q-29 -47 -75 -72q-47 -26 -102 -26q-74 0 -120 40q-47 41 -47 102t39 98t119 57l186 45v8q0 51 -35 81q-34 30 -93 30q-51 0 -89 -29q-36 -29 -42 -75h-73q8 72 65 121q57 48 140 48q91 0 147 -50q54 -49 54 -135v-330h-71zM231 51v-1q67 0 114 51
q47 53 47 120v47l-167 -40q-50 -12 -76 -35q-25 -22 -25 -57q0 -40 29 -63q28 -22 78 -22zM289 661l-2 -6q13 -13 23 -19q7 -4 15 -4q16 0 23 13t12 46h51q-5 -58 -26 -85t-61 -27q-17 0 -35 8q-15 7 -36 30q-15 15 -25 21q-12 5 -19 5q-19 0 -30 -15q-10 -15 -15 -47h-51
q4 58 30 88q25 30 69 30q22 0 36 -7q17 -7 41 -31z" />
    <glyph glyph-name="adieresis" unicode="&#xe4;" horiz-adv-x="547" 
d="M398 0l-3 87q-29 -47 -75 -72q-47 -26 -102 -26q-74 0 -120 40q-47 41 -47 102t39 98t119 57l186 45v8q0 51 -35 81q-34 30 -93 30q-51 0 -89 -29q-36 -29 -42 -75h-73q8 72 65 121q57 48 140 48q91 0 147 -50q54 -49 54 -135v-330h-71zM231 51v-1q67 0 114 51
q47 53 47 120v47l-167 -40q-50 -12 -76 -35q-25 -22 -25 -57q0 -40 29 -63q28 -22 78 -22zM242 638l-1 -2q0 -20 -13 -33t-33 -13q-19 0 -33 14q-13 13 -13 33q0 19 14 33t33 14q20 0 33 -13t13 -33zM379 636l-1 -1q0 -19 -14 -33q-13 -13 -33 -13q-19 0 -33 14
q-13 13 -13 33q0 19 14 33q13 13 33 13t33 -13q14 -14 14 -33z" />
    <glyph glyph-name="aring" unicode="&#xe5;" horiz-adv-x="547" 
d="M398 0l-3 87q-29 -47 -75 -72q-47 -26 -102 -26q-74 0 -120 40q-47 41 -47 102t39 98t119 57l186 45v8q0 51 -35 81q-34 30 -93 30q-51 0 -89 -29q-36 -29 -42 -75h-73q8 72 65 121q57 48 140 48q91 0 147 -50q54 -49 54 -135v-330h-71zM231 51v-1q67 0 114 51
q47 53 47 120v47l-167 -40q-50 -12 -76 -35q-25 -22 -25 -57q0 -40 29 -63q28 -22 78 -22zM360 658q0 -39 -28 -66t-69 -27t-69 27t-28 66q0 38 28 65t69 27q39 0 68 -27t29 -65zM215 658h-1q0 -20 15 -35t35 -15t35 15t15 35t-15 35t-35 15q-19 0 -34 -15t-15 -35z" />
    <glyph glyph-name="ae" unicode="&#xe6;" horiz-adv-x="960" 
d="M829 159h78q-27 -79 -93 -126q-64 -46 -153 -46q-70 0 -132 38q-60 37 -92 102q-21 -65 -76 -102t-129 -37q-81 0 -129 39t-48 103q0 60 39 98q39 37 119 57l186 45v8q0 51 -35 81q-34 30 -93 30q-51 0 -89 -29q-36 -28 -42 -75h-73q8 72 65 121q57 48 140 48
q70 0 116 -30t63 -86q35 56 90 87t120 31q109 0 183 -74t74 -183v-26h-447q6 -76 59 -129q52 -51 129 -51q59 0 102 28q45 28 68 78zM662 451q-71 0 -120 -43q-51 -43 -65 -111l366 -1q-14 71 -63 113t-118 42zM239 51l-1 1q67 0 114 47q46 46 46 111v58l-167 -40
q-50 -12 -76 -35q-25 -22 -25 -57q0 -40 29 -63q28 -22 80 -22z" />
    <glyph glyph-name="ccedilla" unicode="&#xe7;" horiz-adv-x="605" 
d="M310 516l-4 -1q94 0 165 -57t90 -147h-76q-18 60 -66 96t-112 36q-80 0 -136 -56q-55 -55 -55 -137q0 -80 56 -139q56 -57 137 -57q65 0 114 39q50 41 68 100h74q-19 -86 -82 -143t-150 -64l-27 -45q1 1 3 1h7q46 0 74 -27q29 -27 29 -69t-30 -70q-28 -28 -75 -28
q-43 0 -75 26q-30 26 -31 68h57q1 -19 15 -31t33 -12t33 14t14 33q0 22 -13 35q-14 14 -34 14q-16 0 -24 -4q-9 -4 -21 -16l-45 25l55 90q-103 11 -168 86q-66 75 -66 177q0 109 77 186t189 77z" />
    <glyph glyph-name="egrave" unicode="&#xe8;" horiz-adv-x="608" 
d="M306 54l1 1q59 0 102 28q45 28 68 78h75q-27 -79 -93 -126q-64 -46 -153 -46q-110 0 -187 77q-76 76 -76 188q0 109 77 186t186 77q111 0 185 -74t74 -183v-26h-447q6 -76 59 -129q53 -51 129 -51zM307 452h1q-70 0 -119 -43q-51 -43 -66 -112h368q-13 72 -64 113
q-51 42 -120 42zM271 574l-81 144h73l80 -144h-72z" />
    <glyph glyph-name="eacute" unicode="&#xe9;" horiz-adv-x="608" 
d="M343 573h-72l80 144h73zM306 54l1 1q59 0 102 28q45 28 68 78h75q-27 -79 -93 -126q-64 -46 -153 -46q-110 0 -187 77q-76 76 -76 188q0 109 77 186t186 77q111 0 185 -74t74 -183v-26h-447q6 -76 59 -129q53 -51 129 -51zM307 452h1q-70 0 -119 -43q-51 -43 -66 -112
h368q-13 72 -64 113q-51 42 -120 42z" />
    <glyph glyph-name="ecircumflex" unicode="&#xea;" horiz-adv-x="608" 
d="M160 573l112 144h67l113 -144h-68l-78 100l-79 -100h-67zM306 54l1 1q59 0 102 28q45 28 68 78h75q-27 -79 -93 -126q-64 -46 -153 -46q-110 0 -187 77q-76 76 -76 188q0 109 77 186t186 77q111 0 185 -74t74 -183v-26h-447q6 -76 59 -129q53 -51 129 -51zM307 452h1
q-70 0 -119 -43q-51 -43 -66 -112h368q-13 72 -64 113q-51 42 -120 42z" />
    <glyph glyph-name="edieresis" unicode="&#xeb;" horiz-adv-x="608" 
d="M284 639l-1 -2q0 -20 -13 -33t-33 -13q-19 0 -33 14q-13 13 -13 33q0 19 14 33t33 14q20 0 33 -13t13 -33zM421 637l-1 -1q0 -19 -14 -33q-13 -13 -33 -13q-19 0 -33 14q-13 13 -13 33q0 19 14 33q13 13 33 13t33 -13q14 -14 14 -33zM304 51l1 1q59 0 102 28q45 28 68 78
h75q-27 -80 -93 -126q-64 -46 -153 -46q-110 0 -187 77q-76 76 -76 188q0 109 77 186t186 77q111 0 185 -74t74 -183v-26h-447q6 -76 59 -129q53 -51 129 -51zM305 449h1q-70 0 -119 -43q-51 -43 -66 -112h368q-13 72 -64 113q-51 42 -120 42z" />
    <glyph glyph-name="igrave" unicode="&#xec;" horiz-adv-x="250" 
d="M163 0h-76v504h76v-504zM89 573l-81 144h73l80 -144h-72z" />
    <glyph glyph-name="iacute" unicode="&#xed;" horiz-adv-x="250" 
d="M161 573h-72l80 144h73zM163 0h-76v504h76v-504z" />
    <glyph glyph-name="icircumflex" unicode="&#xee;" horiz-adv-x="250" 
d="M-21 573l112 144h67l113 -144h-68l-78 100l-79 -100h-67zM163 0h-76v504h76v-504z" />
    <glyph glyph-name="idieresis" unicode="&#xef;" horiz-adv-x="250" 
d="M103 639l-1 -2q0 -20 -13 -33t-33 -13q-19 0 -33 14q-13 13 -13 33q0 19 14 33t33 14q20 0 33 -13t13 -33zM240 637l-1 -1q0 -19 -14 -33q-13 -13 -33 -13q-19 0 -33 14q-13 13 -13 33q0 19 14 33q13 13 33 13t33 -13q14 -14 14 -33zM161 -3h-76v504h76v-504z" />
    <glyph glyph-name="eth" unicode="&#xf0;" horiz-adv-x="632" 
d="M43 251l-2 -7q0 107 75 182t182 75q62 0 111 -25q50 -24 83 -73q-11 60 -41 115q-32 60 -79 111l-108 -51v46l76 37q-2 1 -19 16.5t-27 23.5q-22 18 -50 36h82q11 -7 33 -23t35 -28l101 51v-45l-70 -36q75 -76 114 -177t39 -210q0 -119 -78 -200t-189 -81q-110 0 -190 77
q-78 77 -78 186zM502 243l-1 1q0 80 -55 135q-56 56 -138 56t-137 -55q-56 -56 -56 -135q0 -81 56 -137t138 -56q81 0 137 56t56 135z" />
    <glyph glyph-name="ntilde" unicode="&#xf1;" horiz-adv-x="597" 
d="M160 0l-74 -2v504h72v-83q26 45 69 70t96 25q89 0 141 -54q53 -56 53 -143v-318h-75v301q0 69 -36 108t-100 39t-105 -45q-41 -47 -41 -112v-290zM330 660l-2 -6q13 -13 23 -19q7 -4 15 -4q16 0 23 13t12 46h51q-5 -58 -26 -85t-61 -27q-17 0 -35 8q-15 8 -36 30
q-15 15 -25 21q-12 5 -19 5q-20 0 -30 -15t-15 -47h-51q4 58 30 88t69 30q22 0 36 -7q17 -7 41 -31z" />
    <glyph glyph-name="ograve" unicode="&#xf2;" horiz-adv-x="620" 
d="M43 253v-2q0 109 77 186t189 77q113 0 189 -76q77 -77 77 -186q0 -112 -77 -189q-76 -76 -189 -76q-112 0 -189 77t-77 189zM503 251h-3q0 82 -55 137q-56 56 -138 56q-80 0 -136 -56q-55 -55 -55 -137q0 -80 56 -139q56 -57 137 -57q83 0 138 57q56 59 56 139zM272 571
l-81 144h73l80 -144h-72z" />
    <glyph glyph-name="oacute" unicode="&#xf3;" horiz-adv-x="620" 
d="M348 573h-72l80 144h73zM43 253v-2q0 109 77 186t189 77q113 0 189 -76q77 -77 77 -186q0 -112 -77 -189q-76 -76 -189 -76q-112 0 -189 77t-77 189zM503 251h-3q0 82 -55 137q-56 56 -138 56q-80 0 -136 -56q-55 -55 -55 -137q0 -80 56 -139q56 -57 137 -57q83 0 138 57
q56 59 56 139z" />
    <glyph glyph-name="ocircumflex" unicode="&#xf4;" horiz-adv-x="620" 
d="M165 573l112 144h67l113 -144h-68l-78 100l-79 -100h-67zM43 253v-2q0 109 77 186t189 77q113 0 189 -76q77 -77 77 -186q0 -112 -77 -189q-76 -76 -189 -76q-112 0 -189 77t-77 189zM503 251h-3q0 82 -55 137q-56 56 -138 56q-80 0 -136 -56q-55 -55 -55 -137
q0 -80 56 -139q56 -57 137 -57q83 0 138 57q56 59 56 139z" />
    <glyph glyph-name="otilde" unicode="&#xf5;" horiz-adv-x="620" 
d="M43 253v-2q0 109 77 186t189 77q113 0 189 -76q77 -77 77 -186q0 -112 -77 -189q-76 -76 -189 -76q-112 0 -189 77t-77 189zM503 251h-3q0 82 -55 137q-56 56 -138 56q-80 0 -136 -56q-55 -55 -55 -137q0 -80 56 -139q56 -57 137 -57q83 0 138 57q56 59 56 139zM332 660
l-2 -6q13 -13 23 -19q7 -4 15 -4q16 0 23 13t12 46h51q-5 -58 -26 -85t-61 -27q-17 0 -35 8q-15 8 -36 30q-15 15 -25 21q-12 5 -19 5q-20 0 -30 -15t-15 -47h-51q4 58 30 88t69 30q22 0 36 -7q17 -7 41 -31z" />
    <glyph glyph-name="odieresis" unicode="&#xf6;" horiz-adv-x="620" 
d="M289 639l-1 -2q0 -20 -13 -33t-33 -13q-19 0 -33 14q-13 13 -13 33q0 19 14 33t33 14q20 0 33 -13t13 -33zM426 637l-1 -1q0 -19 -14 -33q-13 -13 -33 -13q-19 0 -33 14q-13 13 -13 33q0 19 14 33q13 13 33 13t33 -13q14 -14 14 -33zM41 250v-2q0 109 77 186t189 77
q113 0 189 -76q77 -77 77 -186q0 -112 -77 -189q-76 -76 -189 -76q-112 0 -189 77t-77 189zM501 248h-3q0 82 -55 137q-56 56 -138 56q-80 0 -136 -56q-55 -55 -55 -137q0 -80 56 -139q56 -57 137 -57q83 0 138 57q56 59 56 139z" />
    <glyph glyph-name="divide" unicode="&#xf7;" 
d="M340 533h1q0 -23 -16 -39t-39 -16t-38 16t-15 39t15 38t38 15q24 0 39 -15t15 -38zM63 320v60h446v-60h-446zM341 167h1q0 -23 -16 -39t-39 -16t-38 16t-15 39t15 38t38 15q24 0 39 -15t15 -38z" />
    <glyph glyph-name="oslash" unicode="&#xf8;" horiz-adv-x="628" 
d="M171 28l-50 -63h-75l77 96q-37 37 -57 87q-20 52 -20 103q0 109 77 186t189 77q42 0 76 -10q38 -10 69 -30l49 61h74l-78 -97q38 -36 57 -84q20 -51 20 -101q0 -111 -77 -188t-189 -77q-42 0 -75 10q-36 11 -67 30zM313 443h-1q-81 0 -137 -56t-56 -137q0 -40 13 -72
q13 -34 39 -61l243 298q-22 13 -48 21q-22 7 -53 7zM312 55l-3 -1q81 0 137 57q56 59 56 139q0 38 -12 71q-11 33 -36 59l-243 -297q23 -13 48 -21q22 -7 53 -7z" />
    <glyph glyph-name="ugrave" unicode="&#xf9;" horiz-adv-x="588" 
d="M285 57l1 -1q62 0 103 45q40 43 40 112v290h75v-504h-72v84q-26 -45 -69 -70t-94 -25q-85 0 -138 54q-52 52 -52 143v318h75v-301q0 -65 35 -106q35 -39 96 -39zM255 572l-81 144h73l80 -144h-72z" />
    <glyph glyph-name="uacute" unicode="&#xfa;" horiz-adv-x="588" 
d="M327 573h-72l80 144h73zM285 57l1 -1q62 0 103 45q40 43 40 112v290h75v-504h-72v84q-26 -45 -69 -70t-94 -25q-85 0 -138 54q-52 52 -52 143v318h75v-301q0 -65 35 -106q35 -39 96 -39z" />
    <glyph glyph-name="ucircumflex" unicode="&#xfb;" horiz-adv-x="588" 
d="M145 573l112 144h67l113 -144h-68l-78 100l-79 -100h-67zM285 57l1 -1q62 0 103 45q40 43 40 112v290h75v-504h-72v84q-26 -45 -69 -70t-94 -25q-85 0 -138 54q-52 52 -52 143v318h75v-301q0 -65 35 -106q35 -39 96 -39z" />
    <glyph glyph-name="udieresis" unicode="&#xfc;" horiz-adv-x="588" 
d="M269 639l-1 -2q0 -20 -13 -33t-33 -13q-19 0 -33 14q-13 13 -13 33q0 19 14 33t33 14q20 0 33 -13t13 -33zM406 637l-1 -1q0 -19 -14 -33q-13 -13 -33 -13q-19 0 -33 14q-13 13 -13 33q0 19 14 33q13 13 33 13t33 -13q14 -14 14 -33zM283 54l1 -1q62 0 103 45
q40 43 40 112v290h75v-504h-72v84q-26 -45 -69 -70t-94 -25q-85 0 -138 54q-52 52 -52 143v318h75v-301q0 -65 35 -106q35 -39 96 -39z" />
    <glyph glyph-name="yacute" unicode="&#xfd;" horiz-adv-x="521" 
d="M420 504h78l-277 -716h-75l78 206l-202 510h79l160 -416zM298 573h-72l80 144h73z" />
    <glyph glyph-name="thorn" unicode="&#xfe;" horiz-adv-x="664" 
d="M365 516l-3 -1q110 0 183 -75q73 -73 73 -187q0 -112 -74 -189q-73 -76 -183 -76q-63 0 -116 29t-86 81v-310h-75v953h75v-335q34 52 88 81q56 29 118 29zM539 252l-1 -1q0 83 -55 138q-55 57 -138 57q-80 0 -136 -56q-55 -55 -55 -138q0 -84 55 -139q55 -57 136 -57
q83 0 138 57q56 59 56 139z" />
    <glyph glyph-name="ydieresis" unicode="&#xff;" horiz-adv-x="521" 
d="M420 504h78l-277 -716h-75l78 206l-202 510h79l160 -416zM239 639l-1 -2q0 -20 -13 -33t-33 -13q-19 0 -33 14q-13 13 -13 33q0 19 14 33t33 14q20 0 33 -13t13 -33zM376 637l-1 -1q0 -19 -14 -33q-13 -13 -33 -13q-19 0 -33 14q-13 13 -13 33q0 19 14 33q13 13 33 13
t33 -13q14 -14 14 -33z" />
    <glyph glyph-name="Amacron" unicode="&#x100;" horiz-adv-x="668" 
d="M293 703h83l272 -703h-84l-70 184h-325l-70 -184h-80zM469 251l-137 362l-138 -362h275zM466 796h-263v53h263v-53z" />
    <glyph glyph-name="amacron" unicode="&#x101;" horiz-adv-x="547" 
d="M398 0l-3 87q-29 -47 -75 -72q-47 -26 -102 -26q-74 0 -120 40q-47 41 -47 102t39 98t119 57l186 45v8q0 51 -35 81q-34 30 -93 30q-51 0 -89 -29q-36 -29 -42 -75h-73q8 72 65 121q57 48 140 48q91 0 147 -50q54 -49 54 -135v-330h-71zM231 51v-1q67 0 114 51
q47 53 47 120v47l-167 -40q-50 -12 -76 -35q-25 -22 -25 -57q0 -40 29 -63q28 -22 78 -22zM396 604h-263v53h263v-53z" />
    <glyph glyph-name="Abreve" unicode="&#x102;" horiz-adv-x="668" 
d="M293 703h83l272 -703h-84l-70 184h-325l-70 -184h-80zM469 251l-137 362l-138 -362h275zM334 758l1 -1q-60 0 -99 39t-39 101h56q0 -44 22 -66q23 -24 60 -24t60 24q22 22 22 66h56q0 -61 -39 -100t-100 -39z" />
    <glyph glyph-name="abreve" unicode="&#x103;" horiz-adv-x="547" 
d="M398 0l-3 87q-29 -47 -75 -72q-47 -26 -102 -26q-74 0 -120 40q-47 41 -47 102t39 98t119 57l186 45v8q0 51 -35 81q-34 30 -93 30q-51 0 -89 -29q-36 -29 -42 -75h-73q8 72 65 121q57 48 140 48q91 0 147 -50q54 -49 54 -135v-330h-71zM231 51v-1q67 0 114 51
q47 53 47 120v47l-167 -40q-50 -12 -76 -35q-25 -22 -25 -57q0 -40 29 -63q28 -22 78 -22zM264 565l1 -1q-60 0 -99 39t-39 101h56q0 -44 22 -66q23 -24 60 -24t60 24q22 22 22 66h56q0 -61 -39 -100t-100 -39z" />
    <glyph glyph-name="Aogonek" unicode="&#x104;" horiz-adv-x="668" 
d="M293 703l82 -2l272 -703h-20q-47 -54 -69 -89q-20 -32 -20 -56q0 -22 12 -34t35 -12q11 0 23 3t23 9v-53q-14 -9 -29 -13q-12 -4 -32 -4q-40 0 -69 26q-28 25 -28 63q0 34 18 67q20 36 73 96l-70 183h-325l-70 -184h-80zM468 249l-137 362l-138 -362h275z" />
    <glyph glyph-name="aogonek" unicode="&#x105;" horiz-adv-x="547" 
d="M398 2l-4 83q-28 -47 -75 -72q-47 -26 -102 -26q-74 0 -120 40q-47 41 -47 102t39 98t119 57l186 45v8q0 51 -35 81t-93 30q-51 0 -89 -29q-36 -29 -42 -75h-73q8 72 65 121q57 48 140 48q91 0 147 -50q54 -49 54 -135v-330h-8q-47 -54 -69 -89q-20 -32 -20 -56
q0 -22 12 -34t35 -12q11 0 23 3t23 9v-53q-14 -9 -29 -13q-12 -4 -32 -4q-40 0 -69 26q-28 25 -28 63q0 34 18 67q15 28 74 97zM230 49v-1q68 0 114 51q47 53 47 120v47l-167 -40q-50 -12 -76 -35q-25 -22 -25 -57q0 -40 29 -63q28 -22 78 -22z" />
    <glyph glyph-name="Cacute" unicode="&#x106;" horiz-adv-x="802" 
d="M682 271l82 3q-27 -124 -125 -204q-97 -79 -228 -79q-153 0 -258 106q-105 107 -105 258q0 152 105 257t258 105q130 0 224 -76q96 -77 126 -198h-84q-29 90 -102 144t-166 54q-117 0 -198 -84t-81 -204q0 -121 81 -205t198 -84q97 0 172 57q75 56 101 150zM448 769h-72
l80 144h73z" />
    <glyph glyph-name="cacute" unicode="&#x107;" horiz-adv-x="605" 
d="M346 573h-72l80 144h73zM310 516l-4 1q94 0 165 -57t90 -147h-76q-18 60 -66 96t-112 36q-80 0 -136 -56q-55 -55 -55 -137q0 -80 56 -139q56 -57 137 -57q65 0 114 39q50 41 68 100h74q-19 -91 -90 -150q-70 -58 -165 -58q-112 0 -189 77t-77 189q0 109 77 186t189 77z
" />
    <glyph glyph-name="Ccircumflex" unicode="&#x108;" horiz-adv-x="802" 
d="M682 271l82 3q-27 -124 -125 -204q-97 -79 -228 -79q-153 0 -258 106q-105 107 -105 258q0 152 105 257t258 105q130 0 224 -76q96 -77 126 -198h-84q-29 90 -102 144t-166 54q-117 0 -198 -84t-81 -204q0 -121 81 -205t198 -84q97 0 172 57q75 56 101 150zM265 769
l112 144h67l113 -144h-68l-78 100l-79 -100h-67z" />
    <glyph glyph-name="ccircumflex" unicode="&#x109;" horiz-adv-x="605" 
d="M164 573l112 144h67l113 -144h-68l-78 100l-79 -100h-67zM310 516l-4 1q94 0 165 -57t90 -147h-76q-18 60 -66 96t-112 36q-80 0 -136 -56q-55 -55 -55 -137q0 -80 56 -139q56 -57 137 -57q65 0 114 39q50 41 68 100h74q-19 -91 -90 -150q-70 -58 -165 -58
q-112 0 -189 77t-77 189q0 109 77 186t189 77z" />
    <glyph glyph-name="Cdotaccent" unicode="&#x10a;" horiz-adv-x="802" 
d="M463 833v-1q0 -21 -15 -36t-36 -15q-22 0 -37 15t-15 36q0 23 15 38t37 15q21 0 36 -15t15 -37zM682 270l82 3q-27 -124 -125 -204q-97 -79 -228 -79q-153 0 -258 106t-105 258t105 257t258 105q130 0 224 -76q96 -76 126 -198h-84q-29 90 -102 144t-166 54
q-117 0 -198 -84t-81 -204q0 -121 81 -205t198 -84q97 0 172 57q75 56 101 150z" />
    <glyph glyph-name="cdotaccent" unicode="&#x10b;" horiz-adv-x="605" 
d="M310 516l-4 1q94 0 165 -57t90 -147h-76q-18 60 -66 96t-112 36q-80 0 -136 -56q-55 -55 -55 -137q0 -80 56 -139q56 -57 137 -57q65 0 114 39q50 41 68 100h74q-19 -91 -90 -150q-70 -58 -165 -58q-112 0 -189 77t-77 189q0 109 77 186t189 77zM358 643v-1
q0 -21 -15 -36t-36 -15q-22 0 -37 15t-15 36q0 23 15 38t37 15q21 0 36 -15t15 -37z" />
    <glyph glyph-name="Ccaron" unicode="&#x10c;" horiz-adv-x="802" 
d="M682 271l82 3q-27 -124 -125 -204q-97 -79 -228 -79q-153 0 -258 106q-105 107 -105 258q0 152 105 257t258 105q130 0 224 -76q96 -77 126 -198h-84q-29 90 -102 144t-166 54q-117 0 -198 -84t-81 -204q0 -121 81 -205t198 -84q97 0 172 57q75 56 101 150zM264 913h67
l79 -100l78 100h68l-113 -144h-67z" />
    <glyph glyph-name="ccaron" unicode="&#x10d;" horiz-adv-x="605" 
d="M163 717h67l79 -100l78 100h68l-113 -144h-67zM310 516l-4 1q94 0 165 -57t90 -147h-76q-18 60 -66 96t-112 36q-80 0 -136 -56q-55 -55 -55 -137q0 -80 56 -139q56 -57 137 -57q65 0 114 39q50 41 68 100h74q-19 -91 -90 -150q-70 -58 -165 -58q-112 0 -189 77t-77 189
q0 109 77 186t189 77z" />
    <glyph glyph-name="Dcaron" unicode="&#x10e;" horiz-adv-x="763" 
d="M335 0l-239 -1v703h238q165 0 272 -95q105 -95 105 -254q0 -161 -105 -257t-271 -96zM174 628v-554h158q134 0 216 75t82 204q0 128 -82 201q-83 74 -216 74h-158zM211 910h67l79 -100l78 100h68l-113 -144h-67z" />
    <glyph glyph-name="dcaron" unicode="&#x10f;" horiz-adv-x="687" 
d="M761 662l-43 -123h-49l41 111q-20 2 -31 17q-12 15 -12 34q0 22 15 37t37 15t37 -15t15 -37q0 -1 -2 -15q-1 -4 -8 -24zM299 -13l1 -1q-110 0 -183 75q-73 73 -73 188q0 112 74 189q73 76 183 76q64 0 116 -28q53 -29 86 -81v334h75v-741h-71v104q-33 -55 -88 -85
t-120 -30zM122 250h-3q0 -80 56 -139q55 -57 138 -57q81 0 137 57q56 59 56 139q0 84 -55 139q-55 57 -136 57q-83 0 -138 -57q-55 -55 -55 -139z" />
    <glyph glyph-name="Dcroat" unicode="&#x110;" horiz-adv-x="772" 
d="M344 0l-239 -1v319h-78v66h78v318h238q165 0 272 -95q105 -95 105 -254q0 -161 -105 -257t-271 -96zM183 318v-244h158q133 0 216 75q82 75 82 204q0 128 -82 201q-83 74 -216 74h-158v-244h209v-66h-209z" />
    <glyph glyph-name="dcroat" unicode="&#x111;" horiz-adv-x="663" 
d="M299 -12l1 -1q-110 0 -183 75q-73 73 -73 188q0 112 74 189q73 76 183 76q64 0 116 -28q53 -29 86 -81v183h-203v62h203v89h75v-89h72v-62h-72v-590h-71v104q-33 -55 -88 -85t-120 -30zM122 251h-3q0 -80 56 -139q55 -57 138 -57q81 0 137 57q56 59 56 139q0 84 -55 139
q-55 57 -136 57q-83 0 -138 -57q-55 -55 -55 -139z" />
    <glyph glyph-name="Emacron" unicode="&#x112;" horiz-adv-x="579" 
d="M524 0h-427v703h422v-72h-344v-238h320v-69h-320v-252h349v-72zM441 796h-263v53h263v-53z" />
    <glyph glyph-name="emacron" unicode="&#x113;" horiz-adv-x="608" 
d="M306 54l1 1q59 0 102 28q45 28 68 78h75q-27 -79 -93 -126q-64 -46 -153 -46q-110 0 -187 77q-76 76 -76 188q0 109 77 186t186 77q111 0 185 -74t74 -183v-26h-447q6 -76 59 -129q53 -51 129 -51zM307 452h1q-70 0 -119 -43q-51 -43 -66 -112h368q-13 72 -64 113
q-51 42 -120 42zM439 606h-263v53h263v-53z" />
    <glyph glyph-name="Ebreve" unicode="&#x114;" horiz-adv-x="579" 
d="M524 0h-427v703h422v-72h-344v-238h320v-69h-320v-252h349v-72zM308 758l1 -1q-60 0 -99 39t-39 101h56q0 -44 22 -66q23 -24 60 -24t60 24q22 22 22 66h56q0 -61 -39 -100t-100 -39z" />
    <glyph glyph-name="ebreve" unicode="&#x115;" horiz-adv-x="608" 
d="M306 54l1 1q59 0 102 28q45 28 68 78h75q-27 -79 -93 -126q-64 -46 -153 -46q-110 0 -187 77q-76 76 -76 188q0 109 77 186t186 77q111 0 185 -74t74 -183v-26h-447q6 -76 59 -129q53 -51 129 -51zM307 452h1q-70 0 -119 -43q-51 -43 -66 -112h368q-13 72 -64 113
q-51 42 -120 42zM308 567l1 -1q-60 0 -99 39t-39 101h56q0 -44 22 -66q23 -24 60 -24t60 24q22 22 22 66h56q0 -61 -39 -100t-100 -39z" />
    <glyph glyph-name="Edotaccent" unicode="&#x116;" horiz-adv-x="579" 
d="M362 833v-1q0 -21 -15 -36t-36 -15q-22 0 -37 15t-15 36q0 23 15 38t37 15q21 0 36 -15t15 -37zM524 -1h-427v703h422v-72h-344v-238h320v-69h-320v-252h349v-72z" />
    <glyph glyph-name="edotaccent" unicode="&#x117;" horiz-adv-x="608" 
d="M306 54l1 1q59 0 102 28q45 28 68 78h75q-27 -79 -93 -126q-64 -46 -153 -46q-110 0 -187 77q-76 76 -76 188q0 109 77 186t186 77q111 0 185 -74t74 -183v-26h-447q6 -76 59 -129q53 -51 129 -51zM307 452h1q-70 0 -119 -43q-51 -43 -66 -112h368q-13 72 -64 113
q-51 42 -120 42zM360 643v-1q0 -21 -15 -36t-36 -15q-22 0 -37 15t-15 36q0 23 15 38t37 15q21 0 36 -15t15 -37z" />
    <glyph glyph-name="Eogonek" unicode="&#x118;" horiz-adv-x="579" 
d="M433 0l-336 -2v703h422v-72h-344v-238h320v-69h-320v-252h349v-72h-26q-47 -54 -69 -89q-20 -32 -20 -56q0 -22 12 -34t35 -12q11 0 23 3t23 9v-53q-14 -9 -29 -13q-12 -4 -32 -4q-40 0 -69 26q-28 25 -28 63q0 31 17 67q15 32 72 95z" />
    <glyph glyph-name="eogonek" unicode="&#x119;" horiz-adv-x="608" 
d="M373 -1l1 -4l-32 -8q-16 -3 -35 -3q-110 0 -187 77q-76 76 -76 188q0 109 77 186t186 77q111 0 185 -74t74 -183v-26h-447q6 -76 59 -129q52 -51 129 -51q59 0 102 28q45 28 68 78h75q-7 -24 -22 -48q-15 -23 -36 -45q-72 -81 -101 -128t-29 -81q0 -23 12 -35t35 -12
q12 0 24 3q12 4 22 9v-53q-18 -10 -28 -13q-12 -4 -32 -4q-40 0 -69 26q-28 25 -28 65q0 39 16 72q18 37 57 88zM307 447q-70 0 -119 -43q-51 -43 -66 -112h367q-14 71 -63 113t-119 42z" />
    <glyph glyph-name="Ecaron" unicode="&#x11a;" horiz-adv-x="579" 
d="M524 0h-427v703h422v-72h-344v-238h320v-69h-320v-252h349v-72zM161 910h67l79 -100l78 100h68l-113 -144h-67z" />
    <glyph glyph-name="ecaron" unicode="&#x11b;" horiz-adv-x="608" 
d="M159 717h67l79 -100l78 100h68l-113 -144h-67zM306 54l1 1q59 0 102 28q45 28 68 78h75q-27 -79 -93 -126q-64 -46 -153 -46q-110 0 -187 77q-76 76 -76 188q0 109 77 186t186 77q111 0 185 -74t74 -183v-26h-447q6 -76 59 -129q53 -51 129 -51zM307 452h1
q-70 0 -119 -43q-51 -43 -66 -112h368q-13 72 -64 113q-51 42 -120 42z" />
    <glyph glyph-name="Gcircumflex" unicode="&#x11c;" horiz-adv-x="810" 
d="M262 766l112 144h67l113 -144h-68l-78 100l-79 -100h-67zM745 348l-4 -343h-66v147q-39 -76 -111 -117q-74 -41 -168 -41q-148 0 -249 105q-100 103 -100 258q0 150 104 257q103 105 255 105q119 0 210 -67q92 -68 128 -177h-86q-32 77 -99 122q-68 45 -152 45
q-118 0 -197 -84q-80 -86 -80 -205q0 -121 80 -207q80 -84 198 -84q110 0 180 57q71 57 86 164h-272v65h343z" />
    <glyph glyph-name="gcircumflex" unicode="&#x11d;" horiz-adv-x="631" 
d="M148 573l112 144h67l113 -144h-68l-78 100l-79 -100h-67zM50 -24l74 -1q2 -62 50 -99q50 -38 125 -38t125 44q48 44 48 114v127q-30 -46 -79 -73t-108 -27q-102 0 -171 71q-69 70 -69 176q0 104 69 174q69 71 172 71q60 0 110 -27t80 -77v92h71v-500q0 -103 -68 -166
q-67 -63 -180 -63q-107 0 -177 57q-71 57 -72 145zM123 269v-1q0 -74 50 -127q49 -51 125 -51q74 0 125 53t51 126t-51 126q-51 52 -125 52q-76 0 -125 -51q-50 -53 -50 -127z" />
    <glyph glyph-name="Gbreve" unicode="&#x11e;" horiz-adv-x="810" 
d="M745 348l-4 -343h-66v147q-39 -76 -111 -117q-74 -41 -168 -41q-148 0 -249 105q-100 103 -100 258q0 150 104 257q103 105 255 105q119 0 210 -67q92 -68 128 -177h-86q-32 77 -99 122q-68 45 -152 45q-118 0 -197 -84q-80 -86 -80 -205q0 -121 80 -207q80 -84 198 -84
q110 0 180 57q71 57 86 164h-272v65h343zM403 763l1 -1q-60 0 -99 39t-39 101h56q0 -44 22 -66q22 -24 60 -24t60 24q22 22 22 66h56q0 -61 -39 -100t-100 -39z" />
    <glyph glyph-name="gbreve" unicode="&#x11f;" horiz-adv-x="631" 
d="M50 -24l74 -1q2 -62 50 -99q50 -38 125 -38t125 44q48 44 48 114v127q-30 -46 -79 -73t-108 -27q-102 0 -171 71q-69 70 -69 176q0 104 69 174q69 71 172 71q60 0 110 -27t80 -77v92h71v-500q0 -103 -68 -166q-67 -63 -180 -63q-107 0 -177 57q-71 57 -72 145zM123 269
v-1q0 -74 50 -127q49 -51 125 -51q74 0 125 53t51 126t-51 126q-51 52 -125 52q-76 0 -125 -51q-50 -53 -50 -127zM295 564l1 -1q-60 0 -99 39t-39 101h56q0 -44 22 -66q22 -24 60 -24t60 24q22 22 22 66h56q0 -61 -39 -100t-100 -39z" />
    <glyph glyph-name="Gdotaccent" unicode="&#x120;" horiz-adv-x="810" 
d="M461 833v-1q0 -21 -15 -36t-36 -15q-22 0 -37 15t-15 36q0 23 15 38t37 15q21 0 36 -15t15 -37zM745 347l-4 -343h-66v147q-39 -77 -111 -117q-74 -41 -168 -41q-148 0 -249 105q-100 103 -100 258q0 150 104 257q103 105 255 105q119 0 210 -67q92 -68 128 -177h-86
q-32 77 -99 122q-68 45 -152 45q-118 0 -197 -84q-80 -86 -80 -205q0 -121 80 -207q80 -84 198 -84q110 0 180 57q71 57 86 164h-272v65h343z" />
    <glyph glyph-name="gdotaccent" unicode="&#x121;" horiz-adv-x="631" 
d="M50 -24l74 -1q2 -62 50 -99q50 -38 125 -38t125 44q48 44 48 114v127q-30 -46 -79 -73t-108 -27q-102 0 -171 71q-69 70 -69 176q0 104 69 174q69 71 172 71q60 0 110 -27t80 -77v92h71v-500q0 -103 -68 -166q-67 -63 -180 -63q-107 0 -177 57q-71 57 -72 145zM123 269
v-1q0 -74 50 -127q49 -51 125 -51q74 0 125 53t51 126t-51 126q-51 52 -125 52q-76 0 -125 -51q-50 -53 -50 -127zM346 640v-1q0 -21 -15 -36t-36 -15q-22 0 -37 15t-15 36q0 23 15 38t37 15q21 0 36 -15t15 -37z" />
    <glyph glyph-name="uni0122" unicode="&#x122;" horiz-adv-x="810" 
d="M443 -138l-43 -109h-44l36 88q-16 3 -30 17q-12 14 -12 30q0 21 14 35t35 14t35 -14t14 -35q0 -8 -1 -11q-3 -14 -4 -15zM745 348l-4 -343h-66v147q-39 -76 -111 -117q-74 -41 -168 -41q-148 0 -249 105q-100 103 -100 258q0 150 104 257q103 105 255 105q119 0 210 -67
q92 -68 128 -177h-86q-32 77 -99 122q-68 45 -152 45q-118 0 -197 -84q-80 -86 -80 -205q0 -121 80 -207q80 -84 198 -84q110 0 180 57q71 57 86 164h-272v65h343z" />
    <glyph glyph-name="uni0123" unicode="&#x123;" horiz-adv-x="631" 
d="M250 664l43 110h45l-37 -89q19 -3 29 -16q11 -14 11 -30q0 -19 -14 -33t-35 -14t-35 14t-14 33q0 2 2 12q2 8 5 13zM49 -24l74 -1q2 -62 50 -99q50 -38 125 -38t125 44q48 44 48 114v127q-30 -46 -79 -73q-50 -27 -108 -27q-102 0 -171 71q-69 70 -69 176q0 104 69 174
q69 71 172 71q61 0 110 -27q50 -27 80 -77v92h71v-500q0 -103 -68 -166t-180 -63q-106 0 -177 57t-72 145zM122 269v-1q0 -74 50 -127q50 -51 125 -51q74 0 125 53t51 126t-51 126q-51 52 -125 52q-75 0 -125 -51q-50 -53 -50 -127z" />
    <glyph glyph-name="Hcircumflex" unicode="&#x124;" horiz-adv-x="709" 
d="M175 0h-78v703h78v-304h359v304h78v-703h-78v324h-359v-324zM209 766l112 144h67l113 -144h-68l-78 100l-79 -100h-67z" />
    <glyph glyph-name="hcircumflex" unicode="&#x125;" horiz-adv-x="597" 
d="M-23 810l112 144h67l113 -144h-68l-78 100l-79 -100h-67zM160 0h-76v741h75v-316q27 43 70 67t94 24q89 0 141 -54q53 -56 53 -143v-318h-75v306q0 65 -36 102q-36 38 -100 38t-105 -45q-41 -47 -41 -112v-290z" />
    <glyph glyph-name="Hbar" unicode="&#x126;" horiz-adv-x="725" 
d="M183 0h-78v509h-77v64h77v130h78v-130h359v130h78v-130h77v-64h-77v-509h-78v324h-359v-324zM183 509v-110h359v110h-359z" />
    <glyph glyph-name="hbar" unicode="&#x127;" horiz-adv-x="597" 
d="M160 0h-76v590h-71v62h71v89h75v-89h204v-62h-204v-165q27 43 70 67t94 24q89 0 141 -54q53 -56 53 -143v-318h-75v306q0 65 -36 102q-36 38 -100 38t-105 -45q-41 -47 -41 -112v-290z" />
    <glyph glyph-name="Itilde" unicode="&#x128;" horiz-adv-x="272" 
d="M175 0h-78v703h78v-703zM161 850l-2 -6q13 -13 23 -19q7 -4 15 -4q16 0 23 13t12 46h51q-5 -58 -26 -85t-61 -27q-17 0 -35 8q-15 8 -36 30q-15 15 -25 21q-12 5 -19 5q-19 0 -30 -15q-10 -15 -15 -47h-51q4 58 30 88q25 30 69 30q22 0 36 -7q17 -7 41 -31z" />
    <glyph glyph-name="itilde" unicode="&#x129;" horiz-adv-x="250" 
d="M163 0h-76v504h76v-504zM149 662l-2 -6q13 -13 23 -19q7 -4 15 -4q16 0 23 13t12 46h51q-5 -58 -26 -85t-61 -27q-17 0 -35 8q-15 8 -36 30q-15 15 -25 21q-12 5 -19 5q-19 0 -30 -15q-10 -15 -15 -47h-51q4 58 30 88q25 30 69 30q22 0 36 -7q17 -7 41 -31z" />
    <glyph glyph-name="Imacron" unicode="&#x12a;" horiz-adv-x="272" 
d="M175 0h-78v703h78v-703zM269 796h-263v53h263v-53z" />
    <glyph glyph-name="imacron" unicode="&#x12b;" horiz-adv-x="250" 
d="M163 0h-76v504h76v-504zM257 605h-263v53h263v-53z" />
    <glyph glyph-name="Iogonek" unicode="&#x12e;" horiz-adv-x="272" 
d="M165 -179l-1 -55q-14 -9 -29 -13q-12 -4 -32 -4q-40 0 -69 26q-28 25 -28 63q0 34 18 67q20 36 73 96v702h78v-703h-14q-47 -54 -69 -89q-20 -32 -20 -56q0 -22 12 -34t35 -12q11 0 23 3t23 9z" />
    <glyph glyph-name="iogonek" unicode="&#x12f;" horiz-adv-x="250" 
d="M69 669h-3q0 23 15 39t41 16q25 0 41 -16q17 -17 17 -39q0 -23 -16 -39t-40 -16q-25 0 -40 16t-15 39zM152 -179l-1 -55q-14 -9 -29 -13q-12 -4 -32 -4q-40 0 -69 26q-28 25 -28 63q0 34 18 67q20 36 73 96v503h76v-504h-12q-47 -54 -69 -89q-20 -32 -20 -56
q0 -22 12 -34t35 -12q11 0 23 3t23 9z" />
    <glyph glyph-name="Idotaccent" unicode="&#x130;" horiz-adv-x="272" 
d="M175 0h-78v703h78v-703zM189 833v-1q0 -21 -15 -36t-36 -15q-22 0 -37 15t-15 36q0 23 15 38t37 15q21 0 36 -15t15 -37z" />
    <glyph glyph-name="dotlessi" unicode="&#x131;" horiz-adv-x="250" 
d="M163 0h-76v504h76v-504z" />
    <glyph glyph-name="IJ" unicode="&#x132;" horiz-adv-x="846" 
d="M175 0h-78v703h78v-703zM678 703l77 -3v-487q0 -101 -65 -164q-64 -63 -165 -63t-165 64t-64 165h79q0 -70 42 -112t109 -42q68 0 110 43q42 44 42 114v485z" />
    <glyph glyph-name="ij" unicode="&#x133;" horiz-adv-x="505" 
d="M69 669h-3q0 23 15 39t41 16q25 0 41 -16q17 -17 17 -39q0 -23 -16 -39t-40 -16q-25 0 -40 16t-15 39zM160 0h-76v504h76v-504zM431 670l1 -1q0 -22 -16 -37t-39 -15q-24 0 -39 15t-15 38t15 38t39 15t39 -15t15 -38zM340 503l75 1v-543q0 -95 -45 -141t-135 -46h-15
q-1 0 -15 2v66q3 -1 9 -1h8q60 0 89 29t29 90v543z" />
    <glyph glyph-name="Jcircumflex" unicode="&#x134;" horiz-adv-x="574" 
d="M406 703l77 -3v-487q0 -101 -65 -164q-64 -63 -165 -63t-165 64t-64 165h79q0 -70 42 -112t109 -42q68 0 110 43q42 44 42 114v485zM298 763l112 144h67l113 -144h-68l-78 100l-79 -100h-67z" />
    <glyph glyph-name="jcircumflex" unicode="&#x135;" horiz-adv-x="255" 
d="M-15 573l112 144h67l113 -144h-68l-78 100l-79 -100h-67zM93 504l75 -1v-543q0 -96 -45 -141t-136 -45h-15q-1 0 -15 2v66h9h9q60 0 89 29t29 90v543z" />
    <glyph glyph-name="uni0136" unicode="&#x136;" horiz-adv-x="583" 
d="M370 -138l-43 -109h-44l36 88q-16 3 -30 17q-12 14 -12 30q0 21 14 35t35 14t35 -14t14 -35q0 -8 -1 -11q-3 -14 -4 -15zM97 703h78v-331l305 331h95l-316 -343l320 -360h-103l-301 339v-339h-78v703z" />
    <glyph glyph-name="uni0137" unicode="&#x137;" horiz-adv-x="503" 
d="M330 -138l-43 -109h-44l36 88q-16 3 -30 17q-12 14 -12 30q0 21 14 35t35 14t35 -14t14 -35q0 -8 -1 -11q-3 -14 -4 -15zM160 0h-75v741h75v-455l219 218h93l-231 -227l267 -277h-99l-249 259v-259z" />
    <glyph glyph-name="kgreenlandic" unicode="&#x138;" horiz-adv-x="503" 
d="M160 0h-75v504h75v-218l219 218h93l-231 -227l267 -277h-99l-249 259v-259z" />
    <glyph glyph-name="Lacute" unicode="&#x139;" horiz-adv-x="523" 
d="M173 766h-72l80 144h73zM505 0h-408v703h78v-631h330v-72z" />
    <glyph glyph-name="lacute" unicode="&#x13a;" horiz-adv-x="250" 
d="M162 810h-72l80 144h73zM87 741h76v-741h-76v741z" />
    <glyph glyph-name="uni013B" unicode="&#x13b;" horiz-adv-x="523" 
d="M344 -138l-43 -109h-44l36 88q-16 3 -30 17q-12 14 -12 30q0 21 14 35t35 14t35 -14t14 -35q0 -8 -1 -11q-3 -14 -4 -15zM505 0h-408v703h78v-631h330v-72z" />
    <glyph glyph-name="uni013C" unicode="&#x13c;" horiz-adv-x="250" 
d="M167 -138l-43 -109h-44l36 88q-16 3 -30 17q-12 14 -12 30q0 21 14 35t35 14t35 -14t14 -35q0 -8 -1 -11q-3 -14 -4 -15zM87 741h76v-741h-76v741z" />
    <glyph glyph-name="Lcaron" unicode="&#x13d;" horiz-adv-x="525" 
d="M358 662l-43 -123h-49l41 111q-20 2 -31 17q-12 15 -12 34q0 22 15 37t37 15t37 -15t15 -37q0 -1 -2 -15q-1 -4 -8 -24zM505 -1h-408v703h78v-631h330v-72z" />
    <glyph glyph-name="lcaron" unicode="&#x13e;" horiz-adv-x="271" 
d="M345 662l-43 -123h-49l41 111q-20 2 -31 17q-12 15 -12 34q0 22 15 37t37 15t37 -15t15 -37q0 -1 -2 -15q-1 -4 -8 -24zM87 740h76v-741h-76v741z" />
    <glyph glyph-name="Ldot" unicode="&#x13f;" horiz-adv-x="529" 
d="M505 0h-408v703h78v-631h330v-72zM459 363h1q0 -25 -18 -43t-43 -18t-43 18t-18 43t17 42t42 17q24 0 44 -17q18 -17 18 -42z" />
    <glyph glyph-name="ldot" unicode="&#x140;" horiz-adv-x="337" 
d="M87 741h76v-741h-76v741zM354 363h1q0 -25 -18 -43t-43 -18t-43 18t-18 43t17 42t42 17q24 0 44 -17q18 -17 18 -42z" />
    <glyph glyph-name="Lslash" unicode="&#x141;" horiz-adv-x="546" 
d="M527 0h-408v257l-78 -45v76l78 45v370h78v-325l157 91v-76l-157 -91v-230h330v-72z" />
    <glyph glyph-name="lslash" unicode="&#x142;" horiz-adv-x="343" 
d="M215 0h-76v322l-106 -62v72l106 62v347h76v-303l108 63v-72l-108 -63v-366z" />
    <glyph glyph-name="Nacute" unicode="&#x143;" horiz-adv-x="709" 
d="M392 766h-72l80 144h73zM171 0h-74v703h76l365 -573v573h74v-703h-76l-365 573v-573z" />
    <glyph glyph-name="nacute" unicode="&#x144;" horiz-adv-x="597" 
d="M341 573h-72l80 144h73zM160 0l-74 -2v504h72v-83q26 45 69 70t96 25q89 0 141 -54q53 -56 53 -143v-318h-75v301q0 69 -36 108t-100 39t-105 -45q-41 -47 -41 -112v-290z" />
    <glyph glyph-name="uni0145" unicode="&#x145;" horiz-adv-x="709" 
d="M395 -138l-43 -109h-44l36 88q-16 3 -30 17q-12 14 -12 30q0 21 14 35t35 14t35 -14t14 -35q0 -8 -1 -11q-3 -14 -4 -15zM171 0h-74v703h76l365 -573v573h74v-703h-76l-365 573v-573z" />
    <glyph glyph-name="uni0146" unicode="&#x146;" horiz-adv-x="597" 
d="M344 -138l-43 -109h-44l36 88q-16 3 -30 17q-12 14 -12 30q0 21 14 35t35 14t35 -14t14 -35q0 -8 -1 -11q-3 -14 -4 -15zM160 0l-74 -2v504h72v-83q26 45 69 70t96 25q89 0 141 -54q53 -56 53 -143v-318h-75v301q0 69 -36 108t-100 39t-105 -45q-41 -47 -41 -112v-290z
" />
    <glyph glyph-name="Ncaron" unicode="&#x147;" horiz-adv-x="709" 
d="M171 0h-74v703h76l365 -573v573h74v-703h-76l-365 573v-573zM208 910h67l79 -100l78 100h68l-113 -144h-67z" />
    <glyph glyph-name="ncaron" unicode="&#x148;" horiz-adv-x="597" 
d="M158 717h67l79 -100l78 100h68l-113 -144h-67zM160 0l-74 -2v504h72v-83q26 45 69 70t96 25q89 0 141 -54q53 -56 53 -143v-318h-75v301q0 69 -36 108t-100 39t-105 -45q-41 -47 -41 -112v-290z" />
    <glyph glyph-name="napostrophe" unicode="&#x149;" horiz-adv-x="597" 
d="M109 655l-43 -109h-44l36 88q-16 3 -30 17q-12 13 -12 30q0 21 14 35t35 14t35 -14t14 -35q0 -8 -1 -11q-3 -14 -4 -15zM160 0l-74 -2v504h72v-83q26 45 69 70t96 25q89 0 141 -54q53 -56 53 -143v-318h-75v301q0 69 -36 108t-100 39t-105 -45q-41 -47 -41 -112v-290z
" />
    <glyph glyph-name="Omacron" unicode="&#x14c;" horiz-adv-x="831" 
d="M48 352h-1q0 152 106 257q107 105 261 105q156 0 262 -105t106 -257q0 -153 -106 -258t-262 -105t-261 105t-105 258zM700 352h-3q0 118 -83 204q-83 84 -203 84q-119 0 -202 -84q-82 -82 -82 -205t82 -205q83 -84 204 -84t204 84q83 86 83 206zM544 796h-263v53h263v-53
z" />
    <glyph glyph-name="omacron" unicode="&#x14d;" horiz-adv-x="620" 
d="M442 605h-263v53h263v-53zM43 253v-2q0 109 77 186t189 77q113 0 189 -76q77 -77 77 -186q0 -112 -77 -189q-76 -76 -189 -76q-112 0 -189 77t-77 189zM503 251h-3q0 82 -55 137q-56 56 -138 56q-80 0 -136 -56q-55 -55 -55 -137q0 -80 56 -139q56 -57 137 -57
q83 0 138 57q56 59 56 139z" />
    <glyph glyph-name="Obreve" unicode="&#x14e;" horiz-adv-x="831" 
d="M48 352h-1q0 152 106 257q107 105 261 105q156 0 262 -105t106 -257q0 -153 -106 -258t-262 -105t-261 105t-105 258zM700 352h-3q0 118 -83 204q-83 84 -203 84q-119 0 -202 -84q-82 -82 -82 -205t82 -205q83 -84 204 -84t204 84q83 86 83 206zM411 758l1 -1
q-60 0 -99 39t-39 101h56q0 -44 22 -66q22 -24 60 -24t60 24q22 22 22 66h56q0 -61 -39 -100t-100 -39z" />
    <glyph glyph-name="obreve" unicode="&#x14f;" horiz-adv-x="620" 
d="M43 253v-2q0 109 77 186t189 77q113 0 189 -76q77 -77 77 -186q0 -112 -77 -189q-76 -76 -189 -76q-112 0 -189 77t-77 189zM503 251h-3q0 82 -55 137q-56 56 -138 56q-80 0 -136 -56q-55 -55 -55 -137q0 -80 56 -139q56 -57 137 -57q83 0 138 57q56 59 56 139zM308 564
l1 -1q-60 0 -99 39t-39 101h56q0 -44 22 -66q23 -24 60 -24t60 24q22 22 22 66h56q0 -61 -39 -100t-100 -39z" />
    <glyph glyph-name="Ohungarumlaut" unicode="&#x150;" horiz-adv-x="831" 
d="M399 910h69l-73 -144h-68zM509 910h69l-73 -144h-69zM48 352h-1q0 152 106 257q107 105 261 105q156 0 262 -105t106 -257q0 -153 -106 -258t-262 -105t-261 105t-105 258zM700 352h-3q0 118 -83 204q-83 84 -203 84q-119 0 -202 -84q-82 -82 -82 -205t82 -205
q83 -84 204 -84t204 84q83 86 83 206z" />
    <glyph glyph-name="ohungarumlaut" unicode="&#x151;" horiz-adv-x="620" 
d="M294 717h69l-73 -144h-68zM404 717h69l-73 -144h-69zM43 253v-2q0 109 77 186t189 77q113 0 189 -76q77 -77 77 -186q0 -112 -77 -189q-76 -76 -189 -76q-112 0 -189 77t-77 189zM503 251h-3q0 82 -55 137q-56 56 -138 56q-80 0 -136 -56q-55 -55 -55 -137q0 -80 56 -139
q56 -57 137 -57q83 0 138 57q56 59 56 139z" />
    <glyph glyph-name="OE" unicode="&#x152;" horiz-adv-x="1183" 
d="M1128 0l-428 -1v140q-51 -72 -126 -112q-76 -40 -167 -40q-148 0 -253 107q-105 106 -105 257t105 257q105 107 254 107q91 0 167 -40q75 -40 126 -112v140h422v-72h-344v-238h320v-69h-320v-252h349v-72zM700 351h-3q0 118 -83 204q-83 84 -203 84q-119 0 -202 -84
q-82 -82 -82 -205t82 -205q83 -84 204 -84t204 84q83 86 83 206z" />
    <glyph glyph-name="oe" unicode="&#x153;" horiz-adv-x="1067" 
d="M43 253l-6 -2q0 106 77 186q76 78 183 78q78 0 141 -39t96 -106q31 67 93 106q61 39 135 39q108 0 185 -74q75 -73 75 -183v-26h-447q6 -76 59 -129q52 -51 129 -51q59 0 102 28q45 28 68 78h75q-26 -79 -92 -124q-64 -46 -153 -46q-73 0 -133 39t-91 106
q-33 -67 -96 -106t-141 -39q-106 0 -183 78q-76 76 -76 187zM760 449q-71 0 -120 -43q-51 -42 -65 -112h367q-14 71 -63 113t-119 42zM497 251h-3q0 82 -55 137q-56 56 -138 56q-80 0 -136 -56q-55 -55 -55 -137q0 -80 56 -139q55 -57 137 -57q83 0 138 57q56 59 56 139z
" />
    <glyph glyph-name="Racute" unicode="&#x154;" horiz-adv-x="659" 
d="M175 0l-78 -1v703h243q113 0 187 -56q72 -56 72 -150q0 -91 -63 -148t-166 -65l262 -283h-102l-258 282h-97v-282zM337 633l-163 -1v-287h162q82 0 131 40q51 41 51 108q0 65 -51 102q-53 38 -130 38zM369 764h-72l80 144h73z" />
    <glyph glyph-name="racute" unicode="&#x155;" horiz-adv-x="372" 
d="M259 573h-72l80 144h73zM322 439v-2q-73 0 -118 -49q-45 -50 -45 -126v-263h-75v504h72v-105q25 54 69 83t98 29h12q9 0 14 -1v-71q-2 1 -10 1h-17z" />
    <glyph glyph-name="uni0156" unicode="&#x156;" horiz-adv-x="659" 
d="M396 -138l-43 -109h-44l36 88q-16 3 -30 17q-12 14 -12 30q0 21 14 35t35 14t35 -14t14 -35q0 -8 -1 -11q-3 -14 -4 -15zM175 0l-78 -1v703h243q113 0 187 -56q72 -56 72 -150q0 -91 -63 -148t-166 -65l262 -283h-102l-258 282h-97v-282zM337 633l-163 -1v-287h162
q82 0 131 40q51 41 51 108q0 65 -51 102q-53 38 -130 38z" />
    <glyph glyph-name="uni0157" unicode="&#x157;" horiz-adv-x="372" 
d="M165 -138l-43 -109h-44l36 88q-16 3 -30 17q-12 14 -12 30q0 21 14 35t35 14t35 -14t14 -35q0 -8 -1 -11q-3 -14 -4 -15zM322 439v-2q-73 0 -118 -49q-45 -50 -45 -126v-263h-75v504h72v-105q25 54 69 83t98 29h12q9 0 14 -1v-71q-2 1 -10 1h-17z" />
    <glyph glyph-name="Rcaron" unicode="&#x158;" horiz-adv-x="659" 
d="M175 0l-78 -1v703h243q113 0 187 -56q72 -56 72 -150q0 -91 -63 -148t-166 -65l262 -283h-102l-258 282h-97v-282zM337 633l-163 -1v-287h162q82 0 131 40q51 41 51 108q0 65 -51 102q-53 38 -130 38zM185 908h67l79 -100l78 100h68l-113 -144h-67z" />
    <glyph glyph-name="rcaron" unicode="&#x159;" horiz-adv-x="372" 
d="M75 717h67l79 -100l78 100h68l-113 -144h-67zM322 439v-2q-73 0 -118 -49q-45 -50 -45 -126v-263h-75v504h72v-105q25 54 69 83t98 29h12q9 0 14 -1v-71q-2 1 -10 1h-17z" />
    <glyph glyph-name="Sacute" unicode="&#x15a;" horiz-adv-x="604" 
d="M295 715l-6 -2q109 0 174 -57t72 -162h-80q-6 74 -48 111q-44 38 -116 38q-67 0 -107 -31q-41 -32 -41 -82q0 -43 26 -72q26 -27 101 -48l89 -25q107 -30 149 -74q42 -43 42 -114q0 -97 -66 -153q-68 -56 -175 -56q-120 0 -191 62q-69 62 -73 177h79q4 -82 52 -126
q46 -43 133 -43q76 0 120 35q43 34 43 99q0 44 -29 73t-116 54l-74 21q-106 30 -147 74q-40 43 -40 114q0 82 65 135q64 52 164 52zM326 764h-72l80 144h73z" />
    <glyph glyph-name="sacute" unicode="&#x15b;" horiz-adv-x="492" 
d="M282 573h-72l80 144h73zM245 516l-2 -7q89 0 138 -40q51 -40 55 -115h-77q-1 46 -31 71q-30 24 -85 24q-48 0 -79 -21t-31 -55q0 -31 21 -49t84 -31l55 -12q83 -18 117 -51q35 -33 35 -90q0 -73 -53 -115q-52 -42 -141 -42q-99 0 -154 45t-58 129h78q2 -54 36 -82t96 -28
q57 0 89 24t32 66q0 31 -21 51q-23 20 -76 32l-66 15q-83 19 -116 52t-33 87q0 64 52 103t135 39z" />
    <glyph glyph-name="Scircumflex" unicode="&#x15c;" horiz-adv-x="604" 
d="M295 715l-6 -2q109 0 174 -57t72 -162h-80q-6 74 -48 111q-44 38 -116 38q-67 0 -107 -31q-41 -32 -41 -82q0 -43 26 -72q26 -27 101 -48l89 -25q107 -30 149 -74q42 -43 42 -114q0 -97 -66 -153q-68 -56 -175 -56q-120 0 -191 62q-69 62 -73 177h79q4 -82 52 -126
q46 -43 133 -43q76 0 120 35q43 34 43 99q0 44 -29 73t-116 54l-74 21q-106 30 -147 74q-40 43 -40 114q0 82 65 135q64 52 164 52zM144 764l112 144h67l113 -144h-68l-78 100l-79 -100h-67z" />
    <glyph glyph-name="scircumflex" unicode="&#x15d;" horiz-adv-x="492" 
d="M100 573l112 144h67l113 -144h-68l-78 100l-79 -100h-67zM245 516l-2 -7q89 0 138 -40q51 -40 55 -115h-77q-1 46 -31 71q-30 24 -85 24q-48 0 -79 -21t-31 -55q0 -31 21 -49t84 -31l55 -12q83 -18 117 -51q35 -33 35 -90q0 -73 -53 -115q-52 -42 -141 -42q-99 0 -154 45
t-58 129h78q2 -54 36 -82t96 -28q57 0 89 24t32 66q0 31 -21 51q-23 20 -76 32l-66 15q-83 19 -116 52t-33 87q0 64 52 103t135 39z" />
    <glyph glyph-name="Scedilla" unicode="&#x15e;" horiz-adv-x="604" 
d="M295 715l-7 -6q110 0 174 -57t72 -162h-80q-6 74 -48 111q-44 38 -116 38q-67 0 -107 -31q-41 -32 -41 -82q0 -44 26 -73q26 -27 101 -48l89 -25q107 -28 149 -73t42 -115q0 -92 -58 -147t-159 -61l-27 -45q1 1 3 1h7q45 0 74 -27t29 -69t-30 -70q-28 -28 -75 -28
q-43 0 -75 26q-30 26 -31 68h57q1 -19 15 -31q13 -12 33 -12q19 0 33 14t14 33q0 22 -13 35q-14 14 -34 14q-16 0 -24 -4q-9 -4 -21 -16l-45 25l55 89q-110 9 -168 70q-60 63 -64 168h79q4 -82 52 -126q46 -43 133 -43q76 0 120 35q43 34 43 99q0 44 -29 73t-116 54l-74 21
q-106 30 -147 74q-40 43 -40 116q0 82 65 135q64 52 164 52z" />
    <glyph glyph-name="scedilla" unicode="&#x15f;" horiz-adv-x="492" 
d="M245 516l-1 -7q89 0 138 -40q51 -40 55 -115h-77q-1 46 -31 71q-30 24 -85 24q-48 0 -79 -21t-31 -55q0 -31 21 -49t84 -31l55 -12q82 -18 117 -51t35 -90q0 -67 -46 -109t-126 -48l-27 -45q1 1 3 1h7q45 0 74 -27t29 -69q0 -41 -30 -70q-28 -28 -75 -28q-43 0 -75 26
q-30 26 -31 68h57q1 -19 15 -31q13 -12 33 -12q19 0 33 14t14 33q0 22 -13 35q-14 14 -34 14q-16 0 -24 -4q-9 -4 -21 -16l-45 25l55 89q-84 8 -130 51t-49 120h78q2 -54 36 -82t96 -28q58 0 89 24q32 24 32 66q0 31 -21 51q-23 20 -76 32l-66 15q-84 19 -117 52t-33 87
q0 64 52 103t135 39z" />
    <glyph glyph-name="Scaron" unicode="&#x160;" horiz-adv-x="604" 
d="M295 715l-6 -2q109 0 174 -57t72 -162h-80q-6 74 -48 111q-44 38 -116 38q-67 0 -107 -31q-41 -32 -41 -82q0 -43 26 -72q26 -27 101 -48l89 -25q107 -30 149 -74q42 -43 42 -114q0 -97 -66 -153q-68 -56 -175 -56q-120 0 -191 62q-69 62 -73 177h79q4 -82 52 -126
q46 -43 133 -43q76 0 120 35q43 34 43 99q0 44 -29 73t-116 54l-74 21q-106 30 -147 74q-40 43 -40 114q0 82 65 135q64 52 164 52zM142 908h67l79 -100l78 100h68l-113 -144h-67z" />
    <glyph glyph-name="scaron" unicode="&#x161;" horiz-adv-x="492" 
d="M100 717h67l79 -100l78 100h68l-113 -144h-67zM245 516l-2 -7q89 0 138 -40q51 -40 55 -115h-77q-1 46 -31 71q-30 24 -85 24q-48 0 -79 -21t-31 -55q0 -31 21 -49t84 -31l55 -12q83 -18 117 -51q35 -33 35 -90q0 -73 -53 -115q-52 -42 -141 -42q-99 0 -154 45t-58 129
h78q2 -54 36 -82t96 -28q57 0 89 24t32 66q0 31 -21 51q-23 20 -76 32l-66 15q-83 19 -116 52t-33 87q0 64 52 103t135 39z" />
    <glyph glyph-name="uni0162" unicode="&#x162;" horiz-adv-x="535" 
d="M238 0l-11 -3v631h-211v72h501v-72h-212v-631h-11l-34 -56q1 1 3 1h7q46 0 74 -27q29 -27 29 -69t-30 -70q-28 -28 -75 -28q-43 0 -75 26q-30 26 -31 68h57q1 -19 15 -31t33 -12t33 14t14 33q0 22 -13 35q-14 14 -34 14q-16 0 -24 -4q-9 -4 -21 -16l-45 25z" />
    <glyph glyph-name="uni0163" unicode="&#x163;" horiz-adv-x="369" 
d="M109 504l-3 158l75 18v-179h142v-67h-142v-271q0 -62 21 -86t68 -24q20 0 38 6t38 20v-68q-24 -15 -42 -20q-21 -6 -48 -6h-4l-27 -44q1 1 3 1h7q45 0 74 -27t29 -69t-30 -70q-28 -28 -75 -28q-43 0 -75 26q-30 26 -31 68h57q1 -19 15 -31q13 -12 33 -12q19 0 33 14
t14 33q0 22 -13 35q-14 14 -34 14q-16 0 -24 -4q-9 -4 -21 -16l-45 25l58 96q-46 14 -69 54q-22 40 -22 111v276h-87v67h87z" />
    <glyph glyph-name="Tcaron" unicode="&#x164;" horiz-adv-x="535" 
d="M306 0h-78v631h-211v72h501v-72h-212v-631zM119 910h67l79 -100l78 100h68l-113 -144h-67z" />
    <glyph glyph-name="tcaron" unicode="&#x165;" horiz-adv-x="369" 
d="M367 705l-43 -123h-49l41 111q-20 2 -31 17q-12 15 -12 34q0 22 15 37t37 15t37 -15t15 -37q0 -1 -2 -15q-1 -4 -8 -24zM109 503l-3 161l75 18v-179h142v-67h-142v-271q0 -62 21 -86t68 -24q20 0 38 6t38 20v-68q-24 -15 -42 -20q-21 -6 -48 -6q-75 0 -111 42t-36 131
v276h-87v67h87z" />
    <glyph glyph-name="Tbar" unicode="&#x166;" horiz-adv-x="566" 
d="M322 0h-78v339h-159v66h159v226h-211v72h501v-72h-212v-226h157v-66h-157v-339z" />
    <glyph glyph-name="tbar" unicode="&#x167;" horiz-adv-x="383" 
d="M191 312h139v-62h-142v-84q0 -62 21 -86t68 -24q20 0 38 6t38 20v-68q-24 -15 -42 -20q-21 -6 -48 -6q-75 0 -111 42t-36 131v89h-87v62h87v125h-87v67h87v161l75 18v-179h142v-67h-142v-125z" />
    <glyph glyph-name="Utilde" unicode="&#x168;" horiz-adv-x="685" 
d="M517 703l76 -3v-474q0 -106 -72 -174q-70 -67 -181 -67q-109 0 -180 68t-71 174v474h78v-472q0 -73 48 -120q50 -47 124 -47q79 0 129 47q49 46 49 122v472zM365 847l-2 -6q13 -13 23 -19q7 -4 15 -4q16 0 23 13t12 46h51q-5 -58 -26 -85t-61 -27q-17 0 -35 8
q-15 7 -36 30q-15 15 -25 21q-12 5 -19 5q-19 0 -30 -15q-10 -15 -15 -47h-51q4 58 30 88q25 30 69 30q22 0 36 -7q17 -7 41 -31z" />
    <glyph glyph-name="utilde" unicode="&#x169;" horiz-adv-x="588" 
d="M285 57l1 -1q62 0 103 45q40 43 40 112v290h75v-504h-72v84q-26 -45 -69 -70t-94 -25q-85 0 -138 54q-52 52 -52 143v318h75v-301q0 -65 35 -106q35 -39 96 -39zM316 661l-2 -6q13 -13 23 -19q7 -4 15 -4q16 0 23 13t12 46h51q-5 -58 -26 -85t-61 -27q-17 0 -35 8
q-15 7 -36 30q-15 15 -25 21q-12 5 -19 5q-20 0 -30 -15t-15 -47h-51q4 58 30 88t69 30q22 0 36 -7q17 -7 41 -31z" />
    <glyph glyph-name="Umacron" unicode="&#x16a;" horiz-adv-x="685" 
d="M517 703l76 -3v-474q0 -106 -72 -174q-70 -67 -181 -67q-109 0 -180 68t-71 174v474h78v-472q0 -73 48 -120q50 -47 124 -47q79 0 129 47q49 46 49 122v472zM472 793h-263v53h263v-53z" />
    <glyph glyph-name="umacron" unicode="&#x16b;" horiz-adv-x="588" 
d="M285 57l1 -1q62 0 103 45q40 43 40 112v290h75v-504h-72v84q-26 -45 -69 -70t-94 -25q-85 0 -138 54q-52 52 -52 143v318h75v-301q0 -65 35 -106q35 -39 96 -39zM424 604h-263v53h263v-53z" />
    <glyph glyph-name="Ubreve" unicode="&#x16c;" horiz-adv-x="685" 
d="M517 703l76 -3v-474q0 -106 -72 -174q-70 -67 -181 -67q-109 0 -180 68t-71 174v474h78v-472q0 -73 48 -120q50 -47 124 -47q79 0 129 47q49 46 49 122v472zM340 755l1 -1q-60 0 -99 39t-39 101h56q0 -44 22 -66q23 -24 60 -24t60 24q22 22 22 66h56q0 -61 -39 -100
t-100 -39z" />
    <glyph glyph-name="ubreve" unicode="&#x16d;" horiz-adv-x="588" 
d="M285 57l1 -1q62 0 103 45q40 43 40 112v290h75v-504h-72v84q-26 -45 -69 -70t-94 -25q-85 0 -138 54q-52 52 -52 143v318h75v-301q0 -65 35 -106q35 -39 96 -39zM292 565l1 -1q-60 0 -99 39t-39 101h56q0 -44 22 -66q23 -24 60 -24t60 24q22 22 22 66h56q0 -61 -39 -100
t-100 -39z" />
    <glyph glyph-name="Uring" unicode="&#x16e;" horiz-adv-x="685" 
d="M438 851q0 -39 -28 -66t-69 -27t-69 27t-28 66q0 38 28 65t69 27q39 0 68 -27t29 -65zM293 851h-1q0 -20 15 -35t35 -15t35 15t15 35t-15 35t-35 15q-19 0 -34 -15t-15 -35zM516 703l76 -3v-474q0 -106 -72 -174q-70 -67 -181 -67q-109 0 -180 68t-71 174v474h78v-472
q0 -73 48 -120q50 -47 124 -47q79 0 129 47q49 46 49 122v472z" />
    <glyph glyph-name="uring" unicode="&#x16f;" horiz-adv-x="588" 
d="M387 659q0 -39 -28 -66q-29 -27 -69 -27t-69 27q-28 27 -28 66q0 38 28 65q29 27 69 27t68 -27q29 -27 29 -65zM242 659h-1q0 -20 15 -35t35 -15t35 15t15 35t-15 35t-35 15q-19 0 -34 -15t-15 -35zM284 57l1 -1q63 0 103 45q40 43 40 112v290h75v-504h-72v84
q-26 -45 -69 -70t-94 -25q-86 0 -138 54q-52 52 -52 143v318h75v-301q0 -65 35 -106q34 -39 96 -39z" />
    <glyph glyph-name="Uhungarumlaut" unicode="&#x170;" horiz-adv-x="685" 
d="M326 910h69l-73 -144h-68zM436 910h69l-73 -144h-69zM517 703l76 -3v-474q0 -106 -72 -174q-70 -67 -181 -67q-109 0 -180 68t-71 174v474h78v-472q0 -73 48 -120q50 -47 124 -47q79 0 129 47q49 46 49 122v472z" />
    <glyph glyph-name="uhungarumlaut" unicode="&#x171;" horiz-adv-x="588" 
d="M285 57l1 -1q62 0 103 45q40 43 40 112v290h75v-504h-72v84q-26 -45 -69 -70t-94 -25q-85 0 -138 54q-52 52 -52 143v318h75v-301q0 -65 35 -106q35 -39 96 -39zM275 716h69l-73 -144h-68zM385 716h69l-73 -144h-69z" />
    <glyph glyph-name="Uogonek" unicode="&#x172;" horiz-adv-x="685" 
d="M517 703l75 -8v-474q0 -51 -18 -94q-18 -44 -52 -78q-64 -64 -92 -111q-30 -49 -30 -88q0 -24 12 -36t36 -12q11 0 23 3t23 9v-53q-14 -9 -29 -13q-12 -4 -32 -4q-40 0 -69 26q-28 25 -28 66t16 74q19 40 55 83q-19 -5 -36 -6q-22 -2 -31 -2q-109 0 -180 68t-71 174v474
h78v-472q0 -73 48 -120q50 -47 124 -47q79 0 129 47q49 46 49 122v472z" />
    <glyph glyph-name="uogonek" unicode="&#x173;" horiz-adv-x="588" 
d="M285 57v-3q63 0 103 45q40 43 40 112v290h75v-504h-9q-47 -54 -69 -89q-20 -32 -20 -56q0 -22 12 -34t35 -12q11 0 23 3t23 9v-53q-14 -9 -29 -13q-12 -4 -32 -4q-40 0 -69 26q-28 25 -28 63q0 34 18 67q15 28 74 97v82q-26 -45 -69 -70t-94 -25q-85 0 -138 54
q-52 52 -52 143v318h75v-301q0 -65 35 -106q35 -39 96 -39z" />
    <glyph glyph-name="Wcircumflex" unicode="&#x174;" horiz-adv-x="978" 
d="M345 766l112 144h67l113 -144h-68l-78 100l-79 -100h-67zM318 0h-84l-207 703h84l169 -592l176 592h73l173 -587l170 587h81l-209 -703h-83l-171 566z" />
    <glyph glyph-name="wcircumflex" unicode="&#x175;" horiz-adv-x="844" 
d="M277 573l112 144h67l113 -144h-68l-78 100l-79 -100h-67zM278 0h-77l-179 504h75l145 -415l145 415h72l145 -415l145 415h73l-179 -504h-75l-146 408z" />
    <glyph glyph-name="Ycircumflex" unicode="&#x176;" horiz-adv-x="621" 
d="M350 0h-78v262l-246 441h88l198 -361l200 361h83l-245 -437v-266zM170 766l112 144h67l113 -144h-68l-78 100l-79 -100h-67z" />
    <glyph glyph-name="ycircumflex" unicode="&#x177;" horiz-adv-x="521" 
d="M420 504h78l-277 -716h-75l78 206l-202 510h79l160 -416zM115 573l112 144h67l113 -144h-68l-78 100l-79 -100h-67z" />
    <glyph glyph-name="Ydieresis" unicode="&#x178;" horiz-adv-x="621" 
d="M350 0h-78v262l-246 441h88l198 -361l200 361h83l-245 -437v-266zM295 830l-1 -2q0 -20 -13 -33t-33 -13q-19 0 -33 14q-13 13 -13 33q0 19 14 33t33 14q20 0 33 -13t13 -33zM432 828l-1 -1q0 -19 -14 -33q-13 -13 -33 -13q-19 0 -33 14q-13 13 -13 33q0 19 14 33
q13 13 33 13t33 -13q14 -14 14 -33z" />
    <glyph glyph-name="Zacute" unicode="&#x179;" horiz-adv-x="564" 
d="M526 0h-487v64l388 567h-384v72h479v-67l-388 -564h392v-72zM320 766h-72l80 144h73z" />
    <glyph glyph-name="zacute" unicode="&#x17a;" horiz-adv-x="490" 
d="M283 573h-72l80 144h73zM458 0h-426v51l322 386h-308v67h401v-54l-315 -383h326v-67z" />
    <glyph glyph-name="Zdotaccent" unicode="&#x17b;" horiz-adv-x="564" 
d="M336 833v-1q0 -21 -15 -36t-36 -15q-22 0 -37 15t-15 36q0 23 15 38t37 15q21 0 36 -15t15 -37zM526 -1h-487v64l388 567h-384v72h479v-67l-388 -564h392v-72z" />
    <glyph glyph-name="zdotaccent" unicode="&#x17c;" horiz-adv-x="490" 
d="M458 0h-426v51l322 386h-308v67h401v-54l-315 -383h326v-67zM298 642v-1q0 -21 -15 -36t-36 -15q-22 0 -37 15t-15 36q0 23 15 38t37 15q21 0 36 -15t15 -37z" />
    <glyph glyph-name="Zcaron" unicode="&#x17d;" horiz-adv-x="564" 
d="M526 0h-487v64l388 567h-384v72h479v-67l-388 -564h392v-72zM135 910h67l79 -100l78 100h68l-113 -144h-67z" />
    <glyph glyph-name="zcaron" unicode="&#x17e;" horiz-adv-x="490" 
d="M100 717h67l79 -100l78 100h68l-113 -144h-67zM458 0h-426v51l322 386h-308v67h401v-54l-315 -383h326v-67z" />
    <glyph glyph-name="longs" unicode="&#x17f;" horiz-adv-x="265" 
d="M160 0h-76v566q0 96 45 141t136 45q8 0 30 -2q19 -2 29 -5v-66q-32 5 -33 5h-15q-59 0 -88 -29q-28 -28 -28 -90v-565z" />
    <glyph glyph-name="florin" unicode="&#x192;" horiz-adv-x="556" 
d="M332 376l-70 -418q-17 -108 -59 -147q-40 -40 -124 -40q-8 0 -26 2t-29 5v67q3 -1 24 -4q7 -1 21 -1q54 0 83 26q27 26 38 95l67 415h-118v68h129l20 122q16 104 59 146q42 42 123 42q7 0 29 -2q18 -2 28 -5v-66q-3 2 -21 4q-7 1 -22 1q-58 0 -83 -25q-27 -24 -38 -96
l-19 -121h118v-68h-130z" />
    <glyph glyph-name="uni0218" unicode="&#x218;" horiz-adv-x="604" 
d="M353 -138l-43 -109h-44l36 88q-16 3 -30 17q-12 14 -12 30q0 21 14 35t35 14t35 -14t14 -35q0 -8 -1 -11q-3 -14 -4 -15zM295 715l-6 -2q109 0 174 -57t72 -162h-80q-6 74 -48 111q-44 38 -116 38q-67 0 -107 -31q-41 -32 -41 -82q0 -43 26 -72q26 -27 101 -48l89 -25
q107 -30 149 -74q42 -43 42 -114q0 -97 -66 -153q-68 -56 -175 -56q-120 0 -191 62q-69 62 -73 177h79q4 -82 52 -126q46 -43 133 -43q76 0 120 35q43 34 43 99q0 44 -29 73t-116 54l-74 21q-106 30 -147 74q-40 43 -40 114q0 82 65 135q64 52 164 52z" />
    <glyph glyph-name="uni0219" unicode="&#x219;" horiz-adv-x="492" 
d="M294 -138l-43 -109h-44l36 88q-16 3 -30 17q-12 14 -12 30q0 21 14 35t35 14t35 -14t14 -35q0 -8 -1 -11q-3 -14 -4 -15zM245 516l-2 -7q89 0 138 -40q51 -40 55 -115h-77q-1 46 -31 71q-30 24 -85 24q-48 0 -79 -21t-31 -55q0 -31 21 -49t84 -31l55 -12q83 -18 117 -51
q35 -33 35 -90q0 -73 -53 -115q-52 -42 -141 -42q-99 0 -154 45t-58 129h78q2 -54 36 -82t96 -28q57 0 89 24t32 66q0 31 -21 51q-23 20 -76 32l-66 15q-83 19 -116 52t-33 87q0 64 52 103t135 39z" />
    <glyph glyph-name="uni021A" unicode="&#x21a;" horiz-adv-x="535" 
d="M309 -138l-43 -109h-44l36 88q-16 3 -30 17q-12 14 -12 30q0 21 14 35t35 14t35 -14t14 -35q0 -8 -1 -11q-3 -14 -4 -15zM306 0h-78v631h-211v72h501v-72h-212v-631z" />
    <glyph glyph-name="uni021B" unicode="&#x21b;" horiz-adv-x="369" 
d="M216 -138l-43 -109h-44l36 88q-16 3 -30 17q-12 14 -12 30q0 21 14 35t35 14t35 -14t14 -35q0 -8 -1 -11q-3 -14 -4 -15zM109 504l-3 161l75 18v-179h142v-67h-142v-271q0 -62 21 -86t68 -24q20 0 38 6t38 20v-68q-24 -15 -42 -20q-21 -6 -48 -6q-75 0 -111 42t-36 131
v276h-87v67h87z" />
    <glyph glyph-name="uni0237" unicode="&#x237;" horiz-adv-x="255" 
d="M93 504l75 -1v-543q0 -96 -45 -141t-136 -45h-15q-1 0 -15 2v66h9h9q60 0 89 29t29 90v543z" />
    <glyph glyph-name="circumflex" unicode="&#x2c6;" horiz-adv-x="351" 
d="M29 573l112 144h67l113 -144h-68l-78 100l-79 -100h-67z" />
    <glyph glyph-name="caron" unicode="&#x2c7;" horiz-adv-x="363" 
d="M26 717h67l79 -100l78 100h68l-113 -144h-67z" />
    <glyph glyph-name="uni02C9" unicode="&#x2c9;" horiz-adv-x="352" 
d="M308 605h-263v53h263v-53z" />
    <glyph glyph-name="breve" unicode="&#x2d8;" horiz-adv-x="343" 
d="M172 566l1 -1q-60 0 -99 39t-39 101h56q0 -44 22 -66q23 -24 60 -24t60 24q22 22 22 66h56q0 -61 -39 -100t-100 -39z" />
    <glyph glyph-name="dotaccent" unicode="&#x2d9;" horiz-adv-x="194" 
d="M149 642v-1q0 -21 -15 -36t-36 -15q-22 0 -37 15t-15 36q0 23 15 38t37 15q21 0 36 -15t15 -37z" />
    <glyph glyph-name="ring" unicode="&#x2da;" horiz-adv-x="272" 
d="M232 659q0 -39 -28 -66t-69 -27t-69 27t-28 66q0 38 28 65t69 27q39 0 68 -27t29 -65zM87 659h-1q0 -20 15 -35t35 -15t35 15t15 35t-15 35t-35 15q-19 0 -34 -15t-15 -35z" />
    <glyph glyph-name="ogonek" unicode="&#x2db;" horiz-adv-x="244" 
d="M37 -161l-1 -1q0 34 18 67q18 34 75 97l62 -3q-47 -54 -69 -89q-20 -32 -20 -56q0 -22 12 -34t35 -12q11 0 23 3t23 9v-53q-14 -9 -29 -13q-12 -4 -32 -4q-40 0 -69 26q-28 25 -28 63z" />
    <glyph glyph-name="tilde" unicode="&#x2dc;" horiz-adv-x="370" 
d="M208 662l-2 -6q13 -13 23 -19q7 -4 15 -4q16 0 23 13t12 46h51q-5 -58 -26 -85t-61 -27q-17 0 -35 8q-15 8 -36 30q-15 15 -25 21q-12 5 -19 5q-20 0 -30 -15t-15 -47h-51q4 58 30 88t69 30q22 0 36 -7q17 -7 41 -31z" />
    <glyph glyph-name="hungarumlaut" unicode="&#x2dd;" horiz-adv-x="346" 
d="M121 717h69l-73 -144h-68zM231 717h69l-73 -144h-69z" />
    <glyph glyph-name="uni0394" unicode="&#x394;" horiz-adv-x="649" 
d="M284 703h83l252 -645v-58h-588v58zM323 613l-206 -542h413z" />
    <glyph glyph-name="uni03A9" unicode="&#x3a9;" horiz-adv-x="822" 
d="M347 0h-284v71h187q-98 59 -147 135t-49 170q0 142 102 240q104 98 251 98q150 0 254 -98q102 -98 102 -240q0 -95 -49 -171q-49 -75 -145 -135h187v-71h-283v89q103 48 157 120t54 164q0 111 -80 189t-195 78t-195 -78q-79 -78 -79 -188q0 -93 54 -165t158 -119v-89z
" />
    <glyph glyph-name="uni03BC" unicode="&#x3bc;" horiz-adv-x="604" 
d="M296 57l-1 -3q63 0 103 45q40 43 40 112v290h75v-504h-72v84q-26 -45 -69 -70t-94 -25q-32 0 -63 11t-50 32v-242h-75v716h75v-301q0 -65 35 -106q34 -39 96 -39z" />
    <glyph glyph-name="pi" unicode="&#x3c0;" horiz-adv-x="650" 
d="M16 504h619v-69h-112v-435h-75v435h-247v-435h-74v435h-111v69z" />
    <glyph glyph-name="Wgrave" unicode="&#x1e80;" horiz-adv-x="978" 
d="M456 766l-81 144h73l80 -144h-72zM318 0h-84l-207 703h84l169 -592l176 592h73l173 -587l170 587h81l-209 -703h-83l-171 566z" />
    <glyph glyph-name="wgrave" unicode="&#x1e81;" horiz-adv-x="844" 
d="M278 0h-77l-179 504h75l145 -415l145 415h72l145 -415l145 415h73l-179 -504h-75l-146 408zM386 573l-81 144h73l80 -144h-72z" />
    <glyph glyph-name="Wacute" unicode="&#x1e82;" horiz-adv-x="978" 
d="M529 766h-72l80 144h73zM318 0h-84l-207 703h84l169 -592l176 592h73l173 -587l170 587h81l-209 -703h-83l-171 566z" />
    <glyph glyph-name="wacute" unicode="&#x1e83;" horiz-adv-x="844" 
d="M460 573h-72l80 144h73zM278 0h-77l-179 504h75l145 -415l145 415h72l145 -415l145 415h73l-179 -504h-75l-146 408z" />
    <glyph glyph-name="Wdieresis" unicode="&#x1e84;" horiz-adv-x="978" 
d="M318 0h-84l-207 703h84l169 -592l176 592h73l173 -587l170 587h81l-209 -703h-83l-171 566zM471 830l-1 -2q0 -20 -13 -33t-33 -13q-19 0 -33 14q-13 13 -13 33q0 19 14 33t33 14q20 0 33 -13t13 -33zM608 828l-1 -1q0 -19 -14 -33q-13 -13 -33 -13q-19 0 -33 14
q-13 13 -13 33q0 19 14 33q13 13 33 13t33 -13q14 -14 14 -33z" />
    <glyph glyph-name="wdieresis" unicode="&#x1e85;" horiz-adv-x="844" 
d="M401 639l-1 -2q0 -20 -13 -33t-33 -13q-19 0 -33 14q-13 13 -13 33q0 19 14 33t33 14q20 0 33 -13t13 -33zM538 637l-1 -1q0 -19 -14 -33q-13 -13 -33 -13q-19 0 -33 14q-13 13 -13 33q0 19 14 33q13 13 33 13t33 -13q14 -14 14 -33zM276 -3h-77l-179 504h75l145 -415
l145 415h72l145 -415l145 415h73l-179 -504h-75l-146 408z" />
    <glyph glyph-name="uni1E9E" unicode="&#x1e9e;" horiz-adv-x="706" 
d="M446 406l2 -3q95 0 155 -57t60 -144q0 -100 -64 -158q-65 -59 -165 -59q-50 0 -87 9t-69 27v76q34 -21 70 -31q34 -10 78 -10q70 0 114 39q43 39 43 106q0 62 -42 101t-106 39q-23 0 -39 -3q-13 -3 -30 -11l-50 48l190 257h-121q-97 0 -157 -61t-60 -165v-406h-78v408
q0 136 82 215q83 80 213 80h210v-62l-173 -237q4 1 9 2h3h12z" />
    <glyph glyph-name="Ygrave" unicode="&#x1ef2;" horiz-adv-x="621" 
d="M350 0h-78v262l-246 441h88l198 -361l200 361h83l-245 -437v-266zM281 766l-81 144h73l80 -144h-72z" />
    <glyph glyph-name="ygrave" unicode="&#x1ef3;" horiz-adv-x="521" 
d="M420 504h78l-277 -716h-75l78 206l-202 510h79l160 -416zM225 573l-81 144h73l80 -144h-72z" />
    <glyph glyph-name="endash" unicode="&#x2013;" horiz-adv-x="582" 
d="M70 296h442v-65h-442v65z" />
    <glyph glyph-name="emdash" unicode="&#x2014;" horiz-adv-x="1057" 
d="M70 296h917v-65h-917v65z" />
    <glyph glyph-name="quoteleft" unicode="&#x2018;" horiz-adv-x="231" 
d="M128 703l57 -4l-61 -144q21 -5 34 -21t13 -36q0 -25 -17 -42t-42 -17q-24 0 -44 17q-18 16 -18 42l2 14q3 12 8 23z" />
    <glyph glyph-name="quoteright" unicode="&#x2019;" horiz-adv-x="234" 
d="M117 452l-57 2l61 144q-21 5 -34 21t-13 36q0 25 17 42t42 17q24 0 44 -17q18 -17 18 -42q0 -3 -2 -13l-8 -22z" />
    <glyph glyph-name="quotesinglbase" unicode="&#x201a;" horiz-adv-x="234" 
d="M100 -155l-57 2l61 144q-21 5 -34 21t-13 36q0 25 17 42t42 17q24 0 44 -17q18 -16 18 -42q0 -3 -2 -13l-8 -22z" />
    <glyph glyph-name="quotedblleft" unicode="&#x201c;" horiz-adv-x="391" 
d="M128 703l57 -4l-61 -144q21 -5 34 -21t13 -36q0 -25 -17 -42t-42 -17q-24 0 -44 17q-18 16 -18 42l2 14q3 12 8 23zM286 699l57 -4l-61 -144q21 -5 34 -21t13 -36q0 -25 -17 -42t-42 -17q-24 0 -44 17q-18 16 -18 42q0 1 0.5 3t1 5t0.5 6q3 12 8 23z" />
    <glyph glyph-name="quotedblright" unicode="&#x201d;" horiz-adv-x="392" 
d="M117 452l-57 2l61 144q-21 5 -34 21t-13 36q0 25 17 42t42 17q24 0 44 -17q18 -17 18 -42q0 -3 -2 -13l-8 -22zM276 454l-57 2l61 144q-21 5 -34 21t-13 36q0 25 17 42t42 17q24 0 44 -17q18 -17 18 -42q0 -3 -2 -13l-8 -22z" />
    <glyph glyph-name="quotedblbase" unicode="&#x201e;" horiz-adv-x="392" 
d="M100 -155l-57 2l61 144q-21 5 -34 21t-13 36q0 25 17 42t42 17q24 0 44 -17q18 -16 18 -42q0 -3 -2 -13l-8 -22zM259 -153l-57 2l61 144q-21 5 -34 21t-13 36q0 25 17 42t42 17q24 0 44 -17q18 -16 18 -42q0 -3 -2 -13q0 -2 -1.5 -5t-3.5 -8t-3 -9z" />
    <glyph glyph-name="dagger" unicode="&#x2020;" horiz-adv-x="475" 
d="M33 436v63h167v194l75 17v-211h167v-63h-167v-425l-75 -18v443h-167z" />
    <glyph glyph-name="daggerdbl" unicode="&#x2021;" horiz-adv-x="508" 
d="M49 206v63h168v167h-168v63h168v194l75 17v-211h166v-63h-166v-167h166v-63h-166v-195l-75 -18v213h-168z" />
    <glyph glyph-name="bullet" unicode="&#x2022;" horiz-adv-x="370" 
d="M290 367v-2q0 -43 -30 -73t-75 -30q-43 0 -73 30t-30 74q0 42 29 74q29 30 74 30t75 -30t30 -73z" />
    <glyph glyph-name="ellipsis" unicode="&#x2026;" horiz-adv-x="616" 
d="M179 48h1q0 -25 -18 -43t-43 -18t-43 18t-18 43t17 42t42 17q24 0 44 -17q18 -16 18 -42zM369 48h1q0 -25 -18 -43t-43 -18t-43 18t-18 43t17 42t42 17q24 0 44 -17q18 -16 18 -42zM560 48h1q0 -25 -18 -43t-43 -18t-43 18t-18 43t17 42t42 17q24 0 44 -17q18 -16 18 -42
z" />
    <glyph glyph-name="perthousand" unicode="&#x2030;" horiz-adv-x="1127" 
d="M368 546h-2q0 -70 -48 -116q-50 -47 -118 -47t-118 47q-48 46 -48 116q0 68 48 114q50 47 119 47t119 -47q48 -46 48 -114zM607 703h69l-536 -703h-70zM97 545h-2q0 -43 30 -73t74 -30t74 30t30 73q0 44 -30 74t-73 30t-73 -30t-30 -74zM713 158l-1 -2q0 -70 -48 -116
q-50 -47 -118 -47q-70 0 -117 47t-47 116t47 116t117 47q73 0 119 -46q48 -47 48 -115zM1090 156l-1 -2q0 -70 -48 -116q-50 -47 -118 -47t-118 47q-48 47 -48 116q0 70 48 116q50 47 119 47q72 0 118 -46q48 -47 48 -115zM442 154l-2 -1q0 -43 30 -73t74 -30t74 30t30 74
q0 43 -30 73t-73 30t-73 -30t-30 -73zM818 153l1 -1q0 -43 30 -73t75 -30q44 0 72 30q29 32 29 74q0 43 -30 73t-73 30q-44 0 -74 -30t-30 -73z" />
    <glyph glyph-name="guilsinglleft" unicode="&#x2039;" horiz-adv-x="285" 
d="M157 35l-109 219l109 220h75l-109 -220l109 -219h-75z" />
    <glyph glyph-name="guilsinglright" unicode="&#x203a;" horiz-adv-x="285" 
d="M128 474l109 -219l-109 -220h-75l109 220l-109 219h75z" />
    <glyph glyph-name="fraction" unicode="&#x2044;" horiz-adv-x="145" 
d="M306 703h69l-536 -703h-70z" />
    <glyph glyph-name="zero.superior" unicode="&#x2070;" horiz-adv-x="337" 
d="M298 723v-108q0 -61 -36 -96q-34 -34 -94 -34t-94 34q-36 35 -36 96v108q0 60 36 93t94 33t94 -33t36 -93zM168 793l-1 -2q-31 0 -49 -19q-18 -20 -18 -54v-104q0 -34 18 -54q18 -19 50 -19q31 0 51 20q19 19 19 54v104q0 35 -19 54q-20 20 -51 20z" />
    <glyph glyph-name="four.superior" unicode="&#x2074;" horiz-adv-x="317" 
d="M23 612l141 232h70l-141 -225h108v68l60 14v-82h30v-56h-30v-71h-60v71h-178v49z" />
    <glyph glyph-name="five.superior" unicode="&#x2075;" horiz-adv-x="304" 
d="M66 844l188 -2v-55h-138l-8 -83q4 2 11.5 4t11.5 3q12 3 24 3q56 0 87 -31q33 -31 33 -81t-36 -83t-88 -33q-53 0 -87 31q-36 31 -40 79h62q2 -23 20 -38t44 -15q28 0 48 18q19 18 19 43q0 26 -19 44q-20 18 -48 18q-16 0 -30 -6q-11 -4 -22 -17l-50 7z" />
    <glyph glyph-name="six.superior" unicode="&#x2076;" horiz-adv-x="305" 
d="M154 486q-52 0 -90 36q-37 36 -37 87q0 25 9 51t30 57l87 127h70l-89 -125q1 1 14 4q3 1 14 1q50 0 84 -33q35 -33 35 -82q0 -51 -37 -87q-38 -36 -90 -36zM88 608l-2 -1q0 -29 19 -48t48 -19q28 0 48 20q19 19 19 48q0 28 -19 47q-20 20 -46 20q-29 0 -48 -19t-19 -48z
" />
    <glyph glyph-name="seven.superior" unicode="&#x2077;" horiz-adv-x="281" 
d="M191 786h-168v58h236v-49l-141 -303h-67z" />
    <glyph glyph-name="eight.superior" unicode="&#x2078;" horiz-adv-x="321" 
d="M287 592v-1q0 -46 -36 -76t-91 -30t-91 30t-36 75q0 29 15 53q16 24 42 37q-21 13 -32 33t-11 44q0 38 32 65q31 27 81 27q49 0 81 -26t32 -65q0 -24 -12 -44t-33 -33q30 -13 44 -37q15 -24 15 -52zM106 750l2 -1q0 -19 15 -33t39 -12q25 1 40 15q15 13 15 33
q0 22 -16 35q-17 14 -42 14q-23 0 -38 -15t-15 -36zM95 592v-3q0 -23 18 -40q16 -16 48 -16q28 0 48 17q18 16 18 41q0 26 -18 44t-48 18t-48 -18t-18 -43z" />
    <glyph glyph-name="nine.superior" unicode="&#x2079;" horiz-adv-x="305" 
d="M152 850l-3 -1q53 0 90 -36t37 -87q0 -26 -9 -51t-30 -57l-87 -127h-70l89 125q-10 -4 -13 -4q-3 -1 -13 -1q-49 0 -84 33q-34 33 -34 83q0 51 37 87q38 36 90 36zM215 727v-1q0 29 -19 48t-48 19t-48 -19t-19 -48q0 -27 20 -47t47 -20q28 0 48 20q19 19 19 48z" />
    <glyph glyph-name="zero.inferior" unicode="&#x2080;" horiz-adv-x="337" 
d="M298 90v-108q0 -62 -36 -96q-34 -34 -94 -34t-94 34q-36 34 -36 96v108q0 60 36 93t94 33t94 -33t36 -93zM168 160l-1 -2q-31 0 -49 -19t-18 -54v-104q0 -35 18 -54t50 -19q31 0 51 20q19 19 19 54v104q0 35 -19 54q-20 20 -51 20z" />
    <glyph glyph-name="one.inferior" unicode="&#x2081;" horiz-adv-x="204" 
d="M150 -141h-60v294h-74l14 58h120v-352z" />
    <glyph glyph-name="two.inferior" unicode="&#x2082;" horiz-adv-x="318" 
d="M286 -141l-251 -2v49l138 130q23 23 32 38t9 32q0 23 -16 38t-42 15q-28 0 -45 -17q-17 -16 -18 -42h-62q3 50 38 85q35 33 89 33q51 0 86 -29q33 -29 33 -77q0 -28 -14 -54q-13 -26 -54 -63l-84 -78h161v-58z" />
    <glyph glyph-name="three.inferior" unicode="&#x2083;" horiz-adv-x="315" 
d="M30 -41l62 -4q2 -23 21 -39t46 -16t47 17q18 17 18 42q0 29 -18 44t-50 15h-31v45h30q25 0 42 14q16 13 16 36t-15 36q-17 14 -40 14q-26 0 -42 -15q-17 -15 -18 -37h-61q3 45 36 74q35 29 86 29q49 0 81 -26q31 -25 31 -65q0 -28 -13 -47q-12 -20 -37 -32q29 -11 44 -33
q15 -23 15 -54q0 -44 -34 -74t-90 -30t-90 30q-35 30 -36 76z" />
    <glyph glyph-name="four.inferior" unicode="&#x2084;" horiz-adv-x="318" 
d="M24 -21l141 232h70l-141 -225h108v68l60 14v-82h30v-56h-30v-71h-60v71h-178v49z" />
    <glyph glyph-name="five.inferior" unicode="&#x2085;" horiz-adv-x="304" 
d="M66 211l188 -2v-55h-138l-8 -83q4 2 11.5 4t11.5 3q12 3 24 3q56 0 87 -31q33 -32 33 -81q0 -50 -36 -83t-88 -33q-53 0 -87 31q-36 31 -40 79h62q2 -23 20 -38t44 -15q28 0 48 18q19 18 19 43q0 26 -19 44q-20 18 -48 18q-16 0 -30 -6q-11 -4 -22 -17l-50 7z" />
    <glyph glyph-name="six.inferior" unicode="&#x2086;" horiz-adv-x="306" 
d="M154 -147q-52 0 -90 36q-37 36 -37 87q0 26 9 51t30 57l87 127h70l-89 -125q1 1 14 4q3 1 14 1q50 0 84 -33q35 -33 35 -82q0 -51 -37 -87q-38 -36 -90 -36zM88 -25l-2 -1q0 -29 19 -48t48 -19q28 0 48 20q19 19 19 48q0 28 -19 47q-20 20 -46 20q-29 0 -48 -19t-19 -48z
" />
    <glyph glyph-name="seven.inferior" unicode="&#x2087;" horiz-adv-x="280" 
d="M191 153h-168v58h236v-49l-141 -303h-67z" />
    <glyph glyph-name="eight.inferior" unicode="&#x2088;" horiz-adv-x="321" 
d="M287 -41v-1q0 -46 -36 -76t-91 -30t-91 30t-36 75q0 29 15 53q16 24 42 37q-21 13 -32 33t-11 44q0 38 32 65q31 27 81 27q49 0 81 -26t32 -65q0 -25 -12 -44t-33 -33q30 -13 44 -37q15 -24 15 -52zM106 117l2 -1q0 -20 15 -33t39 -12q25 1 40 15t15 33q0 22 -16 35
q-17 14 -42 14q-23 0 -38 -15t-15 -36zM95 -41v-3q0 -24 18 -40q16 -16 48 -16q28 0 48 17q18 17 18 41q0 26 -18 44t-48 18t-48 -18t-18 -43z" />
    <glyph glyph-name="nine.inferior" unicode="&#x2089;" horiz-adv-x="305" 
d="M152 217l-3 -1q53 0 90 -36t37 -87q0 -25 -9 -51t-30 -57l-87 -127h-70l89 125q-11 -3 -13 -4q-3 -1 -13 -1q-49 0 -84 33q-34 33 -34 83q0 51 37 87q38 36 90 36zM215 94v-1q0 29 -19 48t-48 19t-48 -19t-19 -48q0 -27 20 -47t47 -20q28 0 48 20q19 19 19 48z" />
    <glyph glyph-name="franc" unicode="&#x20a3;" horiz-adv-x="858" 
d="M182 0h-78v703h392v-72h-314v-248h290v-72h-290v-311zM798 439v-2q-73 0 -118 -49q-45 -50 -45 -126v-263h-75v504h72v-105q25 54 69 83t98 29h12q9 0 14 -1v-71q-2 1 -10 1h-17z" />
    <glyph glyph-name="Euro" unicode="&#x20ac;" horiz-adv-x="664" 
d="M198 258l-3 -16q0 -85 45 -133t122 -48q76 0 121 47q45 46 45 129h79q0 -119 -67 -185q-68 -66 -178 -66t-177 67t-67 189v15h-73v62h73v62h-73v62h73v16q0 121 68 189q67 67 177 67q111 0 179 -66t68 -185h-79q0 82 -45 129t-121 47q-77 0 -122 -48t-45 -133v-15h199
v-62h-199v-62h199v-62h-199z" />
    <glyph glyph-name="uni2113" unicode="&#x2113;" horiz-adv-x="428" 
d="M119 248l-79 -44v73l75 45v216q0 84 40 130q41 48 109 48q60 0 96 -39t36 -97q0 -72 -41 -137q-39 -63 -123 -119l-42 -28v-116q0 -70 20 -96t63 -26q25 0 48 9q25 9 45 28v-69q-22 -19 -48 -28t-57 -9q-73 0 -108 42q-34 40 -34 141v76zM266 648h-2q-38 0 -57 -27
q-19 -25 -19 -77v-173l21 14q60 39 89 87q29 47 29 102q0 34 -16 53q-17 21 -45 21z" />
    <glyph glyph-name="trademark" unicode="&#x2122;" horiz-adv-x="848" 
d="M206 323h-61v322h-111v58h281v-58h-109v-322zM415 323h-60v380h69l137 -277l140 277h65v-380h-60v265l-133 -265h-26l-132 270v-270z" />
    <glyph glyph-name="Omega" unicode="&#x2126;" horiz-adv-x="822" 
d="M347 0h-284v71h187q-98 59 -147 135t-49 170q0 142 102 240q104 98 251 98q150 0 254 -98q102 -98 102 -240q0 -95 -49 -171q-49 -75 -145 -135h187v-71h-283v89q103 48 157 120t54 164q0 111 -80 189t-195 78t-195 -78q-79 -78 -79 -188q0 -93 54 -165t158 -119v-89z
" />
    <glyph glyph-name="estimated" unicode="&#x212e;" horiz-adv-x="809" 
d="M413 33h-3q95 0 171 52q78 53 115 138h56q-46 -109 -138 -172t-203 -63q-149 0 -256 107q-106 106 -106 257q0 150 107 257t257 107q155 0 255 -105q101 -107 101 -276h-575v-211q41 -41 101 -67q57 -24 118 -24zM410 669v-1q-58 0 -118 -23q-57 -23 -100 -66v-199h430
v204q-42 41 -97 63q-53 22 -115 22z" />
    <glyph glyph-name="uni2153" unicode="&#x2153;" horiz-adv-x="710" 
d="M197 351h-60v294h-74l14 58h120v-352zM569 703h69l-536 -703h-70zM406 100l62 -4q2 -22 21 -39q19 -16 46 -16t47 17q18 16 18 42q0 29 -18 44t-50 15h-31v45h30q25 0 42 14q16 13 16 36q0 22 -15 36q-17 14 -40 14q-26 0 -42 -15q-17 -15 -18 -37h-61q3 45 36 74
q35 29 86 29q49 0 81 -26q31 -25 31 -65q0 -28 -13 -47q-12 -20 -37 -32q29 -11 44 -33t15 -54q0 -44 -34 -74t-90 -30t-90 30q-35 30 -36 76z" />
    <glyph glyph-name="uni2154" unicode="&#x2154;" horiz-adv-x="769" 
d="M301 351l-251 -2v49l138 130q23 23 32 38t9 32q0 23 -16 38q-17 15 -42 15q-28 0 -45 -17q-16 -16 -18 -42h-62q3 50 38 85q34 33 89 33q51 0 86 -29q33 -29 33 -77q0 -28 -14 -54t-54 -63l-84 -78h161v-58zM633 701h69l-536 -703h-70zM470 98l62 -4q2 -22 21 -39
q19 -16 46 -16t47 17q18 16 18 42q0 29 -18 44t-50 15h-31v45h30q25 0 42 14q16 13 16 36q0 22 -15 36q-17 14 -40 14q-26 0 -42 -15q-17 -15 -18 -37h-61q3 45 36 74q35 29 86 29q49 0 81 -26q31 -25 31 -65q0 -28 -13 -47q-12 -20 -37 -32q29 -11 44 -33t15 -54
q0 -44 -34 -74t-90 -30t-90 30q-35 30 -36 76z" />
    <glyph glyph-name="uni2155" unicode="&#x2155;" horiz-adv-x="708" 
d="M569 703h69l-536 -703h-70zM197 351h-60v294h-74l14 58h120v-352zM445 352l188 -2v-55h-138l-8 -83q4 2 11.5 4t11.5 3q12 3 24 3q56 0 87 -31q33 -31 33 -81t-36 -83t-88 -33q-53 0 -87 31q-36 31 -40 79h62q2 -23 20 -38t44 -15q29 0 48 18t19 43q0 26 -19 44t-48 18
q-17 0 -30 -6q-11 -4 -22 -17l-50 7z" />
    <glyph glyph-name="uni2156" unicode="&#x2156;" horiz-adv-x="762" 
d="M301 351l-251 -2v49l138 130q23 23 32 38t9 32q0 23 -16 38q-17 15 -42 15q-28 0 -45 -17q-16 -16 -18 -42h-62q3 50 38 85q34 33 89 33q51 0 86 -29q33 -29 33 -77q0 -28 -14 -54t-54 -63l-84 -78h161v-58zM628 701h69l-536 -703h-70zM504 350l188 -2v-55h-138l-8 -83
q4 2 11.5 4t11.5 3q12 3 24 3q56 0 87 -31q33 -31 33 -81t-36 -83t-88 -33q-53 0 -87 31q-36 31 -40 79h62q2 -23 20 -38t44 -15q28 0 48 18q19 18 19 43q0 26 -19 44q-20 18 -48 18q-16 0 -30 -6q-11 -4 -22 -17l-50 7z" />
    <glyph glyph-name="uni2157" unicode="&#x2157;" horiz-adv-x="737" 
d="M604 703h69l-536 -703h-70zM480 352l188 -2v-55h-138l-8 -83q4 2 11.5 4t11.5 3q12 3 24 3q56 0 87 -31q33 -31 33 -81t-36 -83t-88 -33q-53 0 -87 31q-36 31 -40 79h62q2 -23 20 -38t44 -15q28 0 48 18q19 18 19 43q0 26 -19 44q-20 18 -48 18q-16 0 -30 -6
q-11 -4 -22 -17l-50 7zM45 449l62 -4q1 -23 21 -39q19 -16 46 -16t47 17q18 17 18 42q0 29 -18 44t-50 15h-31v45h30q25 0 42 14q16 13 16 36t-15 36q-17 14 -40 14q-25 0 -42 -15t-18 -37h-61q3 45 36 74q35 29 86 29q49 0 81 -26q31 -25 31 -65q0 -28 -13 -47
q-12 -20 -37 -32q29 -11 44 -33q15 -23 15 -54q0 -44 -34 -74q-35 -30 -90 -30t-90 30t-36 76z" />
    <glyph glyph-name="uni2158" unicode="&#x2158;" horiz-adv-x="752" 
d="M35 471l141 232h70l-141 -225h108v68l60 14v-82h30v-56h-30v-71h-60v71h-178v49zM616 703h69l-536 -703h-70zM493 352l188 -2v-55h-138l-8 -83q4 2 11.5 4t11.5 3q12 3 24 3q56 0 87 -31q33 -31 33 -81t-36 -83t-88 -33q-53 0 -87 31q-36 31 -40 79h62q2 -23 20 -38
t44 -15q29 0 48 18t19 43q0 26 -19 44t-48 18q-17 0 -30 -6q-11 -4 -22 -17l-50 7z" />
    <glyph glyph-name="uni2159" unicode="&#x2159;" horiz-adv-x="686" 
d="M509 -6q-53 0 -90 36t-37 87q0 25 9 51t30 57l87 127h70l-89 -125q1 1 14 4q3 1 14 1q49 0 84 -33t35 -82q0 -51 -37 -87t-90 -36zM443 116l-2 -1q0 -29 19 -48t48 -19q28 0 48 20q19 19 19 48q0 28 -19 47q-20 20 -46 20q-29 0 -48 -19t-19 -48zM195 350h-60v294h-74
l14 58h120v-352zM567 702h69l-536 -703h-70z" />
    <glyph glyph-name="uni215A" unicode="&#x215a;" horiz-adv-x="719" 
d="M548 -6q-52 0 -90 36q-37 36 -37 87q0 25 9 51t30 57l87 127h70l-89 -125q1 1 14 4q3 1 14 1q50 0 84 -33q35 -33 35 -82q0 -51 -37 -87q-38 -36 -90 -36zM482 116l-2 -1q0 -29 19 -48t48 -19q28 0 48 20q19 19 19 48q0 28 -19 47q-20 20 -46 20q-29 0 -48 -19t-19 -48z
M605 702h69l-536 -703h-70zM78 702l188 -2v-55h-138l-8 -83q4 2 11.5 4t11.5 3q12 3 24 3q56 0 87 -31q33 -31 33 -81t-36 -83t-88 -33q-53 0 -87 31q-36 31 -40 79h62q2 -23 20 -38t44 -15q28 0 48 18q19 18 19 43q0 26 -19 44q-20 18 -48 18q-16 0 -30 -6q-11 -4 -22 -17
l-50 7z" />
    <glyph glyph-name="uni215B" unicode="&#x215b;" horiz-adv-x="708" 
d="M569 703h69l-536 -703h-70zM197 351h-60v294h-74l14 58h120v-352zM655 100v-1q0 -46 -36 -76t-91 -30t-91 30t-36 75q0 29 15 53q16 24 42 37q-21 13 -32 33t-11 44q0 38 32 65q31 27 81 27q49 0 81 -26t32 -65q0 -25 -12 -44q-12 -20 -33 -33q30 -13 44 -37
q15 -24 15 -52zM474 258l2 -1q0 -19 15 -33t39 -12q25 1 40 15q15 13 15 33q0 22 -16 35q-17 14 -42 14q-23 0 -38 -15t-15 -36zM463 100v-3q0 -23 18 -40q16 -16 48 -16q28 0 48 17q18 16 18 41q0 26 -18 44t-48 18t-48 -18t-18 -43z" />
    <glyph glyph-name="uni215C" unicode="&#x215c;" horiz-adv-x="739" 
d="M606 703h69l-536 -703h-70zM693 100v-1q0 -46 -36 -76t-91 -30t-91 30t-36 75q0 29 15 53q16 24 42 37q-21 13 -32 33t-11 44q0 38 32 65q31 27 81 27q49 0 81 -26t32 -65q0 -25 -12 -44q-12 -20 -33 -33q30 -13 44 -37q15 -24 15 -52zM512 258l2 -1q0 -19 15 -33t39 -12
q25 1 40 15q15 13 15 33q0 22 -16 35q-17 14 -42 14q-23 0 -38 -15t-15 -36zM501 100v-3q0 -23 18 -40q16 -16 48 -16q28 0 48 17q18 16 18 41q0 26 -18 44t-48 18t-48 -18t-18 -43zM46 446l62 -4q2 -22 21 -39q19 -16 46 -16t47 17q18 16 18 42q0 29 -18 44t-50 15h-31v45
h30q25 0 42 14q16 13 16 36q0 22 -15 36q-17 14 -40 14q-26 0 -42 -15q-17 -15 -18 -37h-61q3 45 36 74q35 29 86 29q49 0 81 -26q31 -25 31 -65q0 -28 -13 -47q-12 -20 -37 -32q29 -11 44 -33t15 -54q0 -44 -34 -74t-90 -30t-90 30q-35 30 -36 76z" />
    <glyph glyph-name="uni215D" unicode="&#x215d;" horiz-adv-x="740" 
d="M607 703h69l-536 -703h-70zM80 703l188 -2v-55h-138l-8 -83q4 2 11.5 4t11.5 3q12 3 24 3q56 0 87 -31q33 -32 33 -81q0 -50 -36 -83t-88 -33q-53 0 -87 31q-36 31 -40 79h62q2 -23 20 -38t44 -15q28 0 48 18q19 18 19 43q0 26 -19 44q-20 18 -48 18q-16 0 -30 -6
q-11 -4 -22 -17l-50 7zM693 98v-1q0 -46 -36 -76t-91 -30t-91 30t-36 75q0 29 15 53q16 24 42 37q-21 13 -32 33t-11 44q0 38 32 65q31 27 81 27q49 0 81 -26t32 -65q0 -24 -12 -44t-33 -33q30 -13 44 -37q15 -24 15 -52zM512 256l2 -1q0 -19 15 -33t39 -12q25 1 40 15
q15 13 15 33q0 22 -16 35q-17 14 -42 14q-23 0 -38 -15t-15 -36zM501 98v-3q0 -23 18 -40q16 -16 48 -16q28 0 48 17q18 17 18 41q0 26 -18 44t-48 18t-48 -18t-18 -43z" />
    <glyph glyph-name="uni215E" unicode="&#x215e;" horiz-adv-x="712" 
d="M239 645h-168v58h236v-49l-141 -303h-67zM570 703h69l-536 -703h-70zM661 100v-1q0 -46 -36 -76t-91 -30t-91 30t-36 75q0 29 15 53q16 24 42 37q-21 13 -32 33t-11 44q0 38 32 65q31 27 81 27q49 0 81 -26t32 -65q0 -25 -12 -44q-12 -20 -33 -33q30 -13 44 -37
q15 -24 15 -52zM480 258l2 -1q0 -19 15 -33t39 -12q25 1 40 15q15 13 15 33q0 22 -16 35q-17 14 -42 14q-23 0 -38 -15t-15 -36zM469 100v-3q0 -23 18 -40q16 -16 48 -16q28 0 48 17q18 16 18 41q0 26 -18 44t-48 18t-48 -18t-18 -43z" />
    <glyph glyph-name="uni215F" unicode="&#x215f;" horiz-adv-x="672" 
d="M211 351h-60v294h-74l14 58h120v-352zM581 703h69l-536 -703h-70z" />
    <glyph glyph-name="partialdiff" unicode="&#x2202;" horiz-adv-x="607" 
d="M31 241l-2 -1q0 100 71 174q71 72 173 72q63 0 117 -27q54 -26 86 -75q-25 141 -112 216t-231 81v70q206 -6 314 -133q108 -128 108 -355q0 -116 -76 -195q-77 -80 -189 -80q-107 0 -184 74q-75 74 -75 179zM479 240l-2 1q0 77 -54 129q-56 53 -133 53q-81 0 -133 -52
q-54 -53 -54 -129t54 -130t134 -54q78 0 134 53q54 53 54 129z" />
    <glyph glyph-name="Delta" unicode="&#x2206;" horiz-adv-x="649" 
d="M284 703h83l252 -645v-58h-588v58zM323 613l-206 -542h413z" />
    <glyph glyph-name="product" unicode="&#x220f;" horiz-adv-x="729" 
d="M216 0h-78v631h-102v72h657v-72h-102v-631h-78v631h-297v-631z" />
    <glyph glyph-name="summation" unicode="&#x2211;" horiz-adv-x="583" 
d="M38 647v56h495v-72h-392l209 -265l-211 -294h404v-72h-502v52l225 309z" />
    <glyph glyph-name="minus" unicode="&#x2212;" 
d="M62 321v60h446v-60h-446z" />
    <glyph glyph-name="uni2215" unicode="&#x2215;" horiz-adv-x="145" 
d="M306 703h69l-536 -703h-70z" />
    <glyph glyph-name="uni2219" unicode="&#x2219;" horiz-adv-x="410" 
d="M310 367v-2q0 -43 -30 -73t-75 -30q-43 0 -73 30t-30 74q0 42 29 74q29 30 74 30t75 -30t30 -73z" />
    <glyph glyph-name="radical" unicode="&#x221a;" horiz-adv-x="539" 
d="M300 0h-85l-123 369h-72v67h130l108 -337l190 604h77z" />
    <glyph glyph-name="infinity" unicode="&#x221e;" horiz-adv-x="794" 
d="M219 427v-1q55 0 101 -31t78 -90q32 60 77 90q43 31 98 31q68 0 116 -48t48 -119q0 -72 -48 -120t-117 -48q-51 0 -98 32q-45 31 -81 96q-35 -65 -78 -96q-44 -32 -96 -32q-69 0 -117 48t-48 120t48 120t117 48zM221 365l-2 -1q-44 0 -74 -30t-30 -76t30 -76t74 -30
q41 0 74 27t60 83q-22 49 -57 76q-34 27 -75 27zM572 152q44 0 74 30t30 76t-30 76t-74 30q-41 0 -75 -25q-35 -25 -60 -75q25 -56 60 -84q34 -28 75 -28z" />
    <glyph glyph-name="integral" unicode="&#x222b;" horiz-adv-x="392" 
d="M233 565l-4 -606q0 -96 -45 -141t-136 -45q-6 0 -28 2q-19 2 -31 5v67q4 -1 24 -4q8 -1 24 -1q60 0 89 29t29 90v605q0 94 44 141q43 45 135 45q9 0 31 -2q21 -2 30 -5v-66q-6 1 -11.5 2t-10.5 1.5t-7 0.5q-7 1 -18 1q-58 0 -87 -29q-28 -28 -28 -90z" />
    <glyph glyph-name="approxequal" unicode="&#x2248;" 
d="M303 468l-5 -3q33 -17 51 -21q22 -5 35 -5q31 0 54 14q22 13 51 54v-70q-19 -30 -46 -46q-25 -16 -63 -16q-22 0 -42 6t-54 24q-41 20 -52 23q-20 6 -39 6q-35 0 -63 -18t-51 -51v67q17 28 48 48q31 19 69 19q24 0 47 -6q27 -8 60 -25zM298 286l-5 -3q33 -17 51 -21
q22 -5 35 -5q31 0 54 14q23 13 51 54v-70q-19 -30 -46 -46q-25 -16 -63 -16q-23 0 -42 6t-54 24q-41 20 -52 23q-19 6 -39 6q-34 0 -63 -18t-51 -51v67q16 28 48 48q31 19 69 19q25 0 47 -6q27 -8 60 -25z" />
    <glyph glyph-name="notequal" unicode="&#x2260;" 
d="M193 134h-63l49 84h-117v60h152l84 144h-236v60h271l49 84h63l-49 -84h112v-60h-147l-84 -144h231v-60h-266z" />
    <glyph glyph-name="lessequal" unicode="&#x2264;" 
d="M476 153l-389 190v62l389 189v-73l-302 -147l302 -147v-74zM87 6v61h389v-61h-389z" />
    <glyph glyph-name="greaterequal" unicode="&#x2265;" 
d="M94 153v74l302 147l-302 147v73l389 -189v-62zM483 6h-389v61h389v-61z" />
    <glyph glyph-name="lozenge" unicode="&#x25ca;" horiz-adv-x="604" 
d="M277 -12l-242 377l243 350h47l244 -350l-242 -377h-50zM302 632l-187 -267l187 -291l187 291z" />
    <glyph glyph-name="zero.denominator" unicode="&#xf655;" horiz-adv-x="337" 
d="M298 231v-108q0 -61 -36 -96q-34 -34 -94 -34t-94 34q-36 35 -36 96v108q0 60 36 93t94 33t94 -33t36 -93zM168 301l-1 -2q-31 0 -49 -19q-18 -20 -18 -54v-104q0 -34 18 -54q18 -19 50 -19q31 0 51 20q19 19 19 54v104q0 35 -19 54q-20 20 -51 20z" />
    <glyph glyph-name="one.denominator" unicode="&#xf656;" horiz-adv-x="205" 
d="M151 0h-60v294h-74l14 58h120v-352z" />
    <glyph glyph-name="two.denominator" unicode="&#xf657;" horiz-adv-x="317" 
d="M286 0l-251 -2v49l138 130q23 23 32 38t9 32q0 23 -16 38t-42 15q-28 0 -45 -17t-18 -42h-62q3 50 38 85q35 33 89 33q51 0 86 -29q33 -28 33 -77q0 -28 -14 -54q-13 -25 -54 -63l-84 -78h161v-58z" />
    <glyph glyph-name="three.denominator" unicode="&#xf658;" horiz-adv-x="315" 
d="M30 100l62 -4q2 -22 21 -39q19 -16 46 -16t47 17q18 16 18 42q0 29 -18 44t-50 15h-31v45h30q25 0 42 14q16 13 16 36q0 22 -15 36q-17 14 -40 14q-26 0 -42 -15q-17 -15 -18 -37h-61q3 45 36 74q35 29 86 29q49 0 81 -26q31 -25 31 -65q0 -28 -13 -47q-12 -20 -37 -32
q29 -11 44 -33t15 -54q0 -44 -34 -74t-90 -30t-90 30q-35 30 -36 76z" />
    <glyph glyph-name="four.denominator" unicode="&#xf659;" horiz-adv-x="317" 
d="M23 120l141 232h70l-141 -225h108v68l60 14v-82h30v-56h-30v-71h-60v71h-178v49z" />
    <glyph glyph-name="five.denominator" unicode="&#xf65a;" horiz-adv-x="305" 
d="M67 352l188 -2v-55h-138l-8 -83q4 2 11.5 4t11.5 3q12 3 24 3q56 0 87 -31q33 -31 33 -81t-36 -83t-88 -33q-53 0 -87 31q-36 31 -40 79h62q2 -23 20 -38t44 -15q29 0 48 18t19 43q0 26 -19 44t-48 18q-17 0 -30 -6q-11 -4 -22 -17l-50 7z" />
    <glyph glyph-name="six.denominator" unicode="&#xf65b;" horiz-adv-x="305" 
d="M153 -6q-53 0 -90 36t-37 87q0 25 9 51t30 57l87 127h70l-89 -125q1 1 14 4q3 1 14 1q49 0 84 -33t35 -82q0 -51 -37 -87t-90 -36zM87 116l-2 -1q0 -29 19 -48t48 -19q28 0 48 20q19 19 19 48q0 28 -19 47q-20 20 -46 20q-29 0 -48 -19t-19 -48z" />
    <glyph glyph-name="seven.denominator" unicode="&#xf65c;" horiz-adv-x="281" 
d="M192 294h-168v58h236v-49l-141 -303h-67z" />
    <glyph glyph-name="eight.denominator" unicode="&#xf65d;" horiz-adv-x="321" 
d="M287 100v-1q0 -46 -36 -76t-91 -30t-91 30t-36 75q0 29 15 53q16 24 42 37q-21 13 -32 33t-11 44q0 38 32 65q31 27 81 27q49 0 81 -26t32 -65q0 -25 -12 -44q-12 -20 -33 -33q30 -13 44 -37q15 -24 15 -52zM106 258l2 -1q0 -19 15 -33t39 -12q25 1 40 15q15 13 15 33
q0 22 -16 35q-17 14 -42 14q-23 0 -38 -15t-15 -36zM95 100v-3q0 -23 18 -40q16 -16 48 -16q28 0 48 17q18 16 18 41q0 26 -18 44t-48 18t-48 -18t-18 -43z" />
    <glyph glyph-name="nine.denominator" unicode="&#xf65e;" horiz-adv-x="305" 
d="M152 358l-3 -1q53 0 90 -36t37 -87q0 -26 -9 -51t-30 -57l-87 -127h-70l89 125q-11 -4 -13 -4q-3 -1 -13 -1q-49 0 -84 33q-34 33 -34 83q0 51 37 87q38 36 90 36zM215 235v-1q0 29 -19 48t-48 19t-48 -19t-19 -48q0 -27 20 -47t47 -20q28 0 48 20q19 19 19 48z" />
    <glyph glyph-name="zero.numerator" unicode="&#xf661;" horiz-adv-x="337" 
d="M298 582v-108q0 -62 -36 -96q-34 -34 -94 -34t-94 34q-36 34 -36 96v108q0 60 36 93t94 33t94 -33t36 -93zM168 652l-1 -2q-31 0 -49 -19t-18 -54v-104q0 -35 18 -54t50 -19q31 0 51 20q19 19 19 54v104q0 35 -19 54q-20 20 -51 20z" />
    <glyph glyph-name="one.numerator" unicode="&#xf662;" horiz-adv-x="204" 
d="M150 351h-60v294h-74l14 58h120v-352z" />
    <glyph glyph-name="two.numerator" unicode="&#xf663;" horiz-adv-x="320" 
d="M287 351l-251 -2v49l138 130q23 23 32 38t9 32q0 23 -16 38q-17 15 -42 15q-28 0 -45 -17q-16 -16 -18 -42h-62q3 50 38 85q35 33 89 33q51 0 86 -29q33 -29 33 -77q0 -28 -14 -54t-54 -63l-84 -78h161v-58z" />
    <glyph glyph-name="three.numerator" unicode="&#xf664;" horiz-adv-x="315" 
d="M30 451l62 -4q2 -23 21 -39t46 -16t47 17q18 17 18 42q0 29 -18 44t-50 15h-31v45h30q25 0 42 14q16 13 16 36t-15 36q-17 14 -40 14q-26 0 -42 -15q-17 -15 -18 -37h-61q3 45 36 74q35 29 86 29q49 0 81 -26q31 -25 31 -65q0 -28 -13 -47q-12 -20 -37 -32q29 -11 44 -33
q15 -23 15 -54q0 -44 -34 -74t-90 -30t-90 30q-35 30 -36 76z" />
    <glyph glyph-name="four.numerator" unicode="&#xf665;" horiz-adv-x="317" 
d="M23 471l141 232h70l-141 -225h108v68l60 14v-82h30v-56h-30v-71h-60v71h-178v49z" />
    <glyph glyph-name="five.numerator" unicode="&#xf666;" horiz-adv-x="304" 
d="M66 703l188 -2v-55h-138l-8 -83q4 2 11.5 4t11.5 3q12 3 24 3q56 0 87 -31q33 -32 33 -81q0 -50 -36 -83t-88 -33q-53 0 -87 31q-36 31 -40 79h62q2 -23 20 -38t44 -15q28 0 48 18q19 18 19 43q0 26 -19 44q-20 18 -48 18q-16 0 -30 -6q-11 -4 -22 -17l-50 7z" />
    <glyph glyph-name="six.numerator" unicode="&#xf667;" horiz-adv-x="306" 
d="M154 345q-52 0 -90 36q-37 36 -37 87q0 26 9 51t30 57l87 127h70l-89 -125q1 1 14 4q3 1 14 1q50 0 84 -33q35 -33 35 -82q0 -51 -37 -87q-38 -36 -90 -36zM88 467l-2 -1q0 -29 19 -48t48 -19q28 0 48 20q19 19 19 48q0 28 -19 47q-20 20 -46 20q-29 0 -48 -19t-19 -48z
" />
    <glyph glyph-name="seven.numerator" unicode="&#xf668;" horiz-adv-x="280" 
d="M191 645h-168v58h236v-49l-141 -303h-67z" />
    <glyph glyph-name="eight.numerator" unicode="&#xf669;" horiz-adv-x="321" 
d="M287 451v-1q0 -46 -36 -76t-91 -30t-91 30t-36 75q0 29 15 53q16 24 42 37q-21 13 -32 33t-11 44q0 38 32 65q31 27 81 27q49 0 81 -26t32 -65q0 -25 -12 -44t-33 -33q30 -13 44 -37q15 -24 15 -52zM106 609l2 -1q0 -20 15 -33t39 -12q25 1 40 15t15 33q0 22 -16 35
q-17 14 -42 14q-23 0 -38 -15t-15 -36zM95 451v-3q0 -24 18 -40q16 -16 48 -16q28 0 48 17q18 17 18 41q0 26 -18 44t-48 18t-48 -18t-18 -43z" />
    <glyph glyph-name="nine.numerator" unicode="&#xf66a;" horiz-adv-x="306" 
d="M152 709l-3 -1q53 0 90 -36t37 -87q0 -25 -9 -51t-30 -57l-87 -127h-70l89 125q-11 -3 -13 -4q-3 -1 -13 -1q-49 0 -84 33q-34 33 -34 83q0 51 37 87q38 36 90 36zM215 586v-1q0 29 -19 48t-48 19t-48 -19t-19 -48q0 -27 20 -47t47 -20q28 0 48 20q19 19 19 48z" />
    <glyph glyph-name="commaaccent" unicode="&#xf6c3;" horiz-adv-x="155" 
d="M121 -132l-43 -109h-44l36 88q-16 3 -30 17q-12 14 -12 30q0 21 14 35t35 14t35 -14t14 -35q0 -8 -1 -11q-3 -14 -4 -15z" />
    <glyph glyph-name="uniF8FF" unicode="&#xf8ff;" horiz-adv-x="1438" 
d="M741 523v-36h31q3 0 9 -2q3 -1 3 -8v-27q0 -6 -3 -9t-9 -3h-31v-77q0 -9 6 -13q4 -4 18 -4h10q6 0 9 -3t3 -9v-27q0 -6 -3 -9t-9 -3h-19q-40 0 -60 14q-18 13 -18 47v84h-17q-6 0 -9 3t-3 9v25q0 1 2 7q1 3 9 5l16 1h1v36q0 6 3 9t9 3h39q7 0 10 -3t3 -10zM350 488l40 -2
q6 0 9 -3t3 -9v-6q15 11 30 17q17 5 29 5q17 0 30 -6q14 -6 21 -19q19 16 31 20q15 6 33 6q26 0 41 -15t15 -39v-132q0 -6 -3 -9t-10 -3h-38q-7 0 -10 3t-3 9v116q0 10 -3 13t-11 3q-11 0 -19 -4q-7 -4 -19 -12v-117q0 -6 -3 -9t-9 -3h-38q-7 0 -10 3t-3 9v116q0 10 -3 13
t-12 3q-11 0 -19 -4q-9 -3 -18 -10v-117q0 -3 -2 -9q-1 -3 -8 -3h-41q-6 0 -9 3t-3 9v171q0 6 3 9t9 3zM1019 486h36q7 0 10 -3t3 -9l1 -7q15 12 29 17q17 5 30 5q28 0 43 -15t15 -44v-80q0 -30 -15 -46t-43 -16q-13 0 -30 5q-14 5 -27 15v-83q0 -6 -3 -9t-9 -3h-40
q-6 0 -9 3t-3 9v249q0 6 3 9t9 3zM226 490l-1 -1q41 0 62 -15t21 -46v-43q0 -6 -3 -9t-9 -3h-93v-23q0 -8 6 -13q4 -4 18 -4q10 0 18 5q6 4 6 14v1q0 6 3 9t9 3h32q6 0 9 -3t3 -9v-3q0 -31 -20 -46q-19 -15 -60 -15t-63 16t-22 46v79q0 30 21 45t63 15zM1299 489l-3 -1
q41 0 62 -15t21 -46v-43q0 -6 -3 -9t-9 -3h-94v-23q0 -9 6 -13q4 -4 18 -4q10 0 18 5q6 4 6 14v1q0 6 3 9t9 3h32q6 0 9 -3t3 -9v-3q0 -31 -19 -46q-20 -15 -60 -15q-43 0 -62 16q-21 17 -21 46v79q0 30 21 45t63 15zM858 473l17 -71q3 -7 5 -22q0 -3 0.5 -5.5t1 -4t0.5 -3
v-2.5q1 1 4 13q1 4 2.5 11.5t3.5 11.5l24 72q2 8 5 9q6 2 8 2h37q7 0 10 -3q3 -5 2 -8l-84 -249q-2 -4 -5 -8q-3 -3 -8 -3h-28q-7 0 -10 3t-1 8l16 59l-65 190q-2 5 1 8t11 3h40q2 0 8 -2q3 -1 5 -9zM217 441v-2q-14 0 -18 -4q-6 -5 -6 -13v-11h48v11q0 9 -6 14q-8 5 -18 5z
M1291 439l1 -2q-14 0 -18 -4q-6 -5 -6 -13v-11h47v11q0 10 -6 14q-8 5 -18 5zM1099 335l1 1q9 0 13 4t4 13v62q0 8 -4 11q-5 3 -13 3t-15 -3q-5 -1 -22 -12v-63q6 -4 14 -7.5t10 -5.5q6 -3 12 -3zM561 224l-2 -41h47q3 0 3 -1v-3v-8q0 -3 -1 -4t-3 -1h-47v-124q0 -16 12 -25
t38 -9h6q2 0 3 -1q2 -2 2 -3v-7q0 -2 -1 -3t-3 -1h-9q-33 0 -50 11q-15 10 -15 36v126h-25q-2 0 -3 1t-1 4v7q0 2 1 3l3 3h25v41v4q0 1 3 1h11l3 -3zM407 187l-4 1q35 0 51 -12q17 -12 17 -36v-49q0 -2 -1 -3t-3 -1h-114v-48q0 -17 12 -24q14 -8 38 -8q22 0 36 8q12 7 12 24
v8q0 2 1 3t6 1h9q3 0 4 -1t1 -3v-9q0 -25 -17 -37t-51 -12t-51 12t-17 36v102q0 24 18 36t53 12zM153 181l3 -21q16 12 33 18t33 6q26 0 39 -12q14 -12 14 -33v-144q0 -2 -1 -3t-3 -1h-11h-3q-1 0 -1 5v140q0 16 -10 23q-11 8 -30 8t-35 -6q-17 -6 -27 -16v-148q0 -2 -1 -3
t-3 -1h-11q-3 0 -4 1t-1 4v183q0 2 1 3t4 1h9q3 0 4 -1t1 -3zM406 167h-1q-23 0 -37 -8q-12 -7 -12 -24v-36h98v36q0 17 -12 24q-14 8 -36 8zM71 24v-30q0 -3 -1 -4t-4 -1h-11q-2 0 -3 1t-1 4v30q0 3 1 4t3 1h11q3 0 4 -1t1 -4z" />
    <glyph glyph-name="f_f" unicode="&#xfb00;" horiz-adv-x="682" 
d="M192 0l-77 2v437h-89v67h89v59q0 93 45 141t132 48q11 0 33 -2q21 -2 30 -5v-67q-17 4 -27 6q-7 1 -23 1q-59 0 -87 -30q-28 -28 -28 -94v-58h260v59q0 93 45 141t132 48q11 0 33 -2q21 -2 30 -5v-67q-16 5 -27 6q-7 1 -23 1q-59 0 -86 -30t-27 -94v-58h142v-67h-142
v-437h-75v437h-260v-437z" />
    <glyph glyph-name="fi" unicode="&#xfb01;" horiz-adv-x="597" 
d="M192 0l-76 1v437h-89v67h89v59q0 93 45 141t132 48q20 0 31 -1q22 -2 27 -4v-67q-3 2 -21 4q-7 1 -23 1q-59 0 -87 -30q-28 -28 -28 -94v-58h142v-67h-142v-437zM415 670h-3q0 22 15 39q15 16 41 16q25 0 41 -16q17 -17 17 -39q0 -23 -16 -39t-40 -16q-25 0 -40 16
q-15 17 -15 39zM506 1h-76v504h76v-504z" />
    <glyph glyph-name="fl" unicode="&#xfb02;" horiz-adv-x="597" 
d="M192 0l-76 1v437h-89v67h89v59q0 93 45 141t132 48q20 0 31 -1q22 -2 27 -4v-67q-3 2 -21 4q-7 1 -23 1q-59 0 -87 -30q-28 -28 -28 -94v-58h142v-67h-142v-437zM433 742h76v-741h-76v741z" />
    <glyph glyph-name="f_f_i" unicode="&#xfb03;" horiz-adv-x="932" 
d="M192 0l-78 2v437h-89v67h89v59q0 93 45 141t132 48q11 0 33 -2q21 -2 30 -5v-67q-16 4 -27 6q-7 1 -23 1q-58 0 -87 -30q-28 -28 -28 -94v-58h260v59q0 93 45 141t132 48q20 0 31 -1q22 -2 27 -4v-67q-4 2 -21 4q-7 1 -23 1q-59 0 -86 -30t-27 -94v-58h142v-67h-142v-437
h-75v437h-260v-437zM748 671h-3q0 23 15 39t41 16q25 0 41 -16q17 -17 17 -39q0 -23 -16 -39t-40 -16q-25 0 -40 16t-15 39zM839 2h-76v504h76v-504z" />
    <glyph glyph-name="f_f_l" unicode="&#xfb04;" horiz-adv-x="932" 
d="M192 0l-78 2v437h-89v67h89v59q0 93 45 141t132 48q11 0 33 -2q21 -2 30 -5v-67q-16 4 -27 6q-7 1 -23 1q-58 0 -87 -30q-28 -28 -28 -94v-58h260v59q0 93 45 141t132 48q20 0 31 -1q22 -2 27 -4v-67q-4 2 -21 4q-7 1 -23 1q-59 0 -86 -30t-27 -94v-58h142v-67h-142v-437
h-75v437h-260v-437zM766 743h76v-741h-76v741z" />
    <glyph glyph-name="longs_t" unicode="&#xfb05;" horiz-adv-x="638" 
d="M160 0h-76v566q0 96 45 141t136 45q8 0 30 -2q19 -2 29 -5v-66q-32 5 -33 5h-15q-59 0 -88 -29q-28 -28 -28 -90v-565zM376 504l-3 161l75 18v-179h142v-67h-142v-271q0 -62 21 -86t68 -24q20 0 38 6t38 20v-68q-24 -15 -42 -20q-21 -6 -48 -6q-75 0 -111 42t-36 131v276
h-87v67h87z" />
    <glyph glyph-name="zero.tab" unicode="&#xff10;" horiz-adv-x="600" 
d="M547 243h-1q0 -121 -68 -189q-67 -67 -179 -67t-180 68t-68 188v218q0 119 69 187q67 67 180 67q112 0 179 -67q68 -68 68 -187v-218zM298 640l-1 4q-78 0 -123 -48t-45 -133v-217q0 -85 45 -133t123 -48q80 0 125 47q45 46 45 132v217q0 85 -45 132t-124 47z" />
    <glyph glyph-name="one.tab" unicode="&#xff11;" horiz-adv-x="600" 
d="M523 0h-423v71h171v560h-156l19 72h216v-632h173v-71z" />
    <glyph glyph-name="two.tab" unicode="&#xff12;" horiz-adv-x="600" 
d="M547 0l-491 -2v61l294 281q53 51 74 89q21 37 21 80q0 57 -40 93q-41 36 -106 36q-70 0 -117 -44q-45 -45 -49 -114h-80q4 103 72 169q67 66 177 66q102 0 163 -55q63 -56 63 -144q0 -59 -27 -110q-27 -50 -102 -122l-223 -212h371v-72z" />
    <glyph glyph-name="three.tab" unicode="&#xff13;" horiz-adv-x="600" 
d="M55 197l75 -2q1 -58 48 -97q46 -39 116 -39q66 0 113 41q45 40 45 101q0 65 -42 102q-44 38 -113 38h-73v59h76q57 0 95 35q36 35 36 89q0 51 -39 84t-100 33q-64 0 -101 -34q-39 -34 -41 -87h-79q3 82 66 138q65 56 160 56q97 0 155 -52q60 -52 60 -129q0 -57 -28 -97
q-28 -42 -81 -63q64 -19 99 -67q34 -46 34 -112q0 -87 -66 -147t-171 -60t-172 60t-72 150z" />
    <glyph glyph-name="four.tab" unicode="&#xff14;" horiz-adv-x="600" 
d="M37 221l297 482h91l-293 -471h274v167l76 18v-185h77v-71h-77v-161h-76v161h-369v60z" />
    <glyph glyph-name="five.tab" unicode="&#xff15;" horiz-adv-x="600" 
d="M136 703l359 -1v-72h-297l-21 -219q30 17 60 26q33 9 68 9q103 0 168 -62q63 -62 63 -165q0 -97 -69 -165q-67 -67 -171 -67q-100 0 -171 63q-70 63 -75 158h80q4 -63 51 -105t114 -42t117 47q48 47 48 113q0 71 -45 114q-47 44 -118 44q-47 0 -78 -16q-33 -17 -54 -48
l-64 8z" />
    <glyph glyph-name="six.tab" unicode="&#xff16;" horiz-adv-x="600" 
d="M308 -12h2q-104 0 -174 70q-71 71 -71 171q0 49 18 102q17 49 53 102l189 269h91l-197 -270q24 14 51 21q24 7 56 7q94 0 162 -68q67 -67 67 -165t-72 -169q-70 -70 -175 -70zM142 227h-2q0 -71 48 -120t119 -49t120 49t49 120q0 69 -48 117t-119 48t-119 -48t-48 -117z
" />
    <glyph glyph-name="seven.tab" unicode="&#xff17;" horiz-adv-x="600" 
d="M441 631h-372v72h462v-62l-304 -641h-87z" />
    <glyph glyph-name="eight.tab" unicode="&#xff18;" horiz-adv-x="600" 
d="M540 196l-1 -3q0 -88 -67 -148q-68 -60 -174 -60t-174 60q-67 60 -67 149q0 58 33 108t90 75q-44 24 -68 65q-24 40 -24 89q0 77 60 130q58 52 154 52q94 0 152 -52q59 -53 59 -129q0 -49 -25 -89q-26 -41 -69 -66q57 -26 89 -74q32 -50 32 -107zM161 525h-2
q0 -53 39 -87q37 -34 102 -34q59 0 100 35q39 35 39 86q0 52 -38 87q-37 34 -99 34q-65 0 -102 -34q-39 -34 -39 -87zM134 197l2 -1q0 -62 45 -102q47 -41 117 -41t117 41q45 40 45 102t-45 102q-47 41 -118 41q-75 0 -118 -40q-45 -41 -45 -102z" />
    <glyph glyph-name="nine.tab" unicode="&#xff19;" horiz-adv-x="600" 
d="M293 715h-2q104 0 174 -70q71 -71 71 -171q0 -50 -18 -102q-17 -49 -53 -102l-189 -269h-91l197 270q-24 -13 -51 -21q-24 -7 -56 -7q-94 0 -162 68q-67 67 -67 165t72 169q70 70 175 70zM459 476h2q0 70 -48 120q-48 49 -119 49t-120 -49t-49 -120q0 -69 48 -117
t119 -48t119 48t48 117z" />
    <glyph glyph-name="Lgeminada" horiz-adv-x="1047" 
d="M505 0h-408v703h78v-631h330v-72zM459 363h1q0 -25 -18 -43t-43 -18t-43 18t-18 43t17 42t42 17q24 0 44 -17q18 -17 18 -42zM1030 0h-408v703h78v-631h330v-72z" />
    <glyph glyph-name="lgeminada" horiz-adv-x="586" 
d="M87 741h76v-741h-76v741zM354 363h1q0 -25 -18 -43t-43 -18t-43 18t-18 43t17 42t42 17q24 0 44 -17q18 -17 18 -42zM424 741h76v-741h-76v741z" />
    <glyph glyph-name="caron.salt" horiz-adv-x="188" 
d="M140 662l-43 -123h-49l41 111q-20 2 -31 17q-12 15 -12 34q0 22 15 37t37 15t37 -15t15 -37q0 -1 -2 -15q-1 -4 -8 -24z" />
    <glyph glyph-name="commaaccent.salt" horiz-adv-x="198" 
d="M42 664l43 110h45l-37 -89q19 -3 29 -16q11 -14 11 -30q0 -19 -14 -33t-35 -14t-35 14t-14 33q0 2 2 12q2 8 5 13z" />
    <glyph glyph-name="acute.case" horiz-adv-x="283" 
d="M128 766h-72l80 144h73z" />
    <glyph glyph-name="grave.case" horiz-adv-x="283" 
d="M133 766l-81 144h73l80 -144h-72z" />
    <glyph glyph-name="hungarumlaut.case" horiz-adv-x="321" 
d="M128 910h69l-73 -144h-68zM238 910h69l-73 -144h-69z" />
    <glyph glyph-name="circumflex.case" horiz-adv-x="335" 
d="M36 766l112 144h67l113 -144h-68l-78 100l-79 -100h-67z" />
    <glyph glyph-name="caron.case" horiz-adv-x="335" 
d="M34 910h67l79 -100l78 100h68l-113 -144h-67z" />
    <glyph glyph-name="breve.case" horiz-adv-x="365" 
d="M186 758l1 -1q-60 0 -99 39t-39 101h56q0 -44 22 -66q23 -24 60 -24t60 24q22 22 22 66h56q0 -61 -39 -100t-100 -39z" />
    <glyph glyph-name="tilde.case" horiz-adv-x="387" 
d="M222 850l-2 -6q13 -13 23 -19q7 -4 15 -4q16 0 23 13t12 46h51q-5 -58 -26 -85t-61 -27q-17 0 -35 8q-15 8 -36 30q-15 15 -25 21q-12 5 -19 5q-20 0 -30 -15t-15 -47h-51q4 58 30 88t69 30q22 0 36 -7q17 -7 41 -31z" />
    <glyph glyph-name="macron.case" horiz-adv-x="373" 
d="M315 796h-263v53h263v-53z" />
    <glyph glyph-name="dieresis.case" horiz-adv-x="319" 
d="M145 830l-1 -2q0 -20 -13 -33t-33 -13q-19 0 -33 14q-13 13 -13 33q0 19 14 33t33 14q20 0 33 -13t13 -33zM282 828l-1 -1q0 -19 -14 -33q-13 -13 -33 -13q-19 0 -33 14q-13 13 -13 33q0 19 14 33q13 13 33 13t33 -13q14 -14 14 -33z" />
    <glyph glyph-name="dotaccent.case" horiz-adv-x="256" 
d="M156 833v-1q0 -21 -15 -36t-36 -15q-22 0 -37 15t-15 36q0 23 15 38t37 15q21 0 36 -15t15 -37z" />
    <glyph glyph-name="ring.case" horiz-adv-x="318" 
d="M239 851q0 -39 -28 -66q-29 -27 -69 -27t-69 27q-28 27 -28 66q0 38 28 65q29 27 69 27t68 -27q29 -27 29 -65zM94 851h-1q0 -20 15 -35t35 -15t35 15t15 35t-15 35t-35 15q-19 0 -34 -15t-15 -35z" />
    <glyph glyph-name="G.alt" horiz-adv-x="798" 
d="M661 286l-260 2v62h347v-12q0 -158 -96 -253q-94 -94 -249 -94q-150 0 -252 105t-102 258q0 150 104 257q103 105 255 105q120 0 211 -67q93 -67 128 -177h-85q-33 77 -101 122q-67 45 -153 45q-118 0 -197 -84q-80 -86 -80 -204q0 -121 78 -205t194 -84q105 0 176 59
q69 59 82 165z" />
    <glyph glyph-name="Gcircumflex.alt" horiz-adv-x="798" 
d="M256 766l112 144h67l113 -144h-68l-78 100l-79 -100h-67zM661 286l-260 2v62h347v-12q0 -158 -96 -253q-94 -94 -249 -94q-150 0 -252 105t-102 258q0 150 104 257q103 105 255 105q120 0 211 -67q93 -67 128 -177h-85q-33 77 -101 122q-67 45 -153 45q-118 0 -197 -84
q-80 -86 -80 -204q0 -121 78 -205t194 -84q105 0 176 59q69 59 82 165z" />
    <glyph glyph-name="Gbreve.alt" horiz-adv-x="798" 
d="M661 286l-260 2v62h347v-12q0 -158 -96 -253q-94 -94 -249 -94q-150 0 -252 105t-102 258q0 150 104 257q103 105 255 105q120 0 211 -67q93 -67 128 -177h-85q-33 77 -101 122q-67 45 -153 45q-118 0 -197 -84q-80 -86 -80 -204q0 -121 78 -205t194 -84q105 0 176 59
q69 59 82 165zM402 760l1 -1q-60 0 -99 39t-39 101h56q0 -44 22 -66q23 -24 60 -24t60 24q22 22 22 66h56q0 -61 -39 -100t-100 -39z" />
    <glyph glyph-name="Gdotaccent.alt" horiz-adv-x="798" 
d="M453 833v-1q0 -21 -15 -36t-36 -15q-22 0 -37 15t-15 36q0 23 15 38t37 15q21 0 36 -15t15 -37zM661 285l-260 2v62h347v-12q0 -159 -96 -253q-94 -94 -249 -94q-150 0 -252 105t-102 258q0 150 104 257q103 105 255 105q120 0 211 -67q93 -67 128 -177h-85
q-33 77 -101 122q-67 45 -153 45q-118 0 -197 -84q-80 -86 -80 -204q0 -121 78 -205t194 -84q105 0 176 59q69 59 82 165z" />
    <glyph glyph-name="uni0122.alt" horiz-adv-x="798" 
d="M443 -138l-43 -109h-44l36 88q-16 3 -30 17q-12 14 -12 30q0 21 14 35t35 14t35 -14t14 -35q0 -8 -1 -11q-3 -14 -4 -15zM661 286l-260 2v62h347v-12q0 -158 -96 -253q-94 -94 -249 -94q-150 0 -252 105t-102 258q0 150 104 257q103 105 255 105q120 0 211 -67
q93 -67 128 -177h-85q-33 77 -101 122q-67 45 -153 45q-118 0 -197 -84q-80 -86 -80 -204q0 -121 78 -205t194 -84q105 0 176 59q69 59 82 165z" />
    <glyph glyph-name="a.alt" horiz-adv-x="663" 
d="M299 -12l1 -2q-110 0 -183 75q-73 73 -73 188q0 112 74 189q73 76 183 76q65 0 119 -30t87 -84v103h72v-504h-72v104q-33 -55 -88 -85t-120 -30zM122 250h-3q0 -80 56 -139q55 -57 138 -57q81 0 137 57q56 59 56 139q0 84 -55 139q-55 57 -136 57q-83 0 -138 -57
q-55 -55 -55 -139z" />
    <glyph glyph-name="agrave.alt" horiz-adv-x="663" 
d="M299 -12l1 -2q-110 0 -183 75q-73 73 -73 188q0 112 74 189q73 76 183 76q65 0 119 -30t87 -84v103h72v-504h-72v104q-33 -55 -88 -85t-120 -30zM122 250h-3q0 -80 56 -139q55 -57 138 -57q81 0 137 57q56 59 56 139q0 84 -55 139q-55 57 -136 57q-83 0 -138 -57
q-55 -55 -55 -139zM283 571l-81 144h73l80 -144h-72z" />
    <glyph glyph-name="aacute.alt" horiz-adv-x="663" 
d="M359 573h-72l80 144h73zM299 -12l1 -2q-110 0 -183 75q-73 73 -73 188q0 112 74 189q73 76 183 76q65 0 119 -30t87 -84v103h72v-504h-72v104q-33 -55 -88 -85t-120 -30zM122 250h-3q0 -80 56 -139q55 -57 138 -57q81 0 137 57q56 59 56 139q0 84 -55 139q-55 57 -136 57
q-83 0 -138 -57q-55 -55 -55 -139z" />
    <glyph glyph-name="acircumflex.alt" horiz-adv-x="663" 
d="M176 573l112 144h67l113 -144h-68l-78 100l-79 -100h-67zM299 -12l1 -2q-110 0 -183 75q-73 73 -73 188q0 112 74 189q73 76 183 76q65 0 119 -30t87 -84v103h72v-504h-72v104q-33 -55 -88 -85t-120 -30zM122 250h-3q0 -80 56 -139q55 -57 138 -57q81 0 137 57
q56 59 56 139q0 84 -55 139q-55 57 -136 57q-83 0 -138 -57q-55 -55 -55 -139z" />
    <glyph glyph-name="atilde.alt" horiz-adv-x="663" 
d="M299 -12l1 -2q-110 0 -183 75q-73 73 -73 188q0 112 74 189q73 76 183 76q65 0 119 -30t87 -84v103h72v-504h-72v104q-33 -55 -88 -85t-120 -30zM122 250h-3q0 -80 56 -139q55 -57 138 -57q81 0 137 57q56 59 56 139q0 84 -55 139q-55 57 -136 57q-83 0 -138 -57
q-55 -55 -55 -139zM345 660l-2 -6q13 -13 23 -19q7 -4 15 -4q16 0 23 13t12 46h51q-5 -58 -26 -85t-61 -27q-17 0 -35 8q-15 8 -36 30q-15 15 -25 21q-12 5 -19 5q-19 0 -30 -15q-10 -15 -15 -47h-51q4 58 30 88q25 30 69 30q22 0 36 -7q17 -7 41 -31z" />
    <glyph glyph-name="adieresis.alt" horiz-adv-x="663" 
d="M300 639l-1 -2q0 -20 -13 -33t-33 -13q-19 0 -33 14q-13 13 -13 33q0 19 14 33t33 14q20 0 33 -13t13 -33zM437 637l-1 -1q0 -19 -14 -33q-13 -13 -33 -13q-19 0 -33 14q-13 13 -13 33q0 19 14 33q13 13 33 13t33 -13q14 -14 14 -33zM297 -15l1 -2q-110 0 -183 75
q-73 73 -73 188q0 112 74 189q73 76 183 76q65 0 119 -30t87 -84v103h72v-504h-72v104q-33 -55 -88 -85t-120 -30zM120 247h-3q0 -80 56 -139q55 -57 138 -57q81 0 137 57q56 59 56 139q0 84 -55 139q-55 57 -136 57q-83 0 -138 -57q-55 -55 -55 -139z" />
    <glyph glyph-name="aring.alt" horiz-adv-x="663" 
d="M418 659q0 -39 -28 -66t-69 -27t-69 27t-28 66q0 38 28 65t69 27q39 0 68 -27t29 -65zM273 659h-1q0 -20 15 -35t35 -15t35 15t15 35t-15 35t-35 15q-19 0 -34 -15t-15 -35zM298 -12l1 -2q-109 0 -183 75q-73 73 -73 188q0 112 74 189q73 76 183 76q65 0 119 -30t87 -84
v103h72v-504h-72v104q-33 -55 -88 -85q-56 -30 -120 -30zM121 250h-3q0 -80 56 -139q56 -57 138 -57t137 57q56 59 56 139q0 84 -55 139q-56 57 -136 57q-82 0 -138 -57q-55 -55 -55 -139z" />
    <glyph glyph-name="amacron.alt" horiz-adv-x="663" 
d="M299 -12l1 -2q-110 0 -183 75q-73 73 -73 188q0 112 74 189q73 76 183 76q65 0 119 -30t87 -84v103h72v-504h-72v104q-33 -55 -88 -85t-120 -30zM122 250h-3q0 -80 56 -139q55 -57 138 -57q81 0 137 57q56 59 56 139q0 84 -55 139q-55 57 -136 57q-83 0 -138 -57
q-55 -55 -55 -139zM452 603h-263v53h263v-53z" />
    <glyph glyph-name="abreve.alt" horiz-adv-x="663" 
d="M299 -12l1 -2q-110 0 -183 75q-73 73 -73 188q0 112 74 189q73 76 183 76q65 0 119 -30t87 -84v103h72v-504h-72v104q-33 -55 -88 -85t-120 -30zM122 250h-3q0 -80 56 -139q55 -57 138 -57q81 0 137 57q56 59 56 139q0 84 -55 139q-55 57 -136 57q-83 0 -138 -57
q-55 -55 -55 -139zM320 564l1 -1q-60 0 -99 39t-39 101h56q0 -44 22 -66q23 -24 60 -24t60 24q22 22 22 66h56q0 -61 -39 -100t-100 -39z" />
    <glyph glyph-name="aogonek.alt" horiz-adv-x="663" 
d="M299 -12v-4q-109 0 -183 75q-73 73 -73 188q0 112 74 189q73 76 183 76q65 0 119 -30t87 -84v103h72v-504h-8q-47 -54 -69 -89q-20 -32 -20 -56q0 -22 12 -34t35 -12q11 0 23 3t23 9v-53q-14 -9 -29 -13q-12 -4 -32 -4q-40 0 -69 26q-28 25 -28 63q0 34 18 67
q20 36 73 96v103q-33 -55 -88 -85t-120 -30zM121 248h-3q0 -80 56 -139q56 -57 138 -57t137 57q56 59 56 139q0 84 -55 139q-56 57 -136 57q-82 0 -138 -57q-55 -55 -55 -139z" />
    </font>
</defs>
</svg>
